<?xml version="1.0" encoding="utf-8" standalone="no"?>
<!DOCTYPE svg PUBLIC "-//W3C//DTD SVG 1.1//EN"
  "http://www.w3.org/Graphics/SVG/1.1/DTD/svg11.dtd">
<svg xmlns:xlink="http://www.w3.org/1999/xlink" width="385.344534pt" height="325.98848pt" viewBox="0 0 385.344534 325.98848" xmlns="http://www.w3.org/2000/svg" version="1.1">
 <metadata>
  <rdf:RDF xmlns:dc="http://purl.org/dc/elements/1.1/" xmlns:cc="http://creativecommons.org/ns#" xmlns:rdf="http://www.w3.org/1999/02/22-rdf-syntax-ns#">
   <cc:Work>
    <dc:type rdf:resource="http://purl.org/dc/dcmitype/StillImage"/>
    <dc:date>2026-07-12T17:29:54.111115</dc:date>
    <dc:format>image/svg+xml</dc:format>
    <dc:creator>
     <cc:Agent>
      <dc:title>Matplotlib v3.10.8, https://matplotlib.org/</dc:title>
     </cc:Agent>
    </dc:creator>
   </cc:Work>
  </rdf:RDF>
 </metadata>
 <defs>
  <style type="text/css">*{stroke-linejoin: round; stroke-linecap: butt}</style>
 </defs>
 <g id="figure_1">
  <g id="patch_1">
   <path d="M 0 325.98848 
L 385.344534 325.98848 
L 385.344534 0 
L 0 0 
z
" style="fill: #ffffff"/>
  </g>
  <g id="axes_1">
   <g id="patch_2">
    <path d="M 41.556855 288.306028 
L 327.252855 288.306028 
L 327.252855 22.194028 
L 41.556855 22.194028 
z
" style="fill: #ffffff"/>
   </g>
   <g id="TriContourSet_1">
    <path d="M 184.404855 288.306028 
L 220.116855 288.306028 
L 237.972855 288.306028 
L 255.828855 288.306028 
L 273.684855 288.306028 
L 291.540855 288.306028 
L 309.396855 288.306028 
L 327.252855 288.306028 
L 327.252855 271.674028 
L 327.252855 255.042028 
L 327.252855 238.410028 
L 327.252855 221.778028 
L 327.252855 188.514028 
L 327.252855 171.882028 
L 327.252855 155.250028 
L 327.252855 138.618028 
L 327.252855 121.986028 
L 327.252855 105.354028 
L 327.252855 88.722028 
L 327.252855 72.090028 
L 327.252855 55.458028 
L 327.252855 22.194028 
L 309.396855 22.194028 
L 291.540855 22.194028 
L 273.684855 22.194028 
L 255.828855 22.194028 
L 220.116855 22.194028 
L 184.404855 22.194028 
L 166.548855 22.194028 
L 148.692855 22.194028 
L 130.836855 22.194028 
L 112.980855 22.194028 
L 95.124855 22.194028 
L 77.268855 22.194028 
L 41.556855 22.194028 
L 41.556855 38.826028 
L 41.556855 55.458028 
L 41.556855 72.090028 
L 41.556855 88.722028 
L 41.556855 105.354028 
L 41.556855 121.986028 
L 41.556855 138.618028 
L 41.556855 155.250028 
L 41.556855 171.882028 
L 41.556855 188.514028 
L 41.556855 205.146028 
L 41.556855 221.778028 
L 41.556855 238.410028 
L 41.556855 255.042028 
L 41.556855 288.306028 
L 59.412855 288.306028 
L 77.268855 288.306028 
L 95.124855 288.306028 
L 112.980855 288.306028 
L 130.836855 288.306028 
L 148.692855 288.306028 
L 166.548855 288.306028 
z
M 262.654566 273.787194 
L 242.691225 276.551537 
L 242.179961 276.551537 
L 240.255124 276.698091 
L 228.3128 277.737021 
L 218.691851 278.218067 
L 213.936546 278.429138 
L 208.209265 278.547035 
L 201.242601 278.701013 
L 200.142247 278.753379 
L 194.061432 278.839961 
L 188.236081 278.890983 
L 177.691402 278.8583 
L 172.593453 278.8583 
L 159.192204 278.552361 
L 159.080659 278.552361 
L 146.518512 277.947566 
L 145.232119 277.947566 
L 133.531709 277.286462 
L 125.983282 276.633998 
L 123.125008 276.253209 
L 112.524637 274.820003 
L 110.343549 274.556328 
L 109.871376 274.556328 
L 109.321885 274.468365 
L 105.207298 273.433259 
L 88.209138 269.547425 
L 86.552423 268.688695 
L 71.176921 258.157093 
L 70.615177 257.681217 
L 70.015579 256.794624 
L 64.564322 250.71455 
L 62.882787 245.389451 
L 59.80031 239.411015 
L 57.511089 229.003995 
L 56.953703 227.47246 
L 56.203244 223.658734 
L 54.625827 214.983355 
L 54.625827 211.940701 
L 53.406672 200.516563 
L 53.034229 197.130505 
L 52.911786 196.386231 
L 52.565911 189.758872 
L 52.115009 180.858054 
L 52.115009 179.538002 
L 51.679579 164.330472 
L 51.679579 162.801584 
L 51.69851 149.402356 
L 51.69851 145.542233 
L 52.092597 131.053783 
L 52.092597 129.550273 
L 52.793834 119.031573 
L 53.400315 108.744592 
L 53.572276 107.490165 
L 54.502828 100.105618 
L 54.502828 96.146624 
L 56.38979 85.460295 
L 56.528854 84.590741 
L 56.606236 84.359905 
L 57.026786 83.042515 
L 60.3349 69.210529 
L 67.030086 58.661275 
L 69.007353 53.762939 
L 72.660045 49.885286 
L 81.351948 45.594626 
L 86.247407 42.122533 
L 89.572881 40.894713 
L 93.95583 39.032978 
L 100.905048 38.060544 
L 106.53385 36.436322 
L 120.949459 34.606276 
L 122.125848 34.33577 
L 123.689038 34.123367 
L 140.035499 32.77955 
L 152.542969 32.347575 
L 158.40736 31.945856 
L 166.19441 31.751206 
L 173.472693 31.635976 
L 177.481016 31.635976 
L 185.315515 31.626473 
L 198.832402 31.730835 
L 202.669064 31.83566 
L 211.233944 32.067611 
L 215.018768 32.138212 
L 227.970388 32.986029 
L 238.307957 33.354008 
L 245.572683 34.304526 
L 255.402368 35.374194 
L 257.611066 35.972682 
L 270.745362 38.118403 
L 273.337594 39.303334 
L 282.888505 41.951007 
L 290.679371 46.058989 
L 294.302797 49.162965 
L 299.213435 52.887217 
L 301.397014 56.832643 
L 305.882712 63.633549 
L 306.237618 65.477952 
L 308.362963 72.198527 
L 310.99078 79.793378 
L 311.553485 81.371404 
L 313.6783 93.560387 
L 314.29456 97.444824 
L 315.033542 105.061075 
L 316.023838 116.053338 
L 316.023838 117.2946 
L 316.843564 130.182588 
L 316.843564 136.130126 
L 317.004453 143.158329 
L 317.148195 147.94209 
L 317.149203 159.015249 
L 317.147891 162.850779 
L 317.147891 164.281277 
L 316.699537 179.608033 
L 316.699537 180.819425 
L 316.471461 185.204904 
L 315.986869 194.006059 
L 315.655676 196.731649 
L 315.088331 205.267215 
L 314.540233 212.528481 
L 313.854387 216.135219 
L 312.542396 225.011483 
L 311.575094 228.130631 
L 309.368505 238.365694 
L 307.811674 241.396521 
L 303.236767 251.981522 
L 301.193006 254.602925 
L 295.410596 261.021283 
L 291.245159 263.393438 
L 288.700102 265.619034 
L 285.527315 266.520747 
L 277.472475 270.641153 
L 264.854269 273.501185 
L 263.424066 273.787194 
z
" clip-path="url(#pba5e2b456b)" style="fill: #4332ca"/>
    <path d="M 263.424066 273.787194 
L 264.854269 273.501185 
L 277.472475 270.641153 
L 285.527315 266.520747 
L 288.700102 265.619034 
L 291.245159 263.393438 
L 295.410596 261.021283 
L 301.193006 254.602925 
L 303.236767 251.981522 
L 307.811674 241.396521 
L 309.368505 238.365694 
L 311.575094 228.130631 
L 312.542396 225.011483 
L 313.854387 216.135219 
L 314.540233 212.528481 
L 315.088331 205.267215 
L 315.655676 196.731649 
L 315.986869 194.006059 
L 316.471461 185.204904 
L 316.699537 180.819425 
L 316.699537 179.608033 
L 317.147891 164.281277 
L 317.147891 162.850779 
L 317.149203 159.015249 
L 317.148195 147.94209 
L 317.004453 143.158329 
L 316.843564 136.130126 
L 316.843564 130.182588 
L 316.023838 117.2946 
L 316.023838 116.053338 
L 315.033542 105.061075 
L 314.29456 97.444824 
L 313.6783 93.560387 
L 311.553485 81.371404 
L 310.99078 79.793378 
L 308.362963 72.198527 
L 306.237618 65.477952 
L 305.882712 63.633549 
L 301.397014 56.832643 
L 299.213435 52.887217 
L 294.302797 49.162965 
L 290.679371 46.058989 
L 282.888505 41.951007 
L 273.337594 39.303334 
L 270.745362 38.118403 
L 257.611066 35.972682 
L 255.402368 35.374194 
L 245.572683 34.304526 
L 238.307957 33.354008 
L 227.970388 32.986029 
L 215.018768 32.138212 
L 211.233944 32.067611 
L 202.669064 31.83566 
L 198.832402 31.730835 
L 185.315515 31.626473 
L 177.481016 31.635976 
L 173.472693 31.635976 
L 166.19441 31.751206 
L 158.40736 31.945856 
L 152.542969 32.347575 
L 140.035499 32.77955 
L 123.689038 34.123367 
L 122.125848 34.33577 
L 120.949459 34.606276 
L 106.53385 36.436322 
L 100.905048 38.060544 
L 93.95583 39.032978 
L 89.572881 40.894713 
L 86.247407 42.122533 
L 81.351948 45.594626 
L 72.660045 49.885286 
L 69.007353 53.762939 
L 67.030086 58.661275 
L 60.3349 69.210529 
L 57.026786 83.042515 
L 56.606236 84.359905 
L 56.528854 84.590741 
L 56.38979 85.460295 
L 54.502828 96.146624 
L 54.502828 100.105618 
L 53.572276 107.490165 
L 53.400315 108.744592 
L 52.793834 119.031573 
L 52.092597 129.550273 
L 52.092597 131.053783 
L 51.69851 145.542233 
L 51.69851 149.402356 
L 51.679579 162.801584 
L 51.679579 164.330472 
L 52.115009 179.538002 
L 52.115009 180.858054 
L 52.565911 189.758872 
L 52.911786 196.386231 
L 53.034229 197.130505 
L 53.406672 200.516563 
L 54.625827 211.940701 
L 54.625827 214.983355 
L 56.203244 223.658734 
L 56.953703 227.47246 
L 57.511089 229.003995 
L 59.80031 239.411015 
L 62.882787 245.389451 
L 64.564322 250.71455 
L 70.015579 256.794624 
L 70.615177 257.681217 
L 71.176921 258.157093 
L 86.552423 268.688695 
L 88.209138 269.547425 
L 105.207298 273.433259 
L 109.321885 274.468365 
L 109.871376 274.556328 
L 110.343549 274.556328 
L 112.524637 274.820003 
L 123.125008 276.253209 
L 125.983282 276.633998 
L 133.531709 277.286462 
L 145.232119 277.947566 
L 146.518512 277.947566 
L 159.080659 278.552361 
L 159.192204 278.552361 
L 172.593453 278.8583 
L 177.691402 278.8583 
L 188.236081 278.890983 
L 194.061432 278.839961 
L 200.142247 278.753379 
L 201.242601 278.701013 
L 208.209265 278.547035 
L 213.936546 278.429138 
L 218.691851 278.218067 
L 228.3128 277.737021 
L 240.255124 276.698091 
L 242.179961 276.551537 
L 242.691225 276.551537 
L 262.654566 273.787194 
z
M 248.725073 263.220411 
L 237.825709 265.551748 
L 224.943893 267.252165 
L 223.810912 267.459582 
L 221.636245 267.674612 
L 211.100347 268.575632 
L 208.218715 268.639323 
L 198.160762 269.11798 
L 193.547524 269.183666 
L 184.915549 269.359171 
L 181.987365 269.357439 
L 175.15915 269.241841 
L 164.793177 268.84893 
L 160.827018 268.730098 
L 148.524257 267.678403 
L 146.604071 267.58724 
L 143.91011 267.375186 
L 134.612646 266.054212 
L 124.792841 264.410362 
L 122.899379 264.011549 
L 121.63766 263.558323 
L 106.227402 259.028797 
L 103.479713 257.551648 
L 93.370986 252.806704 
L 83.64409 243.839807 
L 81.237763 241.870594 
L 80.178874 240.459013 
L 74.640401 231.90568 
L 71.622797 224.944393 
L 71.228258 223.860315 
L 71.000435 222.702548 
L 68.054924 213.413147 
L 66.283795 207.086534 
L 65.707048 201.843051 
L 63.673242 189.48049 
L 63.665238 189.43463 
L 63.662906 189.418709 
L 63.658214 189.358839 
L 62.259463 172.036404 
L 62.127589 167.433928 
L 61.905254 160.002926 
L 61.905901 153.990516 
L 62.225355 141.375194 
L 62.387595 135.676102 
L 63.059497 127.694832 
L 63.571654 121.141979 
L 63.933355 118.18227 
L 64.870376 113.788048 
L 66.590647 102.233329 
L 68.154792 96.707863 
L 68.415098 95.080204 
L 71.263865 86.58205 
L 72.514768 82.663546 
L 79.321438 71.471642 
L 81.266346 68.445716 
L 88.367592 62.637364 
L 92.776996 58.521582 
L 93.95306 57.601249 
L 98.762413 55.228283 
L 103.809443 52.574261 
L 106.401754 51.822449 
L 117.263031 47.755779 
L 125.44869 45.938329 
L 137.742823 44.165884 
L 140.544949 43.610241 
L 142.762458 43.190165 
L 146.26137 42.798011 
L 160.792071 41.783712 
L 164.216421 41.598884 
L 177.905879 41.18219 
L 185.45791 41.093155 
L 187.773057 41.164605 
L 204.221404 41.600476 
L 206.301875 41.744169 
L 215.910487 42.367175 
L 220.399493 42.670648 
L 230.289556 43.895547 
L 236.476909 45.138492 
L 246.455274 46.557334 
L 250.879255 47.933487 
L 261.187492 50.76055 
L 263.81163 51.953556 
L 273.115278 55.998421 
L 277.651671 59.395253 
L 286.903665 67.8737 
L 287.899408 68.95327 
L 293.887 78.736364 
L 295.367757 81.144088 
L 299.429001 92.518936 
L 300.703131 96.077278 
L 302.322626 103.837956 
L 304.594496 115.771272 
L 304.934374 119.008332 
L 305.371825 125.093754 
L 306.050807 132.729807 
L 306.407783 136.075297 
L 306.879593 149.479008 
L 306.943697 151.70123 
L 306.968683 153.739658 
L 306.891553 161.576937 
L 306.588874 170.290883 
L 306.514155 172.8401 
L 305.823063 181.411358 
L 305.075687 190.026684 
L 304.575925 192.771417 
L 303.10546 203.692678 
L 301.862876 210.348638 
L 300.433366 215.465404 
L 298.10981 220.576653 
L 295.551779 228.793385 
L 292.176815 235.808873 
L 289.355432 239.864235 
L 282.969834 246.962089 
L 280.54723 249.030981 
L 269.89064 255.350675 
L 265.873526 257.822608 
L 264.588003 258.200993 
L 248.7746 263.213511 
z
" clip-path="url(#pba5e2b456b)" style="fill: #4854f6"/>
    <path d="M 248.7746 263.213511 
L 264.588003 258.200993 
L 265.873526 257.822608 
L 269.89064 255.350675 
L 280.54723 249.030981 
L 282.969834 246.962089 
L 289.355432 239.864235 
L 292.176815 235.808873 
L 295.551779 228.793385 
L 298.10981 220.576653 
L 300.433366 215.465404 
L 301.862876 210.348638 
L 303.10546 203.692678 
L 304.575925 192.771417 
L 305.075687 190.026684 
L 305.823063 181.411358 
L 306.514155 172.8401 
L 306.588874 170.290883 
L 306.891553 161.576937 
L 306.968683 153.739658 
L 306.943697 151.70123 
L 306.879593 149.479008 
L 306.407783 136.075297 
L 306.050807 132.729807 
L 305.371825 125.093754 
L 304.934374 119.008332 
L 304.594496 115.771272 
L 302.322626 103.837956 
L 300.703131 96.077278 
L 299.429001 92.518936 
L 295.367757 81.144088 
L 293.887 78.736364 
L 287.899408 68.95327 
L 286.903665 67.8737 
L 277.651671 59.395253 
L 273.115278 55.998421 
L 263.81163 51.953556 
L 261.187492 50.76055 
L 250.879255 47.933487 
L 246.455274 46.557334 
L 236.476909 45.138492 
L 230.289556 43.895547 
L 220.399493 42.670648 
L 215.910487 42.367175 
L 206.301875 41.744169 
L 204.221404 41.600476 
L 187.773057 41.164605 
L 185.45791 41.093155 
L 177.905879 41.18219 
L 164.216421 41.598884 
L 160.792071 41.783712 
L 146.26137 42.798011 
L 142.762458 43.190165 
L 140.544949 43.610241 
L 137.742823 44.165884 
L 125.44869 45.938329 
L 117.263031 47.755779 
L 106.401754 51.822449 
L 103.809443 52.574261 
L 98.762413 55.228283 
L 93.95306 57.601249 
L 92.776996 58.521582 
L 88.367592 62.637364 
L 81.266346 68.445716 
L 79.321438 71.471642 
L 72.514768 82.663546 
L 71.263865 86.58205 
L 68.415098 95.080204 
L 68.154792 96.707863 
L 66.590647 102.233329 
L 64.870376 113.788048 
L 63.933355 118.18227 
L 63.571654 121.141979 
L 63.059497 127.694832 
L 62.387595 135.676102 
L 62.225355 141.375194 
L 61.905901 153.990516 
L 61.905254 160.002926 
L 62.127589 167.433928 
L 62.259463 172.036404 
L 63.658214 189.358839 
L 63.662906 189.418709 
L 63.665238 189.43463 
L 63.673242 189.48049 
L 65.707048 201.843051 
L 66.283795 207.086534 
L 68.054924 213.413147 
L 71.000435 222.702548 
L 71.228258 223.860315 
L 71.622797 224.944393 
L 74.640401 231.90568 
L 80.178874 240.459013 
L 81.237763 241.870594 
L 83.64409 243.839807 
L 93.370986 252.806704 
L 103.479713 257.551648 
L 106.227402 259.028797 
L 121.63766 263.558323 
L 122.899379 264.011549 
L 124.792841 264.410362 
L 134.612646 266.054212 
L 143.91011 267.375186 
L 146.604071 267.58724 
L 148.524257 267.678403 
L 160.827018 268.730098 
L 164.793177 268.84893 
L 175.15915 269.241841 
L 181.987365 269.357439 
L 184.915549 269.359171 
L 193.547524 269.183666 
L 198.160762 269.11798 
L 208.218715 268.639323 
L 211.100347 268.575632 
L 221.636245 267.674612 
L 223.810912 267.459582 
L 224.943893 267.252165 
L 237.825709 265.551748 
L 248.725073 263.220411 
z
M 294.481057 183.442577 
L 294.263908 185.945749 
L 293.634595 189.401989 
L 291.42474 199.721579 
L 288.702765 207.84909 
L 287.584894 211.850379 
L 285.545112 216.337396 
L 282.08205 223.40336 
L 275.873705 231.591448 
L 273.377939 234.131131 
L 268.143307 239.382774 
L 263.998379 242.271743 
L 257.934285 246.100852 
L 250.452508 249.408044 
L 249.354718 249.768249 
L 246.581563 250.544392 
L 235.60876 253.945766 
L 224.298788 256.468976 
L 219.841141 257.285046 
L 217.791093 257.487754 
L 208.306458 258.612386 
L 200.257245 259.080832 
L 192.571562 259.455748 
L 185.8234 259.542335 
L 175.81658 259.511443 
L 175.503449 259.502809 
L 175.225233 259.490563 
L 162.700365 258.644884 
L 155.634533 257.951734 
L 152.00081 257.636883 
L 147.537584 256.952113 
L 138.989325 255.509779 
L 131.019286 253.384592 
L 128.060185 252.761327 
L 118.352043 249.274036 
L 116.334822 248.534712 
L 115.574299 248.09892 
L 104.820245 242.439231 
L 98.949524 237.3173 
L 95.429526 234.436715 
L 92.621848 230.693866 
L 89.085033 226.652204 
L 86.442981 222.473925 
L 82.344133 214.229556 
L 79.816138 208.209902 
L 77.791801 201.322265 
L 75.747451 192.509961 
L 75.172177 189.213572 
L 73.368635 176.904039 
L 72.941263 171.450126 
L 72.791486 167.184348 
L 72.400398 156.366867 
L 72.669285 146.004057 
L 73.164787 136.705827 
L 73.582053 131.752627 
L 74.511845 125.116489 
L 74.83493 122.472762 
L 76.690059 113.773013 
L 77.880577 108.794047 
L 80.6836 100.850064 
L 81.91458 97.094493 
L 82.693816 94.970669 
L 89.308977 83.694258 
L 90.090385 82.34293 
L 91.973466 80.352852 
L 98.019777 73.636443 
L 106.431353 67.253636 
L 108.265805 66.145109 
L 130.292235 56.974261 
L 130.702596 56.828759 
L 140.669493 54.852391 
L 148.947421 53.284251 
L 159.848148 52.062511 
L 161.481336 51.864688 
L 179.986463 50.866002 
L 181.172669 50.821462 
L 181.993848 50.838402 
L 189.212234 51.040971 
L 200.098457 51.37694 
L 201.801026 51.422057 
L 203.475831 51.537733 
L 216.794795 53.032981 
L 229.14008 54.862022 
L 229.255162 54.876275 
L 229.414554 54.908294 
L 240.834081 57.835695 
L 246.987089 59.746406 
L 252.62023 62.2151 
L 258.862308 65.254205 
L 261.843495 66.962274 
L 269.202151 72.08178 
L 273.420675 76.20948 
L 278.219218 81.571922 
L 283.650626 90.618969 
L 284.59505 92.024416 
L 285.344933 93.782251 
L 289.908419 105.339828 
L 292.068687 113.302619 
L 292.810953 116.972685 
L 294.036488 124.38688 
L 294.713694 128.300464 
L 295.383078 133.867808 
L 295.938743 139.075361 
L 295.975271 140.113099 
L 296.383244 154.255742 
L 296.430999 158.151803 
L 295.975247 164.875236 
L 295.522289 172.903508 
z
" clip-path="url(#pba5e2b456b)" style="fill: #337afd"/>
    <path d="M 295.522289 172.903508 
L 295.975247 164.875236 
L 296.430999 158.151803 
L 296.383244 154.255742 
L 295.975271 140.113099 
L 295.938743 139.075361 
L 295.383078 133.867808 
L 294.713694 128.300464 
L 294.036488 124.38688 
L 292.810953 116.972685 
L 292.068687 113.302619 
L 289.908419 105.339828 
L 285.344933 93.782251 
L 284.59505 92.024416 
L 283.650626 90.618969 
L 278.219218 81.571922 
L 273.420675 76.20948 
L 269.202151 72.08178 
L 261.843495 66.962274 
L 258.862308 65.254205 
L 252.62023 62.2151 
L 246.987089 59.746406 
L 240.834081 57.835695 
L 229.414554 54.908294 
L 229.255162 54.876275 
L 229.14008 54.862022 
L 216.794795 53.032981 
L 203.475831 51.537733 
L 201.801026 51.422057 
L 200.098457 51.37694 
L 189.212234 51.040971 
L 181.993848 50.838402 
L 181.172669 50.821462 
L 179.986463 50.866002 
L 161.481336 51.864688 
L 159.848148 52.062511 
L 148.947421 53.284251 
L 140.669493 54.852391 
L 130.702596 56.828759 
L 130.292235 56.974261 
L 108.265805 66.145109 
L 106.431353 67.253636 
L 98.019777 73.636443 
L 91.973466 80.352852 
L 90.090385 82.34293 
L 89.308977 83.694258 
L 82.693816 94.970669 
L 81.91458 97.094493 
L 80.6836 100.850064 
L 77.880577 108.794047 
L 76.690059 113.773013 
L 74.83493 122.472762 
L 74.511845 125.116489 
L 73.582053 131.752627 
L 73.164787 136.705827 
L 72.669285 146.004057 
L 72.400398 156.366867 
L 72.791486 167.184348 
L 72.941263 171.450126 
L 73.368635 176.904039 
L 75.172177 189.213572 
L 75.747451 192.509961 
L 77.791801 201.322265 
L 79.816138 208.209902 
L 82.344133 214.229556 
L 86.442981 222.473925 
L 89.085033 226.652204 
L 92.621848 230.693866 
L 95.429526 234.436715 
L 98.949524 237.3173 
L 104.820245 242.439231 
L 115.574299 248.09892 
L 116.334822 248.534712 
L 118.352043 249.274036 
L 128.060185 252.761327 
L 131.019286 253.384592 
L 138.989325 255.509779 
L 147.537584 256.952113 
L 152.00081 257.636883 
L 155.634533 257.951734 
L 162.700365 258.644884 
L 175.225233 259.490563 
L 175.503449 259.502809 
L 175.81658 259.511443 
L 185.8234 259.542335 
L 192.571562 259.455748 
L 200.257245 259.080832 
L 208.306458 258.612386 
L 217.791093 257.487754 
L 219.841141 257.285046 
L 224.298788 256.468976 
L 235.60876 253.945766 
L 246.581563 250.544392 
L 249.354718 249.768249 
L 250.452508 249.408044 
L 257.934285 246.100852 
L 263.998379 242.271743 
L 268.143307 239.382774 
L 273.377939 234.131131 
L 275.873705 231.591448 
L 282.08205 223.40336 
L 285.545112 216.337396 
L 287.584894 211.850379 
L 288.702765 207.84909 
L 291.42474 199.721579 
L 293.634595 189.401989 
L 294.263908 185.945749 
L 294.481057 183.442577 
z
M 284.209516 176.133192 
L 282.364678 185.486862 
L 280.352527 193.774828 
L 279.577522 196.323673 
L 278.515037 198.906192 
L 275.554027 206.5134 
L 270.072753 216.385658 
L 270.027247 216.478507 
L 269.984527 216.53485 
L 269.873722 216.647605 
L 260.451531 227.228322 
L 256.331656 230.082816 
L 248.055721 236.059455 
L 244.898994 237.722207 
L 240.799079 239.278693 
L 233.076741 242.478907 
L 226.30663 244.067087 
L 218.925218 245.906051 
L 209.122151 247.608522 
L 206.45066 248.168422 
L 202.485289 248.679522 
L 191.842259 249.189467 
L 185.522433 249.353977 
L 180.783731 249.223314 
L 165.599251 248.554977 
L 164.622591 248.489033 
L 163.640625 248.392703 
L 149.957251 246.148773 
L 146.826542 245.620534 
L 143.988154 244.863686 
L 134.438259 242.028142 
L 127.443544 239.187975 
L 125.886786 238.617414 
L 120.594842 235.585041 
L 115.083296 232.491971 
L 113.822909 231.626773 
L 109.955367 228.108463 
L 104.675769 223.53268 
L 103.476707 222.162462 
L 102.038801 219.888484 
L 95.831805 211.366902 
L 93.185979 206.403417 
L 89.93574 198.216377 
L 88.089152 192.2937 
L 86.463365 185.965693 
L 85.720452 180.98815 
L 84.342032 172.379436 
L 83.809026 165.704196 
L 83.366864 155.431656 
L 83.569634 148.58846 
L 83.969479 141.233946 
L 84.637335 135.79643 
L 85.656161 128.697778 
L 86.668998 124.602654 
L 88.56217 116.627697 
L 91.546155 108.288702 
L 92.273195 106.216607 
L 99.906823 92.810258 
L 101.097146 90.758579 
L 104.700637 87.093949 
L 111.762412 80.442255 
L 125.914288 72.138997 
L 128.423595 70.845635 
L 140.735808 66.381965 
L 143.825184 65.511879 
L 152.844267 63.799717 
L 165.218684 62.224039 
L 168.270677 61.79102 
L 174.719442 61.368005 
L 182.605806 61.071885 
L 194.169969 61.310444 
L 195.244484 61.340598 
L 203.437628 62.257987 
L 215.911884 63.652935 
L 216.944008 63.823497 
L 218.179132 64.139958 
L 227.038265 66.39859 
L 234.528805 68.474877 
L 238.530399 70.130117 
L 246.003657 73.37663 
L 254.915249 78.86074 
L 255.902664 79.507001 
L 257.06891 80.55652 
L 265.73315 88.633532 
L 270.945859 95.913674 
L 272.936369 98.875856 
L 274.285329 102.038017 
L 278.537495 111.114881 
L 279.948016 116.073367 
L 282.039946 123.788512 
L 282.740047 126.31858 
L 283.096885 128.340924 
L 284.536821 139.506024 
L 285.150569 146.667232 
L 285.451953 153.547296 
L 285.187599 159.517267 
L 284.620609 170.635104 
L 284.415537 173.660417 
L 284.364567 174.563815 
z
" clip-path="url(#pba5e2b456b)" style="fill: #259be8"/>
    <path d="M 284.364567 174.563815 
L 284.415537 173.660417 
L 284.620609 170.635104 
L 285.187599 159.517267 
L 285.451953 153.547296 
L 285.150569 146.667232 
L 284.536821 139.506024 
L 283.096885 128.340924 
L 282.740047 126.31858 
L 282.039946 123.788512 
L 279.948016 116.073367 
L 278.537495 111.114881 
L 274.285329 102.038017 
L 272.936369 98.875856 
L 270.945859 95.913674 
L 265.73315 88.633532 
L 257.06891 80.55652 
L 255.902664 79.507001 
L 254.915249 78.86074 
L 246.003657 73.37663 
L 238.530399 70.130117 
L 234.528805 68.474877 
L 227.038265 66.39859 
L 218.179132 64.139958 
L 216.944008 63.823497 
L 215.911884 63.652935 
L 203.437628 62.257987 
L 195.244484 61.340598 
L 194.169969 61.310444 
L 182.605806 61.071885 
L 174.719442 61.368005 
L 168.270677 61.79102 
L 165.218684 62.224039 
L 152.844267 63.799717 
L 143.825184 65.511879 
L 140.735808 66.381965 
L 128.423595 70.845635 
L 125.914288 72.138997 
L 111.762412 80.442255 
L 104.700637 87.093949 
L 101.097146 90.758579 
L 99.906823 92.810258 
L 92.273195 106.216607 
L 91.546155 108.288702 
L 88.56217 116.627697 
L 86.668998 124.602654 
L 85.656161 128.697778 
L 84.637335 135.79643 
L 83.969479 141.233946 
L 83.569634 148.58846 
L 83.366864 155.431656 
L 83.809026 165.704196 
L 84.342032 172.379436 
L 85.720452 180.98815 
L 86.463365 185.965693 
L 88.089152 192.2937 
L 89.93574 198.216377 
L 93.185979 206.403417 
L 95.831805 211.366902 
L 102.038801 219.888484 
L 103.476707 222.162462 
L 104.675769 223.53268 
L 109.955367 228.108463 
L 113.822909 231.626773 
L 115.083296 232.491971 
L 120.594842 235.585041 
L 125.886786 238.617414 
L 127.443544 239.187975 
L 134.438259 242.028142 
L 143.988154 244.863686 
L 146.826542 245.620534 
L 149.957251 246.148773 
L 163.640625 248.392703 
L 164.622591 248.489033 
L 165.599251 248.554977 
L 180.783731 249.223314 
L 185.522433 249.353977 
L 191.842259 249.189467 
L 202.485289 248.679522 
L 206.45066 248.168422 
L 209.122151 247.608522 
L 218.925218 245.906051 
L 226.30663 244.067087 
L 233.076741 242.478907 
L 240.799079 239.278693 
L 244.898994 237.722207 
L 248.055721 236.059455 
L 256.331656 230.082816 
L 260.451531 227.228322 
L 269.873722 216.647605 
L 269.984527 216.53485 
L 270.027247 216.478507 
L 270.072753 216.385658 
L 275.554027 206.5134 
L 278.515037 198.906192 
L 279.577522 196.323673 
L 280.352527 193.774828 
L 282.364678 185.486862 
L 284.209516 176.133192 
z
M 261.483199 106.040382 
L 264.400689 111.930394 
L 267.227108 117.556224 
L 269.813537 125.691454 
L 271.151134 130.525347 
L 271.821378 134.323885 
L 272.889328 141.400444 
L 273.460914 148.750396 
L 273.764062 154.396031 
L 273.326576 166.112821 
L 273.244616 167.963748 
L 273.18775 169.078797 
L 271.571504 177.909547 
L 270.900693 181.438619 
L 267.57383 191.861273 
L 267.330747 192.660726 
L 267.004272 193.454269 
L 262.298943 202.847689 
L 260.87641 205.346763 
L 254.438923 213.71908 
L 252.831227 215.542764 
L 244.949378 221.971038 
L 242.403993 223.79521 
L 234.370768 228.42832 
L 230.134318 230.183637 
L 218.708986 234.280673 
L 218.505369 234.331401 
L 218.388061 234.351773 
L 216.002834 234.851677 
L 207.438852 236.577555 
L 206.616853 236.769612 
L 197.515122 237.800505 
L 193.127918 238.116512 
L 184.291531 238.427823 
L 173.641154 238.041375 
L 170.879823 237.805247 
L 163.777157 236.975069 
L 158.116445 236.059143 
L 150.187769 234.144449 
L 142.275366 231.786493 
L 140.060474 230.860021 
L 129.251645 225.642729 
L 127.448674 224.414119 
L 119.616066 219.037397 
L 118.36906 217.902994 
L 115.720128 214.558479 
L 106.779004 203.411332 
L 103.993938 198.216377 
L 101.558216 192.87833 
L 99.837683 187.595959 
L 96.858216 175.165388 
L 96.064696 171.882028 
L 95.932535 170.995195 
L 95.09256 159.265269 
L 95.098826 154.073181 
L 95.495003 145.638708 
L 96.400252 136.652377 
L 96.497657 136.064099 
L 96.688064 135.126087 
L 99.114282 125.316351 
L 99.70404 122.832006 
L 100.887578 119.52451 
L 106.602119 107.767342 
L 107.625417 105.624041 
L 108.522904 104.376966 
L 113.711474 97.567072 
L 119.346009 92.409341 
L 124.482484 87.908829 
L 135.319423 82.324337 
L 140.218594 79.660706 
L 143.177928 78.302811 
L 152.03387 75.816927 
L 155.262769 74.942086 
L 162.710841 73.543779 
L 165.97083 73.081249 
L 167.759393 72.963926 
L 183.328647 72.063063 
L 198.246925 72.603811 
L 199.935482 72.721043 
L 201.966545 72.944694 
L 211.599331 74.536547 
L 221.002388 76.945776 
L 225.059674 78.239919 
L 230.087369 80.292601 
L 235.087398 82.360839 
L 236.013612 82.763202 
L 237.118089 83.442887 
L 246.213168 89.395595 
L 247.656592 90.69455 
L 253.119265 95.476094 
L 257.393685 100.628917 
z
" clip-path="url(#pba5e2b456b)" style="fill: #04b6ce"/>
    <path d="M 257.393685 100.628917 
L 253.119265 95.476094 
L 247.656592 90.69455 
L 246.213168 89.395595 
L 237.118089 83.442887 
L 236.013612 82.763202 
L 235.087398 82.360839 
L 230.087369 80.292601 
L 225.059674 78.239919 
L 221.002388 76.945776 
L 211.599331 74.536547 
L 201.966545 72.944694 
L 199.935482 72.721043 
L 198.246925 72.603811 
L 183.328647 72.063063 
L 167.759393 72.963926 
L 165.97083 73.081249 
L 162.710841 73.543779 
L 155.262769 74.942086 
L 152.03387 75.816927 
L 143.177928 78.302811 
L 140.218594 79.660706 
L 135.319423 82.324337 
L 124.482484 87.908829 
L 119.346009 92.409341 
L 113.711474 97.567072 
L 108.522904 104.376966 
L 107.625417 105.624041 
L 106.602119 107.767342 
L 100.887578 119.52451 
L 99.70404 122.832006 
L 99.114282 125.316351 
L 96.688064 135.126087 
L 96.497657 136.064099 
L 96.400252 136.652377 
L 95.495003 145.638708 
L 95.098826 154.073181 
L 95.09256 159.265269 
L 95.932535 170.995195 
L 96.064696 171.882028 
L 96.858216 175.165388 
L 99.837683 187.595959 
L 101.558216 192.87833 
L 103.993938 198.216377 
L 106.779004 203.411332 
L 115.720128 214.558479 
L 118.36906 217.902994 
L 119.616066 219.037397 
L 127.448674 224.414119 
L 129.251645 225.642729 
L 140.060474 230.860021 
L 142.275366 231.786493 
L 150.187769 234.144449 
L 158.116445 236.059143 
L 163.777157 236.975069 
L 170.879823 237.805247 
L 173.641154 238.041375 
L 184.291531 238.427823 
L 193.127918 238.116512 
L 197.515122 237.800505 
L 206.616853 236.769612 
L 207.438852 236.577555 
L 216.002834 234.851677 
L 218.388061 234.351773 
L 218.505369 234.331401 
L 218.708986 234.280673 
L 230.134318 230.183637 
L 234.370768 228.42832 
L 242.403993 223.79521 
L 244.949378 221.971038 
L 252.831227 215.542764 
L 254.438923 213.71908 
L 260.87641 205.346763 
L 262.298943 202.847689 
L 267.004272 193.454269 
L 267.330747 192.660726 
L 267.57383 191.861273 
L 270.900693 181.438619 
L 271.571504 177.909547 
L 273.18775 169.078797 
L 273.244616 167.963748 
L 273.326576 166.112821 
L 273.764062 154.396031 
L 273.460914 148.750396 
L 272.889328 141.400444 
L 271.821378 134.323885 
L 271.151134 130.525347 
L 269.813537 125.691454 
L 267.227108 117.556224 
L 264.400689 111.930394 
L 261.483199 106.040382 
z
M 130.421763 209.464475 
L 121.730964 200.052119 
L 119.919141 197.760084 
L 115.10374 189.527926 
L 113.723094 186.468468 
L 110.46342 176.650591 
L 109.310956 171.882028 
L 108.719426 167.912713 
L 107.889167 159.273305 
L 107.919141 151.451538 
L 108.516806 144.39034 
L 109.21554 140.170313 
L 110.394034 134.364647 
L 112.342721 127.437232 
L 115.579059 120.358707 
L 118.097395 115.980657 
L 125.30282 105.974686 
L 127.205621 104.075466 
L 138.828363 94.947953 
L 139.122954 94.78729 
L 151.517059 89.215965 
L 162.08871 86.176238 
L 163.01168 85.951318 
L 170.233033 84.896792 
L 178.88497 84.196563 
L 185.455934 83.914718 
L 192.083439 84.374845 
L 198.454242 85.07637 
L 209.289718 86.727332 
L 222.37904 91.104031 
L 224.334575 91.864057 
L 238.298702 100.623341 
L 239.374049 101.522763 
L 241.369975 103.840579 
L 249.977962 114.25897 
L 252.763278 119.42046 
L 254.844907 123.562388 
L 257.57274 130.907292 
L 258.433257 133.586186 
L 259.002632 136.745108 
L 260.4381 146.38456 
L 260.611713 155.114692 
L 260.433765 166.942041 
L 260.373138 167.763541 
L 260.25127 168.504093 
L 257.840504 178.463748 
L 254.474048 188.157985 
L 254.304132 188.648227 
L 254.104503 189.042953 
L 248.758604 197.917317 
L 246.958218 200.255682 
L 241.496731 206.682812 
L 233.334414 213.59881 
L 232.918529 213.937823 
L 232.439882 214.210793 
L 228.865527 215.888904 
L 216.695791 221.612304 
L 199.794548 225.671155 
L 199.159935 225.832179 
L 196.718989 226.090418 
L 186.557876 226.822316 
L 185.183226 226.870746 
L 183.52638 226.810627 
L 180.037792 226.51231 
L 163.027947 224.489301 
L 156.23612 222.933515 
L 152.190471 221.550399 
L 142.541031 217.552221 
L 137.980287 214.682883 
z
" clip-path="url(#pba5e2b456b)" style="fill: #2fc5a3"/>
    <path d="M 137.980287 214.682883 
L 142.541031 217.552221 
L 152.190471 221.550399 
L 156.23612 222.933515 
L 163.027947 224.489301 
L 180.037792 226.51231 
L 183.52638 226.810627 
L 185.183226 226.870746 
L 186.557876 226.822316 
L 196.718989 226.090418 
L 199.159935 225.832179 
L 199.794548 225.671155 
L 216.695791 221.612304 
L 228.865527 215.888904 
L 232.439882 214.210793 
L 232.918529 213.937823 
L 233.334414 213.59881 
L 241.496731 206.682812 
L 246.958218 200.255682 
L 248.758604 197.917317 
L 254.104503 189.042953 
L 254.304132 188.648227 
L 254.474048 188.157985 
L 257.840504 178.463748 
L 260.25127 168.504093 
L 260.373138 167.763541 
L 260.433765 166.942041 
L 260.611713 155.114692 
L 260.4381 146.38456 
L 259.002632 136.745108 
L 258.433257 133.586186 
L 257.57274 130.907292 
L 254.844907 123.562388 
L 252.763278 119.42046 
L 249.977962 114.25897 
L 241.369975 103.840579 
L 239.374049 101.522763 
L 238.298702 100.623341 
L 224.334575 91.864057 
L 222.37904 91.104031 
L 209.289718 86.727332 
L 198.454242 85.07637 
L 192.083439 84.374845 
L 185.455934 83.914718 
L 178.88497 84.196563 
L 170.233033 84.896792 
L 163.01168 85.951318 
L 162.08871 86.176238 
L 151.517059 89.215965 
L 139.122954 94.78729 
L 138.828363 94.947953 
L 127.205621 104.075466 
L 125.30282 105.974686 
L 118.097395 115.980657 
L 115.579059 120.358707 
L 112.342721 127.437232 
L 110.394034 134.364647 
L 109.21554 140.170313 
L 108.516806 144.39034 
L 107.919141 151.451538 
L 107.889167 159.273305 
L 108.719426 167.912713 
L 109.310956 171.882028 
L 110.46342 176.650591 
L 113.723094 186.468468 
L 115.10374 189.527926 
L 119.919141 197.760084 
L 121.730964 200.052119 
L 130.421763 209.464475 
z
M 159.40779 101.570315 
L 171.006781 98.881223 
L 175.949965 98.147561 
L 184.844316 97.813814 
L 190.600609 97.791582 
L 198.427937 99.116711 
L 207.08567 101.129018 
L 214.379712 103.994272 
L 219.878193 106.32386 
L 221.504046 107.336686 
L 228.91243 113.361925 
L 231.309412 115.366765 
L 231.769638 115.901213 
L 239.325336 126.717853 
L 240.9631 129.786471 
L 242.744242 134.923587 
L 244.15266 139.727687 
L 246.66415 150.734014 
L 246.706722 151.019891 
L 246.710182 151.193862 
L 246.706155 151.461482 
L 246.001339 164.513547 
L 245.94162 164.803307 
L 243.401828 174.421902 
L 240.175472 182.410363 
L 238.635006 185.317435 
L 232.964562 192.423899 
L 227.290791 198.992376 
L 226.160094 199.854066 
L 218.434713 204.396003 
L 211.259569 208.436418 
L 199.730639 211.606188 
L 197.608179 212.144732 
L 197.311427 212.176127 
L 188.962625 212.706095 
L 181.9115 213.140133 
L 181.207777 213.07083 
L 168.182914 211.258274 
L 156.985841 208.221894 
L 154.772713 207.533372 
L 154.182681 207.203287 
L 152.467273 206.034911 
L 139.570124 197.030594 
L 134.104572 190.993023 
L 129.999221 184.990188 
L 127.478453 180.595773 
L 126.714079 178.301043 
L 122.646168 163.683666 
L 122.620604 163.426707 
L 122.50399 152.224681 
L 122.783476 148.399939 
L 124.627957 139.344224 
L 125.85854 135.072257 
L 129.005031 128.357184 
L 133.287345 120.764087 
L 140.552283 112.854222 
L 143.143353 110.268027 
L 144.714911 109.033859 
L 149.460078 106.44595 
L 156.373413 102.995479 
z
" clip-path="url(#pba5e2b456b)" style="fill: #72cd64"/>
    <path d="M 156.373413 102.995479 
L 149.460078 106.44595 
L 144.714911 109.033859 
L 143.143353 110.268027 
L 140.552283 112.854222 
L 133.287345 120.764087 
L 129.005031 128.357184 
L 125.85854 135.072257 
L 124.627957 139.344224 
L 122.783476 148.399939 
L 122.50399 152.224681 
L 122.620604 163.426707 
L 122.646168 163.683666 
L 126.714079 178.301043 
L 127.478453 180.595773 
L 129.999221 184.990188 
L 134.104572 190.993023 
L 139.570124 197.030594 
L 152.467273 206.034911 
L 154.182681 207.203287 
L 154.772713 207.533372 
L 156.985841 208.221894 
L 168.182914 211.258274 
L 181.207777 213.07083 
L 181.9115 213.140133 
L 188.962625 212.706095 
L 197.311427 212.176127 
L 197.608179 212.144732 
L 199.730639 211.606188 
L 211.259569 208.436418 
L 218.434713 204.396003 
L 226.160094 199.854066 
L 227.290791 198.992376 
L 232.964562 192.423899 
L 238.635006 185.317435 
L 240.175472 182.410363 
L 243.401828 174.421902 
L 245.94162 164.803307 
L 246.001339 164.513547 
L 246.706155 151.461482 
L 246.710182 151.193862 
L 246.706722 151.019891 
L 246.66415 150.734014 
L 244.15266 139.727687 
L 242.744242 134.923587 
L 240.9631 129.786471 
L 239.325336 126.717853 
L 231.769638 115.901213 
L 231.309412 115.366765 
L 228.91243 113.361925 
L 221.504046 107.336686 
L 219.878193 106.32386 
L 214.379712 103.994272 
L 207.08567 101.129018 
L 198.427937 99.116711 
L 190.600609 97.791582 
L 184.844316 97.813814 
L 175.949965 98.147561 
L 171.006781 98.881223 
L 159.40779 101.570315 
z
M 142.389231 165.727561 
L 140.654107 154.901783 
L 140.793553 153.10177 
L 142.785038 142.280606 
L 146.471767 134.827187 
L 152.356736 127.090784 
L 153.716293 125.740814 
L 154.813262 124.809619 
L 160.897005 121.153944 
L 167.916623 117.824828 
L 171.746175 116.705868 
L 178.762011 115.488735 
L 184.868729 114.679099 
L 189.20035 114.943084 
L 198.203409 116.787106 
L 204.023982 118.745799 
L 215.419396 125.938817 
L 217.364599 128.082996 
L 222.672169 136.021316 
L 225.794947 141.177382 
L 226.322701 142.489063 
L 227.40907 148.729313 
L 228.269916 154.761522 
L 227.048818 162.973086 
L 226.066209 166.895676 
L 224.47974 170.50669 
L 217.295981 182.10613 
L 215.694253 184.569258 
L 214.974665 185.332612 
L 212.826578 186.690231 
L 201.545834 192.744867 
L 195.929843 194.485643 
L 191.35273 195.294927 
L 183.898723 195.575894 
L 166.312822 192.810918 
L 165.202719 192.383716 
L 155.941663 186.585656 
L 154.574236 185.464343 
L 149.92273 180.933137 
L 148.282183 179.070162 
L 147.789618 178.33995 
L 147.12888 176.949139 
z
" clip-path="url(#pba5e2b456b)" style="fill: #cbc128"/>
    <path d="M 147.12888 176.949139 
L 147.789618 178.33995 
L 148.282183 179.070162 
L 149.92273 180.933137 
L 154.574236 185.464343 
L 155.941663 186.585656 
L 165.202719 192.383716 
L 166.312822 192.810918 
L 183.898723 195.575894 
L 191.35273 195.294927 
L 195.929843 194.485643 
L 201.545834 192.744867 
L 212.826578 186.690231 
L 214.974665 185.332612 
L 215.694253 184.569258 
L 217.295981 182.10613 
L 224.47974 170.50669 
L 226.066209 166.895676 
L 227.048818 162.973086 
L 228.269916 154.761522 
L 227.40907 148.729313 
L 226.322701 142.489063 
L 225.794947 141.177382 
L 222.672169 136.021316 
L 217.364599 128.082996 
L 215.419396 125.938817 
L 204.023982 118.745799 
L 198.203409 116.787106 
L 189.20035 114.943084 
L 184.868729 114.679099 
L 178.762011 115.488735 
L 171.746175 116.705868 
L 167.916623 117.824828 
L 160.897005 121.153944 
L 154.813262 124.809619 
L 153.716293 125.740814 
L 152.356736 127.090784 
L 146.471767 134.827187 
L 142.785038 142.280606 
L 140.793553 153.10177 
L 140.654107 154.901783 
L 142.389231 165.727561 
z
M 179.607558 151.51135 
L 184.404624 148.605502 
L 190.12868 152.763139 
L 187.909203 159.166193 
L 184.01629 159.621992 
L 181.530402 158.86548 
L 179.455457 156.096763 
z
" clip-path="url(#pba5e2b456b)" style="fill: #fec13a"/>
    <path d="M 179.455457 156.096763 
L 181.530402 158.86548 
L 184.01629 159.621992 
L 187.909203 159.166193 
L 190.12868 152.763139 
L 184.404624 148.605502 
L 179.607558 151.51135 
z
" clip-path="url(#pba5e2b456b)" style="fill: #f5e924"/>
   </g>
   <g id="matplotlib.axis_1">
    <g id="xtick_1">
     <g id="line2d_1">
      <defs>
       <path id="me84bea1307" d="M 0 0 
L 0 3.5 
" style="stroke: #000000; stroke-width: 0.8"/>
      </defs>
      <g>
       <use xlink:href="#me84bea1307" x="41.556855" y="288.306028" style="stroke: #000000; stroke-width: 0.8"/>
      </g>
     </g>
     <g id="text_1">
      <!-- $\mathdefault{0.0}$ -->
      <g transform="translate(35.191815 302.224527) scale(0.1 -0.1)">
       <defs>
        <path id="CMR17-30" d="M 2688 2038 
C 2688 2430 2682 3099 2413 3613 
C 2176 4063 1798 4224 1466 4224 
C 1158 4224 768 4082 525 3620 
C 269 3137 243 2539 243 2038 
C 243 1671 250 1112 448 623 
C 723 -39 1216 -128 1466 -128 
C 1760 -128 2208 -7 2470 604 
C 2662 1048 2688 1568 2688 2038 
z
M 1466 -26 
C 1056 -26 813 328 723 816 
C 653 1196 653 1749 653 2109 
C 653 2604 653 3015 736 3407 
C 858 3954 1216 4121 1466 4121 
C 1728 4121 2067 3947 2189 3420 
C 2272 3054 2278 2623 2278 2109 
C 2278 1691 2278 1176 2202 797 
C 2067 96 1690 -26 1466 -26 
z
" transform="scale(0.015625)"/>
        <path id="CMMI12-3a" d="M 1178 307 
C 1178 492 1024 620 870 620 
C 685 620 557 467 557 313 
C 557 128 710 0 864 0 
C 1050 0 1178 153 1178 307 
z
" transform="scale(0.015625)"/>
       </defs>
       <use xlink:href="#CMR17-30" transform="scale(0.996264)"/>
       <use xlink:href="#CMMI12-3a" transform="translate(45.690477 0) scale(0.996264)"/>
       <use xlink:href="#CMR17-30" transform="translate(72.787654 0) scale(0.996264)"/>
      </g>
     </g>
    </g>
    <g id="xtick_2">
     <g id="line2d_2">
      <g>
       <use xlink:href="#me84bea1307" x="98.696055" y="288.306028" style="stroke: #000000; stroke-width: 0.8"/>
      </g>
     </g>
     <g id="text_2">
      <!-- $\mathdefault{0.2}$ -->
      <g transform="translate(92.331015 302.224527) scale(0.1 -0.1)">
       <defs>
        <path id="CMR17-32" d="M 2669 990 
L 2554 990 
C 2490 537 2438 460 2413 422 
C 2381 371 1920 371 1830 371 
L 602 371 
C 832 620 1280 1073 1824 1596 
C 2214 1966 2669 2400 2669 3033 
C 2669 3788 2067 4224 1395 4224 
C 691 4224 262 3603 262 3027 
C 262 2777 448 2745 525 2745 
C 589 2745 781 2783 781 3007 
C 781 3206 614 3264 525 3264 
C 486 3264 448 3257 422 3244 
C 544 3788 915 4057 1306 4057 
C 1862 4057 2227 3616 2227 3033 
C 2227 2477 1901 1998 1536 1583 
L 262 147 
L 262 0 
L 2515 0 
L 2669 990 
z
" transform="scale(0.015625)"/>
       </defs>
       <use xlink:href="#CMR17-30" transform="scale(0.996264)"/>
       <use xlink:href="#CMMI12-3a" transform="translate(45.690477 0) scale(0.996264)"/>
       <use xlink:href="#CMR17-32" transform="translate(72.787654 0) scale(0.996264)"/>
      </g>
     </g>
    </g>
    <g id="xtick_3">
     <g id="line2d_3">
      <g>
       <use xlink:href="#me84bea1307" x="155.835255" y="288.306028" style="stroke: #000000; stroke-width: 0.8"/>
      </g>
     </g>
     <g id="text_3">
      <!-- $\mathdefault{0.4}$ -->
      <g transform="translate(149.470215 302.224527) scale(0.1 -0.1)">
       <defs>
        <path id="CMR17-34" d="M 2150 4147 
C 2150 4281 2144 4288 2029 4288 
L 128 1254 
L 128 1088 
L 1779 1088 
L 1779 460 
C 1779 230 1766 166 1318 166 
L 1197 166 
L 1197 0 
C 1402 12 1747 12 1965 12 
C 2182 12 2528 12 2733 0 
L 2733 166 
L 2611 166 
C 2163 166 2150 230 2150 460 
L 2150 1088 
L 2803 1088 
L 2803 1254 
L 2150 1254 
L 2150 4147 
z
M 1798 3723 
L 1798 1254 
L 256 1254 
L 1798 3723 
z
" transform="scale(0.015625)"/>
       </defs>
       <use xlink:href="#CMR17-30" transform="scale(0.996264)"/>
       <use xlink:href="#CMMI12-3a" transform="translate(45.690477 0) scale(0.996264)"/>
       <use xlink:href="#CMR17-34" transform="translate(72.787654 0) scale(0.996264)"/>
      </g>
     </g>
    </g>
    <g id="xtick_4">
     <g id="line2d_4">
      <g>
       <use xlink:href="#me84bea1307" x="212.974455" y="288.306028" style="stroke: #000000; stroke-width: 0.8"/>
      </g>
     </g>
     <g id="text_4">
      <!-- $\mathdefault{0.6}$ -->
      <g transform="translate(206.609415 302.224527) scale(0.1 -0.1)">
       <defs>
        <path id="CMR17-36" d="M 678 2198 
C 678 3712 1395 4076 1811 4076 
C 1946 4076 2272 4049 2400 3782 
C 2298 3782 2106 3782 2106 3558 
C 2106 3385 2246 3328 2336 3328 
C 2394 3328 2566 3353 2566 3571 
C 2566 3987 2246 4224 1805 4224 
C 1043 4224 243 3411 243 2011 
C 243 257 966 -128 1478 -128 
C 2099 -128 2688 431 2688 1295 
C 2688 2101 2170 2688 1517 2688 
C 1126 2688 838 2430 678 1979 
L 678 2198 
z
M 1478 25 
C 691 25 691 1212 691 1450 
C 691 1914 909 2585 1504 2585 
C 1613 2585 1926 2585 2138 2140 
C 2253 1889 2253 1624 2253 1302 
C 2253 954 2253 696 2118 438 
C 1978 173 1773 25 1478 25 
z
" transform="scale(0.015625)"/>
       </defs>
       <use xlink:href="#CMR17-30" transform="scale(0.996264)"/>
       <use xlink:href="#CMMI12-3a" transform="translate(45.690477 0) scale(0.996264)"/>
       <use xlink:href="#CMR17-36" transform="translate(72.787654 0) scale(0.996264)"/>
      </g>
     </g>
    </g>
    <g id="xtick_5">
     <g id="line2d_5">
      <g>
       <use xlink:href="#me84bea1307" x="270.113655" y="288.306028" style="stroke: #000000; stroke-width: 0.8"/>
      </g>
     </g>
     <g id="text_5">
      <!-- $\mathdefault{0.8}$ -->
      <g transform="translate(263.748615 302.224527) scale(0.1 -0.1)">
       <defs>
        <path id="CMR17-38" d="M 1741 2289 
C 2144 2494 2554 2803 2554 3298 
C 2554 3884 1990 4224 1472 4224 
C 890 4224 378 3800 378 3215 
C 378 3054 416 2777 666 2533 
C 730 2469 998 2276 1171 2154 
C 883 2006 211 1652 211 945 
C 211 282 838 -128 1459 -128 
C 2144 -128 2720 366 2720 1022 
C 2720 1607 2330 1877 2074 2051 
L 1741 2289 
z
M 902 2855 
C 851 2887 595 3086 595 3388 
C 595 3781 998 4076 1459 4076 
C 1965 4076 2336 3716 2336 3298 
C 2336 2700 1670 2359 1638 2359 
C 1632 2359 1626 2359 1574 2398 
L 902 2855 
z
M 2080 1536 
C 2176 1466 2483 1253 2483 861 
C 2483 385 2010 25 1472 25 
C 890 25 448 443 448 951 
C 448 1459 838 1884 1280 2083 
L 2080 1536 
z
" transform="scale(0.015625)"/>
       </defs>
       <use xlink:href="#CMR17-30" transform="scale(0.996264)"/>
       <use xlink:href="#CMMI12-3a" transform="translate(45.690477 0) scale(0.996264)"/>
       <use xlink:href="#CMR17-38" transform="translate(72.787654 0) scale(0.996264)"/>
      </g>
     </g>
    </g>
    <g id="xtick_6">
     <g id="line2d_6">
      <g>
       <use xlink:href="#me84bea1307" x="327.252855" y="288.306028" style="stroke: #000000; stroke-width: 0.8"/>
      </g>
     </g>
     <g id="text_6">
      <!-- $\mathdefault{1.0}$ -->
      <g transform="translate(320.887815 302.224527) scale(0.1 -0.1)">
       <defs>
        <path id="CMR17-31" d="M 1702 4083 
C 1702 4217 1696 4224 1606 4224 
C 1357 3927 979 3833 621 3820 
C 602 3820 570 3820 563 3808 
C 557 3795 557 3782 557 3648 
C 755 3648 1088 3686 1344 3839 
L 1344 467 
C 1344 243 1331 166 781 166 
L 589 166 
L 589 0 
C 896 6 1216 12 1523 12 
C 1830 12 2150 6 2458 0 
L 2458 166 
L 2266 166 
C 1715 166 1702 236 1702 467 
L 1702 4083 
z
" transform="scale(0.015625)"/>
       </defs>
       <use xlink:href="#CMR17-31" transform="scale(0.996264)"/>
       <use xlink:href="#CMMI12-3a" transform="translate(45.690477 0) scale(0.996264)"/>
       <use xlink:href="#CMR17-30" transform="translate(72.787654 0) scale(0.996264)"/>
      </g>
     </g>
    </g>
    <g id="text_7">
     <!-- $x$ -->
     <g transform="translate(181.078811 316.463885) scale(0.12 -0.12)">
      <defs>
       <path id="CMMI12-78" d="M 3034 2624 
C 2829 2585 2752 2431 2752 2310 
C 2752 2156 2874 2105 2963 2105 
C 3155 2105 3290 2271 3290 2444 
C 3290 2694 2982 2816 2714 2816 
C 2323 2816 2106 2451 2048 2329 
C 1901 2790 1504 2816 1389 2816 
C 736 2816 390 1993 390 1849 
C 390 1823 416 1790 461 1790 
C 512 1790 525 1829 538 1855 
C 755 2572 1184 2687 1370 2687 
C 1658 2687 1715 2438 1715 2284 
C 1715 2143 1677 1993 1600 1678 
L 1382 778 
C 1286 390 1101 64 762 64 
C 730 64 570 64 435 126 
C 666 166 717 358 717 435 
C 717 563 621 640 499 640 
C 346 640 179 505 179 300 
C 179 57 480 -64 755 -64 
C 1062 -64 1280 153 1414 415 
C 1517 64 1837 -64 2074 -64 
C 2726 -64 3072 751 3072 896 
C 3072 929 3046 955 3008 955 
C 2950 955 2944 922 2925 870 
C 2752 300 2381 64 2093 64 
C 1869 64 1747 204 1747 467 
C 1747 607 1773 712 1875 1146 
L 2099 2039 
C 2195 2425 2413 2687 2707 2687 
C 2720 2687 2899 2687 3034 2624 
z
" transform="scale(0.015625)"/>
      </defs>
      <use xlink:href="#CMMI12-78" transform="scale(0.996264)"/>
     </g>
    </g>
   </g>
   <g id="matplotlib.axis_2">
    <g id="ytick_1">
     <g id="line2d_7">
      <defs>
       <path id="m9010c6da04" d="M 0 0 
L -3.5 0 
" style="stroke: #000000; stroke-width: 0.8"/>
      </defs>
      <g>
       <use xlink:href="#m9010c6da04" x="41.556855" y="288.306028" style="stroke: #000000; stroke-width: 0.8"/>
      </g>
     </g>
     <g id="text_8">
      <!-- $\mathdefault{0.0}$ -->
      <g transform="translate(21.826776 291.765277) scale(0.1 -0.1)">
       <use xlink:href="#CMR17-30" transform="scale(0.996264)"/>
       <use xlink:href="#CMMI12-3a" transform="translate(45.690477 0) scale(0.996264)"/>
       <use xlink:href="#CMR17-30" transform="translate(72.787654 0) scale(0.996264)"/>
      </g>
     </g>
    </g>
    <g id="ytick_2">
     <g id="line2d_8">
      <g>
       <use xlink:href="#m9010c6da04" x="41.556855" y="235.083628" style="stroke: #000000; stroke-width: 0.8"/>
      </g>
     </g>
     <g id="text_9">
      <!-- $\mathdefault{0.2}$ -->
      <g transform="translate(21.826776 238.542877) scale(0.1 -0.1)">
       <use xlink:href="#CMR17-30" transform="scale(0.996264)"/>
       <use xlink:href="#CMMI12-3a" transform="translate(45.690477 0) scale(0.996264)"/>
       <use xlink:href="#CMR17-32" transform="translate(72.787654 0) scale(0.996264)"/>
      </g>
     </g>
    </g>
    <g id="ytick_3">
     <g id="line2d_9">
      <g>
       <use xlink:href="#m9010c6da04" x="41.556855" y="181.861228" style="stroke: #000000; stroke-width: 0.8"/>
      </g>
     </g>
     <g id="text_10">
      <!-- $\mathdefault{0.4}$ -->
      <g transform="translate(21.826776 185.320477) scale(0.1 -0.1)">
       <use xlink:href="#CMR17-30" transform="scale(0.996264)"/>
       <use xlink:href="#CMMI12-3a" transform="translate(45.690477 0) scale(0.996264)"/>
       <use xlink:href="#CMR17-34" transform="translate(72.787654 0) scale(0.996264)"/>
      </g>
     </g>
    </g>
    <g id="ytick_4">
     <g id="line2d_10">
      <g>
       <use xlink:href="#m9010c6da04" x="41.556855" y="128.638828" style="stroke: #000000; stroke-width: 0.8"/>
      </g>
     </g>
     <g id="text_11">
      <!-- $\mathdefault{0.6}$ -->
      <g transform="translate(21.826776 132.098077) scale(0.1 -0.1)">
       <use xlink:href="#CMR17-30" transform="scale(0.996264)"/>
       <use xlink:href="#CMMI12-3a" transform="translate(45.690477 0) scale(0.996264)"/>
       <use xlink:href="#CMR17-36" transform="translate(72.787654 0) scale(0.996264)"/>
      </g>
     </g>
    </g>
    <g id="ytick_5">
     <g id="line2d_11">
      <g>
       <use xlink:href="#m9010c6da04" x="41.556855" y="75.416428" style="stroke: #000000; stroke-width: 0.8"/>
      </g>
     </g>
     <g id="text_12">
      <!-- $\mathdefault{0.8}$ -->
      <g transform="translate(21.826776 78.875677) scale(0.1 -0.1)">
       <use xlink:href="#CMR17-30" transform="scale(0.996264)"/>
       <use xlink:href="#CMMI12-3a" transform="translate(45.690477 0) scale(0.996264)"/>
       <use xlink:href="#CMR17-38" transform="translate(72.787654 0) scale(0.996264)"/>
      </g>
     </g>
    </g>
    <g id="ytick_6">
     <g id="line2d_12">
      <g>
       <use xlink:href="#m9010c6da04" x="41.556855" y="22.194028" style="stroke: #000000; stroke-width: 0.8"/>
      </g>
     </g>
     <g id="text_13">
      <!-- $\mathdefault{1.0}$ -->
      <g transform="translate(21.826776 25.653277) scale(0.1 -0.1)">
       <use xlink:href="#CMR17-31" transform="scale(0.996264)"/>
       <use xlink:href="#CMMI12-3a" transform="translate(45.690477 0) scale(0.996264)"/>
       <use xlink:href="#CMR17-30" transform="translate(72.787654 0) scale(0.996264)"/>
      </g>
     </g>
    </g>
    <g id="text_14">
     <!-- $y$ -->
     <g transform="translate(15.50218 158.103874) rotate(-90) scale(0.12 -0.12)">
      <defs>
       <path id="CMMI12-79" d="M 1683 -673 
C 1510 -921 1261 -1152 947 -1152 
C 870 -1152 563 -1139 467 -826 
C 486 -833 518 -833 531 -833 
C 723 -833 851 -666 851 -519 
C 851 -372 730 -320 634 -320 
C 531 -320 307 -397 307 -711 
C 307 -1050 582 -1280 947 -1280 
C 1587 -1280 2234 -673 2413 -7 
L 3040 2483 
C 3046 2515 3059 2553 3059 2591 
C 3059 2687 2982 2752 2886 2752 
C 2829 2752 2694 2726 2643 2534 
L 2170 657 
C 2138 542 2138 530 2086 459 
C 1958 281 1747 64 1440 64 
C 1082 64 1050 415 1050 587 
C 1050 951 1222 1443 1395 1902 
C 1466 2087 1504 2177 1504 2305 
C 1504 2573 1312 2816 998 2816 
C 410 2816 173 1890 173 1838 
C 173 1813 198 1781 243 1781 
C 301 1781 307 1807 333 1896 
C 486 2432 730 2687 979 2687 
C 1037 2687 1146 2687 1146 2477 
C 1146 2311 1075 2126 979 1883 
C 666 1047 666 836 666 683 
C 666 76 1101 -64 1421 -64 
C 1606 -64 1837 -7 2061 230 
L 2067 223 
C 1971 -141 1907 -359 1683 -673 
z
" transform="scale(0.015625)"/>
      </defs>
      <use xlink:href="#CMMI12-79" transform="scale(0.996264)"/>
     </g>
    </g>
   </g>
   <g id="TriContourSet_2">
    <path clip-path="url(#pba5e2b456b)" style="fill: none; stroke: #000000; stroke-width: 0.5"/>
    <path d="M 263.424066 273.787194 
L 264.854269 273.501185 
L 277.472475 270.641153 
L 285.527315 266.520747 
L 288.700102 265.619034 
L 291.245159 263.393438 
L 295.410596 261.021283 
L 301.193006 254.602925 
L 303.236767 251.981522 
L 307.811674 241.396521 
L 309.368505 238.365694 
L 311.575094 228.130631 
L 312.542396 225.011483 
L 313.854387 216.135219 
L 314.540233 212.528481 
L 315.088331 205.267215 
L 315.655676 196.731649 
L 315.986869 194.006059 
L 316.471461 185.204904 
L 316.699537 180.819425 
L 316.699537 179.608033 
L 317.147891 164.281277 
L 317.147891 162.850779 
L 317.149203 159.015249 
L 317.148195 147.94209 
L 317.004453 143.158329 
L 316.843564 136.130126 
L 316.843564 130.182588 
L 316.023838 117.2946 
L 316.023838 116.053338 
L 315.033542 105.061075 
L 314.29456 97.444824 
L 313.6783 93.560387 
L 311.553485 81.371404 
L 310.99078 79.793378 
L 308.362963 72.198527 
L 306.237618 65.477952 
L 305.882712 63.633549 
L 301.397014 56.832643 
L 299.213435 52.887217 
L 294.302797 49.162965 
L 290.679371 46.058989 
L 282.888505 41.951007 
L 273.337594 39.303334 
L 270.745362 38.118403 
L 257.611066 35.972682 
L 255.402368 35.374194 
L 245.572683 34.304526 
L 238.307957 33.354008 
L 227.970388 32.986029 
L 215.018768 32.138212 
L 211.233944 32.067611 
L 202.669064 31.83566 
L 198.832402 31.730835 
L 185.315515 31.626473 
L 177.481016 31.635976 
L 173.472693 31.635976 
L 166.19441 31.751206 
L 158.40736 31.945856 
L 152.542969 32.347575 
L 140.035499 32.77955 
L 123.689038 34.123367 
L 122.125848 34.33577 
L 120.949459 34.606276 
L 106.53385 36.436322 
L 100.905048 38.060544 
L 93.95583 39.032978 
L 89.572881 40.894713 
L 86.247407 42.122533 
L 81.351948 45.594626 
L 72.660045 49.885286 
L 69.007353 53.762939 
L 67.030086 58.661275 
L 60.3349 69.210529 
L 57.026786 83.042515 
L 56.606236 84.359905 
L 56.528854 84.590741 
L 56.38979 85.460295 
L 54.502828 96.146624 
L 54.502828 100.105618 
L 53.572276 107.490165 
L 53.400315 108.744592 
L 52.793834 119.031573 
L 52.092597 129.550273 
L 52.092597 131.053783 
L 51.69851 145.542233 
L 51.69851 149.402356 
L 51.679579 162.801584 
L 51.679579 164.330472 
L 52.115009 179.538002 
L 52.115009 180.858054 
L 52.565911 189.758872 
L 52.911786 196.386231 
L 53.034229 197.130505 
L 53.406672 200.516563 
L 54.625827 211.940701 
L 54.625827 214.983355 
L 56.203244 223.658734 
L 56.953703 227.47246 
L 57.511089 229.003995 
L 59.80031 239.411015 
L 62.882787 245.389451 
L 64.564322 250.71455 
L 70.015579 256.794624 
L 70.615177 257.681217 
L 71.176921 258.157093 
L 86.552423 268.688695 
L 88.209138 269.547425 
L 105.207298 273.433259 
L 109.321885 274.468365 
L 109.871376 274.556328 
L 110.343549 274.556328 
L 112.524637 274.820003 
L 123.125008 276.253209 
L 125.983282 276.633998 
L 133.531709 277.286462 
L 145.232119 277.947566 
L 146.518512 277.947566 
L 159.080659 278.552361 
L 159.192204 278.552361 
L 172.593453 278.8583 
L 177.691402 278.8583 
L 188.236081 278.890983 
L 194.061432 278.839961 
L 200.142247 278.753379 
L 201.242601 278.701013 
L 208.209265 278.547035 
L 213.936546 278.429138 
L 218.691851 278.218067 
L 228.3128 277.737021 
L 240.255124 276.698091 
L 242.179961 276.551537 
L 242.691225 276.551537 
L 262.654566 273.787194 
L 263.424066 273.787194 
z
" clip-path="url(#pba5e2b456b)" style="fill: none; stroke: #000000; stroke-width: 0.5"/>
    <path d="M 248.7746 263.213511 
L 264.588003 258.200993 
L 265.873526 257.822608 
L 269.89064 255.350675 
L 280.54723 249.030981 
L 282.969834 246.962089 
L 289.355432 239.864235 
L 292.176815 235.808873 
L 295.551779 228.793385 
L 298.10981 220.576653 
L 300.433366 215.465404 
L 301.862876 210.348638 
L 303.10546 203.692678 
L 304.575925 192.771417 
L 305.075687 190.026684 
L 305.823063 181.411358 
L 306.514155 172.8401 
L 306.588874 170.290883 
L 306.891553 161.576937 
L 306.968683 153.739658 
L 306.943697 151.70123 
L 306.879593 149.479008 
L 306.407783 136.075297 
L 306.050807 132.729807 
L 305.371825 125.093754 
L 304.934374 119.008332 
L 304.594496 115.771272 
L 302.322626 103.837956 
L 300.703131 96.077278 
L 299.429001 92.518936 
L 295.367757 81.144088 
L 293.887 78.736364 
L 287.899408 68.95327 
L 286.903665 67.8737 
L 277.651671 59.395253 
L 273.115278 55.998421 
L 263.81163 51.953556 
L 261.187492 50.76055 
L 250.879255 47.933487 
L 246.455274 46.557334 
L 236.476909 45.138492 
L 230.289556 43.895547 
L 220.399493 42.670648 
L 215.910487 42.367175 
L 206.301875 41.744169 
L 204.221404 41.600476 
L 187.773057 41.164605 
L 185.45791 41.093155 
L 177.905879 41.18219 
L 164.216421 41.598884 
L 160.792071 41.783712 
L 146.26137 42.798011 
L 142.762458 43.190165 
L 140.544949 43.610241 
L 137.742823 44.165884 
L 125.44869 45.938329 
L 117.263031 47.755779 
L 106.401754 51.822449 
L 103.809443 52.574261 
L 98.762413 55.228283 
L 93.95306 57.601249 
L 92.776996 58.521582 
L 88.367592 62.637364 
L 81.266346 68.445716 
L 79.321438 71.471642 
L 72.514768 82.663546 
L 71.263865 86.58205 
L 68.415098 95.080204 
L 68.154792 96.707863 
L 66.590647 102.233329 
L 64.870376 113.788048 
L 63.933355 118.18227 
L 63.571654 121.141979 
L 63.059497 127.694832 
L 62.387595 135.676102 
L 62.225355 141.375194 
L 61.905901 153.990516 
L 61.905254 160.002926 
L 62.127589 167.433928 
L 62.259463 172.036404 
L 63.658214 189.358839 
L 63.662906 189.418709 
L 63.665238 189.43463 
L 63.673242 189.48049 
L 65.707048 201.843051 
L 66.283795 207.086534 
L 68.054924 213.413147 
L 71.000435 222.702548 
L 71.228258 223.860315 
L 71.622797 224.944393 
L 74.640401 231.90568 
L 80.178874 240.459013 
L 81.237763 241.870594 
L 83.64409 243.839807 
L 93.370986 252.806704 
L 103.479713 257.551648 
L 106.227402 259.028797 
L 121.63766 263.558323 
L 122.899379 264.011549 
L 124.792841 264.410362 
L 134.612646 266.054212 
L 143.91011 267.375186 
L 146.604071 267.58724 
L 148.524257 267.678403 
L 160.827018 268.730098 
L 164.793177 268.84893 
L 175.15915 269.241841 
L 181.987365 269.357439 
L 184.915549 269.359171 
L 193.547524 269.183666 
L 198.160762 269.11798 
L 208.218715 268.639323 
L 211.100347 268.575632 
L 221.636245 267.674612 
L 223.810912 267.459582 
L 224.943893 267.252165 
L 237.825709 265.551748 
L 248.725073 263.220411 
L 248.7746 263.213511 
z
" clip-path="url(#pba5e2b456b)" style="fill: none; stroke: #000000; stroke-width: 0.5"/>
    <path d="M 295.522289 172.903508 
L 295.975247 164.875236 
L 296.430999 158.151803 
L 296.383244 154.255742 
L 295.975271 140.113099 
L 295.938743 139.075361 
L 295.383078 133.867808 
L 294.713694 128.300464 
L 294.036488 124.38688 
L 292.810953 116.972685 
L 292.068687 113.302619 
L 289.908419 105.339828 
L 285.344933 93.782251 
L 284.59505 92.024416 
L 283.650626 90.618969 
L 278.219218 81.571922 
L 273.420675 76.20948 
L 269.202151 72.08178 
L 261.843495 66.962274 
L 258.862308 65.254205 
L 252.62023 62.2151 
L 246.987089 59.746406 
L 240.834081 57.835695 
L 229.414554 54.908294 
L 229.255162 54.876275 
L 229.14008 54.862022 
L 216.794795 53.032981 
L 203.475831 51.537733 
L 201.801026 51.422057 
L 200.098457 51.37694 
L 189.212234 51.040971 
L 181.993848 50.838402 
L 181.172669 50.821462 
L 179.986463 50.866002 
L 161.481336 51.864688 
L 159.848148 52.062511 
L 148.947421 53.284251 
L 140.669493 54.852391 
L 130.702596 56.828759 
L 130.292235 56.974261 
L 108.265805 66.145109 
L 106.431353 67.253636 
L 98.019777 73.636443 
L 91.973466 80.352852 
L 90.090385 82.34293 
L 89.308977 83.694258 
L 82.693816 94.970669 
L 81.91458 97.094493 
L 80.6836 100.850064 
L 77.880577 108.794047 
L 76.690059 113.773013 
L 74.83493 122.472762 
L 74.511845 125.116489 
L 73.582053 131.752627 
L 73.164787 136.705827 
L 72.669285 146.004057 
L 72.400398 156.366867 
L 72.791486 167.184348 
L 72.941263 171.450126 
L 73.368635 176.904039 
L 75.172177 189.213572 
L 75.747451 192.509961 
L 77.791801 201.322265 
L 79.816138 208.209902 
L 82.344133 214.229556 
L 86.442981 222.473925 
L 89.085033 226.652204 
L 92.621848 230.693866 
L 95.429526 234.436715 
L 98.949524 237.3173 
L 104.820245 242.439231 
L 115.574299 248.09892 
L 116.334822 248.534712 
L 118.352043 249.274036 
L 128.060185 252.761327 
L 131.019286 253.384592 
L 138.989325 255.509779 
L 147.537584 256.952113 
L 152.00081 257.636883 
L 155.634533 257.951734 
L 162.700365 258.644884 
L 175.225233 259.490563 
L 175.503449 259.502809 
L 175.81658 259.511443 
L 185.8234 259.542335 
L 192.571562 259.455748 
L 200.257245 259.080832 
L 208.306458 258.612386 
L 217.791093 257.487754 
L 219.841141 257.285046 
L 224.298788 256.468976 
L 235.60876 253.945766 
L 246.581563 250.544392 
L 249.354718 249.768249 
L 250.452508 249.408044 
L 257.934285 246.100852 
L 263.998379 242.271743 
L 268.143307 239.382774 
L 273.377939 234.131131 
L 275.873705 231.591448 
L 282.08205 223.40336 
L 285.545112 216.337396 
L 287.584894 211.850379 
L 288.702765 207.84909 
L 291.42474 199.721579 
L 293.634595 189.401989 
L 294.263908 185.945749 
L 294.481057 183.442577 
L 295.522289 172.903508 
z
" clip-path="url(#pba5e2b456b)" style="fill: none; stroke: #000000; stroke-width: 0.5"/>
    <path d="M 284.364567 174.563815 
L 284.415537 173.660417 
L 284.620609 170.635104 
L 285.187599 159.517267 
L 285.451953 153.547296 
L 285.150569 146.667232 
L 284.536821 139.506024 
L 283.096885 128.340924 
L 282.740047 126.31858 
L 282.039946 123.788512 
L 279.948016 116.073367 
L 278.537495 111.114881 
L 274.285329 102.038017 
L 272.936369 98.875856 
L 270.945859 95.913674 
L 265.73315 88.633532 
L 257.06891 80.55652 
L 255.902664 79.507001 
L 254.915249 78.86074 
L 246.003657 73.37663 
L 238.530399 70.130117 
L 234.528805 68.474877 
L 227.038265 66.39859 
L 218.179132 64.139958 
L 216.944008 63.823497 
L 215.911884 63.652935 
L 203.437628 62.257987 
L 195.244484 61.340598 
L 194.169969 61.310444 
L 182.605806 61.071885 
L 174.719442 61.368005 
L 168.270677 61.79102 
L 165.218684 62.224039 
L 152.844267 63.799717 
L 143.825184 65.511879 
L 140.735808 66.381965 
L 128.423595 70.845635 
L 125.914288 72.138997 
L 111.762412 80.442255 
L 104.700637 87.093949 
L 101.097146 90.758579 
L 99.906823 92.810258 
L 92.273195 106.216607 
L 91.546155 108.288702 
L 88.56217 116.627697 
L 86.668998 124.602654 
L 85.656161 128.697778 
L 84.637335 135.79643 
L 83.969479 141.233946 
L 83.569634 148.58846 
L 83.366864 155.431656 
L 83.809026 165.704196 
L 84.342032 172.379436 
L 85.720452 180.98815 
L 86.463365 185.965693 
L 88.089152 192.2937 
L 89.93574 198.216377 
L 93.185979 206.403417 
L 95.831805 211.366902 
L 102.038801 219.888484 
L 103.476707 222.162462 
L 104.675769 223.53268 
L 109.955367 228.108463 
L 113.822909 231.626773 
L 115.083296 232.491971 
L 120.594842 235.585041 
L 125.886786 238.617414 
L 127.443544 239.187975 
L 134.438259 242.028142 
L 143.988154 244.863686 
L 146.826542 245.620534 
L 149.957251 246.148773 
L 163.640625 248.392703 
L 164.622591 248.489033 
L 165.599251 248.554977 
L 180.783731 249.223314 
L 185.522433 249.353977 
L 191.842259 249.189467 
L 202.485289 248.679522 
L 206.45066 248.168422 
L 209.122151 247.608522 
L 218.925218 245.906051 
L 226.30663 244.067087 
L 233.076741 242.478907 
L 240.799079 239.278693 
L 244.898994 237.722207 
L 248.055721 236.059455 
L 256.331656 230.082816 
L 260.451531 227.228322 
L 269.873722 216.647605 
L 269.984527 216.53485 
L 270.027247 216.478507 
L 270.072753 216.385658 
L 275.554027 206.5134 
L 278.515037 198.906192 
L 279.577522 196.323673 
L 280.352527 193.774828 
L 282.364678 185.486862 
L 284.209516 176.133192 
L 284.364567 174.563815 
z
" clip-path="url(#pba5e2b456b)" style="fill: none; stroke: #000000; stroke-width: 0.5"/>
    <path d="M 257.393685 100.628917 
L 253.119265 95.476094 
L 247.656592 90.69455 
L 246.213168 89.395595 
L 237.118089 83.442887 
L 236.013612 82.763202 
L 235.087398 82.360839 
L 230.087369 80.292601 
L 225.059674 78.239919 
L 221.002388 76.945776 
L 211.599331 74.536547 
L 201.966545 72.944694 
L 199.935482 72.721043 
L 198.246925 72.603811 
L 183.328647 72.063063 
L 167.759393 72.963926 
L 165.97083 73.081249 
L 162.710841 73.543779 
L 155.262769 74.942086 
L 152.03387 75.816927 
L 143.177928 78.302811 
L 140.218594 79.660706 
L 135.319423 82.324337 
L 124.482484 87.908829 
L 119.346009 92.409341 
L 113.711474 97.567072 
L 108.522904 104.376966 
L 107.625417 105.624041 
L 106.602119 107.767342 
L 100.887578 119.52451 
L 99.70404 122.832006 
L 99.114282 125.316351 
L 96.688064 135.126087 
L 96.497657 136.064099 
L 96.400252 136.652377 
L 95.495003 145.638708 
L 95.098826 154.073181 
L 95.09256 159.265269 
L 95.932535 170.995195 
L 96.064696 171.882028 
L 96.858216 175.165388 
L 99.837683 187.595959 
L 101.558216 192.87833 
L 103.993938 198.216377 
L 106.779004 203.411332 
L 115.720128 214.558479 
L 118.36906 217.902994 
L 119.616066 219.037397 
L 127.448674 224.414119 
L 129.251645 225.642729 
L 140.060474 230.860021 
L 142.275366 231.786493 
L 150.187769 234.144449 
L 158.116445 236.059143 
L 163.777157 236.975069 
L 170.879823 237.805247 
L 173.641154 238.041375 
L 184.291531 238.427823 
L 193.127918 238.116512 
L 197.515122 237.800505 
L 206.616853 236.769612 
L 207.438852 236.577555 
L 216.002834 234.851677 
L 218.388061 234.351773 
L 218.505369 234.331401 
L 218.708986 234.280673 
L 230.134318 230.183637 
L 234.370768 228.42832 
L 242.403993 223.79521 
L 244.949378 221.971038 
L 252.831227 215.542764 
L 254.438923 213.71908 
L 260.87641 205.346763 
L 262.298943 202.847689 
L 267.004272 193.454269 
L 267.330747 192.660726 
L 267.57383 191.861273 
L 270.900693 181.438619 
L 271.571504 177.909547 
L 273.18775 169.078797 
L 273.244616 167.963748 
L 273.326576 166.112821 
L 273.764062 154.396031 
L 273.460914 148.750396 
L 272.889328 141.400444 
L 271.821378 134.323885 
L 271.151134 130.525347 
L 269.813537 125.691454 
L 267.227108 117.556224 
L 264.400689 111.930394 
L 261.483199 106.040382 
L 257.393685 100.628917 
z
" clip-path="url(#pba5e2b456b)" style="fill: none; stroke: #000000; stroke-width: 0.5"/>
    <path d="M 137.980287 214.682883 
L 142.541031 217.552221 
L 152.190471 221.550399 
L 156.23612 222.933515 
L 163.027947 224.489301 
L 180.037792 226.51231 
L 183.52638 226.810627 
L 185.183226 226.870746 
L 186.557876 226.822316 
L 196.718989 226.090418 
L 199.159935 225.832179 
L 199.794548 225.671155 
L 216.695791 221.612304 
L 228.865527 215.888904 
L 232.439882 214.210793 
L 232.918529 213.937823 
L 233.334414 213.59881 
L 241.496731 206.682812 
L 246.958218 200.255682 
L 248.758604 197.917317 
L 254.104503 189.042953 
L 254.304132 188.648227 
L 254.474048 188.157985 
L 257.840504 178.463748 
L 260.25127 168.504093 
L 260.373138 167.763541 
L 260.433765 166.942041 
L 260.611713 155.114692 
L 260.4381 146.38456 
L 259.002632 136.745108 
L 258.433257 133.586186 
L 257.57274 130.907292 
L 254.844907 123.562388 
L 252.763278 119.42046 
L 249.977962 114.25897 
L 241.369975 103.840579 
L 239.374049 101.522763 
L 238.298702 100.623341 
L 224.334575 91.864057 
L 222.37904 91.104031 
L 209.289718 86.727332 
L 198.454242 85.07637 
L 192.083439 84.374845 
L 185.455934 83.914718 
L 178.88497 84.196563 
L 170.233033 84.896792 
L 163.01168 85.951318 
L 162.08871 86.176238 
L 151.517059 89.215965 
L 139.122954 94.78729 
L 138.828363 94.947953 
L 127.205621 104.075466 
L 125.30282 105.974686 
L 118.097395 115.980657 
L 115.579059 120.358707 
L 112.342721 127.437232 
L 110.394034 134.364647 
L 109.21554 140.170313 
L 108.516806 144.39034 
L 107.919141 151.451538 
L 107.889167 159.273305 
L 108.719426 167.912713 
L 109.310956 171.882028 
L 110.46342 176.650591 
L 113.723094 186.468468 
L 115.10374 189.527926 
L 119.919141 197.760084 
L 121.730964 200.052119 
L 130.421763 209.464475 
L 137.980287 214.682883 
z
" clip-path="url(#pba5e2b456b)" style="fill: none; stroke: #000000; stroke-width: 0.5"/>
    <path d="M 156.373413 102.995479 
L 149.460078 106.44595 
L 144.714911 109.033859 
L 143.143353 110.268027 
L 140.552283 112.854222 
L 133.287345 120.764087 
L 129.005031 128.357184 
L 125.85854 135.072257 
L 124.627957 139.344224 
L 122.783476 148.399939 
L 122.50399 152.224681 
L 122.620604 163.426707 
L 122.646168 163.683666 
L 126.714079 178.301043 
L 127.478453 180.595773 
L 129.999221 184.990188 
L 134.104572 190.993023 
L 139.570124 197.030594 
L 152.467273 206.034911 
L 154.182681 207.203287 
L 154.772713 207.533372 
L 156.985841 208.221894 
L 168.182914 211.258274 
L 181.207777 213.07083 
L 181.9115 213.140133 
L 188.962625 212.706095 
L 197.311427 212.176127 
L 197.608179 212.144732 
L 199.730639 211.606188 
L 211.259569 208.436418 
L 218.434713 204.396003 
L 226.160094 199.854066 
L 227.290791 198.992376 
L 232.964562 192.423899 
L 238.635006 185.317435 
L 240.175472 182.410363 
L 243.401828 174.421902 
L 245.94162 164.803307 
L 246.001339 164.513547 
L 246.706155 151.461482 
L 246.710182 151.193862 
L 246.706722 151.019891 
L 246.66415 150.734014 
L 244.15266 139.727687 
L 242.744242 134.923587 
L 240.9631 129.786471 
L 239.325336 126.717853 
L 231.769638 115.901213 
L 231.309412 115.366765 
L 228.91243 113.361925 
L 221.504046 107.336686 
L 219.878193 106.32386 
L 214.379712 103.994272 
L 207.08567 101.129018 
L 198.427937 99.116711 
L 190.600609 97.791582 
L 184.844316 97.813814 
L 175.949965 98.147561 
L 171.006781 98.881223 
L 159.40779 101.570315 
L 156.373413 102.995479 
z
" clip-path="url(#pba5e2b456b)" style="fill: none; stroke: #000000; stroke-width: 0.5"/>
    <path d="M 147.12888 176.949139 
L 147.789618 178.33995 
L 148.282183 179.070162 
L 149.92273 180.933137 
L 154.574236 185.464343 
L 155.941663 186.585656 
L 165.202719 192.383716 
L 166.312822 192.810918 
L 183.898723 195.575894 
L 191.35273 195.294927 
L 195.929843 194.485643 
L 201.545834 192.744867 
L 212.826578 186.690231 
L 214.974665 185.332612 
L 215.694253 184.569258 
L 217.295981 182.10613 
L 224.47974 170.50669 
L 226.066209 166.895676 
L 227.048818 162.973086 
L 228.269916 154.761522 
L 227.40907 148.729313 
L 226.322701 142.489063 
L 225.794947 141.177382 
L 222.672169 136.021316 
L 217.364599 128.082996 
L 215.419396 125.938817 
L 204.023982 118.745799 
L 198.203409 116.787106 
L 189.20035 114.943084 
L 184.868729 114.679099 
L 178.762011 115.488735 
L 171.746175 116.705868 
L 167.916623 117.824828 
L 160.897005 121.153944 
L 154.813262 124.809619 
L 153.716293 125.740814 
L 152.356736 127.090784 
L 146.471767 134.827187 
L 142.785038 142.280606 
L 140.793553 153.10177 
L 140.654107 154.901783 
L 142.389231 165.727561 
L 147.12888 176.949139 
z
" clip-path="url(#pba5e2b456b)" style="fill: none; stroke: #000000; stroke-width: 0.5"/>
    <path d="M 179.455457 156.096763 
L 181.530402 158.86548 
L 184.01629 159.621992 
L 187.909203 159.166193 
L 190.12868 152.763139 
L 184.404624 148.605502 
L 179.607558 151.51135 
L 179.455457 156.096763 
z
" clip-path="url(#pba5e2b456b)" style="fill: none; stroke: #000000; stroke-width: 0.5"/>
    <path clip-path="url(#pba5e2b456b)" style="fill: none; stroke: #000000; stroke-width: 0.5"/>
   </g>
   <g id="patch_3">
    <path d="M 41.556855 288.306028 
L 41.556855 22.194028 
" style="fill: none; stroke: #000000; stroke-width: 0.8; stroke-linejoin: miter; stroke-linecap: square"/>
   </g>
   <g id="patch_4">
    <path d="M 327.252855 288.306028 
L 327.252855 22.194028 
" style="fill: none; stroke: #000000; stroke-width: 0.8; stroke-linejoin: miter; stroke-linecap: square"/>
   </g>
   <g id="patch_5">
    <path d="M 41.556855 288.306028 
L 327.252855 288.306028 
" style="fill: none; stroke: #000000; stroke-width: 0.8; stroke-linejoin: miter; stroke-linecap: square"/>
   </g>
   <g id="patch_6">
    <path d="M 41.556855 22.194028 
L 327.252855 22.194028 
" style="fill: none; stroke: #000000; stroke-width: 0.8; stroke-linejoin: miter; stroke-linecap: square"/>
   </g>
   <g id="text_15">
    <!-- Solution of the heat equation at $T=0.1$ -->
    <g transform="translate(72.292584 16.194028) scale(0.13 -0.13)">
     <defs>
      <path id="CMR17-53" d="M 2803 4351 
C 2803 4467 2797 4473 2758 4473 
C 2720 4473 2707 4447 2682 4390 
L 2490 3965 
C 2246 4320 1875 4480 1472 4480 
C 819 4480 294 3958 294 3301 
C 294 3101 339 2817 557 2546 
C 794 2250 1018 2198 1530 2063 
C 1722 2011 2042 1927 2106 1901 
C 2470 1747 2662 1360 2662 999 
C 2662 534 2336 38 1779 38 
C 1094 38 454 425 410 1328 
C 403 1431 397 1437 352 1437 
C 301 1437 294 1431 294 1302 
L 294 0 
C 294 -116 301 -122 339 -122 
C 384 -122 397 -90 486 109 
C 493 128 493 141 614 386 
C 934 -39 1472 -128 1779 -128 
C 2477 -128 2970 457 2970 1141 
C 2970 1476 2848 1734 2778 1850 
C 2509 2263 2221 2340 1914 2417 
C 1869 2437 1856 2437 1498 2527 
C 1152 2617 1005 2662 845 2836 
C 666 3036 602 3243 602 3449 
C 602 3868 934 4326 1478 4326 
C 2157 4326 2579 3842 2675 3036 
C 2694 2920 2701 2914 2746 2914 
C 2803 2914 2803 2933 2803 3043 
L 2803 4351 
z
" transform="scale(0.015625)"/>
      <path id="CMR17-6f" d="M 2758 1356 
C 2758 2176 2163 2816 1466 2816 
C 768 2816 173 2176 173 1356 
C 173 550 768 -64 1466 -64 
C 2163 -64 2758 550 2758 1356 
z
M 1466 51 
C 1165 51 909 230 762 480 
C 602 768 582 1126 582 1408 
C 582 1676 595 2009 762 2297 
C 890 2508 1139 2713 1466 2713 
C 1754 2713 1997 2553 2150 2329 
C 2349 2028 2349 1606 2349 1408 
C 2349 1158 2336 774 2163 467 
C 1984 172 1709 51 1466 51 
z
" transform="scale(0.015625)"/>
      <path id="CMR17-6c" d="M 979 4416 
L 218 4345 
L 218 4179 
C 595 4179 653 4141 653 3835 
L 653 439 
C 653 198 627 166 218 166 
L 218 0 
C 371 12 653 12 813 12 
C 979 12 1261 12 1414 0 
L 1414 166 
C 1005 166 979 191 979 439 
L 979 4416 
z
" transform="scale(0.015625)"/>
      <path id="CMR17-75" d="M 1882 2745 
L 1882 2579 
C 2259 2579 2317 2540 2317 2229 
L 2317 1053 
C 2317 510 2029 38 1555 38 
C 1030 38 986 355 986 691 
L 986 2816 
L 211 2745 
L 211 2579 
C 467 2579 640 2579 646 2320 
L 646 1079 
C 646 646 646 368 813 187 
C 896 103 1056 -64 1517 -64 
C 2061 -64 2272 400 2323 536 
L 2330 536 
L 2330 -64 
L 3091 -13 
L 3091 154 
C 2714 154 2656 193 2656 503 
L 2656 2816 
L 1882 2745 
z
" transform="scale(0.015625)"/>
      <path id="CMR17-74" d="M 966 2585 
L 1862 2585 
L 1862 2752 
L 966 2752 
L 966 3968 
L 851 3968 
C 838 3292 614 2700 70 2687 
L 70 2585 
L 627 2585 
L 627 778 
C 627 655 627 -64 1370 -64 
C 1747 -64 1965 308 1965 784 
L 1965 1151 
L 1850 1151 
L 1850 790 
C 1850 347 1677 51 1408 51 
C 1222 51 966 179 966 765 
L 966 2585 
z
" transform="scale(0.015625)"/>
      <path id="CMR17-69" d="M 992 3961 
C 992 4102 877 4224 730 4224 
C 589 4224 467 4108 467 3961 
C 467 3820 582 3699 730 3699 
C 870 3699 992 3814 992 3961 
z
M 243 2745 
L 243 2579 
C 602 2579 653 2540 653 2231 
L 653 443 
C 653 198 627 166 218 166 
L 218 0 
C 371 12 646 12 806 12 
C 960 12 1222 12 1370 0 
L 1370 166 
C 992 166 979 205 979 436 
L 979 2816 
L 243 2745 
z
" transform="scale(0.015625)"/>
      <path id="CMR17-6e" d="M 2656 1954 
C 2656 2282 2592 2816 1837 2816 
C 1331 2816 1069 2424 973 2166 
L 966 2166 
L 966 2816 
L 211 2745 
L 211 2578 
C 589 2578 646 2540 646 2231 
L 646 443 
C 646 198 621 166 211 166 
L 211 0 
C 365 12 646 12 813 12 
C 979 12 1267 12 1421 0 
L 1421 166 
C 1011 166 986 192 986 443 
L 986 1678 
C 986 2269 1344 2713 1792 2713 
C 2266 2713 2317 2289 2317 1980 
L 2317 443 
C 2317 198 2291 166 1882 166 
L 1882 0 
C 2035 12 2317 12 2483 12 
C 2650 12 2938 12 3091 0 
L 3091 166 
C 2682 166 2656 192 2656 443 
L 2656 1954 
z
" transform="scale(0.015625)"/>
      <path id="CMR17-66" d="M 979 2585 
L 1709 2585 
L 1709 2752 
L 966 2752 
L 966 3539 
C 966 4076 1235 4377 1510 4377 
C 1594 4377 1690 4363 1754 4339 
C 1702 4326 1568 4281 1568 4121 
C 1568 3955 1696 3904 1786 3904 
C 1875 3904 2003 3955 2003 4121 
C 2003 4353 1773 4480 1517 4480 
C 1152 4480 653 4211 653 3526 
L 653 2752 
L 141 2752 
L 141 2585 
L 653 2585 
L 653 441 
C 653 198 627 166 218 166 
L 218 0 
C 371 12 666 12 832 12 
C 1018 12 1344 12 1517 0 
L 1517 166 
C 1056 166 979 166 979 454 
L 979 2585 
z
" transform="scale(0.015625)"/>
      <path id="CMR17-68" d="M 2656 1954 
C 2656 2282 2592 2816 1837 2816 
C 1312 2816 1056 2392 979 2179 
L 973 2179 
L 973 4416 
L 211 4345 
L 211 4179 
C 589 4179 646 4141 646 3843 
L 646 443 
C 646 198 621 166 211 166 
L 211 0 
C 365 12 646 12 813 12 
C 979 12 1267 12 1421 0 
L 1421 166 
C 1011 166 986 192 986 443 
L 986 1678 
C 986 2269 1344 2713 1792 2713 
C 2266 2713 2317 2289 2317 1980 
L 2317 443 
C 2317 198 2291 166 1882 166 
L 1882 0 
C 2035 12 2317 12 2483 12 
C 2650 12 2938 12 3091 0 
L 3091 166 
C 2682 166 2656 192 2656 443 
L 2656 1954 
z
" transform="scale(0.015625)"/>
      <path id="CMR17-65" d="M 2438 1503 
C 2464 1529 2464 1542 2464 1606 
C 2464 2251 2118 2816 1389 2816 
C 710 2816 173 2175 173 1394 
C 173 554 781 -64 1459 -64 
C 2176 -64 2458 619 2458 755 
C 2458 800 2419 800 2406 800 
C 2362 800 2355 787 2330 709 
C 2189 270 1837 51 1504 51 
C 1229 51 954 206 781 490 
C 582 819 582 1200 582 1503 
L 2438 1503 
z
M 589 1600 
C 634 2511 1126 2713 1382 2713 
C 1818 2713 2112 2308 2118 1600 
L 589 1600 
z
" transform="scale(0.015625)"/>
      <path id="CMR17-61" d="M 2304 1656 
C 2304 2048 2304 2275 2035 2534 
C 1798 2751 1523 2816 1306 2816 
C 800 2816 435 2408 435 1977 
C 435 1740 627 1728 666 1728 
C 749 1728 896 1779 896 1958 
C 896 2118 774 2188 666 2188 
C 640 2188 608 2182 589 2176 
C 723 2594 1069 2713 1293 2713 
C 1613 2713 1965 2421 1965 1875 
L 1965 1632 
C 1587 1619 1133 1568 774 1373 
C 371 1147 256 822 256 576 
C 256 77 832 -64 1171 -64 
C 1523 -64 1850 135 1990 505 
C 2003 219 2182 -39 2464 -39 
C 2598 -39 2938 51 2938 563 
L 2938 926 
L 2822 926 
L 2822 557 
C 2822 161 2650 109 2566 109 
C 2304 109 2304 446 2304 732 
L 2304 1656 
z
M 1965 887 
C 1965 323 1568 38 1216 38 
C 896 38 646 278 646 576 
C 646 771 730 1114 1101 1322 
C 1408 1497 1760 1523 1965 1536 
L 1965 887 
z
" transform="scale(0.015625)"/>
      <path id="CMR17-71" d="M 2630 2816 
L 2528 2816 
L 2336 2177 
C 2189 2519 1920 2816 1491 2816 
C 838 2816 211 2228 211 1376 
C 211 529 800 -64 1440 -64 
C 1933 -64 2208 316 2291 458 
L 2291 -834 
C 2291 -1081 2266 -1114 1856 -1114 
L 1856 -1280 
C 2010 -1268 2291 -1268 2458 -1268 
C 2624 -1268 2912 -1268 3066 -1280 
L 3066 -1114 
C 2656 -1114 2630 -1088 2630 -834 
L 2630 2816 
z
M 2304 871 
C 2304 594 2074 335 2054 316 
C 1856 90 1626 38 1472 38 
C 992 38 621 652 621 1369 
C 621 2125 1043 2700 1536 2700 
C 2048 2700 2304 2112 2304 1776 
L 2304 871 
z
" transform="scale(0.015625)"/>
      <path id="CMMI12-54" d="M 2669 3886 
C 2707 4038 2720 4096 2816 4121 
C 2867 4134 3078 4134 3213 4134 
C 3853 4134 4154 4109 4154 3612 
C 4154 3516 4128 3274 4090 3038 
L 4083 2962 
C 4083 2937 4109 2898 4147 2898 
C 4211 2898 4211 2930 4230 3032 
L 4416 4159 
C 4429 4217 4429 4230 4429 4249 
C 4429 4319 4390 4319 4262 4319 
L 762 4319 
C 614 4319 608 4313 570 4198 
L 179 3051 
C 173 3038 154 2968 154 2962 
C 154 2930 179 2898 218 2898 
C 269 2898 282 2924 307 3007 
C 576 3777 710 4134 1562 4134 
L 1990 4134 
C 2144 4134 2208 4134 2208 4064 
C 2208 4045 2208 4032 2176 3917 
L 1318 497 
C 1254 249 1242 185 563 185 
C 403 185 358 185 358 64 
C 358 0 429 0 461 0 
C 621 0 787 12 947 12 
L 1946 12 
C 2106 12 2278 0 2438 0 
C 2509 0 2573 0 2573 121 
C 2573 185 2528 185 2362 185 
C 1786 185 1786 242 1786 338 
C 1786 344 1786 389 1811 491 
L 2669 3886 
z
" transform="scale(0.015625)"/>
      <path id="CMR17-3d" d="M 4115 2048 
C 4211 2048 4307 2048 4307 2156 
C 4307 2272 4198 2272 4090 2272 
L 512 2272 
C 403 2272 294 2272 294 2156 
C 294 2048 390 2048 486 2048 
L 4115 2048 
z
M 4090 927 
C 4198 927 4307 927 4307 1043 
C 4307 1152 4211 1152 4115 1152 
L 486 1152 
C 390 1152 294 1152 294 1043 
C 294 927 403 927 512 927 
L 4090 927 
z
" transform="scale(0.015625)"/>
     </defs>
     <use xlink:href="#CMR17-53" transform="scale(0.996264)"/>
     <use xlink:href="#CMR17-6f" transform="translate(50.89537 0) scale(0.996264)"/>
     <use xlink:href="#CMR17-6c" transform="translate(96.585847 0) scale(0.996264)"/>
     <use xlink:href="#CMR17-75" transform="translate(121.456905 0) scale(0.996264)"/>
     <use xlink:href="#CMR17-74" transform="translate(172.352275 0) scale(0.996264)"/>
     <use xlink:href="#CMR17-69" transform="translate(207.633043 0) scale(0.996264)"/>
     <use xlink:href="#CMR17-6f" transform="translate(232.504101 0) scale(0.996264)"/>
     <use xlink:href="#CMR17-6e" transform="translate(278.194579 0) scale(0.996264)"/>
     <use xlink:href="#CMR17-6f" transform="translate(359.165915 0) scale(0.996264)"/>
     <use xlink:href="#CMR17-66" transform="translate(404.856392 0) scale(0.996264)"/>
     <use xlink:href="#CMR17-74" transform="translate(462.405871 0) scale(0.996264)"/>
     <use xlink:href="#CMR17-68" transform="translate(497.686638 0) scale(0.996264)"/>
     <use xlink:href="#CMR17-65" transform="translate(548.582008 0) scale(0.996264)"/>
     <use xlink:href="#CMR17-68" transform="translate(619.143635 0) scale(0.996264)"/>
     <use xlink:href="#CMR17-65" transform="translate(670.039005 0) scale(0.996264)"/>
     <use xlink:href="#CMR17-61" transform="translate(710.524665 0) scale(0.996264)"/>
     <use xlink:href="#CMR17-74" transform="translate(756.215142 0) scale(0.996264)"/>
     <use xlink:href="#CMR17-65" transform="translate(821.571876 0) scale(0.996264)"/>
     <use xlink:href="#CMR17-71" transform="translate(862.057537 0) scale(0.996264)"/>
     <use xlink:href="#CMR17-75" transform="translate(910.350453 0) scale(0.996264)"/>
     <use xlink:href="#CMR17-61" transform="translate(961.245823 0) scale(0.996264)"/>
     <use xlink:href="#CMR17-74" transform="translate(1006.9363 0) scale(0.996264)"/>
     <use xlink:href="#CMR17-69" transform="translate(1042.217067 0) scale(0.996264)"/>
     <use xlink:href="#CMR17-6f" transform="translate(1067.088126 0) scale(0.996264)"/>
     <use xlink:href="#CMR17-6e" transform="translate(1112.778603 0) scale(0.996264)"/>
     <use xlink:href="#CMR17-61" transform="translate(1193.749939 0) scale(0.996264)"/>
     <use xlink:href="#CMR17-74" transform="translate(1239.440416 0) scale(0.996264)"/>
     <use xlink:href="#CMMI12-54" transform="translate(1304.79715 0) scale(0.996264)"/>
     <use xlink:href="#CMR17-3d" transform="translate(1403.194791 0) scale(0.996264)"/>
     <use xlink:href="#CMR17-30" transform="translate(1502.583589 0) scale(0.996264)"/>
     <use xlink:href="#CMMI12-3a" transform="translate(1548.274066 0) scale(0.996264)"/>
     <use xlink:href="#CMR17-31" transform="translate(1575.371243 0) scale(0.996264)"/>
    </g>
   </g>
  </g>
  <g id="axes_2">
   <g id="patch_7">
    <path d="M 345.108855 288.306028 
L 358.414455 288.306028 
L 358.414455 22.194028 
L 345.108855 22.194028 
z
" style="fill: #ffffff"/>
   </g>
   <g id="QuadMesh_1">
    <path d="M 345.108855 288.306028 
L 358.414455 288.306028 
L 358.414455 261.694828 
L 345.108855 261.694828 
L 345.108855 288.306028 
" clip-path="url(#p4816218d72)" style="fill: #4332ca"/>
    <path d="M 345.108855 261.694828 
L 358.414455 261.694828 
L 358.414455 235.083628 
L 345.108855 235.083628 
L 345.108855 261.694828 
" clip-path="url(#p4816218d72)" style="fill: #4854f6"/>
    <path d="M 345.108855 235.083628 
L 358.414455 235.083628 
L 358.414455 208.472428 
L 345.108855 208.472428 
L 345.108855 235.083628 
" clip-path="url(#p4816218d72)" style="fill: #337afd"/>
    <path d="M 345.108855 208.472428 
L 358.414455 208.472428 
L 358.414455 181.861228 
L 345.108855 181.861228 
L 345.108855 208.472428 
" clip-path="url(#p4816218d72)" style="fill: #259be8"/>
    <path d="M 345.108855 181.861228 
L 358.414455 181.861228 
L 358.414455 155.250028 
L 345.108855 155.250028 
L 345.108855 181.861228 
" clip-path="url(#p4816218d72)" style="fill: #04b6ce"/>
    <path d="M 345.108855 155.250028 
L 358.414455 155.250028 
L 358.414455 128.638828 
L 345.108855 128.638828 
L 345.108855 155.250028 
" clip-path="url(#p4816218d72)" style="fill: #2fc5a3"/>
    <path d="M 345.108855 128.638828 
L 358.414455 128.638828 
L 358.414455 102.027628 
L 345.108855 102.027628 
L 345.108855 128.638828 
" clip-path="url(#p4816218d72)" style="fill: #72cd64"/>
    <path d="M 345.108855 102.027628 
L 358.414455 102.027628 
L 358.414455 75.416428 
L 345.108855 75.416428 
L 345.108855 102.027628 
" clip-path="url(#p4816218d72)" style="fill: #cbc128"/>
    <path d="M 345.108855 75.416428 
L 358.414455 75.416428 
L 358.414455 48.805228 
L 345.108855 48.805228 
L 345.108855 75.416428 
" clip-path="url(#p4816218d72)" style="fill: #fec13a"/>
    <path d="M 345.108855 48.805228 
L 358.414455 48.805228 
L 358.414455 22.194028 
L 345.108855 22.194028 
L 345.108855 48.805228 
" clip-path="url(#p4816218d72)" style="fill: #f5e924"/>
   </g>
   <g id="matplotlib.axis_3"/>
   <g id="matplotlib.axis_4">
    <g id="ytick_7">
     <g id="line2d_13">
      <defs>
       <path id="m7b4a6927c0" d="M 0 0 
L 3.5 0 
" style="stroke: #000000; stroke-width: 0.8"/>
      </defs>
      <g>
       <use xlink:href="#m7b4a6927c0" x="358.414455" y="288.306028" style="stroke: #000000; stroke-width: 0.8"/>
      </g>
     </g>
     <g id="text_16">
      <!-- $\mathdefault{0.0}$ -->
      <g transform="translate(365.414455 291.765277) scale(0.1 -0.1)">
       <use xlink:href="#CMR17-30" transform="scale(0.996264)"/>
       <use xlink:href="#CMMI12-3a" transform="translate(45.690477 0) scale(0.996264)"/>
       <use xlink:href="#CMR17-30" transform="translate(72.787654 0) scale(0.996264)"/>
      </g>
     </g>
    </g>
    <g id="ytick_8">
     <g id="line2d_14">
      <g>
       <use xlink:href="#m7b4a6927c0" x="358.414455" y="235.083628" style="stroke: #000000; stroke-width: 0.8"/>
      </g>
     </g>
     <g id="text_17">
      <!-- $\mathdefault{0.2}$ -->
      <g transform="translate(365.414455 238.542877) scale(0.1 -0.1)">
       <use xlink:href="#CMR17-30" transform="scale(0.996264)"/>
       <use xlink:href="#CMMI12-3a" transform="translate(45.690477 0) scale(0.996264)"/>
       <use xlink:href="#CMR17-32" transform="translate(72.787654 0) scale(0.996264)"/>
      </g>
     </g>
    </g>
    <g id="ytick_9">
     <g id="line2d_15">
      <g>
       <use xlink:href="#m7b4a6927c0" x="358.414455" y="181.861228" style="stroke: #000000; stroke-width: 0.8"/>
      </g>
     </g>
     <g id="text_18">
      <!-- $\mathdefault{0.4}$ -->
      <g transform="translate(365.414455 185.320477) scale(0.1 -0.1)">
       <use xlink:href="#CMR17-30" transform="scale(0.996264)"/>
       <use xlink:href="#CMMI12-3a" transform="translate(45.690477 0) scale(0.996264)"/>
       <use xlink:href="#CMR17-34" transform="translate(72.787654 0) scale(0.996264)"/>
      </g>
     </g>
    </g>
    <g id="ytick_10">
     <g id="line2d_16">
      <g>
       <use xlink:href="#m7b4a6927c0" x="358.414455" y="128.638828" style="stroke: #000000; stroke-width: 0.8"/>
      </g>
     </g>
     <g id="text_19">
      <!-- $\mathdefault{0.6}$ -->
      <g transform="translate(365.414455 132.098077) scale(0.1 -0.1)">
       <use xlink:href="#CMR17-30" transform="scale(0.996264)"/>
       <use xlink:href="#CMMI12-3a" transform="translate(45.690477 0) scale(0.996264)"/>
       <use xlink:href="#CMR17-36" transform="translate(72.787654 0) scale(0.996264)"/>
      </g>
     </g>
    </g>
    <g id="ytick_11">
     <g id="line2d_17">
      <g>
       <use xlink:href="#m7b4a6927c0" x="358.414455" y="75.416428" style="stroke: #000000; stroke-width: 0.8"/>
      </g>
     </g>
     <g id="text_20">
      <!-- $\mathdefault{0.8}$ -->
      <g transform="translate(365.414455 78.875677) scale(0.1 -0.1)">
       <use xlink:href="#CMR17-30" transform="scale(0.996264)"/>
       <use xlink:href="#CMMI12-3a" transform="translate(45.690477 0) scale(0.996264)"/>
       <use xlink:href="#CMR17-38" transform="translate(72.787654 0) scale(0.996264)"/>
      </g>
     </g>
    </g>
    <g id="ytick_12">
     <g id="line2d_18">
      <g>
       <use xlink:href="#m7b4a6927c0" x="358.414455" y="22.194028" style="stroke: #000000; stroke-width: 0.8"/>
      </g>
     </g>
     <g id="text_21">
      <!-- $\mathdefault{1.0}$ -->
      <g transform="translate(365.414455 25.653277) scale(0.1 -0.1)">
       <use xlink:href="#CMR17-31" transform="scale(0.996264)"/>
       <use xlink:href="#CMMI12-3a" transform="translate(45.690477 0) scale(0.996264)"/>
       <use xlink:href="#CMR17-30" transform="translate(72.787654 0) scale(0.996264)"/>
      </g>
     </g>
    </g>
   </g>
   <g id="LineCollection_1"/>
   <g id="patch_8">
    <path d="M 345.108855 288.306028 
L 351.761655 288.306028 
L 358.414455 288.306028 
L 358.414455 22.194028 
L 351.761655 22.194028 
L 345.108855 22.194028 
L 345.108855 288.306028 
z
" style="fill: none; stroke: #000000; stroke-width: 0.8; stroke-linejoin: miter; stroke-linecap: square"/>
   </g>
  </g>
 </g>
 <defs>
  <clipPath id="pba5e2b456b">
   <rect x="41.556855" y="22.194028" width="285.696" height="266.112"/>
  </clipPath>
  <clipPath id="p4816218d72">
   <rect x="345.108855" y="22.194028" width="13.3056" height="266.112"/>
  </clipPath>
 </defs>
</svg>
