<?xml version="1.0" encoding="utf-8" standalone="no"?>
<!DOCTYPE svg PUBLIC "-//W3C//DTD SVG 1.1//EN"
  "http://www.w3.org/Graphics/SVG/1.1/DTD/svg11.dtd">
<svg xmlns:xlink="http://www.w3.org/1999/xlink" width="390.325869pt" height="325.98848pt" viewBox="0 0 390.325869 325.98848" xmlns="http://www.w3.org/2000/svg" version="1.1">
 <metadata>
  <rdf:RDF xmlns:dc="http://purl.org/dc/elements/1.1/" xmlns:cc="http://creativecommons.org/ns#" xmlns:rdf="http://www.w3.org/1999/02/22-rdf-syntax-ns#">
   <cc:Work>
    <dc:type rdf:resource="http://purl.org/dc/dcmitype/StillImage"/>
    <dc:date>2026-07-12T17:29:54.424293</dc:date>
    <dc:format>image/svg+xml</dc:format>
    <dc:creator>
     <cc:Agent>
      <dc:title>Matplotlib v3.10.8, https://matplotlib.org/</dc:title>
     </cc:Agent>
    </dc:creator>
   </cc:Work>
  </rdf:RDF>
 </metadata>
 <defs>
  <style type="text/css">*{stroke-linejoin: round; stroke-linecap: butt}</style>
 </defs>
 <g id="figure_1">
  <g id="patch_1">
   <path d="M 0 325.98848 
L 390.325869 325.98848 
L 390.325869 0 
L 0 0 
z
" style="fill: #ffffff"/>
  </g>
  <g id="axes_1">
   <g id="patch_2">
    <path d="M 41.556855 288.306028 
L 327.252855 288.306028 
L 327.252855 22.194028 
L 41.556855 22.194028 
z
" style="fill: #ffffff"/>
   </g>
   <g id="TriContourSet_1">
    <path d="M 184.404855 288.306028 
L 220.116855 288.306028 
L 237.972855 288.306028 
L 255.828855 288.306028 
L 273.684855 288.306028 
L 291.540855 288.306028 
L 309.396855 288.306028 
L 327.252855 288.306028 
L 327.252855 271.674028 
L 327.252855 255.042028 
L 327.252855 238.410028 
L 327.252855 221.778028 
L 327.252855 188.514028 
L 327.252855 171.882028 
L 327.252855 155.250028 
L 327.252855 138.618028 
L 327.252855 121.986028 
L 327.252855 105.354028 
L 327.252855 88.722028 
L 327.252855 72.090028 
L 327.252855 55.458028 
L 327.252855 22.194028 
L 309.396855 22.194028 
L 291.540855 22.194028 
L 273.684855 22.194028 
L 255.828855 22.194028 
L 220.116855 22.194028 
L 184.404855 22.194028 
L 166.548855 22.194028 
L 148.692855 22.194028 
L 130.836855 22.194028 
L 112.980855 22.194028 
L 95.124855 22.194028 
L 77.268855 22.194028 
L 41.556855 22.194028 
L 41.556855 38.826028 
L 41.556855 55.458028 
L 41.556855 72.090028 
L 41.556855 88.722028 
L 41.556855 105.354028 
L 41.556855 121.986028 
L 41.556855 138.618028 
L 41.556855 155.250028 
L 41.556855 171.882028 
L 41.556855 188.514028 
L 41.556855 205.146028 
L 41.556855 221.778028 
L 41.556855 238.410028 
L 41.556855 255.042028 
L 41.556855 288.306028 
L 59.412855 288.306028 
L 77.268855 288.306028 
L 95.124855 288.306028 
L 112.980855 288.306028 
L 130.836855 288.306028 
L 148.692855 288.306028 
L 166.548855 288.306028 
z
M 262.543164 274.024156 
L 242.905642 276.74338 
L 242.111298 276.74338 
L 239.120705 276.971078 
L 228.386879 277.904872 
L 219.739501 278.337239 
L 214.037411 278.590332 
L 207.169835 278.731703 
L 201.128749 278.865223 
L 200.174585 278.910631 
L 194.901646 278.985709 
L 188.173555 279.044637 
L 177.800964 279.012485 
L 172.494806 279.012485 
L 159.312262 278.711537 
L 158.911134 278.711537 
L 146.553996 278.11661 
L 144.997197 278.11661 
L 133.487731 277.466293 
L 125.636877 276.787687 
L 123.139614 276.454992 
L 113.878096 275.202802 
L 110.386587 274.780709 
L 109.630728 274.780709 
L 108.751098 274.639896 
L 102.164442 272.982892 
L 87.88705 269.719032 
L 86.49551 268.997751 
L 70.732596 258.200785 
L 70.451993 257.963075 
L 70.152482 257.520204 
L 64.282097 250.972655 
L 62.471275 245.238128 
L 59.550575 239.573458 
L 57.178145 228.788164 
L 56.720761 227.531405 
L 56.104944 224.40191 
L 54.412558 215.094236 
L 54.412558 211.82982 
L 53.104545 199.573042 
L 52.827424 197.053601 
L 52.736318 196.499815 
L 52.478966 191.568648 
L 51.942712 180.982991 
L 51.942712 179.413065 
L 51.514386 164.453706 
L 51.514386 162.678351 
L 51.533008 149.497785 
L 51.533008 145.429236 
L 51.920662 131.177225 
L 51.920662 129.426831 
L 52.610454 119.079787 
L 53.230886 108.556171 
L 53.312395 107.961579 
L 54.291557 100.191268 
L 54.291557 96.025459 
L 56.277093 84.780879 
L 56.334878 84.419558 
L 56.367031 84.323641 
L 56.54178 83.776233 
L 60.071508 69.017629 
L 66.529131 58.842689 
L 68.623788 53.653538 
L 72.493341 49.545668 
L 81.701285 45.000269 
L 86.134078 41.85632 
L 89.145262 40.74454 
L 93.766054 38.781776 
L 101.092378 37.756571 
L 106.386202 36.229008 
L 121.182628 34.350616 
L 122.07311 34.145852 
L 123.256386 33.985071 
L 140.02356 32.606666 
L 152.852945 32.163571 
L 158.359348 31.786374 
L 165.671036 31.603605 
L 173.359691 31.481877 
L 177.594018 31.481877 
L 185.300653 31.472528 
L 199.072729 31.578858 
L 202.640449 31.676335 
L 210.604941 31.892026 
L 215.101975 31.975911 
L 227.842207 32.809889 
L 238.626943 33.193785 
L 245.483441 34.090889 
L 255.544674 35.185753 
L 257.482864 35.710941 
L 270.882545 37.900016 
L 273.126928 38.925941 
L 282.989824 41.660102 
L 291.035184 45.902273 
L 294.294509 48.694344 
L 299.507763 52.648102 
L 301.825904 56.836663 
L 306.162115 63.410929 
L 306.580625 65.585874 
L 309.08686 73.510864 
L 311.269371 79.818703 
L 311.736721 81.129319 
L 313.906587 93.576736 
L 314.451472 97.011285 
L 315.232983 105.065856 
L 316.207116 115.878706 
L 316.207116 117.371173 
L 317.013461 130.048806 
L 317.013461 136.170733 
L 317.179067 143.405011 
L 317.313418 147.876229 
L 317.31436 158.225937 
L 317.31282 162.726723 
L 317.31282 164.405334 
L 316.871784 179.481933 
L 316.871784 180.945013 
L 316.596321 186.241652 
L 316.165252 194.070706 
L 315.870639 196.495251 
L 315.287889 205.262579 
L 314.724909 212.721007 
L 314.080622 216.109196 
L 312.730754 225.241709 
L 311.85381 228.069489 
L 309.589916 238.570357 
L 308.169932 241.334771 
L 303.449004 252.25762 
L 301.564379 254.674909 
L 295.648426 261.241495 
L 291.862141 263.397729 
L 288.993257 265.906504 
L 285.416773 266.922948 
L 277.672205 270.884634 
L 265.540047 273.634497 
L 263.591533 274.024156 
z
" clip-path="url(#p88f05602ff)" style="fill: #4332ca"/>
    <path d="M 263.591533 274.024156 
L 265.540047 273.634497 
L 277.672205 270.884634 
L 285.416773 266.922948 
L 288.993257 265.906504 
L 291.862141 263.397729 
L 295.648426 261.241495 
L 301.564379 254.674909 
L 303.449004 252.25762 
L 308.169932 241.334771 
L 309.589916 238.570357 
L 311.85381 228.069489 
L 312.730754 225.241709 
L 314.080622 216.109196 
L 314.724909 212.721007 
L 315.287889 205.262579 
L 315.870639 196.495251 
L 316.165252 194.070706 
L 316.596321 186.241652 
L 316.871784 180.945013 
L 316.871784 179.481933 
L 317.31282 164.405334 
L 317.31282 162.726723 
L 317.31436 158.225937 
L 317.313418 147.876229 
L 317.179067 143.405011 
L 317.013461 136.170733 
L 317.013461 130.048806 
L 316.207116 117.371173 
L 316.207116 115.878706 
L 315.232983 105.065856 
L 314.451472 97.011285 
L 313.906587 93.576736 
L 311.736721 81.129319 
L 311.269371 79.818703 
L 309.08686 73.510864 
L 306.580625 65.585874 
L 306.162115 63.410929 
L 301.825904 56.836663 
L 299.507763 52.648102 
L 294.294509 48.694344 
L 291.035184 45.902273 
L 282.989824 41.660102 
L 273.126928 38.925941 
L 270.882545 37.900016 
L 257.482864 35.710941 
L 255.544674 35.185753 
L 245.483441 34.090889 
L 238.626943 33.193785 
L 227.842207 32.809889 
L 215.101975 31.975911 
L 210.604941 31.892026 
L 202.640449 31.676335 
L 199.072729 31.578858 
L 185.300653 31.472528 
L 177.594018 31.481877 
L 173.359691 31.481877 
L 165.671036 31.603605 
L 158.359348 31.786374 
L 152.852945 32.163571 
L 140.02356 32.606666 
L 123.256386 33.985071 
L 122.07311 34.145852 
L 121.182628 34.350616 
L 106.386202 36.229008 
L 101.092378 37.756571 
L 93.766054 38.781776 
L 89.145262 40.74454 
L 86.134078 41.85632 
L 81.701285 45.000269 
L 72.493341 49.545668 
L 68.623788 53.653538 
L 66.529131 58.842689 
L 60.071508 69.017629 
L 56.54178 83.776233 
L 56.367031 84.323641 
L 56.334878 84.419558 
L 56.277093 84.780879 
L 54.291557 96.025459 
L 54.291557 100.191268 
L 53.312395 107.961579 
L 53.230886 108.556171 
L 52.610454 119.079787 
L 51.920662 129.426831 
L 51.920662 131.177225 
L 51.533008 145.429236 
L 51.533008 149.497785 
L 51.514386 162.678351 
L 51.514386 164.453706 
L 51.942712 179.413065 
L 51.942712 180.982991 
L 52.478966 191.568648 
L 52.736318 196.499815 
L 52.827424 197.053601 
L 53.104545 199.573042 
L 54.412558 211.82982 
L 54.412558 215.094236 
L 56.104944 224.40191 
L 56.720761 227.531405 
L 57.178145 228.788164 
L 59.550575 239.573458 
L 62.471275 245.238128 
L 64.282097 250.972655 
L 70.152482 257.520204 
L 70.451993 257.963075 
L 70.732596 258.200785 
L 86.49551 268.997751 
L 87.88705 269.719032 
L 102.164442 272.982892 
L 108.751098 274.639896 
L 109.630728 274.780709 
L 110.386587 274.780709 
L 113.878096 275.202802 
L 123.139614 276.454992 
L 125.636877 276.787687 
L 133.487731 277.466293 
L 144.997197 278.11661 
L 146.553996 278.11661 
L 158.911134 278.711537 
L 159.312262 278.711537 
L 172.494806 279.012485 
L 177.800964 279.012485 
L 188.173555 279.044637 
L 194.901646 278.985709 
L 200.174585 278.910631 
L 201.128749 278.865223 
L 207.169835 278.731703 
L 214.037411 278.590332 
L 219.739501 278.337239 
L 228.386879 277.904872 
L 239.120705 276.971078 
L 242.111298 276.74338 
L 242.905642 276.74338 
L 262.543164 274.024156 
z
M 248.509111 263.657126 
L 237.976326 265.910049 
L 224.506294 267.688108 
L 223.94049 267.79169 
L 222.854472 267.899075 
L 211.183176 268.89719 
L 207.991009 268.967744 
L 198.225438 269.432484 
L 193.36847 269.501639 
L 185.051409 269.670738 
L 181.607993 269.668701 
L 175.150976 269.559385 
L 165.348513 269.18783 
L 160.771802 269.050704 
L 148.873131 268.033548 
L 146.59507 267.925394 
L 143.399023 267.673818 
L 134.613567 266.425587 
L 124.065296 264.659788 
L 122.73094 264.378737 
L 121.841783 264.059339 
L 105.896357 259.372506 
L 103.649182 258.164432 
L 92.948616 253.141682 
L 82.652241 243.649798 
L 80.77458 242.113217 
L 79.948326 241.011757 
L 74.168384 232.085512 
L 71.329508 225.536533 
L 70.762372 223.978207 
L 70.434883 222.313954 
L 67.61324 213.415203 
L 65.916592 207.354645 
L 65.293436 201.689245 
L 63.313324 189.653072 
L 63.285381 189.117643 
L 61.929642 172.327914 
L 61.785391 167.293469 
L 61.571129 160.132317 
L 61.571821 153.693233 
L 61.876331 141.667999 
L 62.05245 135.481345 
L 62.700001 127.789318 
L 63.256471 120.66949 
L 63.577543 118.042235 
L 64.409311 114.141602 
L 66.208841 102.054505 
L 67.698739 96.791319 
L 68.027145 94.73784 
L 70.785455 86.509522 
L 72.158855 82.207291 
L 78.67181 71.498326 
L 81.005348 67.86776 
L 89.525568 60.898779 
L 92.669389 57.964304 
L 93.5079 57.308123 
L 96.936871 55.616246 
L 103.512743 52.158267 
L 106.890319 51.178715 
L 116.824095 47.459315 
L 125.283477 45.581088 
L 137.988723 43.74937 
L 140.540884 43.243293 
L 142.560577 42.860689 
L 145.747364 42.503516 
L 160.793079 41.453264 
L 163.621015 41.300626 
L 177.794293 40.869202 
L 185.613236 40.777018 
L 187.370736 40.831257 
L 204.30041 41.279879 
L 204.97014 41.326136 
L 215.86281 42.032395 
L 220.951717 42.376422 
L 230.323321 43.537107 
L 236.186316 44.714891 
L 246.764139 46.218969 
L 250.717901 47.448851 
L 261.657662 50.449109 
L 263.836147 51.439509 
L 273.550547 55.662951 
L 277.790973 58.838162 
L 287.58105 67.809702 
L 288.155585 68.432604 
L 294.449247 78.715785 
L 295.71674 80.776739 
L 299.92283 92.55728 
L 301.016269 95.610996 
L 302.743908 103.889903 
L 304.912256 115.27946 
L 305.295973 118.934048 
L 305.789848 125.804388 
L 306.418836 132.878202 
L 306.749528 135.977365 
L 307.235546 149.784742 
L 307.288425 151.617843 
L 307.309035 153.299333 
L 307.226865 161.648612 
L 306.935092 170.04856 
L 306.845614 173.101362 
L 306.017999 183.365826 
L 305.428616 190.159898 
L 305.034501 192.324404 
L 303.484619 203.835496 
L 302.174926 210.850928 
L 300.852776 215.583408 
L 298.703725 220.310787 
L 296.016655 228.942008 
L 292.471443 236.311386 
L 289.838535 240.095838 
L 283.208309 247.465604 
L 281.055342 249.304227 
L 271.584829 254.920536 
L 266.242143 258.208159 
L 264.532423 258.711403 
L 249.25954 263.552582 
z
" clip-path="url(#p88f05602ff)" style="fill: #4854f6"/>
    <path d="M 249.25954 263.552582 
L 264.532423 258.711403 
L 266.242143 258.208159 
L 271.584829 254.920536 
L 281.055342 249.304227 
L 283.208309 247.465604 
L 289.838535 240.095838 
L 292.471443 236.311386 
L 296.016655 228.942008 
L 298.703725 220.310787 
L 300.852776 215.583408 
L 302.174926 210.850928 
L 303.484619 203.835496 
L 305.034501 192.324404 
L 305.428616 190.159898 
L 306.017999 183.365826 
L 306.845614 173.101362 
L 306.935092 170.04856 
L 307.226865 161.648612 
L 307.309035 153.299333 
L 307.288425 151.617843 
L 307.235546 149.784742 
L 306.749528 135.977365 
L 306.418836 132.878202 
L 305.789848 125.804388 
L 305.295973 118.934048 
L 304.912256 115.27946 
L 302.743908 103.889903 
L 301.016269 95.610996 
L 299.92283 92.55728 
L 295.71674 80.776739 
L 294.449247 78.715785 
L 288.155585 68.432604 
L 287.58105 67.809702 
L 277.790973 58.838162 
L 273.550547 55.662951 
L 263.836147 51.439509 
L 261.657662 50.449109 
L 250.717901 47.448851 
L 246.764139 46.218969 
L 236.186316 44.714891 
L 230.323321 43.537107 
L 220.951717 42.376422 
L 215.86281 42.032395 
L 204.97014 41.326136 
L 204.30041 41.279879 
L 187.370736 40.831257 
L 185.613236 40.777018 
L 177.794293 40.869202 
L 163.621015 41.300626 
L 160.793079 41.453264 
L 145.747364 42.503516 
L 142.560577 42.860689 
L 140.540884 43.243293 
L 137.988723 43.74937 
L 125.283477 45.581088 
L 116.824095 47.459315 
L 106.890319 51.178715 
L 103.512743 52.158267 
L 96.936871 55.616246 
L 93.5079 57.308123 
L 92.669389 57.964304 
L 89.525568 60.898779 
L 81.005348 67.86776 
L 78.67181 71.498326 
L 72.158855 82.207291 
L 70.785455 86.509522 
L 68.027145 94.73784 
L 67.698739 96.791319 
L 66.208841 102.054505 
L 64.409311 114.141602 
L 63.577543 118.042235 
L 63.256471 120.66949 
L 62.700001 127.789318 
L 62.05245 135.481345 
L 61.876331 141.667999 
L 61.571821 153.693233 
L 61.571129 160.132317 
L 61.785391 167.293469 
L 61.929642 172.327914 
L 63.285381 189.117643 
L 63.313324 189.653072 
L 65.293436 201.689245 
L 65.916592 207.354645 
L 67.61324 213.415203 
L 70.434883 222.313954 
L 70.762372 223.978207 
L 71.329508 225.536533 
L 74.168384 232.085512 
L 79.948326 241.011757 
L 80.77458 242.113217 
L 82.652241 243.649798 
L 92.948616 253.141682 
L 103.649182 258.164432 
L 105.896357 259.372506 
L 121.841783 264.059339 
L 122.73094 264.378737 
L 124.065296 264.659788 
L 134.613567 266.425587 
L 143.399023 267.673818 
L 146.59507 267.925394 
L 148.873131 268.033548 
L 160.771802 269.050704 
L 165.348513 269.18783 
L 175.150976 269.559385 
L 181.607993 269.668701 
L 185.051409 269.670738 
L 193.36847 269.501639 
L 198.225438 269.432484 
L 207.991009 268.967744 
L 211.183176 268.89719 
L 222.854472 267.899075 
L 223.94049 267.79169 
L 224.506294 267.688108 
L 237.976326 265.910049 
L 248.509111 263.657126 
z
M 295.088464 182.74309 
L 294.7933 186.14557 
L 293.937895 190.843521 
L 292.001567 199.88579 
L 289.616505 207.007312 
L 288.214007 212.027385 
L 285.654868 217.656857 
L 282.6723 223.742428 
L 276.162061 232.328675 
L 274.492415 234.027699 
L 268.638747 239.900385 
L 264.843445 242.545666 
L 258.304989 246.674303 
L 251.229755 249.801786 
L 249.324566 250.426912 
L 244.511832 251.773884 
L 235.423066 254.591236 
L 226.054992 256.681211 
L 220.035507 257.783208 
L 217.267183 258.056937 
L 208.448702 259.102576 
L 199.831858 259.604054 
L 193.130734 259.930938 
L 185.722416 260.025993 
L 175.737548 259.995164 
L 175.39731 259.989404 
L 174.844948 259.968467 
L 162.606255 259.142106 
L 155.97944 258.492019 
L 151.683365 258.119776 
L 146.406591 257.310185 
L 138.605629 255.993938 
L 131.33233 254.05453 
L 127.807524 253.312112 
L 116.243451 249.15814 
L 115.867184 249.020235 
L 115.725326 248.938948 
L 104.351731 242.953199 
L 99.130467 238.397886 
L 94.734745 234.800653 
L 91.228559 230.126638 
L 88.380466 226.872007 
L 86.252899 223.50736 
L 81.587228 214.122891 
L 79.374727 208.854492 
L 77.219817 201.522597 
L 75.34385 193.436119 
L 74.608834 189.224394 
L 72.893471 177.51672 
L 72.403269 171.261005 
L 72.231472 166.368095 
L 71.875832 156.531189 
L 72.165518 145.366733 
L 72.621796 136.804517 
L 73.081479 131.347789 
L 73.938177 125.233332 
L 74.301211 122.262708 
L 76.385726 112.487231 
L 77.376367 108.34418 
L 79.708789 101.733913 
L 81.242408 97.055021 
L 82.213222 94.409048 
L 88.342601 83.96071 
L 89.650461 81.698959 
L 92.80222 78.368116 
L 97.388462 73.273588 
L 106.34382 66.478147 
L 107.2611 65.923851 
L 122.221781 59.694867 
L 129.650831 56.544341 
L 130.052476 56.393957 
L 130.262543 56.347316 
L 130.578047 56.30183 
L 140.663395 54.301969 
L 148.644599 52.790036 
L 160.41502 51.470817 
L 161.036933 51.395486 
L 180.676108 50.335589 
L 181.102499 50.319579 
L 181.397678 50.325668 
L 183.992371 50.398482 
L 199.49497 50.876915 
L 201.919535 50.941164 
L 204.304564 51.105892 
L 216.760616 52.504261 
L 228.306056 54.214794 
L 229.30581 54.338615 
L 230.690501 54.616777 
L 240.885545 57.230277 
L 247.671077 59.337406 
L 252.713804 61.547352 
L 259.687853 64.942831 
L 262.108933 66.329987 
L 269.877874 71.734931 
L 273.625567 75.401935 
L 278.851763 81.242285 
L 284.767226 91.095618 
L 285.16592 91.688934 
L 285.482486 92.431012 
L 290.493274 105.121436 
L 292.446601 112.321441 
L 293.421935 117.14389 
L 295.03228 126.886099 
L 295.303443 128.453156 
L 295.571474 130.682406 
L 296.451358 138.928463 
L 296.5092 140.5717 
L 296.900333 154.130661 
L 296.952414 158.379634 
L 296.541264 164.445073 
L 296.068621 172.822212 
z
" clip-path="url(#p88f05602ff)" style="fill: #337afd"/>
    <path d="M 296.068621 172.822212 
L 296.541264 164.445073 
L 296.952414 158.379634 
L 296.900333 154.130661 
L 296.5092 140.5717 
L 296.451358 138.928463 
L 295.571474 130.682406 
L 295.303443 128.453156 
L 295.03228 126.886099 
L 293.421935 117.14389 
L 292.446601 112.321441 
L 290.493274 105.121436 
L 285.482486 92.431012 
L 285.16592 91.688934 
L 284.767226 91.095618 
L 278.851763 81.242285 
L 273.625567 75.401935 
L 269.877874 71.734931 
L 262.108933 66.329987 
L 259.687853 64.942831 
L 252.713804 61.547352 
L 247.671077 59.337406 
L 240.885545 57.230277 
L 230.690501 54.616777 
L 229.30581 54.338615 
L 228.306056 54.214794 
L 216.760616 52.504261 
L 204.304564 51.105892 
L 201.919535 50.941164 
L 199.49497 50.876915 
L 183.992371 50.398482 
L 181.397678 50.325668 
L 181.102499 50.319579 
L 180.676108 50.335589 
L 161.036933 51.395486 
L 160.41502 51.470817 
L 148.644599 52.790036 
L 140.663395 54.301969 
L 130.578047 56.30183 
L 130.262543 56.347316 
L 130.052476 56.393957 
L 129.650831 56.544341 
L 122.221781 59.694867 
L 107.2611 65.923851 
L 106.34382 66.478147 
L 97.388462 73.273588 
L 92.80222 78.368116 
L 89.650461 81.698959 
L 88.342601 83.96071 
L 82.213222 94.409048 
L 81.242408 97.055021 
L 79.708789 101.733913 
L 77.376367 108.34418 
L 76.385726 112.487231 
L 74.301211 122.262708 
L 73.938177 125.233332 
L 73.081479 131.347789 
L 72.621796 136.804517 
L 72.165518 145.366733 
L 71.875832 156.531189 
L 72.231472 166.368095 
L 72.403269 171.261005 
L 72.893471 177.51672 
L 74.608834 189.224394 
L 75.34385 193.436119 
L 77.219817 201.522597 
L 79.374727 208.854492 
L 81.587228 214.122891 
L 86.252899 223.50736 
L 88.380466 226.872007 
L 91.228559 230.126638 
L 94.734745 234.800653 
L 99.130467 238.397886 
L 104.351731 242.953199 
L 115.725326 248.938948 
L 115.867184 249.020235 
L 116.243451 249.15814 
L 127.807524 253.312112 
L 131.33233 254.05453 
L 138.605629 255.993938 
L 146.406591 257.310185 
L 151.683365 258.119776 
L 155.97944 258.492019 
L 162.606255 259.142106 
L 174.844948 259.968467 
L 175.39731 259.989404 
L 175.737548 259.995164 
L 185.722416 260.025993 
L 193.130734 259.930938 
L 199.831858 259.604054 
L 208.448702 259.102576 
L 217.267183 258.056937 
L 220.035507 257.783208 
L 226.054992 256.681211 
L 235.423066 254.591236 
L 244.511832 251.773884 
L 249.324566 250.426912 
L 251.229755 249.801786 
L 258.304989 246.674303 
L 264.843445 242.545666 
L 268.638747 239.900385 
L 274.492415 234.027699 
L 276.162061 232.328675 
L 282.6723 223.742428 
L 285.654868 217.656857 
L 288.214007 212.027385 
L 289.616505 207.007312 
L 292.001567 199.88579 
L 293.937895 190.843521 
L 294.7933 186.14557 
L 295.088464 182.74309 
z
M 284.858123 176.832858 
L 283.152728 185.479508 
L 280.798143 195.17794 
L 280.377057 196.56281 
L 279.799774 197.965977 
L 276.326754 206.888591 
L 271.288523 215.962885 
L 270.814243 216.930596 
L 270.369001 217.517818 
L 269.214147 218.692993 
L 260.841733 228.094845 
L 255.78428 231.598946 
L 248.952699 236.532507 
L 245.213493 238.502068 
L 240.357067 240.345752 
L 233.708879 243.100822 
L 225.773884 244.962263 
L 218.952627 246.661669 
L 208.517258 248.473943 
L 206.416225 248.914283 
L 203.297597 249.316243 
L 191.190584 249.896327 
L 185.696668 250.039334 
L 180.439035 249.894359 
L 166.227625 249.268841 
L 164.49711 249.151996 
L 162.757194 248.981311 
L 150.29507 246.937645 
L 146.314945 246.266084 
L 142.706457 245.303888 
L 133.994562 242.717157 
L 127.613624 240.126206 
L 125.263263 239.264784 
L 117.273622 234.686579 
L 114.15738 232.937748 
L 113.444753 232.448561 
L 111.258028 230.459292 
L 104.151301 224.299948 
L 102.537275 222.455535 
L 100.60175 219.394595 
L 95.021968 211.734113 
L 92.6435 207.272184 
L 89.048361 198.216377 
L 87.70195 193.897949 
L 85.729334 186.219993 
L 84.827934 180.180592 
L 83.584414 172.414385 
L 83.10357 166.392432 
L 82.622683 155.220253 
L 82.789398 149.593797 
L 83.281544 140.541522 
L 83.865301 135.788696 
L 84.953217 128.208652 
L 85.8566 124.556066 
L 87.834854 116.222694 
L 90.389848 109.082542 
L 91.651718 105.486154 
L 98.663125 93.172552 
L 100.368302 90.233453 
L 105.530428 84.983738 
L 110.692579 80.121349 
L 126.37845 70.918047 
L 127.312179 70.436778 
L 140.744067 65.567172 
L 142.963907 64.941978 
L 152.827155 63.069556 
L 166.359811 61.346389 
L 168.420816 61.05397 
L 172.775644 60.768307 
L 182.512247 60.402708 
L 193.375069 60.626793 
L 195.707765 60.692254 
L 213.494651 62.683847 
L 217.00268 63.076134 
L 217.292933 63.124099 
L 217.640274 63.213094 
L 227.183491 65.646128 
L 235.252441 67.882739 
L 238.755178 69.331627 
L 246.655865 72.76382 
L 256.077159 78.561589 
L 256.535255 78.861412 
L 257.076317 79.34832 
L 266.513914 88.146271 
L 270.971331 94.371558 
L 273.697524 98.428549 
L 275.545054 102.75943 
L 279.242495 110.652155 
L 280.792436 116.100754 
L 283.091139 124.578489 
L 283.496646 126.043935 
L 283.703331 127.215302 
L 285.286789 139.493274 
L 285.856796 146.144126 
L 286.194099 153.844185 
L 285.967308 158.96583 
L 285.480886 168.503841 
L 285.170222 173.08687 
L 285.093007 174.45542 
z
" clip-path="url(#p88f05602ff)" style="fill: #259be8"/>
    <path d="M 285.093007 174.45542 
L 285.170222 173.08687 
L 285.480886 168.503841 
L 285.967308 158.96583 
L 286.194099 153.844185 
L 285.856796 146.144126 
L 285.286789 139.493274 
L 283.703331 127.215302 
L 283.496646 126.043935 
L 283.091139 124.578489 
L 280.792436 116.100754 
L 279.242495 110.652155 
L 275.545054 102.75943 
L 273.697524 98.428549 
L 270.971331 94.371558 
L 266.513914 88.146271 
L 257.076317 79.34832 
L 256.535255 78.861412 
L 256.077159 78.561589 
L 246.655865 72.76382 
L 238.755178 69.331627 
L 235.252441 67.882739 
L 227.183491 65.646128 
L 217.640274 63.213094 
L 217.292933 63.124099 
L 217.00268 63.076134 
L 213.494651 62.683847 
L 195.707765 60.692254 
L 193.375069 60.626793 
L 182.512247 60.402708 
L 172.775644 60.768307 
L 168.420816 61.05397 
L 166.359811 61.346389 
L 152.827155 63.069556 
L 142.963907 64.941978 
L 140.744067 65.567172 
L 127.312179 70.436778 
L 126.37845 70.918047 
L 110.692579 80.121349 
L 105.530428 84.983738 
L 100.368302 90.233453 
L 98.663125 93.172552 
L 91.651718 105.486154 
L 90.389848 109.082542 
L 87.834854 116.222694 
L 85.8566 124.556066 
L 84.953217 128.208652 
L 83.865301 135.788696 
L 83.281544 140.541522 
L 82.789398 149.593797 
L 82.622683 155.220253 
L 83.10357 166.392432 
L 83.584414 172.414385 
L 84.827934 180.180592 
L 85.729334 186.219993 
L 87.70195 193.897949 
L 89.048361 198.216377 
L 92.6435 207.272184 
L 95.021968 211.734113 
L 100.60175 219.394595 
L 102.537275 222.455535 
L 104.151301 224.299948 
L 111.258028 230.459292 
L 113.444753 232.448561 
L 114.15738 232.937748 
L 117.273622 234.686579 
L 125.263263 239.264784 
L 127.613624 240.126206 
L 133.994562 242.717157 
L 142.706457 245.303888 
L 146.314945 246.266084 
L 150.29507 246.937645 
L 162.757194 248.981311 
L 164.49711 249.151996 
L 166.227625 249.268841 
L 180.439035 249.894359 
L 185.696668 250.039334 
L 191.190584 249.896327 
L 203.297597 249.316243 
L 206.416225 248.914283 
L 208.517258 248.473943 
L 218.952627 246.661669 
L 225.773884 244.962263 
L 233.708879 243.100822 
L 240.357067 240.345752 
L 245.213493 238.502068 
L 248.952699 236.532507 
L 255.78428 231.598946 
L 260.841733 228.094845 
L 269.214147 218.692993 
L 270.369001 217.517818 
L 270.814243 216.930596 
L 271.288523 215.962885 
L 276.326754 206.888591 
L 279.799774 197.965977 
L 280.377057 196.56281 
L 280.798143 195.17794 
L 283.152728 185.479508 
L 284.858123 176.832858 
z
M 262.414267 105.450221 
L 266.084382 112.859678 
L 268.231388 117.133173 
L 270.196092 123.312859 
L 272.096878 130.182043 
L 273.049324 135.579938 
L 273.864657 140.982591 
L 274.501097 149.166512 
L 274.74954 153.79335 
L 274.390999 163.395764 
L 274.219247 167.274456 
L 274.100083 169.611084 
L 272.634883 177.61654 
L 271.805409 181.980315 
L 268.919007 191.023046 
L 268.330162 192.959645 
L 267.539308 194.881927 
L 263.450871 203.043811 
L 261.621518 206.257574 
L 255.713026 213.941892 
L 253.50703 216.444254 
L 246.527111 222.136923 
L 242.50383 225.020238 
L 235.485069 229.068255 
L 230.038137 231.325114 
L 220.115156 234.883408 
L 218.53963 235.275924 
L 217.631938 235.43356 
L 206.9351 237.675431 
L 206.142195 237.777629 
L 197.369875 238.771205 
L 193.66404 239.038129 
L 184.218768 239.370884 
L 172.834525 238.957797 
L 172.350331 238.916392 
L 163.867007 237.924833 
L 157.105948 236.830861 
L 150.029214 235.121896 
L 141.184457 232.486083 
L 140.111698 232.037356 
L 133.549081 228.869654 
L 128.765105 226.587523 
L 128.11044 226.220126 
L 119.143367 220.064639 
L 117.144408 218.246181 
L 112.898153 212.8849 
L 106.119629 204.433922 
L 102.786342 198.216377 
L 100.867033 194.010082 
L 98.669793 187.264136 
L 95.035664 172.102271 
L 95.001311 171.887727 
L 94.935907 171.068624 
L 94.058093 158.810335 
L 94.062349 155.282003 
L 94.522811 145.478836 
L 95.432194 136.451441 
L 95.49928 135.905244 
L 95.546047 135.579396 
L 98.098778 125.258115 
L 98.794891 122.32575 
L 100.191864 118.421787 
L 106.936955 104.544335 
L 106.939319 104.539383 
L 106.941392 104.536502 
L 112.661142 97.029433 
L 117.754176 92.367374 
L 123.897762 86.984438 
L 136.859535 80.304963 
L 140.341906 78.411629 
L 142.445419 77.446425 
L 152.301764 74.679718 
L 154.659754 74.040839 
L 160.098895 73.019686 
L 166.158503 72.15994 
L 169.483061 71.941859 
L 183.292007 71.142839 
L 200.555049 71.768566 
L 200.576245 71.770038 
L 200.601741 71.772845 
L 212.035486 73.662304 
L 223.19658 76.521966 
L 225.111361 77.132717 
L 227.484106 78.101448 
L 235.36837 81.36273 
L 236.828867 81.997194 
L 238.570459 83.068953 
L 247.003901 88.588614 
L 250.4914 91.727055 
L 254.294188 95.05568 
L 257.269782 98.642763 
z
" clip-path="url(#p88f05602ff)" style="fill: #04b6ce"/>
    <path d="M 257.269782 98.642763 
L 254.294188 95.05568 
L 250.4914 91.727055 
L 247.003901 88.588614 
L 238.570459 83.068953 
L 236.828867 81.997194 
L 235.36837 81.36273 
L 227.484106 78.101448 
L 225.111361 77.132717 
L 223.19658 76.521966 
L 212.035486 73.662304 
L 200.601741 71.772845 
L 200.576245 71.770038 
L 200.555049 71.768566 
L 183.292007 71.142839 
L 169.483061 71.941859 
L 166.158503 72.15994 
L 160.098895 73.019686 
L 154.659754 74.040839 
L 152.301764 74.679718 
L 142.445419 77.446425 
L 140.341906 78.411629 
L 136.859535 80.304963 
L 123.897762 86.984438 
L 117.754176 92.367374 
L 112.661142 97.029433 
L 106.941392 104.536502 
L 106.939319 104.539383 
L 106.936955 104.544335 
L 100.191864 118.421787 
L 98.794891 122.32575 
L 98.098778 125.258115 
L 95.546047 135.579396 
L 95.49928 135.905244 
L 95.432194 136.451441 
L 94.522811 145.478836 
L 94.062349 155.282003 
L 94.058093 158.810335 
L 94.935907 171.068624 
L 95.001311 171.887727 
L 95.035664 172.102271 
L 98.669793 187.264136 
L 100.867033 194.010082 
L 102.786342 198.216377 
L 106.119629 204.433922 
L 112.898153 212.8849 
L 117.144408 218.246181 
L 119.143367 220.064639 
L 128.11044 226.220126 
L 128.765105 226.587523 
L 133.549081 228.869654 
L 140.111698 232.037356 
L 141.184457 232.486083 
L 150.029214 235.121896 
L 157.105948 236.830861 
L 163.867007 237.924833 
L 172.350331 238.916392 
L 172.834525 238.957797 
L 184.218768 239.370884 
L 193.66404 239.038129 
L 197.369875 238.771205 
L 206.142195 237.777629 
L 206.9351 237.675431 
L 217.631938 235.43356 
L 218.53963 235.275924 
L 220.115156 234.883408 
L 230.038137 231.325114 
L 235.485069 229.068255 
L 242.50383 225.020238 
L 246.527111 222.136923 
L 253.50703 216.444254 
L 255.713026 213.941892 
L 261.621518 206.257574 
L 263.450871 203.043811 
L 267.539308 194.881927 
L 268.330162 192.959645 
L 268.919007 191.023046 
L 271.805409 181.980315 
L 272.634883 177.61654 
L 274.100083 169.611084 
L 274.219247 167.274456 
L 274.390999 163.395764 
L 274.74954 153.79335 
L 274.501097 149.166512 
L 273.864657 140.982591 
L 273.049324 135.579938 
L 272.096878 130.182043 
L 270.196092 123.312859 
L 268.231388 117.133173 
L 266.084382 112.859678 
L 262.414267 105.450221 
z
M 129.286903 210.355599 
L 121.580243 202.009083 
L 118.281792 197.836394 
L 114.271722 190.980987 
L 112.380975 186.791167 
L 109.573706 178.3359 
L 108.013936 171.882028 
L 107.213345 166.509872 
L 106.614678 160.280362 
L 106.652151 150.500743 
L 107.132103 144.830238 
L 107.970243 139.768245 
L 109.383864 132.804246 
L 110.984054 127.115694 
L 114.949569 118.442297 
L 116.39417 115.930895 
L 124.660239 104.452019 
L 125.645012 103.469096 
L 132.279608 98.258837 
L 137.112484 94.416642 
L 138.855406 93.469031 
L 142.144511 91.959815 
L 150.862925 88.040753 
L 159.146109 85.659031 
L 161.928895 84.905058 
L 162.620029 84.775303 
L 169.748197 83.734378 
L 179.837485 82.91781 
L 185.07015 82.693362 
L 192.852348 83.233649 
L 200.333133 84.057393 
L 209.285681 85.42145 
L 222.808899 89.943219 
L 224.488317 90.478897 
L 225.154312 90.750806 
L 238.915227 99.372851 
L 240.111197 100.123046 
L 240.163804 100.167046 
L 240.261446 100.280436 
L 251.109009 113.409416 
L 254.618995 119.913796 
L 256.072954 122.806815 
L 257.978268 127.937021 
L 259.70528 133.313423 
L 260.847984 139.65321 
L 261.78279 145.93063 
L 261.973062 155.498651 
L 261.824666 165.361712 
L 261.640932 167.851299 
L 261.271607 170.095566 
L 259.221281 178.566107 
L 256.358151 186.810924 
L 255.584438 189.043243 
L 254.675428 190.840624 
L 250.062062 198.498943 
L 247.467098 201.869313 
L 242.690646 207.490277 
L 235.552118 213.538798 
L 233.9797 214.820566 
L 232.169993 215.852631 
L 218.655922 222.197283 
L 217.170255 222.895987 
L 213.780238 223.710098 
L 199.664909 227.008079 
L 199.120789 227.069707 
L 187.201219 227.928253 
L 185.095911 228.002422 
L 182.558415 227.910347 
L 177.215577 227.453463 
L 163.076378 225.771848 
L 154.738736 223.861957 
L 151.981236 222.919227 
L 141.334289 218.507727 
L 138.634345 216.809085 
z
" clip-path="url(#p88f05602ff)" style="fill: #2fc5a3"/>
    <path d="M 138.634345 216.809085 
L 141.334289 218.507727 
L 151.981236 222.919227 
L 154.738736 223.861957 
L 163.076378 225.771848 
L 177.215577 227.453463 
L 182.558415 227.910347 
L 185.095911 228.002422 
L 187.201219 227.928253 
L 199.120789 227.069707 
L 199.664909 227.008079 
L 213.780238 223.710098 
L 217.170255 222.895987 
L 218.655922 222.197283 
L 232.169993 215.852631 
L 233.9797 214.820566 
L 235.552118 213.538798 
L 242.690646 207.490277 
L 247.467098 201.869313 
L 250.062062 198.498943 
L 254.675428 190.840624 
L 255.584438 189.043243 
L 256.358151 186.810924 
L 259.221281 178.566107 
L 261.271607 170.095566 
L 261.640932 167.851299 
L 261.824666 165.361712 
L 261.973062 155.498651 
L 261.78279 145.93063 
L 260.847984 139.65321 
L 259.70528 133.313423 
L 257.978268 127.937021 
L 256.072954 122.806815 
L 254.618995 119.913796 
L 251.109009 113.409416 
L 240.261446 100.280436 
L 240.163804 100.167046 
L 240.111197 100.123046 
L 238.915227 99.372851 
L 225.154312 90.750806 
L 224.488317 90.478897 
L 222.808899 89.943219 
L 209.285681 85.42145 
L 200.333133 84.057393 
L 192.852348 83.233649 
L 185.07015 82.693362 
L 179.837485 82.91781 
L 169.748197 83.734378 
L 162.620029 84.775303 
L 161.928895 84.905058 
L 159.146109 85.659031 
L 150.862925 88.040753 
L 142.144511 91.959815 
L 138.855406 93.469031 
L 137.112484 94.416642 
L 132.279608 98.258837 
L 125.645012 103.469096 
L 124.660239 104.452019 
L 116.39417 115.930895 
L 114.949569 118.442297 
L 110.984054 127.115694 
L 109.383864 132.804246 
L 107.970243 139.768245 
L 107.132103 144.830238 
L 106.652151 150.500743 
L 106.614678 160.280362 
L 107.213345 166.509872 
L 108.013936 171.882028 
L 109.573706 178.3359 
L 112.380975 186.791167 
L 114.271722 190.980987 
L 118.281792 197.836394 
L 121.580243 202.009083 
L 129.286903 210.355599 
z
M 158.151706 100.055585 
L 171.603556 96.936908 
L 175.171249 96.407389 
L 185.581482 96.016746 
L 189.836171 96.000306 
L 200.109348 97.739495 
L 207.428188 99.440593 
L 221.678015 105.038207 
L 221.81215 105.090339 
L 221.904823 105.14847 
L 232.230785 113.785109 
L 234.309076 116.198571 
L 240.480522 125.033528 
L 242.767043 129.317695 
L 244.055312 133.033281 
L 245.800093 138.984721 
L 247.993738 148.598123 
L 248.275514 150.49031 
L 248.298413 151.641812 
L 248.271762 153.413157 
L 247.651545 164.89848 
L 247.033604 167.896771 
L 245.092565 175.247768 
L 241.373835 184.455325 
L 240.724386 185.680921 
L 233.602422 194.606476 
L 229.099148 199.819863 
L 226.915209 201.484211 
L 212.529264 209.942024 
L 212.404087 210.000894 
L 212.27717 210.031373 
L 197.785455 213.708419 
L 195.63598 213.935819 
L 182.260405 214.784858 
L 178.428406 214.356805 
L 167.106692 212.781245 
L 155.236645 209.562351 
L 154.083203 209.168014 
L 153.457287 208.90867 
L 152.026559 208.008542 
L 138.721879 198.719682 
L 131.294787 190.515268 
L 130.393636 189.197606 
L 125.905094 181.3728 
L 124.54403 177.286745 
L 121.118906 164.979128 
L 120.81183 161.892459 
L 120.717091 152.79235 
L 121.139925 147.005838 
L 122.570621 139.981624 
L 124.346114 133.817979 
L 126.856866 128.459648 
L 132.052408 119.24726 
L 136.838422 114.036364 
L 141.322623 109.560588 
L 144.042429 107.424679 
L 152.254652 102.945899 
L 156.352918 100.900431 
z
" clip-path="url(#p88f05602ff)" style="fill: #72cd64"/>
    <path d="M 156.352918 100.900431 
L 152.254652 102.945899 
L 144.042429 107.424679 
L 141.322623 109.560588 
L 136.838422 114.036364 
L 132.052408 119.24726 
L 126.856866 128.459648 
L 124.346114 133.817979 
L 122.570621 139.981624 
L 121.139925 147.005838 
L 120.717091 152.79235 
L 120.81183 161.892459 
L 121.118906 164.979128 
L 124.54403 177.286745 
L 125.905094 181.3728 
L 130.393636 189.197606 
L 131.294787 190.515268 
L 138.721879 198.719682 
L 152.026559 208.008542 
L 153.457287 208.90867 
L 154.083203 209.168014 
L 155.236645 209.562351 
L 167.106692 212.781245 
L 178.428406 214.356805 
L 182.260405 214.784858 
L 195.63598 213.935819 
L 197.785455 213.708419 
L 212.27717 210.031373 
L 212.404087 210.000894 
L 212.529264 209.942024 
L 226.915209 201.484211 
L 229.099148 199.819863 
L 233.602422 194.606476 
L 240.724386 185.680921 
L 241.373835 184.455325 
L 245.092565 175.247768 
L 247.033604 167.896771 
L 247.651545 164.89848 
L 248.271762 153.413157 
L 248.298413 151.641812 
L 248.275514 150.49031 
L 247.993738 148.598123 
L 245.800093 138.984721 
L 244.055312 133.033281 
L 242.767043 129.317695 
L 240.480522 125.033528 
L 234.309076 116.198571 
L 232.230785 113.785109 
L 221.904823 105.14847 
L 221.81215 105.090339 
L 221.678015 105.038207 
L 207.428188 99.440593 
L 200.109348 97.739495 
L 189.836171 96.000306 
L 185.581482 96.016746 
L 175.171249 96.407389 
L 171.603556 96.936908 
L 158.151706 100.055585 
z
M 139.680935 166.690471 
L 138.512829 159.402453 
L 138.055587 155.047473 
L 137.983022 153.734794 
L 139.745567 143.100569 
L 139.938331 142.12949 
L 140.588034 140.564847 
L 144.392778 132.872803 
L 148.622951 127.311777 
L 152.465693 123.496117 
L 155.566257 120.864102 
L 158.934631 118.840059 
L 167.620667 114.720603 
L 169.694832 114.114544 
L 173.494739 113.455311 
L 183.146102 112.1757 
L 189.992047 112.592905 
L 204.221092 115.507293 
L 204.617439 115.640668 
L 218.474518 124.387508 
L 218.870883 124.824416 
L 219.95238 126.441965 
L 227.742542 139.304404 
L 229.059091 142.576561 
L 231.055158 154.042253 
L 231.142605 155.02121 
L 231.108661 155.628504 
L 230.892008 158.687257 
L 229.788353 166.108986 
L 229.316141 167.994046 
L 228.553733 169.729378 
L 225.101424 175.303713 
L 219.179196 184.410839 
L 216.518617 187.233228 
L 208.57641 192.252783 
L 202.601138 195.45983 
L 199.626392 196.381897 
L 189.012571 198.258512 
L 184.766278 198.418558 
L 172.047534 196.418799 
L 165.635936 195.278605 
L 163.965257 194.75884 
L 153.658819 188.993029 
L 153.434644 188.840341 
L 147.066313 181.608567 
L 144.9915 178.532719 
L 142.208304 172.674263 
z
" clip-path="url(#p88f05602ff)" style="fill: #cbc128"/>
    <path d="M 142.208304 172.674263 
L 144.9915 178.532719 
L 147.066313 181.608567 
L 153.434644 188.840341 
L 153.658819 188.993029 
L 163.965257 194.75884 
L 165.635936 195.278605 
L 172.047534 196.418799 
L 184.766278 198.418558 
L 189.012571 198.258512 
L 199.626392 196.381897 
L 202.601138 195.45983 
L 208.57641 192.252783 
L 216.518617 187.233228 
L 219.179196 184.410839 
L 225.101424 175.303713 
L 228.553733 169.729378 
L 229.316141 167.994046 
L 229.788353 166.108986 
L 230.892008 158.687257 
L 231.108661 155.628504 
L 231.142605 155.02121 
L 231.055158 154.042253 
L 229.059091 142.576561 
L 227.742542 139.304404 
L 219.95238 126.441965 
L 218.870883 124.824416 
L 218.474518 124.387508 
L 204.617439 115.640668 
L 204.221092 115.507293 
L 189.992047 112.592905 
L 183.146102 112.1757 
L 173.494739 113.455311 
L 169.694832 114.114544 
L 167.620667 114.720603 
L 158.934631 118.840059 
L 155.566257 120.864102 
L 152.465693 123.496117 
L 148.622951 127.311777 
L 144.392778 132.872803 
L 140.588034 140.564847 
L 139.938331 142.12949 
L 139.745567 143.100569 
L 137.983022 153.734794 
L 138.055587 155.047473 
L 138.512829 159.402453 
L 139.680935 166.690471 
z
M 167.398719 153.398538 
L 169.974374 145.145248 
L 171.633962 143.430602 
L 173.827445 142.536181 
L 183.518469 139.144883 
L 189.306544 140.538813 
L 200.238629 146.160192 
L 201.407465 147.605125 
L 201.7394 148.840556 
L 201.870965 150.968159 
L 196.637836 168.145765 
L 196.405774 168.501054 
L 196.197807 168.652796 
L 194.855009 169.031272 
L 183.057268 170.412486 
L 174.435982 167.788758 
L 167.239915 158.186578 
z
" clip-path="url(#p88f05602ff)" style="fill: #fec13a"/>
    <path d="M 167.239915 158.186578 
L 174.435982 167.788758 
L 183.057268 170.412486 
L 194.855009 169.031272 
L 196.197807 168.652796 
L 196.405774 168.501054 
L 196.637836 168.145765 
L 201.870965 150.968159 
L 201.7394 148.840556 
L 201.407465 147.605125 
L 200.238629 146.160192 
L 189.306544 140.538813 
L 183.518469 139.144883 
L 173.827445 142.536181 
L 171.633962 143.430602 
L 169.974374 145.145248 
L 167.398719 153.398538 
z
" clip-path="url(#p88f05602ff)" style="fill: #f5e924"/>
   </g>
   <g id="matplotlib.axis_1">
    <g id="xtick_1">
     <g id="line2d_1">
      <defs>
       <path id="m3d27cf34d4" d="M 0 0 
L 0 3.5 
" style="stroke: #000000; stroke-width: 0.8"/>
      </defs>
      <g>
       <use xlink:href="#m3d27cf34d4" x="41.556855" y="288.306028" style="stroke: #000000; stroke-width: 0.8"/>
      </g>
     </g>
     <g id="text_1">
      <!-- $\mathdefault{0.0}$ -->
      <g transform="translate(35.191815 302.224527) scale(0.1 -0.1)">
       <defs>
        <path id="CMR17-30" d="M 2688 2038 
C 2688 2430 2682 3099 2413 3613 
C 2176 4063 1798 4224 1466 4224 
C 1158 4224 768 4082 525 3620 
C 269 3137 243 2539 243 2038 
C 243 1671 250 1112 448 623 
C 723 -39 1216 -128 1466 -128 
C 1760 -128 2208 -7 2470 604 
C 2662 1048 2688 1568 2688 2038 
z
M 1466 -26 
C 1056 -26 813 328 723 816 
C 653 1196 653 1749 653 2109 
C 653 2604 653 3015 736 3407 
C 858 3954 1216 4121 1466 4121 
C 1728 4121 2067 3947 2189 3420 
C 2272 3054 2278 2623 2278 2109 
C 2278 1691 2278 1176 2202 797 
C 2067 96 1690 -26 1466 -26 
z
" transform="scale(0.015625)"/>
        <path id="CMMI12-3a" d="M 1178 307 
C 1178 492 1024 620 870 620 
C 685 620 557 467 557 313 
C 557 128 710 0 864 0 
C 1050 0 1178 153 1178 307 
z
" transform="scale(0.015625)"/>
       </defs>
       <use xlink:href="#CMR17-30" transform="scale(0.996264)"/>
       <use xlink:href="#CMMI12-3a" transform="translate(45.690477 0) scale(0.996264)"/>
       <use xlink:href="#CMR17-30" transform="translate(72.787654 0) scale(0.996264)"/>
      </g>
     </g>
    </g>
    <g id="xtick_2">
     <g id="line2d_2">
      <g>
       <use xlink:href="#m3d27cf34d4" x="98.696055" y="288.306028" style="stroke: #000000; stroke-width: 0.8"/>
      </g>
     </g>
     <g id="text_2">
      <!-- $\mathdefault{0.2}$ -->
      <g transform="translate(92.331015 302.224527) scale(0.1 -0.1)">
       <defs>
        <path id="CMR17-32" d="M 2669 990 
L 2554 990 
C 2490 537 2438 460 2413 422 
C 2381 371 1920 371 1830 371 
L 602 371 
C 832 620 1280 1073 1824 1596 
C 2214 1966 2669 2400 2669 3033 
C 2669 3788 2067 4224 1395 4224 
C 691 4224 262 3603 262 3027 
C 262 2777 448 2745 525 2745 
C 589 2745 781 2783 781 3007 
C 781 3206 614 3264 525 3264 
C 486 3264 448 3257 422 3244 
C 544 3788 915 4057 1306 4057 
C 1862 4057 2227 3616 2227 3033 
C 2227 2477 1901 1998 1536 1583 
L 262 147 
L 262 0 
L 2515 0 
L 2669 990 
z
" transform="scale(0.015625)"/>
       </defs>
       <use xlink:href="#CMR17-30" transform="scale(0.996264)"/>
       <use xlink:href="#CMMI12-3a" transform="translate(45.690477 0) scale(0.996264)"/>
       <use xlink:href="#CMR17-32" transform="translate(72.787654 0) scale(0.996264)"/>
      </g>
     </g>
    </g>
    <g id="xtick_3">
     <g id="line2d_3">
      <g>
       <use xlink:href="#m3d27cf34d4" x="155.835255" y="288.306028" style="stroke: #000000; stroke-width: 0.8"/>
      </g>
     </g>
     <g id="text_3">
      <!-- $\mathdefault{0.4}$ -->
      <g transform="translate(149.470215 302.224527) scale(0.1 -0.1)">
       <defs>
        <path id="CMR17-34" d="M 2150 4147 
C 2150 4281 2144 4288 2029 4288 
L 128 1254 
L 128 1088 
L 1779 1088 
L 1779 460 
C 1779 230 1766 166 1318 166 
L 1197 166 
L 1197 0 
C 1402 12 1747 12 1965 12 
C 2182 12 2528 12 2733 0 
L 2733 166 
L 2611 166 
C 2163 166 2150 230 2150 460 
L 2150 1088 
L 2803 1088 
L 2803 1254 
L 2150 1254 
L 2150 4147 
z
M 1798 3723 
L 1798 1254 
L 256 1254 
L 1798 3723 
z
" transform="scale(0.015625)"/>
       </defs>
       <use xlink:href="#CMR17-30" transform="scale(0.996264)"/>
       <use xlink:href="#CMMI12-3a" transform="translate(45.690477 0) scale(0.996264)"/>
       <use xlink:href="#CMR17-34" transform="translate(72.787654 0) scale(0.996264)"/>
      </g>
     </g>
    </g>
    <g id="xtick_4">
     <g id="line2d_4">
      <g>
       <use xlink:href="#m3d27cf34d4" x="212.974455" y="288.306028" style="stroke: #000000; stroke-width: 0.8"/>
      </g>
     </g>
     <g id="text_4">
      <!-- $\mathdefault{0.6}$ -->
      <g transform="translate(206.609415 302.224527) scale(0.1 -0.1)">
       <defs>
        <path id="CMR17-36" d="M 678 2198 
C 678 3712 1395 4076 1811 4076 
C 1946 4076 2272 4049 2400 3782 
C 2298 3782 2106 3782 2106 3558 
C 2106 3385 2246 3328 2336 3328 
C 2394 3328 2566 3353 2566 3571 
C 2566 3987 2246 4224 1805 4224 
C 1043 4224 243 3411 243 2011 
C 243 257 966 -128 1478 -128 
C 2099 -128 2688 431 2688 1295 
C 2688 2101 2170 2688 1517 2688 
C 1126 2688 838 2430 678 1979 
L 678 2198 
z
M 1478 25 
C 691 25 691 1212 691 1450 
C 691 1914 909 2585 1504 2585 
C 1613 2585 1926 2585 2138 2140 
C 2253 1889 2253 1624 2253 1302 
C 2253 954 2253 696 2118 438 
C 1978 173 1773 25 1478 25 
z
" transform="scale(0.015625)"/>
       </defs>
       <use xlink:href="#CMR17-30" transform="scale(0.996264)"/>
       <use xlink:href="#CMMI12-3a" transform="translate(45.690477 0) scale(0.996264)"/>
       <use xlink:href="#CMR17-36" transform="translate(72.787654 0) scale(0.996264)"/>
      </g>
     </g>
    </g>
    <g id="xtick_5">
     <g id="line2d_5">
      <g>
       <use xlink:href="#m3d27cf34d4" x="270.113655" y="288.306028" style="stroke: #000000; stroke-width: 0.8"/>
      </g>
     </g>
     <g id="text_5">
      <!-- $\mathdefault{0.8}$ -->
      <g transform="translate(263.748615 302.224527) scale(0.1 -0.1)">
       <defs>
        <path id="CMR17-38" d="M 1741 2289 
C 2144 2494 2554 2803 2554 3298 
C 2554 3884 1990 4224 1472 4224 
C 890 4224 378 3800 378 3215 
C 378 3054 416 2777 666 2533 
C 730 2469 998 2276 1171 2154 
C 883 2006 211 1652 211 945 
C 211 282 838 -128 1459 -128 
C 2144 -128 2720 366 2720 1022 
C 2720 1607 2330 1877 2074 2051 
L 1741 2289 
z
M 902 2855 
C 851 2887 595 3086 595 3388 
C 595 3781 998 4076 1459 4076 
C 1965 4076 2336 3716 2336 3298 
C 2336 2700 1670 2359 1638 2359 
C 1632 2359 1626 2359 1574 2398 
L 902 2855 
z
M 2080 1536 
C 2176 1466 2483 1253 2483 861 
C 2483 385 2010 25 1472 25 
C 890 25 448 443 448 951 
C 448 1459 838 1884 1280 2083 
L 2080 1536 
z
" transform="scale(0.015625)"/>
       </defs>
       <use xlink:href="#CMR17-30" transform="scale(0.996264)"/>
       <use xlink:href="#CMMI12-3a" transform="translate(45.690477 0) scale(0.996264)"/>
       <use xlink:href="#CMR17-38" transform="translate(72.787654 0) scale(0.996264)"/>
      </g>
     </g>
    </g>
    <g id="xtick_6">
     <g id="line2d_6">
      <g>
       <use xlink:href="#m3d27cf34d4" x="327.252855" y="288.306028" style="stroke: #000000; stroke-width: 0.8"/>
      </g>
     </g>
     <g id="text_6">
      <!-- $\mathdefault{1.0}$ -->
      <g transform="translate(320.887815 302.224527) scale(0.1 -0.1)">
       <defs>
        <path id="CMR17-31" d="M 1702 4083 
C 1702 4217 1696 4224 1606 4224 
C 1357 3927 979 3833 621 3820 
C 602 3820 570 3820 563 3808 
C 557 3795 557 3782 557 3648 
C 755 3648 1088 3686 1344 3839 
L 1344 467 
C 1344 243 1331 166 781 166 
L 589 166 
L 589 0 
C 896 6 1216 12 1523 12 
C 1830 12 2150 6 2458 0 
L 2458 166 
L 2266 166 
C 1715 166 1702 236 1702 467 
L 1702 4083 
z
" transform="scale(0.015625)"/>
       </defs>
       <use xlink:href="#CMR17-31" transform="scale(0.996264)"/>
       <use xlink:href="#CMMI12-3a" transform="translate(45.690477 0) scale(0.996264)"/>
       <use xlink:href="#CMR17-30" transform="translate(72.787654 0) scale(0.996264)"/>
      </g>
     </g>
    </g>
    <g id="text_7">
     <!-- $x$ -->
     <g transform="translate(181.078811 316.463885) scale(0.12 -0.12)">
      <defs>
       <path id="CMMI12-78" d="M 3034 2624 
C 2829 2585 2752 2431 2752 2310 
C 2752 2156 2874 2105 2963 2105 
C 3155 2105 3290 2271 3290 2444 
C 3290 2694 2982 2816 2714 2816 
C 2323 2816 2106 2451 2048 2329 
C 1901 2790 1504 2816 1389 2816 
C 736 2816 390 1993 390 1849 
C 390 1823 416 1790 461 1790 
C 512 1790 525 1829 538 1855 
C 755 2572 1184 2687 1370 2687 
C 1658 2687 1715 2438 1715 2284 
C 1715 2143 1677 1993 1600 1678 
L 1382 778 
C 1286 390 1101 64 762 64 
C 730 64 570 64 435 126 
C 666 166 717 358 717 435 
C 717 563 621 640 499 640 
C 346 640 179 505 179 300 
C 179 57 480 -64 755 -64 
C 1062 -64 1280 153 1414 415 
C 1517 64 1837 -64 2074 -64 
C 2726 -64 3072 751 3072 896 
C 3072 929 3046 955 3008 955 
C 2950 955 2944 922 2925 870 
C 2752 300 2381 64 2093 64 
C 1869 64 1747 204 1747 467 
C 1747 607 1773 712 1875 1146 
L 2099 2039 
C 2195 2425 2413 2687 2707 2687 
C 2720 2687 2899 2687 3034 2624 
z
" transform="scale(0.015625)"/>
      </defs>
      <use xlink:href="#CMMI12-78" transform="scale(0.996264)"/>
     </g>
    </g>
   </g>
   <g id="matplotlib.axis_2">
    <g id="ytick_1">
     <g id="line2d_7">
      <defs>
       <path id="mba5b20ab29" d="M 0 0 
L -3.5 0 
" style="stroke: #000000; stroke-width: 0.8"/>
      </defs>
      <g>
       <use xlink:href="#mba5b20ab29" x="41.556855" y="288.306028" style="stroke: #000000; stroke-width: 0.8"/>
      </g>
     </g>
     <g id="text_8">
      <!-- $\mathdefault{0.0}$ -->
      <g transform="translate(21.826776 291.765277) scale(0.1 -0.1)">
       <use xlink:href="#CMR17-30" transform="scale(0.996264)"/>
       <use xlink:href="#CMMI12-3a" transform="translate(45.690477 0) scale(0.996264)"/>
       <use xlink:href="#CMR17-30" transform="translate(72.787654 0) scale(0.996264)"/>
      </g>
     </g>
    </g>
    <g id="ytick_2">
     <g id="line2d_8">
      <g>
       <use xlink:href="#mba5b20ab29" x="41.556855" y="235.083628" style="stroke: #000000; stroke-width: 0.8"/>
      </g>
     </g>
     <g id="text_9">
      <!-- $\mathdefault{0.2}$ -->
      <g transform="translate(21.826776 238.542877) scale(0.1 -0.1)">
       <use xlink:href="#CMR17-30" transform="scale(0.996264)"/>
       <use xlink:href="#CMMI12-3a" transform="translate(45.690477 0) scale(0.996264)"/>
       <use xlink:href="#CMR17-32" transform="translate(72.787654 0) scale(0.996264)"/>
      </g>
     </g>
    </g>
    <g id="ytick_3">
     <g id="line2d_9">
      <g>
       <use xlink:href="#mba5b20ab29" x="41.556855" y="181.861228" style="stroke: #000000; stroke-width: 0.8"/>
      </g>
     </g>
     <g id="text_10">
      <!-- $\mathdefault{0.4}$ -->
      <g transform="translate(21.826776 185.320477) scale(0.1 -0.1)">
       <use xlink:href="#CMR17-30" transform="scale(0.996264)"/>
       <use xlink:href="#CMMI12-3a" transform="translate(45.690477 0) scale(0.996264)"/>
       <use xlink:href="#CMR17-34" transform="translate(72.787654 0) scale(0.996264)"/>
      </g>
     </g>
    </g>
    <g id="ytick_4">
     <g id="line2d_10">
      <g>
       <use xlink:href="#mba5b20ab29" x="41.556855" y="128.638828" style="stroke: #000000; stroke-width: 0.8"/>
      </g>
     </g>
     <g id="text_11">
      <!-- $\mathdefault{0.6}$ -->
      <g transform="translate(21.826776 132.098077) scale(0.1 -0.1)">
       <use xlink:href="#CMR17-30" transform="scale(0.996264)"/>
       <use xlink:href="#CMMI12-3a" transform="translate(45.690477 0) scale(0.996264)"/>
       <use xlink:href="#CMR17-36" transform="translate(72.787654 0) scale(0.996264)"/>
      </g>
     </g>
    </g>
    <g id="ytick_5">
     <g id="line2d_11">
      <g>
       <use xlink:href="#mba5b20ab29" x="41.556855" y="75.416428" style="stroke: #000000; stroke-width: 0.8"/>
      </g>
     </g>
     <g id="text_12">
      <!-- $\mathdefault{0.8}$ -->
      <g transform="translate(21.826776 78.875677) scale(0.1 -0.1)">
       <use xlink:href="#CMR17-30" transform="scale(0.996264)"/>
       <use xlink:href="#CMMI12-3a" transform="translate(45.690477 0) scale(0.996264)"/>
       <use xlink:href="#CMR17-38" transform="translate(72.787654 0) scale(0.996264)"/>
      </g>
     </g>
    </g>
    <g id="ytick_6">
     <g id="line2d_12">
      <g>
       <use xlink:href="#mba5b20ab29" x="41.556855" y="22.194028" style="stroke: #000000; stroke-width: 0.8"/>
      </g>
     </g>
     <g id="text_13">
      <!-- $\mathdefault{1.0}$ -->
      <g transform="translate(21.826776 25.653277) scale(0.1 -0.1)">
       <use xlink:href="#CMR17-31" transform="scale(0.996264)"/>
       <use xlink:href="#CMMI12-3a" transform="translate(45.690477 0) scale(0.996264)"/>
       <use xlink:href="#CMR17-30" transform="translate(72.787654 0) scale(0.996264)"/>
      </g>
     </g>
    </g>
    <g id="text_14">
     <!-- $y$ -->
     <g transform="translate(15.50218 158.103874) rotate(-90) scale(0.12 -0.12)">
      <defs>
       <path id="CMMI12-79" d="M 1683 -673 
C 1510 -921 1261 -1152 947 -1152 
C 870 -1152 563 -1139 467 -826 
C 486 -833 518 -833 531 -833 
C 723 -833 851 -666 851 -519 
C 851 -372 730 -320 634 -320 
C 531 -320 307 -397 307 -711 
C 307 -1050 582 -1280 947 -1280 
C 1587 -1280 2234 -673 2413 -7 
L 3040 2483 
C 3046 2515 3059 2553 3059 2591 
C 3059 2687 2982 2752 2886 2752 
C 2829 2752 2694 2726 2643 2534 
L 2170 657 
C 2138 542 2138 530 2086 459 
C 1958 281 1747 64 1440 64 
C 1082 64 1050 415 1050 587 
C 1050 951 1222 1443 1395 1902 
C 1466 2087 1504 2177 1504 2305 
C 1504 2573 1312 2816 998 2816 
C 410 2816 173 1890 173 1838 
C 173 1813 198 1781 243 1781 
C 301 1781 307 1807 333 1896 
C 486 2432 730 2687 979 2687 
C 1037 2687 1146 2687 1146 2477 
C 1146 2311 1075 2126 979 1883 
C 666 1047 666 836 666 683 
C 666 76 1101 -64 1421 -64 
C 1606 -64 1837 -7 2061 230 
L 2067 223 
C 1971 -141 1907 -359 1683 -673 
z
" transform="scale(0.015625)"/>
      </defs>
      <use xlink:href="#CMMI12-79" transform="scale(0.996264)"/>
     </g>
    </g>
   </g>
   <g id="TriContourSet_2">
    <path clip-path="url(#p88f05602ff)" style="fill: none; stroke: #000000; stroke-width: 0.5"/>
    <path d="M 263.591533 274.024156 
L 265.540047 273.634497 
L 277.672205 270.884634 
L 285.416773 266.922948 
L 288.993257 265.906504 
L 291.862141 263.397729 
L 295.648426 261.241495 
L 301.564379 254.674909 
L 303.449004 252.25762 
L 308.169932 241.334771 
L 309.589916 238.570357 
L 311.85381 228.069489 
L 312.730754 225.241709 
L 314.080622 216.109196 
L 314.724909 212.721007 
L 315.287889 205.262579 
L 315.870639 196.495251 
L 316.165252 194.070706 
L 316.596321 186.241652 
L 316.871784 180.945013 
L 316.871784 179.481933 
L 317.31282 164.405334 
L 317.31282 162.726723 
L 317.31436 158.225937 
L 317.313418 147.876229 
L 317.179067 143.405011 
L 317.013461 136.170733 
L 317.013461 130.048806 
L 316.207116 117.371173 
L 316.207116 115.878706 
L 315.232983 105.065856 
L 314.451472 97.011285 
L 313.906587 93.576736 
L 311.736721 81.129319 
L 311.269371 79.818703 
L 309.08686 73.510864 
L 306.580625 65.585874 
L 306.162115 63.410929 
L 301.825904 56.836663 
L 299.507763 52.648102 
L 294.294509 48.694344 
L 291.035184 45.902273 
L 282.989824 41.660102 
L 273.126928 38.925941 
L 270.882545 37.900016 
L 257.482864 35.710941 
L 255.544674 35.185753 
L 245.483441 34.090889 
L 238.626943 33.193785 
L 227.842207 32.809889 
L 215.101975 31.975911 
L 210.604941 31.892026 
L 202.640449 31.676335 
L 199.072729 31.578858 
L 185.300653 31.472528 
L 177.594018 31.481877 
L 173.359691 31.481877 
L 165.671036 31.603605 
L 158.359348 31.786374 
L 152.852945 32.163571 
L 140.02356 32.606666 
L 123.256386 33.985071 
L 122.07311 34.145852 
L 121.182628 34.350616 
L 106.386202 36.229008 
L 101.092378 37.756571 
L 93.766054 38.781776 
L 89.145262 40.74454 
L 86.134078 41.85632 
L 81.701285 45.000269 
L 72.493341 49.545668 
L 68.623788 53.653538 
L 66.529131 58.842689 
L 60.071508 69.017629 
L 56.54178 83.776233 
L 56.367031 84.323641 
L 56.334878 84.419558 
L 56.277093 84.780879 
L 54.291557 96.025459 
L 54.291557 100.191268 
L 53.312395 107.961579 
L 53.230886 108.556171 
L 52.610454 119.079787 
L 51.920662 129.426831 
L 51.920662 131.177225 
L 51.533008 145.429236 
L 51.533008 149.497785 
L 51.514386 162.678351 
L 51.514386 164.453706 
L 51.942712 179.413065 
L 51.942712 180.982991 
L 52.478966 191.568648 
L 52.736318 196.499815 
L 52.827424 197.053601 
L 53.104545 199.573042 
L 54.412558 211.82982 
L 54.412558 215.094236 
L 56.104944 224.40191 
L 56.720761 227.531405 
L 57.178145 228.788164 
L 59.550575 239.573458 
L 62.471275 245.238128 
L 64.282097 250.972655 
L 70.152482 257.520204 
L 70.451993 257.963075 
L 70.732596 258.200785 
L 86.49551 268.997751 
L 87.88705 269.719032 
L 102.164442 272.982892 
L 108.751098 274.639896 
L 109.630728 274.780709 
L 110.386587 274.780709 
L 113.878096 275.202802 
L 123.139614 276.454992 
L 125.636877 276.787687 
L 133.487731 277.466293 
L 144.997197 278.11661 
L 146.553996 278.11661 
L 158.911134 278.711537 
L 159.312262 278.711537 
L 172.494806 279.012485 
L 177.800964 279.012485 
L 188.173555 279.044637 
L 194.901646 278.985709 
L 200.174585 278.910631 
L 201.128749 278.865223 
L 207.169835 278.731703 
L 214.037411 278.590332 
L 219.739501 278.337239 
L 228.386879 277.904872 
L 239.120705 276.971078 
L 242.111298 276.74338 
L 242.905642 276.74338 
L 262.543164 274.024156 
L 263.591533 274.024156 
z
" clip-path="url(#p88f05602ff)" style="fill: none; stroke: #000000; stroke-width: 0.5"/>
    <path d="M 249.25954 263.552582 
L 264.532423 258.711403 
L 266.242143 258.208159 
L 271.584829 254.920536 
L 281.055342 249.304227 
L 283.208309 247.465604 
L 289.838535 240.095838 
L 292.471443 236.311386 
L 296.016655 228.942008 
L 298.703725 220.310787 
L 300.852776 215.583408 
L 302.174926 210.850928 
L 303.484619 203.835496 
L 305.034501 192.324404 
L 305.428616 190.159898 
L 306.017999 183.365826 
L 306.845614 173.101362 
L 306.935092 170.04856 
L 307.226865 161.648612 
L 307.309035 153.299333 
L 307.288425 151.617843 
L 307.235546 149.784742 
L 306.749528 135.977365 
L 306.418836 132.878202 
L 305.789848 125.804388 
L 305.295973 118.934048 
L 304.912256 115.27946 
L 302.743908 103.889903 
L 301.016269 95.610996 
L 299.92283 92.55728 
L 295.71674 80.776739 
L 294.449247 78.715785 
L 288.155585 68.432604 
L 287.58105 67.809702 
L 277.790973 58.838162 
L 273.550547 55.662951 
L 263.836147 51.439509 
L 261.657662 50.449109 
L 250.717901 47.448851 
L 246.764139 46.218969 
L 236.186316 44.714891 
L 230.323321 43.537107 
L 220.951717 42.376422 
L 215.86281 42.032395 
L 204.97014 41.326136 
L 204.30041 41.279879 
L 187.370736 40.831257 
L 185.613236 40.777018 
L 177.794293 40.869202 
L 163.621015 41.300626 
L 160.793079 41.453264 
L 145.747364 42.503516 
L 142.560577 42.860689 
L 140.540884 43.243293 
L 137.988723 43.74937 
L 125.283477 45.581088 
L 116.824095 47.459315 
L 106.890319 51.178715 
L 103.512743 52.158267 
L 96.936871 55.616246 
L 93.5079 57.308123 
L 92.669389 57.964304 
L 89.525568 60.898779 
L 81.005348 67.86776 
L 78.67181 71.498326 
L 72.158855 82.207291 
L 70.785455 86.509522 
L 68.027145 94.73784 
L 67.698739 96.791319 
L 66.208841 102.054505 
L 64.409311 114.141602 
L 63.577543 118.042235 
L 63.256471 120.66949 
L 62.700001 127.789318 
L 62.05245 135.481345 
L 61.876331 141.667999 
L 61.571821 153.693233 
L 61.571129 160.132317 
L 61.785391 167.293469 
L 61.929642 172.327914 
L 63.285381 189.117643 
L 63.313324 189.653072 
L 65.293436 201.689245 
L 65.916592 207.354645 
L 67.61324 213.415203 
L 70.434883 222.313954 
L 70.762372 223.978207 
L 71.329508 225.536533 
L 74.168384 232.085512 
L 79.948326 241.011757 
L 80.77458 242.113217 
L 82.652241 243.649798 
L 92.948616 253.141682 
L 103.649182 258.164432 
L 105.896357 259.372506 
L 121.841783 264.059339 
L 122.73094 264.378737 
L 124.065296 264.659788 
L 134.613567 266.425587 
L 143.399023 267.673818 
L 146.59507 267.925394 
L 148.873131 268.033548 
L 160.771802 269.050704 
L 165.348513 269.18783 
L 175.150976 269.559385 
L 181.607993 269.668701 
L 185.051409 269.670738 
L 193.36847 269.501639 
L 198.225438 269.432484 
L 207.991009 268.967744 
L 211.183176 268.89719 
L 222.854472 267.899075 
L 223.94049 267.79169 
L 224.506294 267.688108 
L 237.976326 265.910049 
L 248.509111 263.657126 
L 249.25954 263.552582 
z
" clip-path="url(#p88f05602ff)" style="fill: none; stroke: #000000; stroke-width: 0.5"/>
    <path d="M 296.068621 172.822212 
L 296.541264 164.445073 
L 296.952414 158.379634 
L 296.900333 154.130661 
L 296.5092 140.5717 
L 296.451358 138.928463 
L 295.571474 130.682406 
L 295.303443 128.453156 
L 295.03228 126.886099 
L 293.421935 117.14389 
L 292.446601 112.321441 
L 290.493274 105.121436 
L 285.482486 92.431012 
L 285.16592 91.688934 
L 284.767226 91.095618 
L 278.851763 81.242285 
L 273.625567 75.401935 
L 269.877874 71.734931 
L 262.108933 66.329987 
L 259.687853 64.942831 
L 252.713804 61.547352 
L 247.671077 59.337406 
L 240.885545 57.230277 
L 230.690501 54.616777 
L 229.30581 54.338615 
L 228.306056 54.214794 
L 216.760616 52.504261 
L 204.304564 51.105892 
L 201.919535 50.941164 
L 199.49497 50.876915 
L 183.992371 50.398482 
L 181.397678 50.325668 
L 181.102499 50.319579 
L 180.676108 50.335589 
L 161.036933 51.395486 
L 160.41502 51.470817 
L 148.644599 52.790036 
L 140.663395 54.301969 
L 130.578047 56.30183 
L 130.262543 56.347316 
L 130.052476 56.393957 
L 129.650831 56.544341 
L 122.221781 59.694867 
L 107.2611 65.923851 
L 106.34382 66.478147 
L 97.388462 73.273588 
L 92.80222 78.368116 
L 89.650461 81.698959 
L 88.342601 83.96071 
L 82.213222 94.409048 
L 81.242408 97.055021 
L 79.708789 101.733913 
L 77.376367 108.34418 
L 76.385726 112.487231 
L 74.301211 122.262708 
L 73.938177 125.233332 
L 73.081479 131.347789 
L 72.621796 136.804517 
L 72.165518 145.366733 
L 71.875832 156.531189 
L 72.231472 166.368095 
L 72.403269 171.261005 
L 72.893471 177.51672 
L 74.608834 189.224394 
L 75.34385 193.436119 
L 77.219817 201.522597 
L 79.374727 208.854492 
L 81.587228 214.122891 
L 86.252899 223.50736 
L 88.380466 226.872007 
L 91.228559 230.126638 
L 94.734745 234.800653 
L 99.130467 238.397886 
L 104.351731 242.953199 
L 115.725326 248.938948 
L 115.867184 249.020235 
L 116.243451 249.15814 
L 127.807524 253.312112 
L 131.33233 254.05453 
L 138.605629 255.993938 
L 146.406591 257.310185 
L 151.683365 258.119776 
L 155.97944 258.492019 
L 162.606255 259.142106 
L 174.844948 259.968467 
L 175.39731 259.989404 
L 175.737548 259.995164 
L 185.722416 260.025993 
L 193.130734 259.930938 
L 199.831858 259.604054 
L 208.448702 259.102576 
L 217.267183 258.056937 
L 220.035507 257.783208 
L 226.054992 256.681211 
L 235.423066 254.591236 
L 244.511832 251.773884 
L 249.324566 250.426912 
L 251.229755 249.801786 
L 258.304989 246.674303 
L 264.843445 242.545666 
L 268.638747 239.900385 
L 274.492415 234.027699 
L 276.162061 232.328675 
L 282.6723 223.742428 
L 285.654868 217.656857 
L 288.214007 212.027385 
L 289.616505 207.007312 
L 292.001567 199.88579 
L 293.937895 190.843521 
L 294.7933 186.14557 
L 295.088464 182.74309 
L 296.068621 172.822212 
z
" clip-path="url(#p88f05602ff)" style="fill: none; stroke: #000000; stroke-width: 0.5"/>
    <path d="M 285.093007 174.45542 
L 285.170222 173.08687 
L 285.480886 168.503841 
L 285.967308 158.96583 
L 286.194099 153.844185 
L 285.856796 146.144126 
L 285.286789 139.493274 
L 283.703331 127.215302 
L 283.496646 126.043935 
L 283.091139 124.578489 
L 280.792436 116.100754 
L 279.242495 110.652155 
L 275.545054 102.75943 
L 273.697524 98.428549 
L 270.971331 94.371558 
L 266.513914 88.146271 
L 257.076317 79.34832 
L 256.535255 78.861412 
L 256.077159 78.561589 
L 246.655865 72.76382 
L 238.755178 69.331627 
L 235.252441 67.882739 
L 227.183491 65.646128 
L 217.640274 63.213094 
L 217.292933 63.124099 
L 217.00268 63.076134 
L 213.494651 62.683847 
L 195.707765 60.692254 
L 193.375069 60.626793 
L 182.512247 60.402708 
L 172.775644 60.768307 
L 168.420816 61.05397 
L 166.359811 61.346389 
L 152.827155 63.069556 
L 142.963907 64.941978 
L 140.744067 65.567172 
L 127.312179 70.436778 
L 126.37845 70.918047 
L 110.692579 80.121349 
L 105.530428 84.983738 
L 100.368302 90.233453 
L 98.663125 93.172552 
L 91.651718 105.486154 
L 90.389848 109.082542 
L 87.834854 116.222694 
L 85.8566 124.556066 
L 84.953217 128.208652 
L 83.865301 135.788696 
L 83.281544 140.541522 
L 82.789398 149.593797 
L 82.622683 155.220253 
L 83.10357 166.392432 
L 83.584414 172.414385 
L 84.827934 180.180592 
L 85.729334 186.219993 
L 87.70195 193.897949 
L 89.048361 198.216377 
L 92.6435 207.272184 
L 95.021968 211.734113 
L 100.60175 219.394595 
L 102.537275 222.455535 
L 104.151301 224.299948 
L 111.258028 230.459292 
L 113.444753 232.448561 
L 114.15738 232.937748 
L 117.273622 234.686579 
L 125.263263 239.264784 
L 127.613624 240.126206 
L 133.994562 242.717157 
L 142.706457 245.303888 
L 146.314945 246.266084 
L 150.29507 246.937645 
L 162.757194 248.981311 
L 164.49711 249.151996 
L 166.227625 249.268841 
L 180.439035 249.894359 
L 185.696668 250.039334 
L 191.190584 249.896327 
L 203.297597 249.316243 
L 206.416225 248.914283 
L 208.517258 248.473943 
L 218.952627 246.661669 
L 225.773884 244.962263 
L 233.708879 243.100822 
L 240.357067 240.345752 
L 245.213493 238.502068 
L 248.952699 236.532507 
L 255.78428 231.598946 
L 260.841733 228.094845 
L 269.214147 218.692993 
L 270.369001 217.517818 
L 270.814243 216.930596 
L 271.288523 215.962885 
L 276.326754 206.888591 
L 279.799774 197.965977 
L 280.377057 196.56281 
L 280.798143 195.17794 
L 283.152728 185.479508 
L 284.858123 176.832858 
L 285.093007 174.45542 
z
" clip-path="url(#p88f05602ff)" style="fill: none; stroke: #000000; stroke-width: 0.5"/>
    <path d="M 257.269782 98.642763 
L 254.294188 95.05568 
L 250.4914 91.727055 
L 247.003901 88.588614 
L 238.570459 83.068953 
L 236.828867 81.997194 
L 235.36837 81.36273 
L 227.484106 78.101448 
L 225.111361 77.132717 
L 223.19658 76.521966 
L 212.035486 73.662304 
L 200.601741 71.772845 
L 200.576245 71.770038 
L 200.555049 71.768566 
L 183.292007 71.142839 
L 169.483061 71.941859 
L 166.158503 72.15994 
L 160.098895 73.019686 
L 154.659754 74.040839 
L 152.301764 74.679718 
L 142.445419 77.446425 
L 140.341906 78.411629 
L 136.859535 80.304963 
L 123.897762 86.984438 
L 117.754176 92.367374 
L 112.661142 97.029433 
L 106.941392 104.536502 
L 106.939319 104.539383 
L 106.936955 104.544335 
L 100.191864 118.421787 
L 98.794891 122.32575 
L 98.098778 125.258115 
L 95.546047 135.579396 
L 95.49928 135.905244 
L 95.432194 136.451441 
L 94.522811 145.478836 
L 94.062349 155.282003 
L 94.058093 158.810335 
L 94.935907 171.068624 
L 95.001311 171.887727 
L 95.035664 172.102271 
L 98.669793 187.264136 
L 100.867033 194.010082 
L 102.786342 198.216377 
L 106.119629 204.433922 
L 112.898153 212.8849 
L 117.144408 218.246181 
L 119.143367 220.064639 
L 128.11044 226.220126 
L 128.765105 226.587523 
L 133.549081 228.869654 
L 140.111698 232.037356 
L 141.184457 232.486083 
L 150.029214 235.121896 
L 157.105948 236.830861 
L 163.867007 237.924833 
L 172.350331 238.916392 
L 172.834525 238.957797 
L 184.218768 239.370884 
L 193.66404 239.038129 
L 197.369875 238.771205 
L 206.142195 237.777629 
L 206.9351 237.675431 
L 217.631938 235.43356 
L 218.53963 235.275924 
L 220.115156 234.883408 
L 230.038137 231.325114 
L 235.485069 229.068255 
L 242.50383 225.020238 
L 246.527111 222.136923 
L 253.50703 216.444254 
L 255.713026 213.941892 
L 261.621518 206.257574 
L 263.450871 203.043811 
L 267.539308 194.881927 
L 268.330162 192.959645 
L 268.919007 191.023046 
L 271.805409 181.980315 
L 272.634883 177.61654 
L 274.100083 169.611084 
L 274.219247 167.274456 
L 274.390999 163.395764 
L 274.74954 153.79335 
L 274.501097 149.166512 
L 273.864657 140.982591 
L 273.049324 135.579938 
L 272.096878 130.182043 
L 270.196092 123.312859 
L 268.231388 117.133173 
L 266.084382 112.859678 
L 262.414267 105.450221 
L 257.269782 98.642763 
z
" clip-path="url(#p88f05602ff)" style="fill: none; stroke: #000000; stroke-width: 0.5"/>
    <path d="M 138.634345 216.809085 
L 141.334289 218.507727 
L 151.981236 222.919227 
L 154.738736 223.861957 
L 163.076378 225.771848 
L 177.215577 227.453463 
L 182.558415 227.910347 
L 185.095911 228.002422 
L 187.201219 227.928253 
L 199.120789 227.069707 
L 199.664909 227.008079 
L 213.780238 223.710098 
L 217.170255 222.895987 
L 218.655922 222.197283 
L 232.169993 215.852631 
L 233.9797 214.820566 
L 235.552118 213.538798 
L 242.690646 207.490277 
L 247.467098 201.869313 
L 250.062062 198.498943 
L 254.675428 190.840624 
L 255.584438 189.043243 
L 256.358151 186.810924 
L 259.221281 178.566107 
L 261.271607 170.095566 
L 261.640932 167.851299 
L 261.824666 165.361712 
L 261.973062 155.498651 
L 261.78279 145.93063 
L 260.847984 139.65321 
L 259.70528 133.313423 
L 257.978268 127.937021 
L 256.072954 122.806815 
L 254.618995 119.913796 
L 251.109009 113.409416 
L 240.261446 100.280436 
L 240.163804 100.167046 
L 240.111197 100.123046 
L 238.915227 99.372851 
L 225.154312 90.750806 
L 224.488317 90.478897 
L 222.808899 89.943219 
L 209.285681 85.42145 
L 200.333133 84.057393 
L 192.852348 83.233649 
L 185.07015 82.693362 
L 179.837485 82.91781 
L 169.748197 83.734378 
L 162.620029 84.775303 
L 161.928895 84.905058 
L 159.146109 85.659031 
L 150.862925 88.040753 
L 142.144511 91.959815 
L 138.855406 93.469031 
L 137.112484 94.416642 
L 132.279608 98.258837 
L 125.645012 103.469096 
L 124.660239 104.452019 
L 116.39417 115.930895 
L 114.949569 118.442297 
L 110.984054 127.115694 
L 109.383864 132.804246 
L 107.970243 139.768245 
L 107.132103 144.830238 
L 106.652151 150.500743 
L 106.614678 160.280362 
L 107.213345 166.509872 
L 108.013936 171.882028 
L 109.573706 178.3359 
L 112.380975 186.791167 
L 114.271722 190.980987 
L 118.281792 197.836394 
L 121.580243 202.009083 
L 129.286903 210.355599 
L 138.634345 216.809085 
z
" clip-path="url(#p88f05602ff)" style="fill: none; stroke: #000000; stroke-width: 0.5"/>
    <path d="M 156.352918 100.900431 
L 152.254652 102.945899 
L 144.042429 107.424679 
L 141.322623 109.560588 
L 136.838422 114.036364 
L 132.052408 119.24726 
L 126.856866 128.459648 
L 124.346114 133.817979 
L 122.570621 139.981624 
L 121.139925 147.005838 
L 120.717091 152.79235 
L 120.81183 161.892459 
L 121.118906 164.979128 
L 124.54403 177.286745 
L 125.905094 181.3728 
L 130.393636 189.197606 
L 131.294787 190.515268 
L 138.721879 198.719682 
L 152.026559 208.008542 
L 153.457287 208.90867 
L 154.083203 209.168014 
L 155.236645 209.562351 
L 167.106692 212.781245 
L 178.428406 214.356805 
L 182.260405 214.784858 
L 195.63598 213.935819 
L 197.785455 213.708419 
L 212.27717 210.031373 
L 212.404087 210.000894 
L 212.529264 209.942024 
L 226.915209 201.484211 
L 229.099148 199.819863 
L 233.602422 194.606476 
L 240.724386 185.680921 
L 241.373835 184.455325 
L 245.092565 175.247768 
L 247.033604 167.896771 
L 247.651545 164.89848 
L 248.271762 153.413157 
L 248.298413 151.641812 
L 248.275514 150.49031 
L 247.993738 148.598123 
L 245.800093 138.984721 
L 244.055312 133.033281 
L 242.767043 129.317695 
L 240.480522 125.033528 
L 234.309076 116.198571 
L 232.230785 113.785109 
L 221.904823 105.14847 
L 221.81215 105.090339 
L 221.678015 105.038207 
L 207.428188 99.440593 
L 200.109348 97.739495 
L 189.836171 96.000306 
L 185.581482 96.016746 
L 175.171249 96.407389 
L 171.603556 96.936908 
L 158.151706 100.055585 
L 156.352918 100.900431 
z
" clip-path="url(#p88f05602ff)" style="fill: none; stroke: #000000; stroke-width: 0.5"/>
    <path d="M 142.208304 172.674263 
L 144.9915 178.532719 
L 147.066313 181.608567 
L 153.434644 188.840341 
L 153.658819 188.993029 
L 163.965257 194.75884 
L 165.635936 195.278605 
L 172.047534 196.418799 
L 184.766278 198.418558 
L 189.012571 198.258512 
L 199.626392 196.381897 
L 202.601138 195.45983 
L 208.57641 192.252783 
L 216.518617 187.233228 
L 219.179196 184.410839 
L 225.101424 175.303713 
L 228.553733 169.729378 
L 229.316141 167.994046 
L 229.788353 166.108986 
L 230.892008 158.687257 
L 231.108661 155.628504 
L 231.142605 155.02121 
L 231.055158 154.042253 
L 229.059091 142.576561 
L 227.742542 139.304404 
L 219.95238 126.441965 
L 218.870883 124.824416 
L 218.474518 124.387508 
L 204.617439 115.640668 
L 204.221092 115.507293 
L 189.992047 112.592905 
L 183.146102 112.1757 
L 173.494739 113.455311 
L 169.694832 114.114544 
L 167.620667 114.720603 
L 158.934631 118.840059 
L 155.566257 120.864102 
L 152.465693 123.496117 
L 148.622951 127.311777 
L 144.392778 132.872803 
L 140.588034 140.564847 
L 139.938331 142.12949 
L 139.745567 143.100569 
L 137.983022 153.734794 
L 138.055587 155.047473 
L 138.512829 159.402453 
L 139.680935 166.690471 
L 142.208304 172.674263 
z
" clip-path="url(#p88f05602ff)" style="fill: none; stroke: #000000; stroke-width: 0.5"/>
    <path d="M 167.239915 158.186578 
L 174.435982 167.788758 
L 183.057268 170.412486 
L 194.855009 169.031272 
L 196.197807 168.652796 
L 196.405774 168.501054 
L 196.637836 168.145765 
L 201.870965 150.968159 
L 201.7394 148.840556 
L 201.407465 147.605125 
L 200.238629 146.160192 
L 189.306544 140.538813 
L 183.518469 139.144883 
L 173.827445 142.536181 
L 171.633962 143.430602 
L 169.974374 145.145248 
L 167.398719 153.398538 
L 167.239915 158.186578 
z
" clip-path="url(#p88f05602ff)" style="fill: none; stroke: #000000; stroke-width: 0.5"/>
    <path clip-path="url(#p88f05602ff)" style="fill: none; stroke: #000000; stroke-width: 0.5"/>
   </g>
   <g id="patch_3">
    <path d="M 41.556855 288.306028 
L 41.556855 22.194028 
" style="fill: none; stroke: #000000; stroke-width: 0.8; stroke-linejoin: miter; stroke-linecap: square"/>
   </g>
   <g id="patch_4">
    <path d="M 327.252855 288.306028 
L 327.252855 22.194028 
" style="fill: none; stroke: #000000; stroke-width: 0.8; stroke-linejoin: miter; stroke-linecap: square"/>
   </g>
   <g id="patch_5">
    <path d="M 41.556855 288.306028 
L 327.252855 288.306028 
" style="fill: none; stroke: #000000; stroke-width: 0.8; stroke-linejoin: miter; stroke-linecap: square"/>
   </g>
   <g id="patch_6">
    <path d="M 41.556855 22.194028 
L 327.252855 22.194028 
" style="fill: none; stroke: #000000; stroke-width: 0.8; stroke-linejoin: miter; stroke-linecap: square"/>
   </g>
   <g id="text_15">
    <!-- Solution of the heat equation at $T=1$ -->
    <g transform="translate(77.22427 16.194028) scale(0.13 -0.13)">
     <defs>
      <path id="CMR17-53" d="M 2803 4351 
C 2803 4467 2797 4473 2758 4473 
C 2720 4473 2707 4447 2682 4390 
L 2490 3965 
C 2246 4320 1875 4480 1472 4480 
C 819 4480 294 3958 294 3301 
C 294 3101 339 2817 557 2546 
C 794 2250 1018 2198 1530 2063 
C 1722 2011 2042 1927 2106 1901 
C 2470 1747 2662 1360 2662 999 
C 2662 534 2336 38 1779 38 
C 1094 38 454 425 410 1328 
C 403 1431 397 1437 352 1437 
C 301 1437 294 1431 294 1302 
L 294 0 
C 294 -116 301 -122 339 -122 
C 384 -122 397 -90 486 109 
C 493 128 493 141 614 386 
C 934 -39 1472 -128 1779 -128 
C 2477 -128 2970 457 2970 1141 
C 2970 1476 2848 1734 2778 1850 
C 2509 2263 2221 2340 1914 2417 
C 1869 2437 1856 2437 1498 2527 
C 1152 2617 1005 2662 845 2836 
C 666 3036 602 3243 602 3449 
C 602 3868 934 4326 1478 4326 
C 2157 4326 2579 3842 2675 3036 
C 2694 2920 2701 2914 2746 2914 
C 2803 2914 2803 2933 2803 3043 
L 2803 4351 
z
" transform="scale(0.015625)"/>
      <path id="CMR17-6f" d="M 2758 1356 
C 2758 2176 2163 2816 1466 2816 
C 768 2816 173 2176 173 1356 
C 173 550 768 -64 1466 -64 
C 2163 -64 2758 550 2758 1356 
z
M 1466 51 
C 1165 51 909 230 762 480 
C 602 768 582 1126 582 1408 
C 582 1676 595 2009 762 2297 
C 890 2508 1139 2713 1466 2713 
C 1754 2713 1997 2553 2150 2329 
C 2349 2028 2349 1606 2349 1408 
C 2349 1158 2336 774 2163 467 
C 1984 172 1709 51 1466 51 
z
" transform="scale(0.015625)"/>
      <path id="CMR17-6c" d="M 979 4416 
L 218 4345 
L 218 4179 
C 595 4179 653 4141 653 3835 
L 653 439 
C 653 198 627 166 218 166 
L 218 0 
C 371 12 653 12 813 12 
C 979 12 1261 12 1414 0 
L 1414 166 
C 1005 166 979 191 979 439 
L 979 4416 
z
" transform="scale(0.015625)"/>
      <path id="CMR17-75" d="M 1882 2745 
L 1882 2579 
C 2259 2579 2317 2540 2317 2229 
L 2317 1053 
C 2317 510 2029 38 1555 38 
C 1030 38 986 355 986 691 
L 986 2816 
L 211 2745 
L 211 2579 
C 467 2579 640 2579 646 2320 
L 646 1079 
C 646 646 646 368 813 187 
C 896 103 1056 -64 1517 -64 
C 2061 -64 2272 400 2323 536 
L 2330 536 
L 2330 -64 
L 3091 -13 
L 3091 154 
C 2714 154 2656 193 2656 503 
L 2656 2816 
L 1882 2745 
z
" transform="scale(0.015625)"/>
      <path id="CMR17-74" d="M 966 2585 
L 1862 2585 
L 1862 2752 
L 966 2752 
L 966 3968 
L 851 3968 
C 838 3292 614 2700 70 2687 
L 70 2585 
L 627 2585 
L 627 778 
C 627 655 627 -64 1370 -64 
C 1747 -64 1965 308 1965 784 
L 1965 1151 
L 1850 1151 
L 1850 790 
C 1850 347 1677 51 1408 51 
C 1222 51 966 179 966 765 
L 966 2585 
z
" transform="scale(0.015625)"/>
      <path id="CMR17-69" d="M 992 3961 
C 992 4102 877 4224 730 4224 
C 589 4224 467 4108 467 3961 
C 467 3820 582 3699 730 3699 
C 870 3699 992 3814 992 3961 
z
M 243 2745 
L 243 2579 
C 602 2579 653 2540 653 2231 
L 653 443 
C 653 198 627 166 218 166 
L 218 0 
C 371 12 646 12 806 12 
C 960 12 1222 12 1370 0 
L 1370 166 
C 992 166 979 205 979 436 
L 979 2816 
L 243 2745 
z
" transform="scale(0.015625)"/>
      <path id="CMR17-6e" d="M 2656 1954 
C 2656 2282 2592 2816 1837 2816 
C 1331 2816 1069 2424 973 2166 
L 966 2166 
L 966 2816 
L 211 2745 
L 211 2578 
C 589 2578 646 2540 646 2231 
L 646 443 
C 646 198 621 166 211 166 
L 211 0 
C 365 12 646 12 813 12 
C 979 12 1267 12 1421 0 
L 1421 166 
C 1011 166 986 192 986 443 
L 986 1678 
C 986 2269 1344 2713 1792 2713 
C 2266 2713 2317 2289 2317 1980 
L 2317 443 
C 2317 198 2291 166 1882 166 
L 1882 0 
C 2035 12 2317 12 2483 12 
C 2650 12 2938 12 3091 0 
L 3091 166 
C 2682 166 2656 192 2656 443 
L 2656 1954 
z
" transform="scale(0.015625)"/>
      <path id="CMR17-66" d="M 979 2585 
L 1709 2585 
L 1709 2752 
L 966 2752 
L 966 3539 
C 966 4076 1235 4377 1510 4377 
C 1594 4377 1690 4363 1754 4339 
C 1702 4326 1568 4281 1568 4121 
C 1568 3955 1696 3904 1786 3904 
C 1875 3904 2003 3955 2003 4121 
C 2003 4353 1773 4480 1517 4480 
C 1152 4480 653 4211 653 3526 
L 653 2752 
L 141 2752 
L 141 2585 
L 653 2585 
L 653 441 
C 653 198 627 166 218 166 
L 218 0 
C 371 12 666 12 832 12 
C 1018 12 1344 12 1517 0 
L 1517 166 
C 1056 166 979 166 979 454 
L 979 2585 
z
" transform="scale(0.015625)"/>
      <path id="CMR17-68" d="M 2656 1954 
C 2656 2282 2592 2816 1837 2816 
C 1312 2816 1056 2392 979 2179 
L 973 2179 
L 973 4416 
L 211 4345 
L 211 4179 
C 589 4179 646 4141 646 3843 
L 646 443 
C 646 198 621 166 211 166 
L 211 0 
C 365 12 646 12 813 12 
C 979 12 1267 12 1421 0 
L 1421 166 
C 1011 166 986 192 986 443 
L 986 1678 
C 986 2269 1344 2713 1792 2713 
C 2266 2713 2317 2289 2317 1980 
L 2317 443 
C 2317 198 2291 166 1882 166 
L 1882 0 
C 2035 12 2317 12 2483 12 
C 2650 12 2938 12 3091 0 
L 3091 166 
C 2682 166 2656 192 2656 443 
L 2656 1954 
z
" transform="scale(0.015625)"/>
      <path id="CMR17-65" d="M 2438 1503 
C 2464 1529 2464 1542 2464 1606 
C 2464 2251 2118 2816 1389 2816 
C 710 2816 173 2175 173 1394 
C 173 554 781 -64 1459 -64 
C 2176 -64 2458 619 2458 755 
C 2458 800 2419 800 2406 800 
C 2362 800 2355 787 2330 709 
C 2189 270 1837 51 1504 51 
C 1229 51 954 206 781 490 
C 582 819 582 1200 582 1503 
L 2438 1503 
z
M 589 1600 
C 634 2511 1126 2713 1382 2713 
C 1818 2713 2112 2308 2118 1600 
L 589 1600 
z
" transform="scale(0.015625)"/>
      <path id="CMR17-61" d="M 2304 1656 
C 2304 2048 2304 2275 2035 2534 
C 1798 2751 1523 2816 1306 2816 
C 800 2816 435 2408 435 1977 
C 435 1740 627 1728 666 1728 
C 749 1728 896 1779 896 1958 
C 896 2118 774 2188 666 2188 
C 640 2188 608 2182 589 2176 
C 723 2594 1069 2713 1293 2713 
C 1613 2713 1965 2421 1965 1875 
L 1965 1632 
C 1587 1619 1133 1568 774 1373 
C 371 1147 256 822 256 576 
C 256 77 832 -64 1171 -64 
C 1523 -64 1850 135 1990 505 
C 2003 219 2182 -39 2464 -39 
C 2598 -39 2938 51 2938 563 
L 2938 926 
L 2822 926 
L 2822 557 
C 2822 161 2650 109 2566 109 
C 2304 109 2304 446 2304 732 
L 2304 1656 
z
M 1965 887 
C 1965 323 1568 38 1216 38 
C 896 38 646 278 646 576 
C 646 771 730 1114 1101 1322 
C 1408 1497 1760 1523 1965 1536 
L 1965 887 
z
" transform="scale(0.015625)"/>
      <path id="CMR17-71" d="M 2630 2816 
L 2528 2816 
L 2336 2177 
C 2189 2519 1920 2816 1491 2816 
C 838 2816 211 2228 211 1376 
C 211 529 800 -64 1440 -64 
C 1933 -64 2208 316 2291 458 
L 2291 -834 
C 2291 -1081 2266 -1114 1856 -1114 
L 1856 -1280 
C 2010 -1268 2291 -1268 2458 -1268 
C 2624 -1268 2912 -1268 3066 -1280 
L 3066 -1114 
C 2656 -1114 2630 -1088 2630 -834 
L 2630 2816 
z
M 2304 871 
C 2304 594 2074 335 2054 316 
C 1856 90 1626 38 1472 38 
C 992 38 621 652 621 1369 
C 621 2125 1043 2700 1536 2700 
C 2048 2700 2304 2112 2304 1776 
L 2304 871 
z
" transform="scale(0.015625)"/>
      <path id="CMMI12-54" d="M 2669 3886 
C 2707 4038 2720 4096 2816 4121 
C 2867 4134 3078 4134 3213 4134 
C 3853 4134 4154 4109 4154 3612 
C 4154 3516 4128 3274 4090 3038 
L 4083 2962 
C 4083 2937 4109 2898 4147 2898 
C 4211 2898 4211 2930 4230 3032 
L 4416 4159 
C 4429 4217 4429 4230 4429 4249 
C 4429 4319 4390 4319 4262 4319 
L 762 4319 
C 614 4319 608 4313 570 4198 
L 179 3051 
C 173 3038 154 2968 154 2962 
C 154 2930 179 2898 218 2898 
C 269 2898 282 2924 307 3007 
C 576 3777 710 4134 1562 4134 
L 1990 4134 
C 2144 4134 2208 4134 2208 4064 
C 2208 4045 2208 4032 2176 3917 
L 1318 497 
C 1254 249 1242 185 563 185 
C 403 185 358 185 358 64 
C 358 0 429 0 461 0 
C 621 0 787 12 947 12 
L 1946 12 
C 2106 12 2278 0 2438 0 
C 2509 0 2573 0 2573 121 
C 2573 185 2528 185 2362 185 
C 1786 185 1786 242 1786 338 
C 1786 344 1786 389 1811 491 
L 2669 3886 
z
" transform="scale(0.015625)"/>
      <path id="CMR17-3d" d="M 4115 2048 
C 4211 2048 4307 2048 4307 2156 
C 4307 2272 4198 2272 4090 2272 
L 512 2272 
C 403 2272 294 2272 294 2156 
C 294 2048 390 2048 486 2048 
L 4115 2048 
z
M 4090 927 
C 4198 927 4307 927 4307 1043 
C 4307 1152 4211 1152 4115 1152 
L 486 1152 
C 390 1152 294 1152 294 1043 
C 294 927 403 927 512 927 
L 4090 927 
z
" transform="scale(0.015625)"/>
     </defs>
     <use xlink:href="#CMR17-53" transform="scale(0.996264)"/>
     <use xlink:href="#CMR17-6f" transform="translate(50.89537 0) scale(0.996264)"/>
     <use xlink:href="#CMR17-6c" transform="translate(96.585847 0) scale(0.996264)"/>
     <use xlink:href="#CMR17-75" transform="translate(121.456905 0) scale(0.996264)"/>
     <use xlink:href="#CMR17-74" transform="translate(172.352275 0) scale(0.996264)"/>
     <use xlink:href="#CMR17-69" transform="translate(207.633043 0) scale(0.996264)"/>
     <use xlink:href="#CMR17-6f" transform="translate(232.504101 0) scale(0.996264)"/>
     <use xlink:href="#CMR17-6e" transform="translate(278.194579 0) scale(0.996264)"/>
     <use xlink:href="#CMR17-6f" transform="translate(359.165915 0) scale(0.996264)"/>
     <use xlink:href="#CMR17-66" transform="translate(404.856392 0) scale(0.996264)"/>
     <use xlink:href="#CMR17-74" transform="translate(462.405871 0) scale(0.996264)"/>
     <use xlink:href="#CMR17-68" transform="translate(497.686638 0) scale(0.996264)"/>
     <use xlink:href="#CMR17-65" transform="translate(548.582008 0) scale(0.996264)"/>
     <use xlink:href="#CMR17-68" transform="translate(619.143635 0) scale(0.996264)"/>
     <use xlink:href="#CMR17-65" transform="translate(670.039005 0) scale(0.996264)"/>
     <use xlink:href="#CMR17-61" transform="translate(710.524665 0) scale(0.996264)"/>
     <use xlink:href="#CMR17-74" transform="translate(756.215142 0) scale(0.996264)"/>
     <use xlink:href="#CMR17-65" transform="translate(821.571876 0) scale(0.996264)"/>
     <use xlink:href="#CMR17-71" transform="translate(862.057537 0) scale(0.996264)"/>
     <use xlink:href="#CMR17-75" transform="translate(910.350453 0) scale(0.996264)"/>
     <use xlink:href="#CMR17-61" transform="translate(961.245823 0) scale(0.996264)"/>
     <use xlink:href="#CMR17-74" transform="translate(1006.9363 0) scale(0.996264)"/>
     <use xlink:href="#CMR17-69" transform="translate(1042.217067 0) scale(0.996264)"/>
     <use xlink:href="#CMR17-6f" transform="translate(1067.088126 0) scale(0.996264)"/>
     <use xlink:href="#CMR17-6e" transform="translate(1112.778603 0) scale(0.996264)"/>
     <use xlink:href="#CMR17-61" transform="translate(1193.749939 0) scale(0.996264)"/>
     <use xlink:href="#CMR17-74" transform="translate(1239.440416 0) scale(0.996264)"/>
     <use xlink:href="#CMMI12-54" transform="translate(1304.79715 0) scale(0.996264)"/>
     <use xlink:href="#CMR17-3d" transform="translate(1403.194791 0) scale(0.996264)"/>
     <use xlink:href="#CMR17-31" transform="translate(1502.583589 0) scale(0.996264)"/>
    </g>
   </g>
  </g>
  <g id="axes_2">
   <g id="patch_7">
    <path d="M 345.108855 288.306028 
L 358.414455 288.306028 
L 358.414455 22.194028 
L 345.108855 22.194028 
z
" style="fill: #ffffff"/>
   </g>
   <g id="QuadMesh_1">
    <path d="M 345.108855 288.306028 
L 358.414455 288.306028 
L 358.414455 261.694828 
L 345.108855 261.694828 
L 345.108855 288.306028 
" clip-path="url(#p8b7419bc24)" style="fill: #4332ca"/>
    <path d="M 345.108855 261.694828 
L 358.414455 261.694828 
L 358.414455 235.083628 
L 345.108855 235.083628 
L 345.108855 261.694828 
" clip-path="url(#p8b7419bc24)" style="fill: #4854f6"/>
    <path d="M 345.108855 235.083628 
L 358.414455 235.083628 
L 358.414455 208.472428 
L 345.108855 208.472428 
L 345.108855 235.083628 
" clip-path="url(#p8b7419bc24)" style="fill: #337afd"/>
    <path d="M 345.108855 208.472428 
L 358.414455 208.472428 
L 358.414455 181.861228 
L 345.108855 181.861228 
L 345.108855 208.472428 
" clip-path="url(#p8b7419bc24)" style="fill: #259be8"/>
    <path d="M 345.108855 181.861228 
L 358.414455 181.861228 
L 358.414455 155.250028 
L 345.108855 155.250028 
L 345.108855 181.861228 
" clip-path="url(#p8b7419bc24)" style="fill: #04b6ce"/>
    <path d="M 345.108855 155.250028 
L 358.414455 155.250028 
L 358.414455 128.638828 
L 345.108855 128.638828 
L 345.108855 155.250028 
" clip-path="url(#p8b7419bc24)" style="fill: #2fc5a3"/>
    <path d="M 345.108855 128.638828 
L 358.414455 128.638828 
L 358.414455 102.027628 
L 345.108855 102.027628 
L 345.108855 128.638828 
" clip-path="url(#p8b7419bc24)" style="fill: #72cd64"/>
    <path d="M 345.108855 102.027628 
L 358.414455 102.027628 
L 358.414455 75.416428 
L 345.108855 75.416428 
L 345.108855 102.027628 
" clip-path="url(#p8b7419bc24)" style="fill: #cbc128"/>
    <path d="M 345.108855 75.416428 
L 358.414455 75.416428 
L 358.414455 48.805228 
L 345.108855 48.805228 
L 345.108855 75.416428 
" clip-path="url(#p8b7419bc24)" style="fill: #fec13a"/>
    <path d="M 345.108855 48.805228 
L 358.414455 48.805228 
L 358.414455 22.194028 
L 345.108855 22.194028 
L 345.108855 48.805228 
" clip-path="url(#p8b7419bc24)" style="fill: #f5e924"/>
   </g>
   <g id="matplotlib.axis_3"/>
   <g id="matplotlib.axis_4">
    <g id="ytick_7">
     <g id="line2d_13">
      <defs>
       <path id="m2eef684f40" d="M 0 0 
L 3.5 0 
" style="stroke: #000000; stroke-width: 0.8"/>
      </defs>
      <g>
       <use xlink:href="#m2eef684f40" x="358.414455" y="288.306028" style="stroke: #000000; stroke-width: 0.8"/>
      </g>
     </g>
     <g id="text_16">
      <!-- $\mathdefault{0.00}$ -->
      <g transform="translate(365.414455 291.765277) scale(0.1 -0.1)">
       <use xlink:href="#CMR17-30" transform="scale(0.996264)"/>
       <use xlink:href="#CMMI12-3a" transform="translate(45.690477 0) scale(0.996264)"/>
       <use xlink:href="#CMR17-30" transform="translate(72.787654 0) scale(0.996264)"/>
       <use xlink:href="#CMR17-30" transform="translate(118.478131 0) scale(0.996264)"/>
      </g>
     </g>
    </g>
    <g id="ytick_8">
     <g id="line2d_14">
      <g>
       <use xlink:href="#m2eef684f40" x="358.414455" y="235.083628" style="stroke: #000000; stroke-width: 0.8"/>
      </g>
     </g>
     <g id="text_17">
      <!-- $\mathdefault{0.08}$ -->
      <g transform="translate(365.414455 238.542877) scale(0.1 -0.1)">
       <use xlink:href="#CMR17-30" transform="scale(0.996264)"/>
       <use xlink:href="#CMMI12-3a" transform="translate(45.690477 0) scale(0.996264)"/>
       <use xlink:href="#CMR17-30" transform="translate(72.787654 0) scale(0.996264)"/>
       <use xlink:href="#CMR17-38" transform="translate(118.478131 0) scale(0.996264)"/>
      </g>
     </g>
    </g>
    <g id="ytick_9">
     <g id="line2d_15">
      <g>
       <use xlink:href="#m2eef684f40" x="358.414455" y="181.861228" style="stroke: #000000; stroke-width: 0.8"/>
      </g>
     </g>
     <g id="text_18">
      <!-- $\mathdefault{0.16}$ -->
      <g transform="translate(365.414455 185.320477) scale(0.1 -0.1)">
       <use xlink:href="#CMR17-30" transform="scale(0.996264)"/>
       <use xlink:href="#CMMI12-3a" transform="translate(45.690477 0) scale(0.996264)"/>
       <use xlink:href="#CMR17-31" transform="translate(72.787654 0) scale(0.996264)"/>
       <use xlink:href="#CMR17-36" transform="translate(118.478131 0) scale(0.996264)"/>
      </g>
     </g>
    </g>
    <g id="ytick_10">
     <g id="line2d_16">
      <g>
       <use xlink:href="#m2eef684f40" x="358.414455" y="128.638828" style="stroke: #000000; stroke-width: 0.8"/>
      </g>
     </g>
     <g id="text_19">
      <!-- $\mathdefault{0.24}$ -->
      <g transform="translate(365.414455 132.098077) scale(0.1 -0.1)">
       <use xlink:href="#CMR17-30" transform="scale(0.996264)"/>
       <use xlink:href="#CMMI12-3a" transform="translate(45.690477 0) scale(0.996264)"/>
       <use xlink:href="#CMR17-32" transform="translate(72.787654 0) scale(0.996264)"/>
       <use xlink:href="#CMR17-34" transform="translate(118.478131 0) scale(0.996264)"/>
      </g>
     </g>
    </g>
    <g id="ytick_11">
     <g id="line2d_17">
      <g>
       <use xlink:href="#m2eef684f40" x="358.414455" y="75.416428" style="stroke: #000000; stroke-width: 0.8"/>
      </g>
     </g>
     <g id="text_20">
      <!-- $\mathdefault{0.32}$ -->
      <g transform="translate(365.414455 78.875677) scale(0.1 -0.1)">
       <defs>
        <path id="CMR17-33" d="M 1414 2176 
C 1984 2176 2234 1673 2234 1094 
C 2234 322 1824 25 1453 25 
C 1114 25 563 193 390 691 
C 422 678 454 678 486 678 
C 640 678 755 780 755 947 
C 755 1132 614 1216 486 1216 
C 378 1216 211 1164 211 927 
C 211 335 787 -128 1466 -128 
C 2176 -128 2720 432 2720 1087 
C 2720 1718 2208 2176 1600 2246 
C 2086 2347 2554 2776 2554 3353 
C 2554 3856 2048 4224 1472 4224 
C 890 4224 378 3862 378 3347 
C 378 3123 544 3084 627 3084 
C 762 3084 877 3167 877 3334 
C 877 3500 762 3584 627 3584 
C 602 3584 570 3584 544 3571 
C 730 3999 1235 4076 1459 4076 
C 1683 4076 2106 3966 2106 3347 
C 2106 3167 2080 2851 1862 2574 
C 1670 2329 1453 2316 1242 2297 
C 1210 2297 1062 2284 1037 2284 
C 992 2278 966 2272 966 2227 
C 966 2182 973 2176 1101 2176 
L 1414 2176 
z
" transform="scale(0.015625)"/>
       </defs>
       <use xlink:href="#CMR17-30" transform="scale(0.996264)"/>
       <use xlink:href="#CMMI12-3a" transform="translate(45.690477 0) scale(0.996264)"/>
       <use xlink:href="#CMR17-33" transform="translate(72.787654 0) scale(0.996264)"/>
       <use xlink:href="#CMR17-32" transform="translate(118.478131 0) scale(0.996264)"/>
      </g>
     </g>
    </g>
    <g id="ytick_12">
     <g id="line2d_18">
      <g>
       <use xlink:href="#m2eef684f40" x="358.414455" y="22.194028" style="stroke: #000000; stroke-width: 0.8"/>
      </g>
     </g>
     <g id="text_21">
      <!-- $\mathdefault{0.40}$ -->
      <g transform="translate(365.414455 25.653277) scale(0.1 -0.1)">
       <use xlink:href="#CMR17-30" transform="scale(0.996264)"/>
       <use xlink:href="#CMMI12-3a" transform="translate(45.690477 0) scale(0.996264)"/>
       <use xlink:href="#CMR17-34" transform="translate(72.787654 0) scale(0.996264)"/>
       <use xlink:href="#CMR17-30" transform="translate(118.478131 0) scale(0.996264)"/>
      </g>
     </g>
    </g>
   </g>
   <g id="LineCollection_1"/>
   <g id="patch_8">
    <path d="M 345.108855 288.306028 
L 351.761655 288.306028 
L 358.414455 288.306028 
L 358.414455 22.194028 
L 351.761655 22.194028 
L 345.108855 22.194028 
L 345.108855 288.306028 
z
" style="fill: none; stroke: #000000; stroke-width: 0.8; stroke-linejoin: miter; stroke-linecap: square"/>
   </g>
  </g>
 </g>
 <defs>
  <clipPath id="p88f05602ff">
   <rect x="41.556855" y="22.194028" width="285.696" height="266.112"/>
  </clipPath>
  <clipPath id="p8b7419bc24">
   <rect x="345.108855" y="22.194028" width="13.3056" height="266.112"/>
  </clipPath>
 </defs>
</svg>
