<?xml version="1.0" encoding="utf-8" standalone="no"?>
<!DOCTYPE svg PUBLIC "-//W3C//DTD SVG 1.1//EN"
  "http://www.w3.org/Graphics/SVG/1.1/DTD/svg11.dtd">
<svg xmlns:xlink="http://www.w3.org/1999/xlink" width="1440pt" height="360pt" viewBox="0 0 1440 360" xmlns="http://www.w3.org/2000/svg" version="1.1">
 <metadata>
  <rdf:RDF xmlns:dc="http://purl.org/dc/elements/1.1/" xmlns:cc="http://creativecommons.org/ns#" xmlns:rdf="http://www.w3.org/1999/02/22-rdf-syntax-ns#">
   <cc:Work>
    <dc:type rdf:resource="http://purl.org/dc/dcmitype/StillImage"/>
    <dc:date>2026-05-27T22:54:58.818236</dc:date>
    <dc:format>image/svg+xml</dc:format>
    <dc:creator>
     <cc:Agent>
      <dc:title>Matplotlib v3.10.8, https://matplotlib.org/</dc:title>
     </cc:Agent>
    </dc:creator>
   </cc:Work>
  </rdf:RDF>
 </metadata>
 <defs>
  <style type="text/css">*{stroke-linejoin: round; stroke-linecap: butt}</style>
 </defs>
 <g id="figure_1">
  <g id="patch_1">
   <path d="M 0 360 
L 1440 360 
L 1440 0 
L 0 0 
z
" style="fill: #ffffff"/>
  </g>
  <g id="axes_1">
   <g id="PolyCollection_1">
    <path d="M 341.196101 132.822952 
L 411.581028 126.66166 
L 356.442688 71.52332 
z
" clip-path="url(#p340eb2176b)" style="fill: #ffed6f; stroke: #000000; stroke-width: 0.25"/>
    <path d="M 191.027668 236.93834 
L 246.166008 181.8 
L 191.027668 181.8 
z
" clip-path="url(#p340eb2176b)" style="fill: #8dd3c7; stroke: #000000; stroke-width: 0.25"/>
    <path d="M 246.166008 71.52332 
L 191.027668 71.52332 
L 218.596838 126.66166 
z
" clip-path="url(#p340eb2176b)" style="fill: #8dd3c7; stroke: #000000; stroke-width: 0.25"/>
    <path d="M 218.596838 126.66166 
L 191.027668 71.52332 
L 191.027668 181.8 
z
" clip-path="url(#p340eb2176b)" style="fill: #8dd3c7; stroke: #000000; stroke-width: 0.25"/>
    <path d="M 301.304348 181.8 
L 333.585243 241.47477 
L 356.442688 185.9757 
z
" clip-path="url(#p340eb2176b)" style="fill: #b3de69; stroke: #000000; stroke-width: 0.25"/>
    <path d="M 333.585243 241.47477 
L 273.735178 236.93834 
L 301.304348 292.07668 
z
" clip-path="url(#p340eb2176b)" style="fill: #b3de69; stroke: #000000; stroke-width: 0.25"/>
    <path d="M 246.166008 181.8 
L 191.027668 236.93834 
L 273.735178 236.93834 
z
" clip-path="url(#p340eb2176b)" style="fill: #8dd3c7; stroke: #000000; stroke-width: 0.25"/>
    <path d="M 246.166008 181.8 
L 278.33004 126.66166 
L 218.596838 126.66166 
z
" clip-path="url(#p340eb2176b)" style="fill: #8dd3c7; stroke: #000000; stroke-width: 0.25"/>
    <path d="M 246.166008 292.07668 
L 191.027668 236.93834 
L 191.027668 292.07668 
z
" clip-path="url(#p340eb2176b)" style="fill: #b3de69; stroke: #000000; stroke-width: 0.25"/>
    <path d="M 278.33004 126.66166 
L 246.166008 181.8 
L 301.304348 181.8 
z
" clip-path="url(#p340eb2176b)" style="fill: #8dd3c7; stroke: #000000; stroke-width: 0.25"/>
    <path d="M 301.304348 71.52332 
L 278.33004 126.66166 
L 341.196101 132.822952 
z
" clip-path="url(#p340eb2176b)" style="fill: #ffed6f; stroke: #000000; stroke-width: 0.25"/>
    <path d="M 191.027668 181.8 
L 246.166008 181.8 
L 218.596838 126.66166 
z
" clip-path="url(#p340eb2176b)" style="fill: #8dd3c7; stroke: #000000; stroke-width: 0.25"/>
    <path d="M 301.304348 292.07668 
L 273.735178 236.93834 
L 246.166008 292.07668 
z
" clip-path="url(#p340eb2176b)" style="fill: #b3de69; stroke: #000000; stroke-width: 0.25"/>
    <path d="M 278.33004 126.66166 
L 246.166008 71.52332 
L 218.596838 126.66166 
z
" clip-path="url(#p340eb2176b)" style="fill: #8dd3c7; stroke: #000000; stroke-width: 0.25"/>
    <path d="M 301.304348 181.8 
L 246.166008 181.8 
L 273.735178 236.93834 
z
" clip-path="url(#p340eb2176b)" style="fill: #8dd3c7; stroke: #000000; stroke-width: 0.25"/>
    <path d="M 411.581028 181.8 
L 411.581028 126.66166 
L 356.442688 185.9757 
z
" clip-path="url(#p340eb2176b)" style="fill: #ffed6f; stroke: #000000; stroke-width: 0.25"/>
    <path d="M 191.027668 236.93834 
L 246.166008 292.07668 
L 273.735178 236.93834 
z
" clip-path="url(#p340eb2176b)" style="fill: #b3de69; stroke: #000000; stroke-width: 0.25"/>
    <path d="M 246.166008 71.52332 
L 278.33004 126.66166 
L 301.304348 71.52332 
z
" clip-path="url(#p340eb2176b)" style="fill: #ffed6f; stroke: #000000; stroke-width: 0.25"/>
    <path d="M 356.442688 185.9757 
L 341.196101 132.822952 
L 301.304348 181.8 
z
" clip-path="url(#p340eb2176b)" style="fill: #ffed6f; stroke: #000000; stroke-width: 0.25"/>
    <path d="M 278.33004 126.66166 
L 301.304348 181.8 
L 341.196101 132.822952 
z
" clip-path="url(#p340eb2176b)" style="fill: #ffed6f; stroke: #000000; stroke-width: 0.25"/>
    <path d="M 341.196101 132.822952 
L 356.442688 71.52332 
L 301.304348 71.52332 
z
" clip-path="url(#p340eb2176b)" style="fill: #ffed6f; stroke: #000000; stroke-width: 0.25"/>
    <path d="M 356.442688 71.52332 
L 411.581028 126.66166 
L 411.581028 71.52332 
z
" clip-path="url(#p340eb2176b)" style="fill: #ffed6f; stroke: #000000; stroke-width: 0.25"/>
    <path d="M 301.304348 181.8 
L 273.735178 236.93834 
L 333.585243 241.47477 
z
" clip-path="url(#p340eb2176b)" style="fill: #b3de69; stroke: #000000; stroke-width: 0.25"/>
    <path d="M 356.442688 185.9757 
L 333.585243 241.47477 
L 411.581028 236.93834 
z
" clip-path="url(#p340eb2176b)" style="fill: #b3de69; stroke: #000000; stroke-width: 0.25"/>
    <path d="M 411.581028 292.07668 
L 411.581028 236.93834 
L 356.442688 292.07668 
z
" clip-path="url(#p340eb2176b)" style="fill: #b3de69; stroke: #000000; stroke-width: 0.25"/>
    <path d="M 356.442688 185.9757 
L 411.581028 236.93834 
L 411.581028 181.8 
z
" clip-path="url(#p340eb2176b)" style="fill: #ffed6f; stroke: #000000; stroke-width: 0.25"/>
    <path d="M 333.585243 241.47477 
L 301.304348 292.07668 
L 356.442688 292.07668 
z
" clip-path="url(#p340eb2176b)" style="fill: #b3de69; stroke: #000000; stroke-width: 0.25"/>
    <path d="M 356.442688 185.9757 
L 411.581028 126.66166 
L 341.196101 132.822952 
z
" clip-path="url(#p340eb2176b)" style="fill: #ffed6f; stroke: #000000; stroke-width: 0.25"/>
    <path d="M 356.442688 292.07668 
L 411.581028 236.93834 
L 333.585243 241.47477 
z
" clip-path="url(#p340eb2176b)" style="fill: #b3de69; stroke: #000000; stroke-width: 0.25"/>
   </g>
   <g id="PathCollection_1">
    <defs>
     <path id="mc72c911532" d="M 0 1.936492 
C 0.513564 1.936492 1.006162 1.732451 1.369306 1.369306 
C 1.732451 1.006162 1.936492 0.513564 1.936492 0 
C 1.936492 -0.513564 1.732451 -1.006162 1.369306 -1.369306 
C 1.006162 -1.732451 0.513564 -1.936492 0 -1.936492 
C -0.513564 -1.936492 -1.006162 -1.732451 -1.369306 -1.369306 
C -1.732451 -1.006162 -1.936492 -0.513564 -1.936492 0 
C -1.936492 0.513564 -1.732451 1.006162 -1.369306 1.369306 
C -1.006162 1.732451 -0.513564 1.936492 0 1.936492 
z
" style="stroke: #000000"/>
    </defs>
    <g clip-path="url(#p340eb2176b)">
     <use xlink:href="#mc72c911532" x="191.027668" y="292.07668" style="stroke: #000000"/>
     <use xlink:href="#mc72c911532" x="411.581028" y="292.07668" style="stroke: #000000"/>
     <use xlink:href="#mc72c911532" x="411.581028" y="71.52332" style="stroke: #000000"/>
     <use xlink:href="#mc72c911532" x="191.027668" y="71.52332" style="stroke: #000000"/>
     <use xlink:href="#mc72c911532" x="301.304348" y="181.8" style="stroke: #000000"/>
     <use xlink:href="#mc72c911532" x="191.027668" y="181.8" style="stroke: #000000"/>
     <use xlink:href="#mc72c911532" x="301.304348" y="292.07668" style="stroke: #000000"/>
     <use xlink:href="#mc72c911532" x="246.166008" y="181.8" style="stroke: #000000"/>
     <use xlink:href="#mc72c911532" x="301.304348" y="71.52332" style="stroke: #000000"/>
     <use xlink:href="#mc72c911532" x="218.596838" y="126.66166" style="stroke: #000000"/>
     <use xlink:href="#mc72c911532" x="246.166008" y="71.52332" style="stroke: #000000"/>
     <use xlink:href="#mc72c911532" x="191.027668" y="236.93834" style="stroke: #000000"/>
     <use xlink:href="#mc72c911532" x="273.735178" y="236.93834" style="stroke: #000000"/>
     <use xlink:href="#mc72c911532" x="246.166008" y="292.07668" style="stroke: #000000"/>
     <use xlink:href="#mc72c911532" x="278.33004" y="126.66166" style="stroke: #000000"/>
     <use xlink:href="#mc72c911532" x="411.581028" y="181.8" style="stroke: #000000"/>
     <use xlink:href="#mc72c911532" x="356.442688" y="71.52332" style="stroke: #000000"/>
     <use xlink:href="#mc72c911532" x="341.196101" y="132.822952" style="stroke: #000000"/>
     <use xlink:href="#mc72c911532" x="356.442688" y="185.9757" style="stroke: #000000"/>
     <use xlink:href="#mc72c911532" x="333.585243" y="241.47477" style="stroke: #000000"/>
     <use xlink:href="#mc72c911532" x="356.442688" y="292.07668" style="stroke: #000000"/>
     <use xlink:href="#mc72c911532" x="411.581028" y="126.66166" style="stroke: #000000"/>
     <use xlink:href="#mc72c911532" x="411.581028" y="236.93834" style="stroke: #000000"/>
    </g>
   </g>
   <g id="text_1">
    <!-- 0 -->
    <g transform="translate(187.05643 290.720666) scale(0.07 -0.07)">
     <defs>
      <path id="CMR17-30" d="M 2688 2038 
C 2688 2430 2682 3099 2413 3613 
C 2176 4063 1798 4224 1466 4224 
C 1158 4224 768 4082 525 3620 
C 269 3137 243 2539 243 2038 
C 243 1671 250 1112 448 623 
C 723 -39 1216 -128 1466 -128 
C 1760 -128 2208 -7 2470 604 
C 2662 1048 2688 1568 2688 2038 
z
M 1466 -26 
C 1056 -26 813 328 723 816 
C 653 1196 653 1749 653 2109 
C 653 2604 653 3015 736 3407 
C 858 3954 1216 4121 1466 4121 
C 1728 4121 2067 3947 2189 3420 
C 2272 3054 2278 2623 2278 2109 
C 2278 1691 2278 1176 2202 797 
C 2067 96 1690 -26 1466 -26 
z
" transform="scale(0.015625)"/>
     </defs>
     <use xlink:href="#CMR17-30" transform="scale(0.996264)"/>
    </g>
   </g>
   <g id="text_2">
    <!-- 1 -->
    <g transform="translate(407.60979 290.720666) scale(0.07 -0.07)">
     <defs>
      <path id="CMR17-31" d="M 1702 4083 
C 1702 4217 1696 4224 1606 4224 
C 1357 3927 979 3833 621 3820 
C 602 3820 570 3820 563 3808 
C 557 3795 557 3782 557 3648 
C 755 3648 1088 3686 1344 3839 
L 1344 467 
C 1344 243 1331 166 781 166 
L 589 166 
L 589 0 
C 896 6 1216 12 1523 12 
C 1830 12 2150 6 2458 0 
L 2458 166 
L 2266 166 
C 1715 166 1702 236 1702 467 
L 1702 4083 
z
" transform="scale(0.015625)"/>
     </defs>
     <use xlink:href="#CMR17-31" transform="scale(0.996264)"/>
    </g>
   </g>
   <g id="text_3">
    <!-- 2 -->
    <g transform="translate(407.60979 70.167306) scale(0.07 -0.07)">
     <defs>
      <path id="CMR17-32" d="M 2669 990 
L 2554 990 
C 2490 537 2438 460 2413 422 
C 2381 371 1920 371 1830 371 
L 602 371 
C 832 620 1280 1073 1824 1596 
C 2214 1966 2669 2400 2669 3033 
C 2669 3788 2067 4224 1395 4224 
C 691 4224 262 3603 262 3027 
C 262 2777 448 2745 525 2745 
C 589 2745 781 2783 781 3007 
C 781 3206 614 3264 525 3264 
C 486 3264 448 3257 422 3244 
C 544 3788 915 4057 1306 4057 
C 1862 4057 2227 3616 2227 3033 
C 2227 2477 1901 1998 1536 1583 
L 262 147 
L 262 0 
L 2515 0 
L 2669 990 
z
" transform="scale(0.015625)"/>
     </defs>
     <use xlink:href="#CMR17-32" transform="scale(0.996264)"/>
    </g>
   </g>
   <g id="text_4">
    <!-- 3 -->
    <g transform="translate(187.05643 70.167306) scale(0.07 -0.07)">
     <defs>
      <path id="CMR17-33" d="M 1414 2176 
C 1984 2176 2234 1673 2234 1094 
C 2234 322 1824 25 1453 25 
C 1114 25 563 193 390 691 
C 422 678 454 678 486 678 
C 640 678 755 780 755 947 
C 755 1132 614 1216 486 1216 
C 378 1216 211 1164 211 927 
C 211 335 787 -128 1466 -128 
C 2176 -128 2720 432 2720 1087 
C 2720 1718 2208 2176 1600 2246 
C 2086 2347 2554 2776 2554 3353 
C 2554 3856 2048 4224 1472 4224 
C 890 4224 378 3862 378 3347 
C 378 3123 544 3084 627 3084 
C 762 3084 877 3167 877 3334 
C 877 3500 762 3584 627 3584 
C 602 3584 570 3584 544 3571 
C 730 3999 1235 4076 1459 4076 
C 1683 4076 2106 3966 2106 3347 
C 2106 3167 2080 2851 1862 2574 
C 1670 2329 1453 2316 1242 2297 
C 1210 2297 1062 2284 1037 2284 
C 992 2278 966 2272 966 2227 
C 966 2182 973 2176 1101 2176 
L 1414 2176 
z
" transform="scale(0.015625)"/>
     </defs>
     <use xlink:href="#CMR17-33" transform="scale(0.996264)"/>
    </g>
   </g>
   <g id="text_5">
    <!-- 4 -->
    <g transform="translate(297.33311 180.443986) scale(0.07 -0.07)">
     <defs>
      <path id="CMR17-34" d="M 2150 4147 
C 2150 4281 2144 4288 2029 4288 
L 128 1254 
L 128 1088 
L 1779 1088 
L 1779 460 
C 1779 230 1766 166 1318 166 
L 1197 166 
L 1197 0 
C 1402 12 1747 12 1965 12 
C 2182 12 2528 12 2733 0 
L 2733 166 
L 2611 166 
C 2163 166 2150 230 2150 460 
L 2150 1088 
L 2803 1088 
L 2803 1254 
L 2150 1254 
L 2150 4147 
z
M 1798 3723 
L 1798 1254 
L 256 1254 
L 1798 3723 
z
" transform="scale(0.015625)"/>
     </defs>
     <use xlink:href="#CMR17-34" transform="scale(0.996264)"/>
    </g>
   </g>
   <g id="text_6">
    <!-- 5 -->
    <g transform="translate(187.05643 180.443986) scale(0.07 -0.07)">
     <defs>
      <path id="CMR17-35" d="M 730 3750 
C 794 3724 1056 3641 1325 3641 
C 1920 3641 2246 3961 2432 4140 
C 2432 4191 2432 4224 2394 4224 
C 2387 4224 2374 4224 2323 4198 
C 2099 4102 1837 4032 1517 4032 
C 1325 4032 1037 4055 723 4191 
C 653 4224 640 4224 634 4224 
C 602 4224 595 4217 595 4090 
L 595 2231 
C 595 2113 595 2080 659 2080 
C 691 2080 704 2093 736 2139 
C 941 2435 1222 2560 1542 2560 
C 1766 2560 2246 2415 2246 1293 
C 2246 1087 2246 716 2054 422 
C 1894 159 1645 25 1370 25 
C 947 25 518 319 403 812 
C 429 806 480 793 506 793 
C 589 793 749 838 749 1036 
C 749 1209 627 1280 506 1280 
C 358 1280 262 1190 262 1011 
C 262 454 704 -128 1382 -128 
C 2042 -128 2669 441 2669 1267 
C 2669 2054 2170 2662 1549 2662 
C 1222 2662 947 2540 730 2304 
L 730 3750 
z
" transform="scale(0.015625)"/>
     </defs>
     <use xlink:href="#CMR17-35" transform="scale(0.996264)"/>
    </g>
   </g>
   <g id="text_7">
    <!-- 6 -->
    <g transform="translate(297.33311 290.720666) scale(0.07 -0.07)">
     <defs>
      <path id="CMR17-36" d="M 678 2198 
C 678 3712 1395 4076 1811 4076 
C 1946 4076 2272 4049 2400 3782 
C 2298 3782 2106 3782 2106 3558 
C 2106 3385 2246 3328 2336 3328 
C 2394 3328 2566 3353 2566 3571 
C 2566 3987 2246 4224 1805 4224 
C 1043 4224 243 3411 243 2011 
C 243 257 966 -128 1478 -128 
C 2099 -128 2688 431 2688 1295 
C 2688 2101 2170 2688 1517 2688 
C 1126 2688 838 2430 678 1979 
L 678 2198 
z
M 1478 25 
C 691 25 691 1212 691 1450 
C 691 1914 909 2585 1504 2585 
C 1613 2585 1926 2585 2138 2140 
C 2253 1889 2253 1624 2253 1302 
C 2253 954 2253 696 2118 438 
C 1978 173 1773 25 1478 25 
z
" transform="scale(0.015625)"/>
     </defs>
     <use xlink:href="#CMR17-36" transform="scale(0.996264)"/>
    </g>
   </g>
   <g id="text_8">
    <!-- 7 -->
    <g transform="translate(242.19477 180.443986) scale(0.07 -0.07)">
     <defs>
      <path id="CMR17-37" d="M 2886 3955 
L 2886 4096 
L 1382 4096 
C 634 4096 621 4166 595 4288 
L 480 4288 
L 294 3104 
L 410 3104 
C 429 3226 474 3552 550 3673 
C 589 3724 1062 3724 1171 3724 
L 2579 3724 
L 1869 2670 
C 1395 1961 1069 1003 1069 166 
C 1069 89 1069 -128 1299 -128 
C 1530 -128 1530 89 1530 172 
L 1530 466 
C 1530 1514 1709 2204 2003 2644 
L 2886 3955 
z
" transform="scale(0.015625)"/>
     </defs>
     <use xlink:href="#CMR17-37" transform="scale(0.996264)"/>
    </g>
   </g>
   <g id="text_9">
    <!-- 8 -->
    <g transform="translate(297.33311 70.167306) scale(0.07 -0.07)">
     <defs>
      <path id="CMR17-38" d="M 1741 2289 
C 2144 2494 2554 2803 2554 3298 
C 2554 3884 1990 4224 1472 4224 
C 890 4224 378 3800 378 3215 
C 378 3054 416 2777 666 2533 
C 730 2469 998 2276 1171 2154 
C 883 2006 211 1652 211 945 
C 211 282 838 -128 1459 -128 
C 2144 -128 2720 366 2720 1022 
C 2720 1607 2330 1877 2074 2051 
L 1741 2289 
z
M 902 2855 
C 851 2887 595 3086 595 3388 
C 595 3781 998 4076 1459 4076 
C 1965 4076 2336 3716 2336 3298 
C 2336 2700 1670 2359 1638 2359 
C 1632 2359 1626 2359 1574 2398 
L 902 2855 
z
M 2080 1536 
C 2176 1466 2483 1253 2483 861 
C 2483 385 2010 25 1472 25 
C 890 25 448 443 448 951 
C 448 1459 838 1884 1280 2083 
L 2080 1536 
z
" transform="scale(0.015625)"/>
     </defs>
     <use xlink:href="#CMR17-38" transform="scale(0.996264)"/>
    </g>
   </g>
   <g id="text_10">
    <!-- 9 -->
    <g transform="translate(214.6256 125.305646) scale(0.07 -0.07)">
     <defs>
      <path id="CMR17-39" d="M 2253 1871 
C 2253 448 1670 25 1190 25 
C 1043 25 685 43 538 281 
C 704 256 826 345 826 505 
C 826 678 685 736 595 736 
C 538 736 365 710 365 492 
C 365 68 742 -128 1203 -128 
C 1939 -128 2688 665 2688 2090 
C 2688 3857 1971 4224 1485 4224 
C 851 4224 243 3664 243 2800 
C 243 2000 762 1408 1414 1408 
C 1952 1408 2189 1910 2253 2122 
L 2253 1871 
z
M 1427 1510 
C 1254 1510 1011 1542 813 1929 
C 678 2181 678 2477 678 2793 
C 678 3174 678 3438 858 3722 
C 947 3857 1114 4076 1485 4076 
C 2240 4076 2240 2909 2240 2651 
C 2240 2193 2035 1510 1427 1510 
z
" transform="scale(0.015625)"/>
     </defs>
     <use xlink:href="#CMR17-39" transform="scale(0.996264)"/>
    </g>
   </g>
   <g id="text_11">
    <!-- 10 -->
    <g transform="translate(238.223533 70.167306) scale(0.07 -0.07)">
     <use xlink:href="#CMR17-31" transform="scale(0.996264)"/>
     <use xlink:href="#CMR17-30" transform="translate(45.690477 0) scale(0.996264)"/>
    </g>
   </g>
   <g id="text_12">
    <!-- 11 -->
    <g transform="translate(183.085193 235.582326) scale(0.07 -0.07)">
     <use xlink:href="#CMR17-31" transform="scale(0.996264)"/>
     <use xlink:href="#CMR17-31" transform="translate(45.690477 0) scale(0.996264)"/>
    </g>
   </g>
   <g id="text_13">
    <!-- 12 -->
    <g transform="translate(265.792703 235.582326) scale(0.07 -0.07)">
     <use xlink:href="#CMR17-31" transform="scale(0.996264)"/>
     <use xlink:href="#CMR17-32" transform="translate(45.690477 0) scale(0.996264)"/>
    </g>
   </g>
   <g id="text_14">
    <!-- 13 -->
    <g transform="translate(238.223533 290.720666) scale(0.07 -0.07)">
     <use xlink:href="#CMR17-31" transform="scale(0.996264)"/>
     <use xlink:href="#CMR17-33" transform="translate(45.690477 0) scale(0.996264)"/>
    </g>
   </g>
   <g id="text_15">
    <!-- 14 -->
    <g transform="translate(270.387564 125.305646) scale(0.07 -0.07)">
     <use xlink:href="#CMR17-31" transform="scale(0.996264)"/>
     <use xlink:href="#CMR17-34" transform="translate(45.690477 0) scale(0.996264)"/>
    </g>
   </g>
   <g id="text_16">
    <!-- 15 -->
    <g transform="translate(403.638552 180.443986) scale(0.07 -0.07)">
     <use xlink:href="#CMR17-31" transform="scale(0.996264)"/>
     <use xlink:href="#CMR17-35" transform="translate(45.690477 0) scale(0.996264)"/>
    </g>
   </g>
   <g id="text_17">
    <!-- 16 -->
    <g transform="translate(348.500213 70.167306) scale(0.07 -0.07)">
     <use xlink:href="#CMR17-31" transform="scale(0.996264)"/>
     <use xlink:href="#CMR17-36" transform="translate(45.690477 0) scale(0.996264)"/>
    </g>
   </g>
   <g id="text_18">
    <!-- 17 -->
    <g transform="translate(333.253626 131.466938) scale(0.07 -0.07)">
     <use xlink:href="#CMR17-31" transform="scale(0.996264)"/>
     <use xlink:href="#CMR17-37" transform="translate(45.690477 0) scale(0.996264)"/>
    </g>
   </g>
   <g id="text_19">
    <!-- 18 -->
    <g transform="translate(348.500213 184.619685) scale(0.07 -0.07)">
     <use xlink:href="#CMR17-31" transform="scale(0.996264)"/>
     <use xlink:href="#CMR17-38" transform="translate(45.690477 0) scale(0.996264)"/>
    </g>
   </g>
   <g id="text_20">
    <!-- 19 -->
    <g transform="translate(325.642768 240.118755) scale(0.07 -0.07)">
     <use xlink:href="#CMR17-31" transform="scale(0.996264)"/>
     <use xlink:href="#CMR17-39" transform="translate(45.690477 0) scale(0.996264)"/>
    </g>
   </g>
   <g id="text_21">
    <!-- 20 -->
    <g transform="translate(348.500213 290.720666) scale(0.07 -0.07)">
     <use xlink:href="#CMR17-32" transform="scale(0.996264)"/>
     <use xlink:href="#CMR17-30" transform="translate(45.690477 0) scale(0.996264)"/>
    </g>
   </g>
   <g id="text_22">
    <!-- 21 -->
    <g transform="translate(403.638552 125.305646) scale(0.07 -0.07)">
     <use xlink:href="#CMR17-32" transform="scale(0.996264)"/>
     <use xlink:href="#CMR17-31" transform="translate(45.690477 0) scale(0.996264)"/>
    </g>
   </g>
   <g id="text_23">
    <!-- 22 -->
    <g transform="translate(403.638552 235.582326) scale(0.07 -0.07)">
     <use xlink:href="#CMR17-32" transform="scale(0.996264)"/>
     <use xlink:href="#CMR17-32" transform="translate(45.690477 0) scale(0.996264)"/>
    </g>
   </g>
   <g id="text_24">
    <!-- 0 -->
    <g transform="translate(367.913483 111.830373) scale(0.06 -0.06)">
     <use xlink:href="#CMR17-30" transform="scale(0.996264)"/>
    </g>
   </g>
   <g id="text_25">
    <!-- 1 -->
    <g transform="translate(207.580658 201.673843) scale(0.06 -0.06)">
     <use xlink:href="#CMR17-31" transform="scale(0.996264)"/>
    </g>
   </g>
   <g id="text_26">
    <!-- 2 -->
    <g transform="translate(216.770382 91.397163) scale(0.06 -0.06)">
     <use xlink:href="#CMR17-32" transform="scale(0.996264)"/>
    </g>
   </g>
   <g id="text_27">
    <!-- 3 -->
    <g transform="translate(198.390935 128.156056) scale(0.06 -0.06)">
     <use xlink:href="#CMR17-33" transform="scale(0.996264)"/>
    </g>
   </g>
   <g id="text_28">
    <!-- 4 -->
    <g transform="translate(328.617637 204.577886) scale(0.06 -0.06)">
     <use xlink:href="#CMR17-34" transform="scale(0.996264)"/>
    </g>
   </g>
   <g id="text_29">
    <!-- 5 -->
    <g transform="translate(301.048467 258.324326) scale(0.06 -0.06)">
     <use xlink:href="#CMR17-35" transform="scale(0.996264)"/>
    </g>
   </g>
   <g id="text_30">
    <!-- 6 -->
    <g transform="translate(235.149828 220.053289) scale(0.06 -0.06)">
     <use xlink:href="#CMR17-36" transform="scale(0.996264)"/>
    </g>
   </g>
   <g id="text_31">
    <!-- 7 -->
    <g transform="translate(245.871172 146.535503) scale(0.06 -0.06)">
     <use xlink:href="#CMR17-37" transform="scale(0.996264)"/>
    </g>
   </g>
   <g id="text_32">
    <!-- 8 -->
    <g transform="translate(207.580658 275.191629) scale(0.06 -0.06)">
     <use xlink:href="#CMR17-38" transform="scale(0.996264)"/>
    </g>
   </g>
   <g id="text_33">
    <!-- 9 -->
    <g transform="translate(273.440342 164.914949) scale(0.06 -0.06)">
     <use xlink:href="#CMR17-39" transform="scale(0.996264)"/>
    </g>
   </g>
   <g id="text_34">
    <!-- 10 -->
    <g transform="translate(303.290584 111.830373) scale(0.06 -0.06)">
     <use xlink:href="#CMR17-31" transform="scale(0.996264)"/>
     <use xlink:href="#CMR17-30" transform="translate(45.690477 0) scale(0.996264)"/>
    </g>
   </g>
   <g id="text_35">
    <!-- 11 -->
    <g transform="translate(214.943926 164.914949) scale(0.06 -0.06)">
     <use xlink:href="#CMR17-31" transform="scale(0.996264)"/>
     <use xlink:href="#CMR17-31" transform="translate(45.690477 0) scale(0.996264)"/>
    </g>
   </g>
   <g id="text_36">
    <!-- 12 -->
    <g transform="translate(270.082266 275.191629) scale(0.06 -0.06)">
     <use xlink:href="#CMR17-31" transform="scale(0.996264)"/>
     <use xlink:href="#CMR17-32" transform="translate(45.690477 0) scale(0.996264)"/>
    </g>
   </g>
   <g id="text_37">
    <!-- 13 -->
    <g transform="translate(244.044716 109.776609) scale(0.06 -0.06)">
     <use xlink:href="#CMR17-31" transform="scale(0.996264)"/>
     <use xlink:href="#CMR17-33" transform="translate(45.690477 0) scale(0.996264)"/>
    </g>
   </g>
   <g id="text_38">
    <!-- 14 -->
    <g transform="translate(270.082266 201.673843) scale(0.06 -0.06)">
     <use xlink:href="#CMR17-31" transform="scale(0.996264)"/>
     <use xlink:href="#CMR17-34" transform="translate(45.690477 0) scale(0.996264)"/>
    </g>
   </g>
   <g id="text_39">
    <!-- 15 -->
    <g transform="translate(389.548669 166.306849) scale(0.06 -0.06)">
     <use xlink:href="#CMR17-31" transform="scale(0.996264)"/>
     <use xlink:href="#CMR17-35" transform="translate(45.690477 0) scale(0.996264)"/>
    </g>
   </g>
   <g id="text_40">
    <!-- 16 -->
    <g transform="translate(233.323372 256.812183) scale(0.06 -0.06)">
     <use xlink:href="#CMR17-31" transform="scale(0.996264)"/>
     <use xlink:href="#CMR17-36" transform="translate(45.690477 0) scale(0.996264)"/>
    </g>
   </g>
   <g id="text_41">
    <!-- 17 -->
    <g transform="translate(271.613886 91.397163) scale(0.06 -0.06)">
     <use xlink:href="#CMR17-31" transform="scale(0.996264)"/>
     <use xlink:href="#CMR17-37" transform="translate(45.690477 0) scale(0.996264)"/>
    </g>
   </g>
   <g id="text_42">
    <!-- 18 -->
    <g transform="translate(329.328133 168.360613) scale(0.06 -0.06)">
     <use xlink:href="#CMR17-31" transform="scale(0.996264)"/>
     <use xlink:href="#CMR17-38" transform="translate(45.690477 0) scale(0.996264)"/>
    </g>
   </g>
   <g id="text_43">
    <!-- 19 -->
    <g transform="translate(303.290584 148.589267) scale(0.06 -0.06)">
     <use xlink:href="#CMR17-31" transform="scale(0.996264)"/>
     <use xlink:href="#CMR17-39" transform="translate(45.690477 0) scale(0.996264)"/>
    </g>
   </g>
   <g id="text_44">
    <!-- 20 -->
    <g transform="translate(329.328133 93.450927) scale(0.06 -0.06)">
     <use xlink:href="#CMR17-32" transform="scale(0.996264)"/>
     <use xlink:href="#CMR17-30" transform="translate(45.690477 0) scale(0.996264)"/>
    </g>
   </g>
   <g id="text_45">
    <!-- 21 -->
    <g transform="translate(389.548669 91.397163) scale(0.06 -0.06)">
     <use xlink:href="#CMR17-32" transform="scale(0.996264)"/>
     <use xlink:href="#CMR17-31" transform="translate(45.690477 0) scale(0.996264)"/>
    </g>
   </g>
   <g id="text_46">
    <!-- 22 -->
    <g transform="translate(299.222011 221.565433) scale(0.06 -0.06)">
     <use xlink:href="#CMR17-32" transform="scale(0.996264)"/>
     <use xlink:href="#CMR17-32" transform="translate(45.690477 0) scale(0.996264)"/>
    </g>
   </g>
   <g id="text_47">
    <!-- 23 -->
    <g transform="translate(363.550074 222.957332) scale(0.06 -0.06)">
     <use xlink:href="#CMR17-32" transform="scale(0.996264)"/>
     <use xlink:href="#CMR17-33" transform="translate(45.690477 0) scale(0.996264)"/>
    </g>
   </g>
   <g id="text_48">
    <!-- 24 -->
    <g transform="translate(389.548669 275.191629) scale(0.06 -0.06)">
     <use xlink:href="#CMR17-32" transform="scale(0.996264)"/>
     <use xlink:href="#CMR17-34" transform="translate(45.690477 0) scale(0.996264)"/>
    </g>
   </g>
   <g id="text_49">
    <!-- 25 -->
    <g transform="translate(389.548669 203.065743) scale(0.06 -0.06)">
     <use xlink:href="#CMR17-32" transform="scale(0.996264)"/>
     <use xlink:href="#CMR17-35" transform="translate(45.690477 0) scale(0.996264)"/>
    </g>
   </g>
   <g id="text_50">
    <!-- 26 -->
    <g transform="translate(326.791181 276.703772) scale(0.06 -0.06)">
     <use xlink:href="#CMR17-32" transform="scale(0.996264)"/>
     <use xlink:href="#CMR17-36" transform="translate(45.690477 0) scale(0.996264)"/>
    </g>
   </g>
   <g id="text_51">
    <!-- 27 -->
    <g transform="translate(366.087027 149.981167) scale(0.06 -0.06)">
     <use xlink:href="#CMR17-32" transform="scale(0.996264)"/>
     <use xlink:href="#CMR17-37" transform="translate(45.690477 0) scale(0.996264)"/>
    </g>
   </g>
   <g id="text_52">
    <!-- 28 -->
    <g transform="translate(363.550074 258.324326) scale(0.06 -0.06)">
     <use xlink:href="#CMR17-32" transform="scale(0.996264)"/>
     <use xlink:href="#CMR17-38" transform="translate(45.690477 0) scale(0.996264)"/>
    </g>
   </g>
   <g id="text_53">
    <!-- Global Mesh -->
    <g transform="translate(268.879744 54.495652) scale(0.12 -0.12)">
     <defs>
      <path id="CMR17-47" d="M 3974 1258 
C 3974 1503 3994 1536 4390 1536 
L 4390 1702 
C 4237 1689 3891 1689 3718 1689 
C 3539 1689 3040 1696 2797 1702 
L 2797 1536 
L 2989 1536 
C 3539 1536 3552 1464 3552 1232 
L 3552 806 
C 3552 96 2720 38 2522 38 
C 1862 38 781 496 781 2179 
C 781 3862 1843 4313 2464 4313 
C 3187 4313 3712 3681 3834 2785 
C 3846 2708 3846 2695 3904 2695 
C 3974 2695 3974 2708 3974 2824 
L 3974 4351 
C 3974 4467 3968 4473 3930 4473 
C 3904 4473 3898 4467 3853 4390 
L 3571 3849 
C 3258 4249 2874 4480 2381 4480 
C 1286 4480 294 3507 294 2179 
C 294 858 1267 -128 2394 -128 
C 2912 -128 3418 57 3616 425 
C 3725 161 3904 -20 3936 -20 
C 3968 -20 3974 -13 3974 102 
L 3974 1258 
z
" transform="scale(0.015625)"/>
      <path id="CMR17-6c" d="M 979 4416 
L 218 4345 
L 218 4179 
C 595 4179 653 4141 653 3835 
L 653 439 
C 653 198 627 166 218 166 
L 218 0 
C 371 12 653 12 813 12 
C 979 12 1261 12 1414 0 
L 1414 166 
C 1005 166 979 191 979 439 
L 979 4416 
z
" transform="scale(0.015625)"/>
      <path id="CMR17-6f" d="M 2758 1356 
C 2758 2176 2163 2816 1466 2816 
C 768 2816 173 2176 173 1356 
C 173 550 768 -64 1466 -64 
C 2163 -64 2758 550 2758 1356 
z
M 1466 51 
C 1165 51 909 230 762 480 
C 602 768 582 1126 582 1408 
C 582 1676 595 2009 762 2297 
C 890 2508 1139 2713 1466 2713 
C 1754 2713 1997 2553 2150 2329 
C 2349 2028 2349 1606 2349 1408 
C 2349 1158 2336 774 2163 467 
C 1984 172 1709 51 1466 51 
z
" transform="scale(0.015625)"/>
      <path id="CMR17-62" d="M 960 4416 
L 198 4345 
L 198 4179 
C 576 4179 634 4141 634 3843 
L 634 -13 
L 749 -13 
L 934 445 
C 1120 141 1395 -64 1766 -64 
C 2406 -64 3053 503 3053 1382 
C 3053 2209 2477 2816 1830 2816 
C 1434 2816 1152 2603 960 2351 
L 960 4416 
z
M 973 2022 
C 973 2138 973 2157 1062 2293 
C 1312 2681 1670 2713 1792 2713 
C 1984 2713 2643 2610 2643 1388 
C 2643 109 1888 38 1734 38 
C 1536 38 1248 115 1043 490 
C 973 613 973 626 973 742 
L 973 2022 
z
" transform="scale(0.015625)"/>
      <path id="CMR17-61" d="M 2304 1656 
C 2304 2048 2304 2275 2035 2534 
C 1798 2751 1523 2816 1306 2816 
C 800 2816 435 2408 435 1977 
C 435 1740 627 1728 666 1728 
C 749 1728 896 1779 896 1958 
C 896 2118 774 2188 666 2188 
C 640 2188 608 2182 589 2176 
C 723 2594 1069 2713 1293 2713 
C 1613 2713 1965 2421 1965 1875 
L 1965 1632 
C 1587 1619 1133 1568 774 1373 
C 371 1147 256 822 256 576 
C 256 77 832 -64 1171 -64 
C 1523 -64 1850 135 1990 505 
C 2003 219 2182 -39 2464 -39 
C 2598 -39 2938 51 2938 563 
L 2938 926 
L 2822 926 
L 2822 557 
C 2822 161 2650 109 2566 109 
C 2304 109 2304 446 2304 732 
L 2304 1656 
z
M 1965 887 
C 1965 323 1568 38 1216 38 
C 896 38 646 278 646 576 
C 646 771 730 1114 1101 1322 
C 1408 1497 1760 1523 1965 1536 
L 1965 887 
z
" transform="scale(0.015625)"/>
      <path id="CMR17-4d" d="M 1338 4249 
C 1299 4345 1293 4352 1158 4352 
L 339 4352 
L 339 4185 
C 781 4185 851 4185 851 3898 
L 851 624 
C 851 465 851 166 339 166 
L 339 0 
C 486 12 755 12 915 12 
C 1075 12 1344 12 1491 0 
L 1491 166 
C 979 166 979 465 979 624 
L 979 4159 
L 986 4159 
L 2490 102 
C 2515 38 2528 0 2579 0 
C 2630 0 2643 38 2669 102 
L 4186 4191 
L 4192 4191 
L 4192 453 
C 4192 166 4122 166 3680 166 
L 3680 0 
C 3853 12 4198 12 4384 12 
C 4570 12 4922 12 5094 0 
L 5094 166 
C 4653 166 4582 166 4582 453 
L 4582 3898 
C 4582 4185 4653 4185 5094 4185 
L 5094 4352 
L 4282 4352 
C 4147 4352 4141 4345 4102 4249 
L 2720 516 
L 1338 4249 
z
" transform="scale(0.015625)"/>
      <path id="CMR17-65" d="M 2438 1503 
C 2464 1529 2464 1542 2464 1606 
C 2464 2251 2118 2816 1389 2816 
C 710 2816 173 2175 173 1394 
C 173 554 781 -64 1459 -64 
C 2176 -64 2458 619 2458 755 
C 2458 800 2419 800 2406 800 
C 2362 800 2355 787 2330 709 
C 2189 270 1837 51 1504 51 
C 1229 51 954 206 781 490 
C 582 819 582 1200 582 1503 
L 2438 1503 
z
M 589 1600 
C 634 2511 1126 2713 1382 2713 
C 1818 2713 2112 2308 2118 1600 
L 589 1600 
z
" transform="scale(0.015625)"/>
      <path id="CMR17-73" d="M 1978 2688 
C 1978 2803 1971 2809 1933 2809 
C 1907 2809 1901 2803 1824 2707 
C 1805 2681 1747 2617 1728 2592 
C 1523 2809 1235 2816 1126 2816 
C 416 2816 160 2444 160 2073 
C 160 1497 813 1363 998 1324 
C 1402 1241 1542 1216 1677 1100 
C 1760 1024 1901 883 1901 652 
C 1901 384 1747 38 1158 38 
C 602 38 403 460 288 1024 
C 269 1113 269 1120 218 1120 
C 166 1120 160 1113 160 985 
L 160 64 
C 160 -52 166 -58 205 -58 
C 237 -58 243 -52 275 0 
C 314 57 410 211 448 275 
C 576 102 800 -64 1158 -64 
C 1792 -64 2131 281 2131 780 
C 2131 1107 1958 1280 1875 1356 
C 1683 1555 1459 1600 1190 1651 
C 838 1728 390 1817 390 2208 
C 390 2374 480 2726 1126 2726 
C 1811 2726 1850 2086 1862 1881 
C 1869 1849 1901 1843 1920 1843 
C 1978 1843 1978 1862 1978 1971 
L 1978 2688 
z
" transform="scale(0.015625)"/>
      <path id="CMR17-68" d="M 2656 1954 
C 2656 2282 2592 2816 1837 2816 
C 1312 2816 1056 2392 979 2179 
L 973 2179 
L 973 4416 
L 211 4345 
L 211 4179 
C 589 4179 646 4141 646 3843 
L 646 443 
C 646 198 621 166 211 166 
L 211 0 
C 365 12 646 12 813 12 
C 979 12 1267 12 1421 0 
L 1421 166 
C 1011 166 986 192 986 443 
L 986 1678 
C 986 2269 1344 2713 1792 2713 
C 2266 2713 2317 2289 2317 1980 
L 2317 443 
C 2317 198 2291 166 1882 166 
L 1882 0 
C 2035 12 2317 12 2483 12 
C 2650 12 2938 12 3091 0 
L 3091 166 
C 2682 166 2656 192 2656 443 
L 2656 1954 
z
" transform="scale(0.015625)"/>
     </defs>
     <use xlink:href="#CMR17-47" transform="scale(0.996264)"/>
     <use xlink:href="#CMR17-6c" transform="translate(72.355346 0) scale(0.996264)"/>
     <use xlink:href="#CMR17-6f" transform="translate(97.226404 0) scale(0.996264)"/>
     <use xlink:href="#CMR17-62" transform="translate(142.916882 0) scale(0.996264)"/>
     <use xlink:href="#CMR17-61" transform="translate(193.812251 0) scale(0.996264)"/>
     <use xlink:href="#CMR17-6c" transform="translate(239.502728 0) scale(0.996264)"/>
     <use xlink:href="#CMR17-4d" transform="translate(294.449753 0) scale(0.996264)"/>
     <use xlink:href="#CMR17-65" transform="translate(379.136694 0) scale(0.996264)"/>
     <use xlink:href="#CMR17-73" transform="translate(419.622354 0) scale(0.996264)"/>
     <use xlink:href="#CMR17-68" transform="translate(455.423692 0) scale(0.996264)"/>
    </g>
   </g>
  </g>
  <g id="axes_2">
   <g id="line2d_1">
    <path d="M 497.934783 181.8 
L 497.934783 55.8 
M 560.934783 181.8 
L 623.934783 181.8 
M 560.934783 181.8 
L 497.934783 181.8 
M 529.434783 118.8 
L 497.934783 55.8 
M 529.434783 118.8 
L 497.934783 181.8 
M 529.434783 118.8 
L 560.934783 181.8 
M 560.934783 55.8 
L 497.934783 55.8 
M 560.934783 55.8 
L 623.934783 55.8 
M 560.934783 55.8 
L 529.434783 118.8 
M 497.934783 244.8 
L 497.934783 307.8 
M 497.934783 244.8 
L 497.934783 181.8 
M 497.934783 244.8 
L 560.934783 181.8 
M 592.434783 244.8 
L 623.934783 181.8 
M 592.434783 244.8 
L 623.934783 307.8 
M 592.434783 244.8 
L 560.934783 181.8 
M 592.434783 244.8 
L 497.934783 244.8 
M 560.934783 307.8 
L 497.934783 307.8 
M 560.934783 307.8 
L 623.934783 307.8 
M 560.934783 307.8 
L 497.934783 244.8 
M 560.934783 307.8 
L 592.434783 244.8 
M 597.684783 118.8 
L 623.934783 181.8 
M 597.684783 118.8 
L 560.934783 181.8 
M 597.684783 118.8 
L 623.934783 55.8 
M 597.684783 118.8 
L 529.434783 118.8 
M 597.684783 118.8 
L 560.934783 55.8 
M 669.514328 125.839773 
L 623.934783 181.8 
M 669.514328 125.839773 
L 623.934783 55.8 
M 669.514328 125.839773 
L 597.684783 118.8 
M 686.934783 186.571074 
L 623.934783 181.8 
M 686.934783 186.571074 
L 669.514328 125.839773 
M 660.818309 249.983237 
L 623.934783 181.8 
M 660.818309 249.983237 
L 623.934783 307.8 
M 660.818309 249.983237 
L 592.434783 244.8 
M 660.818309 249.983237 
L 686.934783 186.571074 
" clip-path="url(#p7e64e4bd78)" style="fill: none; stroke: #000000; stroke-opacity: 0.7; stroke-width: 0.5; stroke-linecap: square"/>
   </g>
   <g id="PathCollection_2">
    <g clip-path="url(#p7e64e4bd78)">
     <use xlink:href="#mc72c911532" x="497.934783" y="307.8" style="stroke: #000000"/>
     <use xlink:href="#mc72c911532" x="497.934783" y="55.8" style="stroke: #000000"/>
     <use xlink:href="#mc72c911532" x="623.934783" y="181.8" style="stroke: #000000"/>
     <use xlink:href="#mc72c911532" x="497.934783" y="181.8" style="stroke: #000000"/>
     <use xlink:href="#mc72c911532" x="623.934783" y="307.8" style="stroke: #000000"/>
     <use xlink:href="#mc72c911532" x="560.934783" y="181.8" style="stroke: #000000"/>
     <use xlink:href="#mc72c911532" x="623.934783" y="55.8" style="stroke: #000000"/>
     <use xlink:href="#mc72c911532" x="529.434783" y="118.8" style="stroke: #000000"/>
     <use xlink:href="#mc72c911532" x="560.934783" y="55.8" style="stroke: #000000"/>
     <use xlink:href="#mc72c911532" x="497.934783" y="244.8" style="stroke: #000000"/>
     <use xlink:href="#mc72c911532" x="592.434783" y="244.8" style="stroke: #000000"/>
     <use xlink:href="#mc72c911532" x="560.934783" y="307.8" style="stroke: #000000"/>
     <use xlink:href="#mc72c911532" x="597.684783" y="118.8" style="stroke: #000000"/>
     <use xlink:href="#mc72c911532" x="669.514328" y="125.839773" style="stroke: #000000"/>
     <use xlink:href="#mc72c911532" x="686.934783" y="186.571074" style="stroke: #000000"/>
     <use xlink:href="#mc72c911532" x="660.818309" y="249.983237" style="stroke: #000000"/>
    </g>
   </g>
   <g id="line2d_2"/>
   <g id="text_54">
    <!-- 0 -->
    <g transform="translate(493.963545 306.443986) scale(0.07 -0.07)">
     <use xlink:href="#CMR17-30" transform="scale(0.996264)"/>
    </g>
   </g>
   <g id="text_55">
    <!-- 1 -->
    <g transform="translate(493.963545 54.443986) scale(0.07 -0.07)">
     <use xlink:href="#CMR17-31" transform="scale(0.996264)"/>
    </g>
   </g>
   <g id="text_56">
    <!-- 2 -->
    <g transform="translate(619.963545 180.443986) scale(0.07 -0.07)">
     <use xlink:href="#CMR17-32" transform="scale(0.996264)"/>
    </g>
   </g>
   <g id="text_57">
    <!-- 3 -->
    <g transform="translate(493.963545 180.443986) scale(0.07 -0.07)">
     <use xlink:href="#CMR17-33" transform="scale(0.996264)"/>
    </g>
   </g>
   <g id="text_58">
    <!-- 4 -->
    <g transform="translate(619.963545 306.443986) scale(0.07 -0.07)">
     <use xlink:href="#CMR17-34" transform="scale(0.996264)"/>
    </g>
   </g>
   <g id="text_59">
    <!-- 5 -->
    <g transform="translate(556.963545 180.443986) scale(0.07 -0.07)">
     <use xlink:href="#CMR17-35" transform="scale(0.996264)"/>
    </g>
   </g>
   <g id="text_60">
    <!-- 6 -->
    <g transform="translate(619.963545 54.443986) scale(0.07 -0.07)">
     <use xlink:href="#CMR17-36" transform="scale(0.996264)"/>
    </g>
   </g>
   <g id="text_61">
    <!-- 7 -->
    <g transform="translate(525.463545 117.443986) scale(0.07 -0.07)">
     <use xlink:href="#CMR17-37" transform="scale(0.996264)"/>
    </g>
   </g>
   <g id="text_62">
    <!-- 8 -->
    <g transform="translate(556.963545 54.443986) scale(0.07 -0.07)">
     <use xlink:href="#CMR17-38" transform="scale(0.996264)"/>
    </g>
   </g>
   <g id="text_63">
    <!-- 9 -->
    <g transform="translate(493.963545 243.443986) scale(0.07 -0.07)">
     <use xlink:href="#CMR17-39" transform="scale(0.996264)"/>
    </g>
   </g>
   <g id="text_64">
    <!-- 10 -->
    <g transform="translate(584.492307 243.443986) scale(0.07 -0.07)">
     <use xlink:href="#CMR17-31" transform="scale(0.996264)"/>
     <use xlink:href="#CMR17-30" transform="translate(45.690477 0) scale(0.996264)"/>
    </g>
   </g>
   <g id="text_65">
    <!-- 11 -->
    <g transform="translate(552.992307 306.443986) scale(0.07 -0.07)">
     <use xlink:href="#CMR17-31" transform="scale(0.996264)"/>
     <use xlink:href="#CMR17-31" transform="translate(45.690477 0) scale(0.996264)"/>
    </g>
   </g>
   <g id="text_66">
    <!-- 12 -->
    <g transform="translate(589.742307 117.443986) scale(0.07 -0.07)">
     <use xlink:href="#CMR17-31" transform="scale(0.996264)"/>
     <use xlink:href="#CMR17-32" transform="translate(45.690477 0) scale(0.996264)"/>
    </g>
   </g>
   <g id="text_67">
    <!-- 13 -->
    <g transform="translate(661.571853 124.483759) scale(0.07 -0.07)">
     <use xlink:href="#CMR17-31" transform="scale(0.996264)"/>
     <use xlink:href="#CMR17-33" transform="translate(45.690477 0) scale(0.996264)"/>
    </g>
   </g>
   <g id="text_68">
    <!-- 14 -->
    <g transform="translate(678.992307 185.215059) scale(0.07 -0.07)">
     <use xlink:href="#CMR17-31" transform="scale(0.996264)"/>
     <use xlink:href="#CMR17-34" transform="translate(45.690477 0) scale(0.996264)"/>
    </g>
   </g>
   <g id="text_69">
    <!-- 15 -->
    <g transform="translate(652.875834 248.627223) scale(0.07 -0.07)">
     <use xlink:href="#CMR17-31" transform="scale(0.996264)"/>
     <use xlink:href="#CMR17-35" transform="translate(45.690477 0) scale(0.996264)"/>
    </g>
   </g>
   <g id="text_70">
    <!-- 0 -->
    <g transform="translate(517.108326 204.294396) scale(0.06 -0.06)">
     <use xlink:href="#CMR17-30" transform="scale(0.996264)"/>
    </g>
   </g>
   <g id="text_71">
    <!-- 1 -->
    <g transform="translate(527.608326 78.294396) scale(0.06 -0.06)">
     <use xlink:href="#CMR17-31" transform="scale(0.996264)"/>
    </g>
   </g>
   <g id="text_72">
    <!-- 2 -->
    <g transform="translate(506.608326 120.294396) scale(0.06 -0.06)">
     <use xlink:href="#CMR17-32" transform="scale(0.996264)"/>
    </g>
   </g>
   <g id="text_73">
    <!-- 3 -->
    <g transform="translate(655.402835 207.612499) scale(0.06 -0.06)">
     <use xlink:href="#CMR17-33" transform="scale(0.996264)"/>
    </g>
   </g>
   <g id="text_74">
    <!-- 4 -->
    <g transform="translate(623.902835 269.022142) scale(0.06 -0.06)">
     <use xlink:href="#CMR17-34" transform="scale(0.996264)"/>
    </g>
   </g>
   <g id="text_75">
    <!-- 5 -->
    <g transform="translate(548.608326 225.294396) scale(0.06 -0.06)">
     <use xlink:href="#CMR17-35" transform="scale(0.996264)"/>
    </g>
   </g>
   <g id="text_76">
    <!-- 6 -->
    <g transform="translate(560.858326 141.294396) scale(0.06 -0.06)">
     <use xlink:href="#CMR17-36" transform="scale(0.996264)"/>
    </g>
   </g>
   <g id="text_77">
    <!-- 7 -->
    <g transform="translate(517.108326 288.294396) scale(0.06 -0.06)">
     <use xlink:href="#CMR17-37" transform="scale(0.996264)"/>
    </g>
   </g>
   <g id="text_78">
    <!-- 8 -->
    <g transform="translate(592.358326 162.294396) scale(0.06 -0.06)">
     <use xlink:href="#CMR17-38" transform="scale(0.996264)"/>
    </g>
   </g>
   <g id="text_79">
    <!-- 9 -->
    <g transform="translate(628.551508 101.640987) scale(0.06 -0.06)">
     <use xlink:href="#CMR17-39" transform="scale(0.996264)"/>
    </g>
   </g>
   <g id="text_80">
    <!-- 10 -->
    <g transform="translate(525.78187 162.294396) scale(0.06 -0.06)">
     <use xlink:href="#CMR17-31" transform="scale(0.996264)"/>
     <use xlink:href="#CMR17-30" transform="translate(45.690477 0) scale(0.996264)"/>
    </g>
   </g>
   <g id="text_81">
    <!-- 11 -->
    <g transform="translate(588.78187 288.294396) scale(0.06 -0.06)">
     <use xlink:href="#CMR17-31" transform="scale(0.996264)"/>
     <use xlink:href="#CMR17-31" transform="translate(45.690477 0) scale(0.996264)"/>
    </g>
   </g>
   <g id="text_82">
    <!-- 12 -->
    <g transform="translate(559.03187 99.294396) scale(0.06 -0.06)">
     <use xlink:href="#CMR17-31" transform="scale(0.996264)"/>
     <use xlink:href="#CMR17-32" transform="translate(45.690477 0) scale(0.996264)"/>
    </g>
   </g>
   <g id="text_83">
    <!-- 13 -->
    <g transform="translate(588.78187 204.294396) scale(0.06 -0.06)">
     <use xlink:href="#CMR17-31" transform="scale(0.996264)"/>
     <use xlink:href="#CMR17-33" transform="translate(45.690477 0) scale(0.996264)"/>
    </g>
   </g>
   <g id="text_84">
    <!-- 14 -->
    <g transform="translate(546.78187 267.294396) scale(0.06 -0.06)">
     <use xlink:href="#CMR17-31" transform="scale(0.996264)"/>
     <use xlink:href="#CMR17-34" transform="translate(45.690477 0) scale(0.996264)"/>
    </g>
   </g>
   <g id="text_85">
    <!-- 15 -->
    <g transform="translate(590.53187 78.294396) scale(0.06 -0.06)">
     <use xlink:href="#CMR17-31" transform="scale(0.996264)"/>
     <use xlink:href="#CMR17-35" transform="translate(45.690477 0) scale(0.996264)"/>
    </g>
   </g>
   <g id="text_86">
    <!-- 16 -->
    <g transform="translate(656.475052 166.231345) scale(0.06 -0.06)">
     <use xlink:href="#CMR17-31" transform="scale(0.996264)"/>
     <use xlink:href="#CMR17-36" transform="translate(45.690477 0) scale(0.996264)"/>
    </g>
   </g>
   <g id="text_87">
    <!-- 17 -->
    <g transform="translate(626.725052 143.640987) scale(0.06 -0.06)">
     <use xlink:href="#CMR17-31" transform="scale(0.996264)"/>
     <use xlink:href="#CMR17-37" transform="translate(45.690477 0) scale(0.996264)"/>
    </g>
   </g>
   <g id="text_88">
    <!-- 18 -->
    <g transform="translate(622.076379 227.022142) scale(0.06 -0.06)">
     <use xlink:href="#CMR17-31" transform="scale(0.996264)"/>
     <use xlink:href="#CMR17-38" transform="translate(45.690477 0) scale(0.996264)"/>
    </g>
   </g>
   <g id="text_89">
    <!-- Subdomain 1 -->
    <g transform="translate(558.780089 37.2) scale(0.12 -0.12)">
     <defs>
      <path id="CMR17-53" d="M 2803 4351 
C 2803 4467 2797 4473 2758 4473 
C 2720 4473 2707 4447 2682 4390 
L 2490 3965 
C 2246 4320 1875 4480 1472 4480 
C 819 4480 294 3958 294 3301 
C 294 3101 339 2817 557 2546 
C 794 2250 1018 2198 1530 2063 
C 1722 2011 2042 1927 2106 1901 
C 2470 1747 2662 1360 2662 999 
C 2662 534 2336 38 1779 38 
C 1094 38 454 425 410 1328 
C 403 1431 397 1437 352 1437 
C 301 1437 294 1431 294 1302 
L 294 0 
C 294 -116 301 -122 339 -122 
C 384 -122 397 -90 486 109 
C 493 128 493 141 614 386 
C 934 -39 1472 -128 1779 -128 
C 2477 -128 2970 457 2970 1141 
C 2970 1476 2848 1734 2778 1850 
C 2509 2263 2221 2340 1914 2417 
C 1869 2437 1856 2437 1498 2527 
C 1152 2617 1005 2662 845 2836 
C 666 3036 602 3243 602 3449 
C 602 3868 934 4326 1478 4326 
C 2157 4326 2579 3842 2675 3036 
C 2694 2920 2701 2914 2746 2914 
C 2803 2914 2803 2933 2803 3043 
L 2803 4351 
z
" transform="scale(0.015625)"/>
      <path id="CMR17-75" d="M 1882 2745 
L 1882 2579 
C 2259 2579 2317 2540 2317 2229 
L 2317 1053 
C 2317 510 2029 38 1555 38 
C 1030 38 986 355 986 691 
L 986 2816 
L 211 2745 
L 211 2579 
C 467 2579 640 2579 646 2320 
L 646 1079 
C 646 646 646 368 813 187 
C 896 103 1056 -64 1517 -64 
C 2061 -64 2272 400 2323 536 
L 2330 536 
L 2330 -64 
L 3091 -13 
L 3091 154 
C 2714 154 2656 193 2656 503 
L 2656 2816 
L 1882 2745 
z
" transform="scale(0.015625)"/>
      <path id="CMR17-64" d="M 1869 4345 
L 1869 4179 
C 2246 4179 2304 4141 2304 3843 
L 2304 2371 
C 2278 2403 2016 2816 1498 2816 
C 845 2816 211 2228 211 1376 
C 211 529 806 -64 1434 -64 
C 1978 -64 2259 361 2291 406 
L 2291 -64 
L 3066 -13 
L 3066 154 
C 2688 154 2630 193 2630 503 
L 2630 4416 
L 1869 4345 
z
M 2291 762 
C 2291 568 2176 393 2029 264 
C 1811 70 1594 38 1472 38 
C 1286 38 621 135 621 1369 
C 621 2636 1363 2713 1530 2713 
C 1824 2713 2061 2545 2208 2313 
C 2291 2177 2291 2157 2291 2041 
L 2291 762 
z
" transform="scale(0.015625)"/>
      <path id="CMR17-6d" d="M 4326 1954 
C 4326 2276 4269 2816 3507 2816 
C 3072 2816 2771 2520 2656 2173 
L 2650 2173 
C 2573 2700 2195 2816 1837 2816 
C 1331 2816 1069 2424 973 2166 
L 966 2166 
L 966 2816 
L 211 2745 
L 211 2578 
C 589 2578 646 2540 646 2231 
L 646 443 
C 646 198 621 166 211 166 
L 211 0 
C 365 12 646 12 813 12 
C 979 12 1267 12 1421 0 
L 1421 166 
C 1011 166 986 192 986 443 
L 986 1678 
C 986 2269 1344 2713 1792 2713 
C 2266 2713 2317 2289 2317 1980 
L 2317 443 
C 2317 198 2291 166 1882 166 
L 1882 0 
C 2035 12 2317 12 2483 12 
C 2650 12 2938 12 3091 0 
L 3091 166 
C 2682 166 2656 192 2656 443 
L 2656 1678 
C 2656 2269 3014 2713 3462 2713 
C 3936 2713 3987 2289 3987 1980 
L 3987 443 
C 3987 198 3962 166 3552 166 
L 3552 0 
C 3706 12 3987 12 4154 12 
C 4320 12 4608 12 4762 0 
L 4762 166 
C 4352 166 4326 192 4326 443 
L 4326 1954 
z
" transform="scale(0.015625)"/>
      <path id="CMR17-69" d="M 992 3961 
C 992 4102 877 4224 730 4224 
C 589 4224 467 4108 467 3961 
C 467 3820 582 3699 730 3699 
C 870 3699 992 3814 992 3961 
z
M 243 2745 
L 243 2579 
C 602 2579 653 2540 653 2231 
L 653 443 
C 653 198 627 166 218 166 
L 218 0 
C 371 12 646 12 806 12 
C 960 12 1222 12 1370 0 
L 1370 166 
C 992 166 979 205 979 436 
L 979 2816 
L 243 2745 
z
" transform="scale(0.015625)"/>
      <path id="CMR17-6e" d="M 2656 1954 
C 2656 2282 2592 2816 1837 2816 
C 1331 2816 1069 2424 973 2166 
L 966 2166 
L 966 2816 
L 211 2745 
L 211 2578 
C 589 2578 646 2540 646 2231 
L 646 443 
C 646 198 621 166 211 166 
L 211 0 
C 365 12 646 12 813 12 
C 979 12 1267 12 1421 0 
L 1421 166 
C 1011 166 986 192 986 443 
L 986 1678 
C 986 2269 1344 2713 1792 2713 
C 2266 2713 2317 2289 2317 1980 
L 2317 443 
C 2317 198 2291 166 1882 166 
L 1882 0 
C 2035 12 2317 12 2483 12 
C 2650 12 2938 12 3091 0 
L 3091 166 
C 2682 166 2656 192 2656 443 
L 2656 1954 
z
" transform="scale(0.015625)"/>
     </defs>
     <use xlink:href="#CMR17-53" transform="scale(0.996264)"/>
     <use xlink:href="#CMR17-75" transform="translate(50.89537 0) scale(0.996264)"/>
     <use xlink:href="#CMR17-62" transform="translate(101.79074 0) scale(0.996264)"/>
     <use xlink:href="#CMR17-64" transform="translate(155.288548 0) scale(0.996264)"/>
     <use xlink:href="#CMR17-6f" transform="translate(206.183918 0) scale(0.996264)"/>
     <use xlink:href="#CMR17-6d" transform="translate(251.874395 0) scale(0.996264)"/>
     <use xlink:href="#CMR17-61" transform="translate(328.793985 0) scale(0.996264)"/>
     <use xlink:href="#CMR17-69" transform="translate(374.484462 0) scale(0.996264)"/>
     <use xlink:href="#CMR17-6e" transform="translate(399.35552 0) scale(0.996264)"/>
     <use xlink:href="#CMR17-31" transform="translate(480.326857 0) scale(0.996264)"/>
    </g>
   </g>
  </g>
  <g id="axes_3">
   <g id="line2d_3">
    <path d="M 828.426877 154.23083 
L 883.565217 154.23083 
M 828.426877 154.23083 
L 773.288538 154.23083 
M 773.288538 209.36917 
L 773.288538 264.50751 
M 773.288538 209.36917 
L 773.288538 154.23083 
M 773.288538 209.36917 
L 828.426877 154.23083 
M 855.996047 209.36917 
L 883.565217 154.23083 
M 855.996047 209.36917 
L 883.565217 264.50751 
M 855.996047 209.36917 
L 828.426877 154.23083 
M 855.996047 209.36917 
L 773.288538 209.36917 
M 828.426877 264.50751 
L 773.288538 264.50751 
M 828.426877 264.50751 
L 883.565217 264.50751 
M 828.426877 264.50751 
L 773.288538 209.36917 
M 828.426877 264.50751 
L 855.996047 209.36917 
M 860.590909 99.09249 
L 883.565217 154.23083 
M 860.590909 99.09249 
L 828.426877 154.23083 
M 923.456971 105.253782 
L 883.565217 154.23083 
M 923.456971 105.253782 
L 860.590909 99.09249 
M 938.703557 158.40653 
L 883.565217 154.23083 
M 938.703557 158.40653 
L 993.841897 154.23083 
M 938.703557 158.40653 
L 923.456971 105.253782 
M 915.846113 213.9056 
L 883.565217 154.23083 
M 915.846113 213.9056 
L 883.565217 264.50751 
M 915.846113 213.9056 
L 855.996047 209.36917 
M 915.846113 213.9056 
L 938.703557 158.40653 
M 938.703557 264.50751 
L 993.841897 264.50751 
M 938.703557 264.50751 
L 883.565217 264.50751 
M 938.703557 264.50751 
L 915.846113 213.9056 
M 993.841897 99.09249 
L 993.841897 154.23083 
M 993.841897 99.09249 
L 923.456971 105.253782 
M 993.841897 99.09249 
L 938.703557 158.40653 
M 993.841897 209.36917 
L 993.841897 264.50751 
M 993.841897 209.36917 
L 993.841897 154.23083 
M 993.841897 209.36917 
L 938.703557 158.40653 
M 993.841897 209.36917 
L 915.846113 213.9056 
M 993.841897 209.36917 
L 938.703557 264.50751 
" clip-path="url(#p46d408a1b7)" style="fill: none; stroke: #000000; stroke-opacity: 0.7; stroke-width: 0.5; stroke-linecap: square"/>
   </g>
   <g id="PathCollection_3">
    <g clip-path="url(#p46d408a1b7)">
     <use xlink:href="#mc72c911532" x="773.288538" y="264.50751" style="stroke: #000000"/>
     <use xlink:href="#mc72c911532" x="993.841897" y="264.50751" style="stroke: #000000"/>
     <use xlink:href="#mc72c911532" x="883.565217" y="154.23083" style="stroke: #000000"/>
     <use xlink:href="#mc72c911532" x="773.288538" y="154.23083" style="stroke: #000000"/>
     <use xlink:href="#mc72c911532" x="883.565217" y="264.50751" style="stroke: #000000"/>
     <use xlink:href="#mc72c911532" x="828.426877" y="154.23083" style="stroke: #000000"/>
     <use xlink:href="#mc72c911532" x="773.288538" y="209.36917" style="stroke: #000000"/>
     <use xlink:href="#mc72c911532" x="855.996047" y="209.36917" style="stroke: #000000"/>
     <use xlink:href="#mc72c911532" x="828.426877" y="264.50751" style="stroke: #000000"/>
     <use xlink:href="#mc72c911532" x="860.590909" y="99.09249" style="stroke: #000000"/>
     <use xlink:href="#mc72c911532" x="993.841897" y="154.23083" style="stroke: #000000"/>
     <use xlink:href="#mc72c911532" x="923.456971" y="105.253782" style="stroke: #000000"/>
     <use xlink:href="#mc72c911532" x="938.703557" y="158.40653" style="stroke: #000000"/>
     <use xlink:href="#mc72c911532" x="915.846113" y="213.9056" style="stroke: #000000"/>
     <use xlink:href="#mc72c911532" x="938.703557" y="264.50751" style="stroke: #000000"/>
     <use xlink:href="#mc72c911532" x="993.841897" y="99.09249" style="stroke: #000000"/>
     <use xlink:href="#mc72c911532" x="993.841897" y="209.36917" style="stroke: #000000"/>
    </g>
   </g>
   <g id="line2d_4"/>
   <g id="text_90">
    <!-- 0 -->
    <g transform="translate(769.3173 263.151496) scale(0.07 -0.07)">
     <use xlink:href="#CMR17-30" transform="scale(0.996264)"/>
    </g>
   </g>
   <g id="text_91">
    <!-- 1 -->
    <g transform="translate(989.87066 263.151496) scale(0.07 -0.07)">
     <use xlink:href="#CMR17-31" transform="scale(0.996264)"/>
    </g>
   </g>
   <g id="text_92">
    <!-- 2 -->
    <g transform="translate(879.59398 152.874816) scale(0.07 -0.07)">
     <use xlink:href="#CMR17-32" transform="scale(0.996264)"/>
    </g>
   </g>
   <g id="text_93">
    <!-- 3 -->
    <g transform="translate(769.3173 152.874816) scale(0.07 -0.07)">
     <use xlink:href="#CMR17-33" transform="scale(0.996264)"/>
    </g>
   </g>
   <g id="text_94">
    <!-- 4 -->
    <g transform="translate(879.59398 263.151496) scale(0.07 -0.07)">
     <use xlink:href="#CMR17-34" transform="scale(0.996264)"/>
    </g>
   </g>
   <g id="text_95">
    <!-- 5 -->
    <g transform="translate(824.45564 152.874816) scale(0.07 -0.07)">
     <use xlink:href="#CMR17-35" transform="scale(0.996264)"/>
    </g>
   </g>
   <g id="text_96">
    <!-- 6 -->
    <g transform="translate(769.3173 208.013156) scale(0.07 -0.07)">
     <use xlink:href="#CMR17-36" transform="scale(0.996264)"/>
    </g>
   </g>
   <g id="text_97">
    <!-- 7 -->
    <g transform="translate(852.02481 208.013156) scale(0.07 -0.07)">
     <use xlink:href="#CMR17-37" transform="scale(0.996264)"/>
    </g>
   </g>
   <g id="text_98">
    <!-- 8 -->
    <g transform="translate(824.45564 263.151496) scale(0.07 -0.07)">
     <use xlink:href="#CMR17-38" transform="scale(0.996264)"/>
    </g>
   </g>
   <g id="text_99">
    <!-- 9 -->
    <g transform="translate(856.619671 97.736476) scale(0.07 -0.07)">
     <use xlink:href="#CMR17-39" transform="scale(0.996264)"/>
    </g>
   </g>
   <g id="text_100">
    <!-- 10 -->
    <g transform="translate(985.899422 152.874816) scale(0.07 -0.07)">
     <use xlink:href="#CMR17-31" transform="scale(0.996264)"/>
     <use xlink:href="#CMR17-30" transform="translate(45.690477 0) scale(0.996264)"/>
    </g>
   </g>
   <g id="text_101">
    <!-- 11 -->
    <g transform="translate(915.514496 103.897768) scale(0.07 -0.07)">
     <use xlink:href="#CMR17-31" transform="scale(0.996264)"/>
     <use xlink:href="#CMR17-31" transform="translate(45.690477 0) scale(0.996264)"/>
    </g>
   </g>
   <g id="text_102">
    <!-- 12 -->
    <g transform="translate(930.761082 157.050516) scale(0.07 -0.07)">
     <use xlink:href="#CMR17-31" transform="scale(0.996264)"/>
     <use xlink:href="#CMR17-32" transform="translate(45.690477 0) scale(0.996264)"/>
    </g>
   </g>
   <g id="text_103">
    <!-- 13 -->
    <g transform="translate(907.903638 212.549585) scale(0.07 -0.07)">
     <use xlink:href="#CMR17-31" transform="scale(0.996264)"/>
     <use xlink:href="#CMR17-33" transform="translate(45.690477 0) scale(0.996264)"/>
    </g>
   </g>
   <g id="text_104">
    <!-- 14 -->
    <g transform="translate(930.761082 263.151496) scale(0.07 -0.07)">
     <use xlink:href="#CMR17-31" transform="scale(0.996264)"/>
     <use xlink:href="#CMR17-34" transform="translate(45.690477 0) scale(0.996264)"/>
    </g>
   </g>
   <g id="text_105">
    <!-- 15 -->
    <g transform="translate(985.899422 97.736476) scale(0.07 -0.07)">
     <use xlink:href="#CMR17-31" transform="scale(0.996264)"/>
     <use xlink:href="#CMR17-35" transform="translate(45.690477 0) scale(0.996264)"/>
    </g>
   </g>
   <g id="text_106">
    <!-- 16 -->
    <g transform="translate(985.899422 208.013156) scale(0.07 -0.07)">
     <use xlink:href="#CMR17-31" transform="scale(0.996264)"/>
     <use xlink:href="#CMR17-36" transform="translate(45.690477 0) scale(0.996264)"/>
    </g>
   </g>
   <g id="text_107">
    <!-- 0 -->
    <g transform="translate(789.841528 174.104673) scale(0.06 -0.06)">
     <use xlink:href="#CMR17-30" transform="scale(0.996264)"/>
    </g>
   </g>
   <g id="text_108">
    <!-- 1 -->
    <g transform="translate(910.878506 177.008716) scale(0.06 -0.06)">
     <use xlink:href="#CMR17-31" transform="scale(0.996264)"/>
    </g>
   </g>
   <g id="text_109">
    <!-- 2 -->
    <g transform="translate(883.309336 230.755156) scale(0.06 -0.06)">
     <use xlink:href="#CMR17-32" transform="scale(0.996264)"/>
    </g>
   </g>
   <g id="text_110">
    <!-- 3 -->
    <g transform="translate(817.410698 192.484119) scale(0.06 -0.06)">
     <use xlink:href="#CMR17-33" transform="scale(0.996264)"/>
    </g>
   </g>
   <g id="text_111">
    <!-- 4 -->
    <g transform="translate(789.841528 247.622459) scale(0.06 -0.06)">
     <use xlink:href="#CMR17-34" transform="scale(0.996264)"/>
    </g>
   </g>
   <g id="text_112">
    <!-- 5 -->
    <g transform="translate(855.701212 137.345779) scale(0.06 -0.06)">
     <use xlink:href="#CMR17-35" transform="scale(0.996264)"/>
    </g>
   </g>
   <g id="text_113">
    <!-- 6 -->
    <g transform="translate(854.169591 247.622459) scale(0.06 -0.06)">
     <use xlink:href="#CMR17-36" transform="scale(0.996264)"/>
    </g>
   </g>
   <g id="text_114">
    <!-- 7 -->
    <g transform="translate(854.169591 174.104673) scale(0.06 -0.06)">
     <use xlink:href="#CMR17-37" transform="scale(0.996264)"/>
    </g>
   </g>
   <g id="text_115">
    <!-- 8 -->
    <g transform="translate(973.635994 138.737679) scale(0.06 -0.06)">
     <use xlink:href="#CMR17-38" transform="scale(0.996264)"/>
    </g>
   </g>
   <g id="text_116">
    <!-- 9 -->
    <g transform="translate(817.410698 229.243013) scale(0.06 -0.06)">
     <use xlink:href="#CMR17-39" transform="scale(0.996264)"/>
    </g>
   </g>
   <g id="text_117">
    <!-- 10 -->
    <g transform="translate(911.589003 140.791443) scale(0.06 -0.06)">
     <use xlink:href="#CMR17-31" transform="scale(0.996264)"/>
     <use xlink:href="#CMR17-30" transform="translate(45.690477 0) scale(0.996264)"/>
    </g>
   </g>
   <g id="text_118">
    <!-- 11 -->
    <g transform="translate(885.551453 121.020097) scale(0.06 -0.06)">
     <use xlink:href="#CMR17-31" transform="scale(0.996264)"/>
     <use xlink:href="#CMR17-31" transform="translate(45.690477 0) scale(0.996264)"/>
    </g>
   </g>
   <g id="text_119">
    <!-- 12 -->
    <g transform="translate(881.48288 193.996263) scale(0.06 -0.06)">
     <use xlink:href="#CMR17-31" transform="scale(0.996264)"/>
     <use xlink:href="#CMR17-32" transform="translate(45.690477 0) scale(0.996264)"/>
    </g>
   </g>
   <g id="text_120">
    <!-- 13 -->
    <g transform="translate(945.810944 195.388162) scale(0.06 -0.06)">
     <use xlink:href="#CMR17-31" transform="scale(0.996264)"/>
     <use xlink:href="#CMR17-33" transform="translate(45.690477 0) scale(0.996264)"/>
    </g>
   </g>
   <g id="text_121">
    <!-- 14 -->
    <g transform="translate(971.809538 247.622459) scale(0.06 -0.06)">
     <use xlink:href="#CMR17-31" transform="scale(0.996264)"/>
     <use xlink:href="#CMR17-34" transform="translate(45.690477 0) scale(0.996264)"/>
    </g>
   </g>
   <g id="text_122">
    <!-- 15 -->
    <g transform="translate(971.809538 175.496573) scale(0.06 -0.06)">
     <use xlink:href="#CMR17-31" transform="scale(0.996264)"/>
     <use xlink:href="#CMR17-35" transform="translate(45.690477 0) scale(0.996264)"/>
    </g>
   </g>
   <g id="text_123">
    <!-- 16 -->
    <g transform="translate(909.05205 249.134602) scale(0.06 -0.06)">
     <use xlink:href="#CMR17-31" transform="scale(0.996264)"/>
     <use xlink:href="#CMR17-36" transform="translate(45.690477 0) scale(0.996264)"/>
    </g>
   </g>
   <g id="text_124">
    <!-- 17 -->
    <g transform="translate(948.347896 122.411997) scale(0.06 -0.06)">
     <use xlink:href="#CMR17-31" transform="scale(0.996264)"/>
     <use xlink:href="#CMR17-37" transform="translate(45.690477 0) scale(0.996264)"/>
    </g>
   </g>
   <g id="text_125">
    <!-- 18 -->
    <g transform="translate(945.810944 230.755156) scale(0.06 -0.06)">
     <use xlink:href="#CMR17-31" transform="scale(0.996264)"/>
     <use xlink:href="#CMR17-38" transform="translate(45.690477 0) scale(0.996264)"/>
    </g>
   </g>
   <g id="text_126">
    <!-- Subdomain 2 -->
    <g transform="translate(849.910523 84.821739) scale(0.12 -0.12)">
     <use xlink:href="#CMR17-53" transform="scale(0.996264)"/>
     <use xlink:href="#CMR17-75" transform="translate(50.89537 0) scale(0.996264)"/>
     <use xlink:href="#CMR17-62" transform="translate(101.79074 0) scale(0.996264)"/>
     <use xlink:href="#CMR17-64" transform="translate(155.288548 0) scale(0.996264)"/>
     <use xlink:href="#CMR17-6f" transform="translate(206.183918 0) scale(0.996264)"/>
     <use xlink:href="#CMR17-6d" transform="translate(251.874395 0) scale(0.996264)"/>
     <use xlink:href="#CMR17-61" transform="translate(328.793985 0) scale(0.996264)"/>
     <use xlink:href="#CMR17-69" transform="translate(374.484462 0) scale(0.996264)"/>
     <use xlink:href="#CMR17-6e" transform="translate(399.35552 0) scale(0.996264)"/>
     <use xlink:href="#CMR17-32" transform="translate(480.326857 0) scale(0.996264)"/>
    </g>
   </g>
  </g>
  <g id="axes_4">
   <g id="line2d_5">
    <path d="M 1119.557312 181.8 
L 1174.695652 181.8 
M 1091.988142 126.66166 
L 1064.418972 71.52332 
M 1091.988142 126.66166 
L 1119.557312 181.8 
M 1119.557312 71.52332 
L 1064.418972 71.52332 
M 1119.557312 71.52332 
L 1174.695652 71.52332 
M 1119.557312 71.52332 
L 1091.988142 126.66166 
M 1147.126482 236.93834 
L 1174.695652 181.8 
M 1147.126482 236.93834 
L 1119.557312 181.8 
M 1151.721344 126.66166 
L 1174.695652 181.8 
M 1151.721344 126.66166 
L 1119.557312 181.8 
M 1151.721344 126.66166 
L 1174.695652 71.52332 
M 1151.721344 126.66166 
L 1091.988142 126.66166 
M 1151.721344 126.66166 
L 1119.557312 71.52332 
M 1229.833992 71.52332 
L 1284.972332 71.52332 
M 1229.833992 71.52332 
L 1174.695652 71.52332 
M 1214.587406 132.822952 
L 1174.695652 181.8 
M 1214.587406 132.822952 
L 1174.695652 71.52332 
M 1214.587406 132.822952 
L 1151.721344 126.66166 
M 1214.587406 132.822952 
L 1229.833992 71.52332 
M 1229.833992 185.9757 
L 1174.695652 181.8 
M 1229.833992 185.9757 
L 1284.972332 181.8 
M 1229.833992 185.9757 
L 1214.587406 132.822952 
M 1206.976548 241.47477 
L 1174.695652 181.8 
M 1206.976548 241.47477 
L 1147.126482 236.93834 
M 1206.976548 241.47477 
L 1229.833992 185.9757 
M 1229.833992 292.07668 
L 1284.972332 292.07668 
M 1229.833992 292.07668 
L 1206.976548 241.47477 
M 1284.972332 126.66166 
L 1284.972332 71.52332 
M 1284.972332 126.66166 
L 1284.972332 181.8 
M 1284.972332 126.66166 
L 1229.833992 71.52332 
M 1284.972332 126.66166 
L 1214.587406 132.822952 
M 1284.972332 126.66166 
L 1229.833992 185.9757 
M 1284.972332 236.93834 
L 1284.972332 292.07668 
M 1284.972332 236.93834 
L 1284.972332 181.8 
M 1284.972332 236.93834 
L 1229.833992 185.9757 
M 1284.972332 236.93834 
L 1206.976548 241.47477 
M 1284.972332 236.93834 
L 1229.833992 292.07668 
" clip-path="url(#p1c52ac7e69)" style="fill: none; stroke: #000000; stroke-opacity: 0.7; stroke-width: 0.5; stroke-linecap: square"/>
   </g>
   <g id="PathCollection_4">
    <g clip-path="url(#p1c52ac7e69)">
     <use xlink:href="#mc72c911532" x="1284.972332" y="292.07668" style="stroke: #000000"/>
     <use xlink:href="#mc72c911532" x="1284.972332" y="71.52332" style="stroke: #000000"/>
     <use xlink:href="#mc72c911532" x="1064.418972" y="71.52332" style="stroke: #000000"/>
     <use xlink:href="#mc72c911532" x="1174.695652" y="181.8" style="stroke: #000000"/>
     <use xlink:href="#mc72c911532" x="1119.557312" y="181.8" style="stroke: #000000"/>
     <use xlink:href="#mc72c911532" x="1174.695652" y="71.52332" style="stroke: #000000"/>
     <use xlink:href="#mc72c911532" x="1091.988142" y="126.66166" style="stroke: #000000"/>
     <use xlink:href="#mc72c911532" x="1119.557312" y="71.52332" style="stroke: #000000"/>
     <use xlink:href="#mc72c911532" x="1147.126482" y="236.93834" style="stroke: #000000"/>
     <use xlink:href="#mc72c911532" x="1151.721344" y="126.66166" style="stroke: #000000"/>
     <use xlink:href="#mc72c911532" x="1284.972332" y="181.8" style="stroke: #000000"/>
     <use xlink:href="#mc72c911532" x="1229.833992" y="71.52332" style="stroke: #000000"/>
     <use xlink:href="#mc72c911532" x="1214.587406" y="132.822952" style="stroke: #000000"/>
     <use xlink:href="#mc72c911532" x="1229.833992" y="185.9757" style="stroke: #000000"/>
     <use xlink:href="#mc72c911532" x="1206.976548" y="241.47477" style="stroke: #000000"/>
     <use xlink:href="#mc72c911532" x="1229.833992" y="292.07668" style="stroke: #000000"/>
     <use xlink:href="#mc72c911532" x="1284.972332" y="126.66166" style="stroke: #000000"/>
     <use xlink:href="#mc72c911532" x="1284.972332" y="236.93834" style="stroke: #000000"/>
    </g>
   </g>
   <g id="line2d_6"/>
   <g id="text_127">
    <!-- 0 -->
    <g transform="translate(1281.001094 290.720666) scale(0.07 -0.07)">
     <use xlink:href="#CMR17-30" transform="scale(0.996264)"/>
    </g>
   </g>
   <g id="text_128">
    <!-- 1 -->
    <g transform="translate(1281.001094 70.167306) scale(0.07 -0.07)">
     <use xlink:href="#CMR17-31" transform="scale(0.996264)"/>
    </g>
   </g>
   <g id="text_129">
    <!-- 2 -->
    <g transform="translate(1060.447735 70.167306) scale(0.07 -0.07)">
     <use xlink:href="#CMR17-32" transform="scale(0.996264)"/>
    </g>
   </g>
   <g id="text_130">
    <!-- 3 -->
    <g transform="translate(1170.724415 180.443986) scale(0.07 -0.07)">
     <use xlink:href="#CMR17-33" transform="scale(0.996264)"/>
    </g>
   </g>
   <g id="text_131">
    <!-- 4 -->
    <g transform="translate(1115.586075 180.443986) scale(0.07 -0.07)">
     <use xlink:href="#CMR17-34" transform="scale(0.996264)"/>
    </g>
   </g>
   <g id="text_132">
    <!-- 5 -->
    <g transform="translate(1170.724415 70.167306) scale(0.07 -0.07)">
     <use xlink:href="#CMR17-35" transform="scale(0.996264)"/>
    </g>
   </g>
   <g id="text_133">
    <!-- 6 -->
    <g transform="translate(1088.016905 125.305646) scale(0.07 -0.07)">
     <use xlink:href="#CMR17-36" transform="scale(0.996264)"/>
    </g>
   </g>
   <g id="text_134">
    <!-- 7 -->
    <g transform="translate(1115.586075 70.167306) scale(0.07 -0.07)">
     <use xlink:href="#CMR17-37" transform="scale(0.996264)"/>
    </g>
   </g>
   <g id="text_135">
    <!-- 8 -->
    <g transform="translate(1143.155245 235.582326) scale(0.07 -0.07)">
     <use xlink:href="#CMR17-38" transform="scale(0.996264)"/>
    </g>
   </g>
   <g id="text_136">
    <!-- 9 -->
    <g transform="translate(1147.750106 125.305646) scale(0.07 -0.07)">
     <use xlink:href="#CMR17-39" transform="scale(0.996264)"/>
    </g>
   </g>
   <g id="text_137">
    <!-- 10 -->
    <g transform="translate(1277.029857 180.443986) scale(0.07 -0.07)">
     <use xlink:href="#CMR17-31" transform="scale(0.996264)"/>
     <use xlink:href="#CMR17-30" transform="translate(45.690477 0) scale(0.996264)"/>
    </g>
   </g>
   <g id="text_138">
    <!-- 11 -->
    <g transform="translate(1221.891517 70.167306) scale(0.07 -0.07)">
     <use xlink:href="#CMR17-31" transform="scale(0.996264)"/>
     <use xlink:href="#CMR17-31" transform="translate(45.690477 0) scale(0.996264)"/>
    </g>
   </g>
   <g id="text_139">
    <!-- 12 -->
    <g transform="translate(1206.64493 131.466938) scale(0.07 -0.07)">
     <use xlink:href="#CMR17-31" transform="scale(0.996264)"/>
     <use xlink:href="#CMR17-32" transform="translate(45.690477 0) scale(0.996264)"/>
    </g>
   </g>
   <g id="text_140">
    <!-- 13 -->
    <g transform="translate(1221.891517 184.619685) scale(0.07 -0.07)">
     <use xlink:href="#CMR17-31" transform="scale(0.996264)"/>
     <use xlink:href="#CMR17-33" transform="translate(45.690477 0) scale(0.996264)"/>
    </g>
   </g>
   <g id="text_141">
    <!-- 14 -->
    <g transform="translate(1199.034072 240.118755) scale(0.07 -0.07)">
     <use xlink:href="#CMR17-31" transform="scale(0.996264)"/>
     <use xlink:href="#CMR17-34" transform="translate(45.690477 0) scale(0.996264)"/>
    </g>
   </g>
   <g id="text_142">
    <!-- 15 -->
    <g transform="translate(1221.891517 290.720666) scale(0.07 -0.07)">
     <use xlink:href="#CMR17-31" transform="scale(0.996264)"/>
     <use xlink:href="#CMR17-35" transform="translate(45.690477 0) scale(0.996264)"/>
    </g>
   </g>
   <g id="text_143">
    <!-- 16 -->
    <g transform="translate(1277.029857 125.305646) scale(0.07 -0.07)">
     <use xlink:href="#CMR17-31" transform="scale(0.996264)"/>
     <use xlink:href="#CMR17-36" transform="translate(45.690477 0) scale(0.996264)"/>
    </g>
   </g>
   <g id="text_144">
    <!-- 17 -->
    <g transform="translate(1277.029857 235.582326) scale(0.07 -0.07)">
     <use xlink:href="#CMR17-31" transform="scale(0.996264)"/>
     <use xlink:href="#CMR17-37" transform="translate(45.690477 0) scale(0.996264)"/>
    </g>
   </g>
   <g id="text_145">
    <!-- 0 -->
    <g transform="translate(1241.304787 111.830373) scale(0.06 -0.06)">
     <use xlink:href="#CMR17-30" transform="scale(0.996264)"/>
    </g>
   </g>
   <g id="text_146">
    <!-- 1 -->
    <g transform="translate(1090.161686 91.397163) scale(0.06 -0.06)">
     <use xlink:href="#CMR17-31" transform="scale(0.996264)"/>
    </g>
   </g>
   <g id="text_147">
    <!-- 2 -->
    <g transform="translate(1202.008941 204.577886) scale(0.06 -0.06)">
     <use xlink:href="#CMR17-32" transform="scale(0.996264)"/>
    </g>
   </g>
   <g id="text_148">
    <!-- 3 -->
    <g transform="translate(1119.262477 146.535503) scale(0.06 -0.06)">
     <use xlink:href="#CMR17-33" transform="scale(0.996264)"/>
    </g>
   </g>
   <g id="text_149">
    <!-- 4 -->
    <g transform="translate(1146.831647 164.914949) scale(0.06 -0.06)">
     <use xlink:href="#CMR17-34" transform="scale(0.996264)"/>
    </g>
   </g>
   <g id="text_150">
    <!-- 5 -->
    <g transform="translate(1178.508344 111.830373) scale(0.06 -0.06)">
     <use xlink:href="#CMR17-35" transform="scale(0.996264)"/>
    </g>
   </g>
   <g id="text_151">
    <!-- 6 -->
    <g transform="translate(1119.262477 109.776609) scale(0.06 -0.06)">
     <use xlink:href="#CMR17-36" transform="scale(0.996264)"/>
    </g>
   </g>
   <g id="text_152">
    <!-- 7 -->
    <g transform="translate(1145.300026 201.673843) scale(0.06 -0.06)">
     <use xlink:href="#CMR17-37" transform="scale(0.996264)"/>
    </g>
   </g>
   <g id="text_153">
    <!-- 8 -->
    <g transform="translate(1264.766429 166.306849) scale(0.06 -0.06)">
     <use xlink:href="#CMR17-38" transform="scale(0.996264)"/>
    </g>
   </g>
   <g id="text_154">
    <!-- 9 -->
    <g transform="translate(1146.831647 91.397163) scale(0.06 -0.06)">
     <use xlink:href="#CMR17-39" transform="scale(0.996264)"/>
    </g>
   </g>
   <g id="text_155">
    <!-- 10 -->
    <g transform="translate(1202.719438 168.360613) scale(0.06 -0.06)">
     <use xlink:href="#CMR17-31" transform="scale(0.996264)"/>
     <use xlink:href="#CMR17-30" transform="translate(45.690477 0) scale(0.996264)"/>
    </g>
   </g>
   <g id="text_156">
    <!-- 11 -->
    <g transform="translate(1176.681888 148.589267) scale(0.06 -0.06)">
     <use xlink:href="#CMR17-31" transform="scale(0.996264)"/>
     <use xlink:href="#CMR17-31" transform="translate(45.690477 0) scale(0.996264)"/>
    </g>
   </g>
   <g id="text_157">
    <!-- 12 -->
    <g transform="translate(1202.719438 93.450927) scale(0.06 -0.06)">
     <use xlink:href="#CMR17-31" transform="scale(0.996264)"/>
     <use xlink:href="#CMR17-32" transform="translate(45.690477 0) scale(0.996264)"/>
    </g>
   </g>
   <g id="text_158">
    <!-- 13 -->
    <g transform="translate(1262.939973 91.397163) scale(0.06 -0.06)">
     <use xlink:href="#CMR17-31" transform="scale(0.996264)"/>
     <use xlink:href="#CMR17-33" transform="translate(45.690477 0) scale(0.996264)"/>
    </g>
   </g>
   <g id="text_159">
    <!-- 14 -->
    <g transform="translate(1172.613315 221.565433) scale(0.06 -0.06)">
     <use xlink:href="#CMR17-31" transform="scale(0.996264)"/>
     <use xlink:href="#CMR17-34" transform="translate(45.690477 0) scale(0.996264)"/>
    </g>
   </g>
   <g id="text_160">
    <!-- 15 -->
    <g transform="translate(1236.941378 222.957332) scale(0.06 -0.06)">
     <use xlink:href="#CMR17-31" transform="scale(0.996264)"/>
     <use xlink:href="#CMR17-35" transform="translate(45.690477 0) scale(0.996264)"/>
    </g>
   </g>
   <g id="text_161">
    <!-- 16 -->
    <g transform="translate(1262.939973 275.191629) scale(0.06 -0.06)">
     <use xlink:href="#CMR17-31" transform="scale(0.996264)"/>
     <use xlink:href="#CMR17-36" transform="translate(45.690477 0) scale(0.996264)"/>
    </g>
   </g>
   <g id="text_162">
    <!-- 17 -->
    <g transform="translate(1262.939973 203.065743) scale(0.06 -0.06)">
     <use xlink:href="#CMR17-31" transform="scale(0.996264)"/>
     <use xlink:href="#CMR17-37" transform="translate(45.690477 0) scale(0.996264)"/>
    </g>
   </g>
   <g id="text_163">
    <!-- 18 -->
    <g transform="translate(1239.478331 149.981167) scale(0.06 -0.06)">
     <use xlink:href="#CMR17-31" transform="scale(0.996264)"/>
     <use xlink:href="#CMR17-38" transform="translate(45.690477 0) scale(0.996264)"/>
    </g>
   </g>
   <g id="text_164">
    <!-- 19 -->
    <g transform="translate(1236.941378 258.324326) scale(0.06 -0.06)">
     <use xlink:href="#CMR17-31" transform="scale(0.996264)"/>
     <use xlink:href="#CMR17-39" transform="translate(45.690477 0) scale(0.996264)"/>
    </g>
   </g>
   <g id="text_165">
    <!-- Subdomain 3 -->
    <g transform="translate(1141.040958 54.495652) scale(0.12 -0.12)">
     <use xlink:href="#CMR17-53" transform="scale(0.996264)"/>
     <use xlink:href="#CMR17-75" transform="translate(50.89537 0) scale(0.996264)"/>
     <use xlink:href="#CMR17-62" transform="translate(101.79074 0) scale(0.996264)"/>
     <use xlink:href="#CMR17-64" transform="translate(155.288548 0) scale(0.996264)"/>
     <use xlink:href="#CMR17-6f" transform="translate(206.183918 0) scale(0.996264)"/>
     <use xlink:href="#CMR17-6d" transform="translate(251.874395 0) scale(0.996264)"/>
     <use xlink:href="#CMR17-61" transform="translate(328.793985 0) scale(0.996264)"/>
     <use xlink:href="#CMR17-69" transform="translate(374.484462 0) scale(0.996264)"/>
     <use xlink:href="#CMR17-6e" transform="translate(399.35552 0) scale(0.996264)"/>
     <use xlink:href="#CMR17-33" transform="translate(480.326857 0) scale(0.996264)"/>
    </g>
   </g>
  </g>
 </g>
 <defs>
  <clipPath id="p340eb2176b">
   <rect x="180" y="60.495652" width="242.608696" height="242.608696"/>
  </clipPath>
  <clipPath id="p7e64e4bd78">
   <rect x="488.484783" y="43.2" width="207.9" height="277.2"/>
  </clipPath>
  <clipPath id="p46d408a1b7">
   <rect x="762.26087" y="90.821739" width="242.608696" height="181.956522"/>
  </clipPath>
  <clipPath id="p1c52ac7e69">
   <rect x="1053.391304" y="60.495652" width="242.608696" height="242.608696"/>
  </clipPath>
 </defs>
</svg>
