<?xml version="1.0" encoding="UTF-8" standalone="no"?>
<!DOCTYPE svg PUBLIC "-//W3C//DTD SVG 1.1//EN" "http://www.w3.org/Graphics/SVG/1.1/DTD/svg11.dtd">
<svg width="100%" height="100%" viewBox="0 0 571 166" version="1.1" xmlns="http://www.w3.org/2000/svg" xmlns:xlink="http://www.w3.org/1999/xlink" xml:space="preserve" xmlns:serif="http://www.serif.com/" style="fill-rule:evenodd;clip-rule:evenodd;">
    <g id="Artboard1" transform="matrix(0.804968,0,0,0.694559,-15.821895,-12.959804)">
        <rect x="19.655" y="18.659" width="709.344" height="238.081" style="fill:none;"/>
        <g id="figure_1" transform="matrix(3.312762,0,0,3.839364,-12.761682,-7.25668)">
            <g transform="matrix(1,0,0,1,-57.190876,0)">
                <g id="axes_1" transform="matrix(1,0,0,1,-19.720418,-24.97138)">
                    <g id="PolyCollection_1" transform="matrix(1,0,0,1,26.140306,15.259158)">
                        <g transform="matrix(1,0,0,1,-39.280484,-156.81009)">
                            <path d="M102.698,231.687L114.873,231.687L114.873,218.16L102.698,231.687Z" style="fill:rgb(255,250,205);fill-rule:nonzero;stroke:black;stroke-width:0.25px;"/>
                        </g>
                        <g transform="matrix(1,0,0,1,-39.280484,-156.81009)">
                            <path d="M102.698,231.687L114.873,218.16L102.698,218.16L102.698,231.687Z" style="fill:rgb(255,250,205);fill-rule:nonzero;stroke:black;stroke-width:0.25px;"/>
                        </g>
                        <g transform="matrix(1,0,0,1,-39.280484,-156.81009)">
                            <path d="M102.698,218.16L114.873,218.16L114.873,204.633L102.698,218.16Z" style="fill:rgb(255,250,205);fill-rule:nonzero;stroke:black;stroke-width:0.25px;"/>
                        </g>
                        <g transform="matrix(1,0,0,1,-39.280484,-156.81009)">
                            <path d="M102.698,218.16L114.873,204.633L102.698,204.633L102.698,218.16Z" style="fill:rgb(255,250,205);fill-rule:nonzero;stroke:black;stroke-width:0.25px;"/>
                        </g>
                        <g transform="matrix(1,0,0,1,-39.280484,-156.81009)">
                            <path d="M102.698,204.633L114.873,204.633L114.873,191.105L102.698,204.633Z" style="fill:rgb(255,250,205);fill-rule:nonzero;stroke:black;stroke-width:0.25px;"/>
                        </g>
                        <g transform="matrix(1,0,0,1,-39.280484,-156.81009)">
                            <path d="M102.698,204.633L114.873,191.105L102.698,191.105L102.698,204.633Z" style="fill:rgb(255,250,205);fill-rule:nonzero;stroke:black;stroke-width:0.25px;"/>
                        </g>
                        <g transform="matrix(1,0,0,1,-39.280484,-156.81009)">
                            <path d="M102.698,191.105L114.873,191.105L114.873,177.578L102.698,191.105Z" style="fill:rgb(255,250,205);fill-rule:nonzero;stroke:black;stroke-width:0.25px;"/>
                        </g>
                        <g transform="matrix(1,0,0,1,-39.280484,-156.81009)">
                            <path d="M102.698,191.105L114.873,177.578L102.698,177.578L102.698,191.105Z" style="fill:rgb(255,250,205);fill-rule:nonzero;stroke:black;stroke-width:0.25px;"/>
                        </g>
                        <g transform="matrix(1,0,0,1,-39.280484,-156.81009)">
                            <path d="M114.873,231.687L127.047,231.687L127.047,218.16L114.873,231.687Z" style="fill:rgb(255,250,205);fill-rule:nonzero;stroke:black;stroke-width:0.25px;"/>
                        </g>
                        <g transform="matrix(1,0,0,1,-39.280484,-156.81009)">
                            <path d="M114.873,231.687L127.047,218.16L114.873,218.16L114.873,231.687Z" style="fill:rgb(255,250,205);fill-rule:nonzero;stroke:black;stroke-width:0.25px;"/>
                        </g>
                        <g transform="matrix(1,0,0,1,-39.280484,-156.81009)">
                            <path d="M114.873,218.16L127.047,218.16L127.047,204.633L114.873,218.16Z" style="fill:rgb(255,250,205);fill-rule:nonzero;stroke:black;stroke-width:0.25px;"/>
                        </g>
                        <g transform="matrix(1,0,0,1,-39.280484,-156.81009)">
                            <path d="M114.873,218.16L127.047,204.633L114.873,204.633L114.873,218.16Z" style="fill:rgb(255,250,205);fill-rule:nonzero;stroke:black;stroke-width:0.25px;"/>
                        </g>
                        <g transform="matrix(1,0,0,1,-39.280484,-156.81009)">
                            <path d="M114.873,204.633L127.047,204.633L127.047,191.105L114.873,204.633Z" style="fill:rgb(255,250,205);fill-rule:nonzero;stroke:black;stroke-width:0.25px;"/>
                        </g>
                        <g transform="matrix(1,0,0,1,-39.280484,-156.81009)">
                            <path d="M114.873,204.633L127.047,191.105L114.873,191.105L114.873,204.633Z" style="fill:rgb(255,250,205);fill-rule:nonzero;stroke:black;stroke-width:0.25px;"/>
                        </g>
                        <g transform="matrix(1,0,0,1,-39.280484,-156.81009)">
                            <path d="M114.873,191.105L127.047,191.105L127.047,177.578L114.873,191.105Z" style="fill:rgb(255,250,205);fill-rule:nonzero;stroke:black;stroke-width:0.25px;"/>
                        </g>
                        <g transform="matrix(1,0,0,1,-39.280484,-156.81009)">
                            <path d="M114.873,191.105L127.047,177.578L114.873,177.578L114.873,191.105Z" style="fill:rgb(255,250,205);fill-rule:nonzero;stroke:black;stroke-width:0.25px;"/>
                        </g>
                        <g transform="matrix(1,0,0,1,-39.280484,-156.81009)">
                            <path d="M127.047,231.687L139.222,231.687L139.222,218.16L127.047,231.687Z" style="fill:rgb(255,250,205);fill-rule:nonzero;stroke:black;stroke-width:0.25px;"/>
                        </g>
                        <g transform="matrix(1,0,0,1,-39.280484,-156.81009)">
                            <path d="M127.047,231.687L139.222,218.16L127.047,218.16L127.047,231.687Z" style="fill:rgb(255,250,205);fill-rule:nonzero;stroke:black;stroke-width:0.25px;"/>
                        </g>
                        <g transform="matrix(1,0,0,1,-39.280484,-156.81009)">
                            <path d="M127.047,218.16L139.222,218.16L139.222,204.633L127.047,218.16Z" style="fill:rgb(255,250,205);fill-rule:nonzero;stroke:black;stroke-width:0.25px;"/>
                        </g>
                        <g transform="matrix(1,0,0,1,-39.280484,-156.81009)">
                            <path d="M127.047,218.16L139.222,204.633L127.047,204.633L127.047,218.16Z" style="fill:rgb(255,250,205);fill-rule:nonzero;stroke:black;stroke-width:0.25px;"/>
                        </g>
                        <g transform="matrix(1,0,0,1,-39.280484,-156.81009)">
                            <path d="M127.047,204.633L139.222,204.633L139.222,191.105L127.047,204.633Z" style="fill:rgb(255,250,205);fill-rule:nonzero;stroke:black;stroke-width:0.25px;"/>
                        </g>
                        <g transform="matrix(1,0,0,1,-39.280484,-156.81009)">
                            <path d="M127.047,204.633L139.222,191.105L127.047,191.105L127.047,204.633Z" style="fill:rgb(255,250,205);fill-rule:nonzero;stroke:black;stroke-width:0.25px;"/>
                        </g>
                        <g transform="matrix(1,0,0,1,-39.280484,-156.81009)">
                            <path d="M127.047,191.105L139.222,191.105L139.222,177.578L127.047,191.105Z" style="fill:rgb(255,250,205);fill-rule:nonzero;stroke:black;stroke-width:0.25px;"/>
                        </g>
                        <g transform="matrix(1,0,0,1,-39.280484,-156.81009)">
                            <path d="M127.047,191.105L139.222,177.578L127.047,177.578L127.047,191.105Z" style="fill:rgb(255,250,205);fill-rule:nonzero;stroke:black;stroke-width:0.25px;"/>
                        </g>
                        <g transform="matrix(1,0,0,1,-39.280484,-156.81009)">
                            <path d="M139.222,231.687L151.396,231.687L151.396,218.16L139.222,231.687Z" style="fill:rgb(255,250,205);fill-rule:nonzero;stroke:black;stroke-width:0.25px;"/>
                        </g>
                        <g transform="matrix(1,0,0,1,-8.91123,-156.81009)">
                            <path d="M139.222,231.687L151.396,231.687L151.396,218.16L139.222,231.687Z" style="fill:rgb(255,250,205);fill-rule:nonzero;stroke:black;stroke-width:0.25px;stroke-dasharray:0.5,0.5,0.5,0.5,0.5,0;"/>
                        </g>
                        <g transform="matrix(1,0,0,1,-39.280484,-156.81009)">
                            <path d="M139.222,231.687L151.396,218.16L139.222,218.16L139.222,231.687Z" style="fill:rgb(255,250,205);fill-rule:nonzero;stroke:black;stroke-width:0.25px;"/>
                        </g>
                        <g transform="matrix(1,0,0,1,-8.91123,-156.81009)">
                            <path d="M139.222,231.687L151.396,218.16L139.222,218.16L139.222,231.687Z" style="fill:rgb(255,250,205);fill-rule:nonzero;stroke:black;stroke-width:0.25px;stroke-dasharray:0.5,0.5,0.5,0.5,0.5,0;"/>
                        </g>
                        <g transform="matrix(1,0,0,1,-39.280484,-156.81009)">
                            <path d="M139.222,218.16L151.396,218.16L151.396,204.633L139.222,218.16Z" style="fill:rgb(255,250,205);fill-rule:nonzero;stroke:black;stroke-width:0.25px;"/>
                        </g>
                        <g transform="matrix(1,0,0,1,-8.91123,-156.81009)">
                            <path d="M139.222,218.16L151.396,218.16L151.396,204.633L139.222,218.16Z" style="fill:rgb(255,250,205);fill-rule:nonzero;stroke:black;stroke-width:0.25px;stroke-dasharray:0.5,0.5,0.5,0.5,0.5,0;"/>
                        </g>
                        <g transform="matrix(1,0,0,1,-39.280484,-156.81009)">
                            <path d="M139.222,218.16L151.396,204.633L139.222,204.633L139.222,218.16Z" style="fill:rgb(255,250,205);fill-rule:nonzero;stroke:black;stroke-width:0.25px;"/>
                        </g>
                        <g transform="matrix(1,0,0,1,-8.91123,-156.81009)">
                            <path d="M139.222,218.16L151.396,204.633L139.222,204.633L139.222,218.16Z" style="fill:rgb(255,250,205);fill-rule:nonzero;stroke:black;stroke-width:0.25px;stroke-dasharray:0.5,0.5,0.5,0.5,0.5,0;"/>
                        </g>
                        <g transform="matrix(1,0,0,1,-39.280484,-156.81009)">
                            <path d="M139.222,204.633L151.396,204.633L151.396,191.105L139.222,204.633Z" style="fill:rgb(255,250,205);fill-rule:nonzero;stroke:black;stroke-width:0.25px;"/>
                        </g>
                        <g transform="matrix(1,0,0,1,-8.91123,-156.81009)">
                            <path d="M139.222,204.633L151.396,204.633L151.396,191.105L139.222,204.633Z" style="fill:rgb(255,250,205);fill-rule:nonzero;stroke:black;stroke-width:0.25px;stroke-dasharray:0.5,0.5,0.5,0.5,0.5,0;"/>
                        </g>
                        <g transform="matrix(1,0,0,1,-39.280484,-156.81009)">
                            <path d="M139.222,204.633L151.396,191.105L139.222,191.105L139.222,204.633Z" style="fill:rgb(255,250,205);fill-rule:nonzero;stroke:black;stroke-width:0.25px;"/>
                        </g>
                        <g transform="matrix(1,0,0,1,-8.91123,-156.81009)">
                            <path d="M139.222,204.633L151.396,191.105L139.222,191.105L139.222,204.633Z" style="fill:rgb(255,250,205);fill-rule:nonzero;stroke:black;stroke-width:0.25px;stroke-dasharray:0.5,0.5,0.5,0.5,0.5,0;"/>
                        </g>
                        <g transform="matrix(1,0,0,1,-39.280484,-156.81009)">
                            <path d="M139.222,191.105L151.396,191.105L151.396,177.578L139.222,191.105Z" style="fill:rgb(255,250,205);fill-rule:nonzero;stroke:black;stroke-width:0.25px;"/>
                        </g>
                        <g transform="matrix(1,0,0,1,-8.91123,-156.81009)">
                            <path d="M139.222,191.105L151.396,191.105L151.396,177.578L139.222,191.105Z" style="fill:rgb(255,250,205);fill-rule:nonzero;stroke:black;stroke-width:0.25px;stroke-dasharray:0.5,0.5,0.5,0.5,0.5,0;"/>
                        </g>
                        <g transform="matrix(1,0,0,1,-39.280484,-156.81009)">
                            <path d="M139.222,191.105L151.396,177.578L139.222,177.578L139.222,191.105Z" style="fill:rgb(255,250,205);fill-rule:nonzero;stroke:black;stroke-width:0.25px;"/>
                        </g>
                        <g transform="matrix(1,0,0,1,-8.91123,-156.81009)">
                            <path d="M139.222,191.105L151.396,177.578L139.222,177.578L139.222,191.105Z" style="fill:rgb(255,250,205);fill-rule:nonzero;stroke:black;stroke-width:0.25px;stroke-dasharray:0.5,0.5,0.5,0.5,0.5,0;"/>
                        </g>
                        <g transform="matrix(1,0,0,1,-39.280484,-156.81009)">
                            <path d="M151.396,231.687L163.571,231.687L163.571,218.16L151.396,231.687Z" style="fill:rgb(165,255,234);fill-rule:nonzero;stroke:black;stroke-width:0.25px;stroke-dasharray:0.5,0.5,0.5,0.5,0.5,0;"/>
                        </g>
                        <g transform="matrix(1,0,0,1,-8.91123,-156.81009)">
                            <path d="M151.396,231.687L163.571,231.687L163.571,218.16L151.396,231.687Z" style="fill:rgb(165,255,234);fill-rule:nonzero;stroke:black;stroke-width:0.25px;"/>
                        </g>
                        <g transform="matrix(1,0,0,1,-39.280484,-156.81009)">
                            <path d="M151.396,231.687L163.571,218.16L151.396,218.16L151.396,231.687Z" style="fill:rgb(165,255,234);fill-rule:nonzero;stroke:black;stroke-width:0.25px;stroke-dasharray:0.5,0.5,0.5,0.5,0.5,0;"/>
                        </g>
                        <g transform="matrix(1,0,0,1,-8.91123,-156.81009)">
                            <path d="M151.396,231.687L163.571,218.16L151.396,218.16L151.396,231.687Z" style="fill:rgb(165,255,234);fill-rule:nonzero;stroke:black;stroke-width:0.25px;"/>
                        </g>
                        <g transform="matrix(1,0,0,1,-39.280484,-156.81009)">
                            <path d="M151.396,218.16L163.571,218.16L163.571,204.633L151.396,218.16Z" style="fill:rgb(165,255,234);fill-rule:nonzero;stroke:black;stroke-width:0.25px;stroke-dasharray:0.5,0.5,0.5,0.5,0.5,0;"/>
                        </g>
                        <g transform="matrix(1,0,0,1,-8.91123,-156.81009)">
                            <path d="M151.396,218.16L163.571,218.16L163.571,204.633L151.396,218.16Z" style="fill:rgb(165,255,234);fill-rule:nonzero;stroke:black;stroke-width:0.25px;"/>
                        </g>
                        <g transform="matrix(1,0,0,1,-39.280484,-156.81009)">
                            <path d="M151.396,218.16L163.571,204.633L151.396,204.633L151.396,218.16Z" style="fill:rgb(165,255,234);fill-rule:nonzero;stroke:black;stroke-width:0.25px;stroke-dasharray:0.5,0.5,0.5,0.5,0.5,0;"/>
                        </g>
                        <g transform="matrix(1,0,0,1,-8.91123,-156.81009)">
                            <path d="M151.396,218.16L163.571,204.633L151.396,204.633L151.396,218.16Z" style="fill:rgb(165,255,234);fill-rule:nonzero;stroke:black;stroke-width:0.25px;"/>
                        </g>
                        <g transform="matrix(1,0,0,1,-39.280484,-156.81009)">
                            <path d="M151.396,204.633L163.571,204.633L163.571,191.105L151.396,204.633Z" style="fill:rgb(165,255,234);fill-rule:nonzero;stroke:black;stroke-width:0.25px;stroke-dasharray:0.5,0.5,0.5,0.5,0.5,0;"/>
                        </g>
                        <g transform="matrix(1,0,0,1,-8.91123,-156.81009)">
                            <path d="M151.396,204.633L163.571,204.633L163.571,191.105L151.396,204.633Z" style="fill:rgb(165,255,234);fill-rule:nonzero;stroke:black;stroke-width:0.25px;"/>
                        </g>
                        <g transform="matrix(1,0,0,1,-39.280484,-156.81009)">
                            <path d="M151.396,204.633L163.571,191.105L151.396,191.105L151.396,204.633Z" style="fill:rgb(165,255,234);fill-rule:nonzero;stroke:black;stroke-width:0.25px;stroke-dasharray:0.5,0.5,0.5,0.5,0.5,0;"/>
                        </g>
                        <g transform="matrix(1,0,0,1,-8.91123,-156.81009)">
                            <path d="M151.396,204.633L163.571,191.105L151.396,191.105L151.396,204.633Z" style="fill:rgb(165,255,234);fill-rule:nonzero;stroke:black;stroke-width:0.25px;"/>
                        </g>
                        <g transform="matrix(1,0,0,1,-39.280484,-156.81009)">
                            <path d="M151.396,191.105L163.571,191.105L163.571,177.578L151.396,191.105Z" style="fill:rgb(165,255,234);fill-rule:nonzero;stroke:black;stroke-width:0.25px;stroke-dasharray:0.5,0.5,0.5,0.5,0.5,0;"/>
                        </g>
                        <g transform="matrix(1,0,0,1,-8.91123,-156.81009)">
                            <path d="M151.396,191.105L163.571,191.105L163.571,177.578L151.396,191.105Z" style="fill:rgb(165,255,234);fill-rule:nonzero;stroke:black;stroke-width:0.25px;"/>
                        </g>
                        <g transform="matrix(1,0,0,1,-39.280484,-156.81009)">
                            <path d="M151.396,191.105L163.571,177.578L151.396,177.578L151.396,191.105Z" style="fill:rgb(165,255,234);fill-rule:nonzero;stroke:black;stroke-width:0.25px;stroke-dasharray:0.5,0.5,0.5,0.5,0.5,0;"/>
                        </g>
                        <g transform="matrix(1,0,0,1,-8.91123,-156.81009)">
                            <path d="M151.396,191.105L163.571,177.578L151.396,177.578L151.396,191.105Z" style="fill:rgb(165,255,234);fill-rule:nonzero;stroke:black;stroke-width:0.25px;"/>
                        </g>
                        <g transform="matrix(1,0,0,1,-8.91123,-156.81009)">
                            <path d="M163.571,231.687L175.745,231.687L175.745,218.16L163.571,231.687Z" style="fill:rgb(165,255,234);fill-rule:nonzero;stroke:black;stroke-width:0.25px;"/>
                        </g>
                        <g transform="matrix(1,0,0,1,-8.91123,-156.81009)">
                            <path d="M163.571,231.687L175.745,218.16L163.571,218.16L163.571,231.687Z" style="fill:rgb(165,255,234);fill-rule:nonzero;stroke:black;stroke-width:0.25px;"/>
                        </g>
                        <g transform="matrix(1,0,0,1,-8.91123,-156.81009)">
                            <path d="M163.571,218.16L175.745,218.16L175.745,204.633L163.571,218.16Z" style="fill:rgb(165,255,234);fill-rule:nonzero;stroke:black;stroke-width:0.25px;"/>
                        </g>
                        <g transform="matrix(1,0,0,1,-8.91123,-156.81009)">
                            <path d="M163.571,218.16L175.745,204.633L163.571,204.633L163.571,218.16Z" style="fill:rgb(165,255,234);fill-rule:nonzero;stroke:black;stroke-width:0.25px;"/>
                        </g>
                        <g transform="matrix(1,0,0,1,-8.91123,-156.81009)">
                            <path d="M163.571,204.633L175.745,204.633L175.745,191.105L163.571,204.633Z" style="fill:rgb(165,255,234);fill-rule:nonzero;stroke:black;stroke-width:0.25px;"/>
                        </g>
                        <g transform="matrix(1,0,0,1,-8.91123,-156.81009)">
                            <path d="M163.571,204.633L175.745,191.105L163.571,191.105L163.571,204.633Z" style="fill:rgb(165,255,234);fill-rule:nonzero;stroke:black;stroke-width:0.25px;"/>
                        </g>
                        <g transform="matrix(1,0,0,1,-8.91123,-156.81009)">
                            <path d="M163.571,191.105L175.745,191.105L175.745,177.578L163.571,191.105Z" style="fill:rgb(165,255,234);fill-rule:nonzero;stroke:black;stroke-width:0.25px;"/>
                        </g>
                        <g transform="matrix(1,0,0,1,-8.91123,-156.81009)">
                            <path d="M163.571,191.105L175.745,177.578L163.571,177.578L163.571,191.105Z" style="fill:rgb(165,255,234);fill-rule:nonzero;stroke:black;stroke-width:0.25px;"/>
                        </g>
                        <g transform="matrix(1,0,0,1,-45.3734,-156.810642)">
                            <path d="M212.269,231.687L224.444,231.687L224.444,218.16L212.269,231.687Z" style="fill:rgb(165,255,234);fill-rule:nonzero;stroke:black;stroke-width:0.25px;"/>
                        </g>
                        <g transform="matrix(1,0,0,1,-45.3734,-156.810642)">
                            <path d="M212.269,231.687L224.444,218.16L212.269,218.16L212.269,231.687Z" style="fill:rgb(165,255,234);fill-rule:nonzero;stroke:black;stroke-width:0.25px;"/>
                        </g>
                        <g transform="matrix(1,0,0,1,-45.3734,-156.810642)">
                            <path d="M212.269,218.16L224.444,218.16L224.444,204.633L212.269,218.16Z" style="fill:rgb(165,255,234);fill-rule:nonzero;stroke:black;stroke-width:0.25px;"/>
                        </g>
                        <g transform="matrix(1,0,0,1,-45.3734,-156.810642)">
                            <path d="M212.269,218.16L224.444,204.633L212.269,204.633L212.269,218.16Z" style="fill:rgb(165,255,234);fill-rule:nonzero;stroke:black;stroke-width:0.25px;"/>
                        </g>
                        <g transform="matrix(1,0,0,1,-45.3734,-156.810642)">
                            <path d="M212.269,204.633L224.444,204.633L224.444,191.105L212.269,204.633Z" style="fill:rgb(165,255,234);fill-rule:nonzero;stroke:black;stroke-width:0.25px;"/>
                        </g>
                        <g transform="matrix(1,0,0,1,-45.3734,-156.810642)">
                            <path d="M212.269,204.633L224.444,191.105L212.269,191.105L212.269,204.633Z" style="fill:rgb(165,255,234);fill-rule:nonzero;stroke:black;stroke-width:0.25px;"/>
                        </g>
                        <g transform="matrix(1,0,0,1,-45.3734,-156.810642)">
                            <path d="M212.269,191.105L224.444,191.105L224.444,177.578L212.269,191.105Z" style="fill:rgb(165,255,234);fill-rule:nonzero;stroke:black;stroke-width:0.25px;"/>
                        </g>
                        <g transform="matrix(1,0,0,1,-45.3734,-156.810642)">
                            <path d="M212.269,191.105L224.444,177.578L212.269,177.578L212.269,191.105Z" style="fill:rgb(165,255,234);fill-rule:nonzero;stroke:black;stroke-width:0.25px;"/>
                        </g>
                        <g transform="matrix(1,0,0,1,-14.244818,-156.810642)">
                            <path d="M224.444,231.687L236.618,231.687L236.618,218.16L224.444,231.687Z" style="fill:rgb(165,255,234);fill-rule:nonzero;stroke:black;stroke-width:0.25px;stroke-dasharray:0.5,0.5,0.5,0.5,0.5,0;"/>
                        </g>
                        <g transform="matrix(1,0,0,1,-45.3734,-156.810642)">
                            <path d="M224.444,231.687L236.618,231.687L236.618,218.16L224.444,231.687Z" style="fill:rgb(165,255,234);fill-rule:nonzero;stroke:black;stroke-width:0.25px;"/>
                        </g>
                        <g transform="matrix(1,0,0,1,-14.244818,-156.810642)">
                            <path d="M224.444,231.687L236.618,218.16L224.444,218.16L224.444,231.687Z" style="fill:rgb(165,255,234);fill-rule:nonzero;stroke:black;stroke-width:0.25px;stroke-dasharray:0.5,0.5,0.5,0.5,0.5,0;"/>
                        </g>
                        <g transform="matrix(1,0,0,1,-45.3734,-156.810642)">
                            <path d="M224.444,231.687L236.618,218.16L224.444,218.16L224.444,231.687Z" style="fill:rgb(165,255,234);fill-rule:nonzero;stroke:black;stroke-width:0.25px;"/>
                        </g>
                        <g transform="matrix(1,0,0,1,-14.244818,-156.810642)">
                            <path d="M224.444,218.16L236.618,218.16L236.618,204.633L224.444,218.16Z" style="fill:rgb(165,255,234);fill-rule:nonzero;stroke:black;stroke-width:0.25px;stroke-dasharray:0.5,0.5,0.5,0.5,0.5,0;"/>
                        </g>
                        <g transform="matrix(1,0,0,1,-45.3734,-156.810642)">
                            <path d="M224.444,218.16L236.618,218.16L236.618,204.633L224.444,218.16Z" style="fill:rgb(165,255,234);fill-rule:nonzero;stroke:black;stroke-width:0.25px;"/>
                        </g>
                        <g transform="matrix(1,0,0,1,-14.244818,-156.810642)">
                            <path d="M224.444,218.16L236.618,204.633L224.444,204.633L224.444,218.16Z" style="fill:rgb(165,255,234);fill-rule:nonzero;stroke:black;stroke-width:0.25px;stroke-dasharray:0.5,0.5,0.5,0.5,0.5,0;"/>
                        </g>
                        <g transform="matrix(1,0,0,1,-45.3734,-156.810642)">
                            <path d="M224.444,218.16L236.618,204.633L224.444,204.633L224.444,218.16Z" style="fill:rgb(165,255,234);fill-rule:nonzero;stroke:black;stroke-width:0.25px;"/>
                        </g>
                        <g transform="matrix(1,0,0,1,-14.244818,-156.810642)">
                            <path d="M224.444,204.633L236.618,204.633L236.618,191.105L224.444,204.633Z" style="fill:rgb(165,255,234);fill-rule:nonzero;stroke:black;stroke-width:0.25px;stroke-dasharray:0.5,0.5,0.5,0.5,0.5,0;"/>
                        </g>
                        <g transform="matrix(1,0,0,1,-45.3734,-156.810642)">
                            <path d="M224.444,204.633L236.618,204.633L236.618,191.105L224.444,204.633Z" style="fill:rgb(165,255,234);fill-rule:nonzero;stroke:black;stroke-width:0.25px;"/>
                        </g>
                        <g transform="matrix(1,0,0,1,-14.244818,-156.810642)">
                            <path d="M224.444,204.633L236.618,191.105L224.444,191.105L224.444,204.633Z" style="fill:rgb(165,255,234);fill-rule:nonzero;stroke:black;stroke-width:0.25px;stroke-dasharray:0.5,0.5,0.5,0.5,0.5,0;"/>
                        </g>
                        <g transform="matrix(1,0,0,1,-45.3734,-156.810642)">
                            <path d="M224.444,204.633L236.618,191.105L224.444,191.105L224.444,204.633Z" style="fill:rgb(165,255,234);fill-rule:nonzero;stroke:black;stroke-width:0.25px;"/>
                        </g>
                        <g transform="matrix(1,0,0,1,-14.244818,-156.810642)">
                            <path d="M224.444,191.105L236.618,191.105L236.618,177.578L224.444,191.105Z" style="fill:rgb(165,255,234);fill-rule:nonzero;stroke:black;stroke-width:0.25px;stroke-dasharray:0.5,0.5,0.5,0.5,0.5,0;"/>
                        </g>
                        <g transform="matrix(1,0,0,1,-45.3734,-156.810642)">
                            <path d="M224.444,191.105L236.618,191.105L236.618,177.578L224.444,191.105Z" style="fill:rgb(165,255,234);fill-rule:nonzero;stroke:black;stroke-width:0.25px;"/>
                        </g>
                        <g transform="matrix(1,0,0,1,-14.244818,-156.810642)">
                            <path d="M224.444,191.105L236.618,177.578L224.444,177.578L224.444,191.105Z" style="fill:rgb(165,255,234);fill-rule:nonzero;stroke:black;stroke-width:0.25px;stroke-dasharray:0.5,0.5,0.5,0.5,0.5,0;"/>
                        </g>
                        <g transform="matrix(1,0,0,1,-45.3734,-156.810642)">
                            <path d="M224.444,191.105L236.618,177.578L224.444,177.578L224.444,191.105Z" style="fill:rgb(165,255,234);fill-rule:nonzero;stroke:black;stroke-width:0.25px;"/>
                        </g>
                        <g transform="matrix(1,0,0,1,-14.244818,-156.810642)">
                            <path d="M236.618,231.687L248.793,231.687L248.793,218.16L236.618,231.687Z" style="fill:rgb(200,246,255);fill-rule:nonzero;stroke:black;stroke-width:0.25px;"/>
                        </g>
                        <g transform="matrix(1,0,0,1,-45.3734,-156.810642)">
                            <path d="M236.618,231.687L248.793,231.687L248.793,218.16L236.618,231.687Z" style="fill:rgb(200,246,255);fill-rule:nonzero;stroke:black;stroke-width:0.25px;stroke-dasharray:0.5,0.5,0.5,0.5,0.5,0;"/>
                        </g>
                        <g transform="matrix(1,0,0,1,-14.244818,-156.810642)">
                            <path d="M236.618,231.687L248.793,218.16L236.618,218.16L236.618,231.687Z" style="fill:rgb(200,246,255);fill-rule:nonzero;stroke:black;stroke-width:0.25px;"/>
                        </g>
                        <g transform="matrix(1,0,0,1,-45.3734,-156.810642)">
                            <path d="M236.618,231.687L248.793,218.16L236.618,218.16L236.618,231.687Z" style="fill:rgb(200,246,255);fill-rule:nonzero;stroke:black;stroke-width:0.25px;stroke-dasharray:0.5,0.5,0.5,0.5,0.5,0;"/>
                        </g>
                        <g transform="matrix(1,0,0,1,-14.244818,-156.810642)">
                            <path d="M236.618,218.16L248.793,218.16L248.793,204.633L236.618,218.16Z" style="fill:rgb(200,246,255);fill-rule:nonzero;stroke:black;stroke-width:0.25px;"/>
                        </g>
                        <g transform="matrix(1,0,0,1,-45.3734,-156.810642)">
                            <path d="M236.618,218.16L248.793,218.16L248.793,204.633L236.618,218.16Z" style="fill:rgb(200,246,255);fill-rule:nonzero;stroke:black;stroke-width:0.25px;stroke-dasharray:0.5,0.5,0.5,0.5,0.5,0;"/>
                        </g>
                        <g transform="matrix(1,0,0,1,-14.244818,-156.810642)">
                            <path d="M236.618,218.16L248.793,204.633L236.618,204.633L236.618,218.16Z" style="fill:rgb(200,246,255);fill-rule:nonzero;stroke:black;stroke-width:0.25px;"/>
                        </g>
                        <g transform="matrix(1,0,0,1,-45.3734,-156.810642)">
                            <path d="M236.618,218.16L248.793,204.633L236.618,204.633L236.618,218.16Z" style="fill:rgb(200,246,255);fill-rule:nonzero;stroke:black;stroke-width:0.25px;stroke-dasharray:0.5,0.5,0.5,0.5,0.5,0;"/>
                        </g>
                        <g transform="matrix(1,0,0,1,-14.244818,-156.810642)">
                            <path d="M236.618,204.633L248.793,204.633L248.793,191.105L236.618,204.633Z" style="fill:rgb(200,246,255);fill-rule:nonzero;stroke:black;stroke-width:0.25px;"/>
                        </g>
                        <g transform="matrix(1,0,0,1,-45.3734,-156.810642)">
                            <path d="M236.618,204.633L248.793,204.633L248.793,191.105L236.618,204.633Z" style="fill:rgb(200,246,255);fill-rule:nonzero;stroke:black;stroke-width:0.25px;stroke-dasharray:0.5,0.5,0.5,0.5,0.5,0;"/>
                        </g>
                        <g transform="matrix(1,0,0,1,-14.244818,-156.810642)">
                            <path d="M236.618,204.633L248.793,191.105L236.618,191.105L236.618,204.633Z" style="fill:rgb(200,246,255);fill-rule:nonzero;stroke:black;stroke-width:0.25px;"/>
                        </g>
                        <g transform="matrix(1,0,0,1,-45.3734,-156.810642)">
                            <path d="M236.618,204.633L248.793,191.105L236.618,191.105L236.618,204.633Z" style="fill:rgb(200,246,255);fill-rule:nonzero;stroke:black;stroke-width:0.25px;stroke-dasharray:0.5,0.5,0.5,0.5,0.5,0;"/>
                        </g>
                        <g transform="matrix(1,0,0,1,-14.244818,-156.810642)">
                            <path d="M236.618,191.105L248.793,191.105L248.793,177.578L236.618,191.105Z" style="fill:rgb(200,246,255);fill-rule:nonzero;stroke:black;stroke-width:0.25px;"/>
                        </g>
                        <g transform="matrix(1,0,0,1,-45.3734,-156.810642)">
                            <path d="M236.618,191.105L248.793,191.105L248.793,177.578L236.618,191.105Z" style="fill:rgb(200,246,255);fill-rule:nonzero;stroke:black;stroke-width:0.25px;stroke-dasharray:0.5,0.5,0.5,0.5,0.5,0;"/>
                        </g>
                        <g transform="matrix(1,0,0,1,-14.244818,-156.810642)">
                            <path d="M236.618,191.105L248.793,177.578L236.618,177.578L236.618,191.105Z" style="fill:rgb(200,246,255);fill-rule:nonzero;stroke:black;stroke-width:0.25px;"/>
                        </g>
                        <g transform="matrix(1,0,0,1,-45.3734,-156.810642)">
                            <path d="M236.618,191.105L248.793,177.578L236.618,177.578L236.618,191.105Z" style="fill:rgb(200,246,255);fill-rule:nonzero;stroke:black;stroke-width:0.25px;stroke-dasharray:0.5,0.5,0.5,0.5,0.5,0;"/>
                        </g>
                        <g transform="matrix(1,0,0,1,-14.244818,-156.810642)">
                            <path d="M248.793,231.687L260.967,231.687L260.967,218.16L248.793,231.687Z" style="fill:rgb(200,246,255);fill-rule:nonzero;stroke:black;stroke-width:0.25px;"/>
                        </g>
                        <g transform="matrix(1,0,0,1,-14.244818,-156.810642)">
                            <path d="M248.793,231.687L260.967,218.16L248.793,218.16L248.793,231.687Z" style="fill:rgb(200,246,255);fill-rule:nonzero;stroke:black;stroke-width:0.25px;"/>
                        </g>
                        <g transform="matrix(1,0,0,1,-14.244818,-156.810642)">
                            <path d="M248.793,218.16L260.967,218.16L260.967,204.633L248.793,218.16Z" style="fill:rgb(200,246,255);fill-rule:nonzero;stroke:black;stroke-width:0.25px;"/>
                        </g>
                        <g transform="matrix(1,0,0,1,-14.244818,-156.810642)">
                            <path d="M248.793,218.16L260.967,204.633L248.793,204.633L248.793,218.16Z" style="fill:rgb(200,246,255);fill-rule:nonzero;stroke:black;stroke-width:0.25px;"/>
                        </g>
                        <g transform="matrix(1,0,0,1,-14.244818,-156.810642)">
                            <path d="M248.793,204.633L260.967,204.633L260.967,191.105L248.793,204.633Z" style="fill:rgb(200,246,255);fill-rule:nonzero;stroke:black;stroke-width:0.25px;"/>
                        </g>
                        <g transform="matrix(1,0,0,1,-14.244818,-156.810642)">
                            <path d="M248.793,204.633L260.967,191.105L248.793,191.105L248.793,204.633Z" style="fill:rgb(200,246,255);fill-rule:nonzero;stroke:black;stroke-width:0.25px;"/>
                        </g>
                        <g transform="matrix(1,0,0,1,-14.244818,-156.810642)">
                            <path d="M248.793,191.105L260.967,191.105L260.967,177.578L248.793,191.105Z" style="fill:rgb(200,246,255);fill-rule:nonzero;stroke:black;stroke-width:0.25px;"/>
                        </g>
                        <g transform="matrix(1,0,0,1,-14.244818,-156.810642)">
                            <path d="M248.793,191.105L260.967,177.578L248.793,177.578L248.793,191.105Z" style="fill:rgb(200,246,255);fill-rule:nonzero;stroke:black;stroke-width:0.25px;"/>
                        </g>
                        <g transform="matrix(1,0,0,1,-14.244818,-156.810642)">
                            <path d="M260.967,231.687L273.142,231.687L273.142,218.16L260.967,231.687Z" style="fill:rgb(200,246,255);fill-rule:nonzero;stroke:black;stroke-width:0.25px;"/>
                        </g>
                        <g transform="matrix(1,0,0,1,-14.244818,-156.810642)">
                            <path d="M260.967,231.687L273.142,218.16L260.967,218.16L260.967,231.687Z" style="fill:rgb(200,246,255);fill-rule:nonzero;stroke:black;stroke-width:0.25px;"/>
                        </g>
                        <g transform="matrix(1,0,0,1,-14.244818,-156.810642)">
                            <path d="M260.967,218.16L273.142,218.16L273.142,204.633L260.967,218.16Z" style="fill:rgb(200,246,255);fill-rule:nonzero;stroke:black;stroke-width:0.25px;"/>
                        </g>
                        <g transform="matrix(1,0,0,1,-14.244818,-156.810642)">
                            <path d="M260.967,218.16L273.142,204.633L260.967,204.633L260.967,218.16Z" style="fill:rgb(200,246,255);fill-rule:nonzero;stroke:black;stroke-width:0.25px;"/>
                        </g>
                        <g transform="matrix(1,0,0,1,-14.244818,-156.810642)">
                            <path d="M260.967,204.633L273.142,204.633L273.142,191.105L260.967,204.633Z" style="fill:rgb(200,246,255);fill-rule:nonzero;stroke:black;stroke-width:0.25px;"/>
                        </g>
                        <g transform="matrix(1,0,0,1,-14.244818,-156.810642)">
                            <path d="M260.967,204.633L273.142,191.105L260.967,191.105L260.967,204.633Z" style="fill:rgb(200,246,255);fill-rule:nonzero;stroke:black;stroke-width:0.25px;"/>
                        </g>
                        <g transform="matrix(1,0,0,1,-14.244818,-156.810642)">
                            <path d="M260.967,191.105L273.142,191.105L273.142,177.578L260.967,191.105Z" style="fill:rgb(200,246,255);fill-rule:nonzero;stroke:black;stroke-width:0.25px;"/>
                        </g>
                        <g transform="matrix(1,0,0,1,-14.244818,-156.810642)">
                            <path d="M260.967,191.105L273.142,177.578L260.967,177.578L260.967,191.105Z" style="fill:rgb(200,246,255);fill-rule:nonzero;stroke:black;stroke-width:0.25px;"/>
                        </g>
                        <g transform="matrix(1,0,0,1,-14.244818,-156.810642)">
                            <path d="M273.142,231.687L285.316,231.687L285.316,218.16L273.142,231.687Z" style="fill:rgb(200,246,255);fill-rule:nonzero;stroke:black;stroke-width:0.25px;"/>
                        </g>
                        <g transform="matrix(1,0,0,1,-14.244818,-156.810642)">
                            <path d="M273.142,231.687L285.316,218.16L273.142,218.16L273.142,231.687Z" style="fill:rgb(200,246,255);fill-rule:nonzero;stroke:black;stroke-width:0.25px;"/>
                        </g>
                        <g transform="matrix(1,0,0,1,-14.244818,-156.810642)">
                            <path d="M273.142,218.16L285.316,218.16L285.316,204.633L273.142,218.16Z" style="fill:rgb(200,246,255);fill-rule:nonzero;stroke:black;stroke-width:0.25px;"/>
                        </g>
                        <g transform="matrix(1,0,0,1,-14.244818,-156.810642)">
                            <path d="M273.142,218.16L285.316,204.633L273.142,204.633L273.142,218.16Z" style="fill:rgb(200,246,255);fill-rule:nonzero;stroke:black;stroke-width:0.25px;"/>
                        </g>
                        <g transform="matrix(1,0,0,1,-14.244818,-156.810642)">
                            <path d="M273.142,204.633L285.316,204.633L285.316,191.105L273.142,204.633Z" style="fill:rgb(200,246,255);fill-rule:nonzero;stroke:black;stroke-width:0.25px;"/>
                        </g>
                        <g transform="matrix(1,0,0,1,-14.244818,-156.810642)">
                            <path d="M273.142,204.633L285.316,191.105L273.142,191.105L273.142,204.633Z" style="fill:rgb(200,246,255);fill-rule:nonzero;stroke:black;stroke-width:0.25px;"/>
                        </g>
                        <g transform="matrix(1,0,0,1,-14.244818,-156.810642)">
                            <path d="M273.142,191.105L285.316,191.105L285.316,177.578L273.142,191.105Z" style="fill:rgb(200,246,255);fill-rule:nonzero;stroke:black;stroke-width:0.25px;"/>
                        </g>
                        <g transform="matrix(1,0,0,1,-14.244818,-156.810642)">
                            <path d="M273.142,191.105L285.316,177.578L273.142,177.578L273.142,191.105Z" style="fill:rgb(200,246,255);fill-rule:nonzero;stroke:black;stroke-width:0.25px;"/>
                        </g>
                    </g>
                </g>
                <g transform="matrix(0.126712,0,0,0.126712,110.560072,27.368711)">
                    <circle cx="159.11" cy="85.052" r="3.588" style="fill:white;stroke:black;stroke-width:1.23px;stroke-linejoin:round;stroke-miterlimit:1.5;stroke-dasharray:1.227,1.227,1.227,1.227,1.227,1.227;"/>
                </g>
                <g transform="matrix(0.1261,0,0,0.1261,110.661302,13.8222)">
                    <circle cx="159.11" cy="85.052" r="3.588" style="fill:white;stroke:black;stroke-width:1.23px;stroke-linejoin:round;stroke-miterlimit:1.5;stroke-dasharray:1.233,1.233,1.233,1.233,1.233,1.233;"/>
                </g>
                <g transform="matrix(0.1261,0,0,0.1261,98.398031,13.857703)">
                    <circle cx="159.11" cy="85.052" r="3.588" style="fill:white;stroke:black;stroke-width:1.23px;stroke-linejoin:round;stroke-miterlimit:1.5;"/>
                </g>
                <g transform="matrix(0.1261,0,0,0.1261,86.300539,13.874133)">
                    <circle cx="159.11" cy="85.052" r="3.588" style="fill:white;stroke:black;stroke-width:1.23px;stroke-linejoin:round;stroke-miterlimit:1.5;"/>
                </g>
                <g transform="matrix(0.125879,0,0,0.125879,110.695587,0.364449)">
                    <circle cx="159.11" cy="85.052" r="3.588" style="stroke:black;stroke-width:1.23px;stroke-linejoin:round;stroke-miterlimit:1.5;"/>
                </g>
                <g transform="matrix(0.125879,0,0,0.125879,98.480182,0.364449)">
                    <circle cx="159.11" cy="85.052" r="3.588" style="stroke:black;stroke-width:1.23px;stroke-linejoin:round;stroke-miterlimit:1.5;"/>
                </g>
            </g>
        </g>
    </g>
</svg>
