<?xml version="1.0" encoding="UTF-8"?>
<svg version="1.1" xmlns="http://www.w3.org/2000/svg" width="473" height="347">
<path d="M0 0 C156.09 0 312.18 0 473 0 C473 114.51 473 229.02 473 347 C316.91 347 160.82 347 0 347 C0 232.49 0 117.98 0 0 Z " fill="#FEFEFE" transform="translate(0,0)"/>
<path d="M0 0 C156.09 0 312.18 0 473 0 C473 114.51 473 229.02 473 347 C316.91 347 160.82 347 0 347 C0 232.49 0 117.98 0 0 Z M83 72 C82.10152344 72.68835938 81.20304687 73.37671875 80.27734375 74.0859375 C74.27081905 78.78346687 68.56984252 83.79469816 63 89 C62.10152344 89.83273438 61.20304687 90.66546875 60.27734375 91.5234375 C39.77132218 111.19306719 30.26520467 136.80395463 24 164 C23.72285156 165.1446875 23.44570313 166.289375 23.16015625 167.46875 C14.19113756 204.95121618 19.4997283 251.7645725 39.5 285.5625 C40.30805286 286.7262994 41.14054198 287.87362955 42 289 C42.41507813 289.56460937 42.83015625 290.12921875 43.2578125 290.7109375 C62.87991608 315.49085117 99.23526102 330.13914089 129 337 C129.93070312 337.21543457 130.86140625 337.43086914 131.8203125 337.65283203 C175.51238627 347.54908674 224.13001961 349.97819843 268 340 C269.969714 339.57425581 271.93943173 339.14852829 273.90933228 338.72364807 C287.74942234 335.71983655 301.5353334 332.4121143 315 328 C315.7636084 327.75314453 316.5272168 327.50628906 317.31396484 327.25195312 C352.59258974 315.73872146 394.51769699 295.43382435 414 262 C428.35560996 233.56259281 431.6212537 191.45693324 423 161 C422.67257812 159.72640625 422.34515625 158.4528125 422.0078125 157.140625 C417.5084402 141.04797955 409.95003923 124.469781 400 111 C399.33871094 110.09636719 398.67742187 109.19273438 397.99609375 108.26171875 C383.95342732 90.09920027 362.18283051 77.42259657 342 67 C341.10361816 66.53352051 340.20723633 66.06704102 339.28369141 65.58642578 C323.97591909 57.70336619 308.58420553 51.61552725 292 47 C291.3294458 46.81108185 290.6588916 46.6221637 289.96801758 46.42752075 C278.0880978 43.1012426 266.15568827 40.51364513 254.01904297 38.31469727 C251.23633544 37.81002178 248.45600755 37.29354366 245.67578125 36.77539062 C189.2326115 26.34016154 129.26094357 36.02595025 83 72 Z " fill="#FEFEFE" transform="translate(0,0)"/>
<path d="M0 0 C0 0.66 0 1.32 0 2 C0.7425 2.0825 1.485 2.165 2.25 2.25 C5.58676213 3.16002604 6.90015697 4.27798125 9 7 C9 8.32 9 9.64 9 11 C9.99 11.33 10.98 11.66 12 12 C14.32592014 16.99022748 14.37645767 21.96745574 14.52734375 27.3671875 C14.59628992 29.23096544 14.66547194 31.09473467 14.73486328 32.95849609 C14.76775452 33.92615906 14.80064575 34.89382202 14.83453369 35.89080811 C15.39286477 52.07248066 16.32846876 67.96256177 18.75878906 83.98339844 C19 86 19 86 18.9609375 89.2890625 C19.00532004 92.36921088 19.81296149 94.16841855 21 97 C21.77212147 99.95707675 22.38564585 102.9441638 23 105.9375 C23.26055176 107.18817261 23.26055176 107.18817261 23.52636719 108.46411133 C24.98371175 115.60797061 26.10276537 122.76309437 27 130 C27.66 130 28.32 130 29 130 C30.1577506 133.47325181 30.06866652 136.36067448 30 140 C30.66 140 31.32 140 32 140 C34.32020024 144.64040048 33.18549971 150.00502709 31.6875 154.75 C30.53699672 157.89217642 29.40457244 160.59542756 27 163 C26.34 163 25.68 163 25 163 C24.76539063 163.63421875 24.53078125 164.2684375 24.2890625 164.921875 C23 167 23 167 20.8359375 167.828125 C19.61777344 168.03695312 19.61777344 168.03695312 18.375 168.25 C17.14910156 168.47429687 17.14910156 168.47429687 15.8984375 168.703125 C15.27195312 168.80109375 14.64546875 168.8990625 14 169 C14 169.66 14 170.32 14 171 C11.20826052 171.02785549 8.41681751 171.04723225 5.625 171.0625 C4.86960937 171.07087891 4.11421875 171.07925781 3.3359375 171.08789062 C-1.32129673 171.1066698 -5.93789862 170.95634684 -10.58561707 170.65019226 C-25.06255778 169.71213141 -39.56110263 169.75551318 -54.0625 169.75 C-55.12790071 169.74911629 -55.12790071 169.74911629 -56.21482468 169.74821472 C-83.01432166 169.73253955 -109.32774644 170.46877836 -135.71899414 175.72949219 C-141.25874828 176.82600762 -146.34851489 177.16521479 -152 177 C-152 177.66 -152 178.32 -152 179 C-158.435 179.99 -158.435 179.99 -165 181 C-165 181.66 -165 182.32 -165 183 C-172.28571429 186.42857143 -172.28571429 186.42857143 -177 186 C-177 186.66 -177 187.32 -177 188 C-183.68688919 190.85888741 -188.85234068 191.23852969 -196 190 C-196 189.34 -196 188.68 -196 188 C-197.051875 187.9175 -198.10375 187.835 -199.1875 187.75 C-203.31710817 186.93761807 -205.13344101 186.04028983 -208 183 C-208 181.68 -208 180.36 -208 179 C-208.66 179 -209.32 179 -210 179 C-210.33 177.68 -210.66 176.36 -211 175 C-211.66 175 -212.32 175 -213 175 C-216.36687542 166.79324116 -214.98606324 158.63989452 -213.5625 150.125 C-211.83883672 139.61807646 -210.84260943 129.27098597 -210.8671875 118.6171875 C-210.86575241 117.20761276 -210.86575241 117.20761276 -210.86428833 115.76956177 C-210.86361365 113.80161471 -210.86541767 111.83366533 -210.86962891 109.86572266 C-210.87499951 106.87527425 -210.86965328 103.88497516 -210.86328125 100.89453125 C-210.86394192 98.96874967 -210.86522286 97.04296819 -210.8671875 95.1171875 C-210.86516327 94.23570038 -210.86313904 93.35421326 -210.86105347 92.4460144 C-210.87934158 87.5450911 -211.16975257 82.81319536 -211.87747192 77.96096802 C-212.06138292 75.01761343 -211.16228353 72.66641515 -210 70 C-209.34 70 -208.68 70 -208 70 C-207.67 68.68 -207.34 67.36 -207 66 C-206.34 66 -205.68 66 -205 66 C-204.87625 65.38125 -204.7525 64.7625 -204.625 64.125 C-204 62 -204 62 -202 60 C-200.68 60 -199.36 60 -198 60 C-198 59.34 -198 58.68 -198 58 C-190.14877163 55.38292388 -182.09713336 57.39894861 -174.3125 59.375 C-155.14316322 63.9388229 -136.56314713 65.21399316 -116.9375 63.125 C-116.19395264 63.04668945 -115.45040527 62.96837891 -114.68432617 62.88769531 C-111.03937694 62.44413231 -108.20549179 61.76302048 -105 60 C-103.44817967 59.63817661 -101.88364334 59.32815225 -100.3125 59.0625 C-95.36352712 58.14329999 -90.72675922 56.71259392 -86 55 C-86 54.34 -86 53.68 -86 53 C-82.91190305 51.23537317 -81.76687864 51 -78 51 C-77.67 50.01 -77.34 49.02 -77 48 C-74.86554358 46.87985138 -72.6793429 46.09868142 -70.421875 45.2578125 C-67.31635344 43.64494485 -65.41154233 41.5339191 -63 39 C-61.9321938 37.98918345 -60.85626292 36.98689816 -59.7734375 35.9921875 C-59.2165625 35.48042969 -58.6596875 34.96867187 -58.0859375 34.44140625 C-57.23902344 33.66603516 -57.23902344 33.66603516 -56.375 32.875 C-55.23643853 31.83131865 -54.09840031 30.78706613 -52.9609375 29.7421875 C-52.46384277 29.2869873 -51.96674805 28.83178711 -51.45458984 28.36279297 C-50.41415104 27.38801462 -49.41277548 26.37087025 -48.43994141 25.32861328 C-47 24 -47 24 -45 24 C-44.67 22.68 -44.34 21.36 -44 20 C-42.02 19.505 -42.02 19.505 -40 19 C-39.93683594 18.26910156 -39.87367188 17.53820312 -39.80859375 16.78515625 C-38.74219561 13.11200712 -36.98966351 11.8523049 -34.0625 9.4375 C-30.43780547 6.54366966 -30.43780547 6.54366966 -27.91015625 2.76953125 C-27.60980469 2.18558594 -27.30945313 1.60164063 -27 1 C-23.375 0.25 -23.375 0.25 -20 0 C-20 -0.66 -20 -1.32 -20 -2 C-12.84016113 -4.38661296 -6.7429008 -2.94235671 0 0 Z " fill="#F9F9F9" transform="translate(311,97)"/>
<path d="M0 0 C3.4288488 0.6403675 6.86375845 1.23002281 10.30322266 1.81054688 C29.72429386 5.11589674 48.66410765 9.02935856 67.25244141 15.60742188 C68.68710868 16.07297056 70.12202106 16.53776434 71.55712891 17.00195312 C91.89558657 23.76714836 110.93888276 33.86708164 128.75244141 45.66992188 C129.73124268 46.31840088 130.71004395 46.96687988 131.71850586 47.63500977 C146.33074429 57.51162838 159.35349133 68.21244188 168.25244141 83.60742188 C168.88794922 84.64382812 169.52345703 85.68023437 170.17822266 86.74804688 C175.87881367 96.26748041 180.28980603 106.25038002 184.25244141 116.60742188 C184.51331543 117.28337402 184.77418945 117.95932617 185.04296875 118.65576172 C189.61060076 131.33308949 190.8017846 143.96280524 190.68994141 157.29492188 C190.6875647 158.04699921 190.68518799 158.79907654 190.68273926 159.57394409 C190.60964368 174.50135851 188.98351684 188.92009176 186.25244141 203.60742188 C186.09227539 204.51878906 185.93210937 205.43015625 185.76708984 206.36914062 C180.7767406 234.38290581 160.62777842 252.34940365 138.24755859 268.22460938 C108.34521261 288.94987708 72.81427574 299.79813564 37.56494141 307.23242188 C36.87930115 307.37908295 36.19366089 307.52574402 35.48724365 307.67684937 C14.59394184 312.11424586 -5.95345901 314.14271197 -27.31005859 313.98242188 C-28.39574127 313.97843384 -29.48142395 313.9744458 -30.6000061 313.97033691 C-48.14672524 313.89504499 -65.36419982 313.14729513 -82.74755859 310.60742188 C-84.28404053 310.39061768 -84.28404053 310.39061768 -85.8515625 310.16943359 C-126.47859883 304.27795876 -170.13528694 288.5355612 -197.74755859 256.60742188 C-202.17386638 250.61445575 -204.72286249 244.0941897 -207.18505859 237.10742188 C-207.57193848 236.0180835 -207.95881836 234.92874512 -208.35742188 233.80639648 C-212.24920764 222.57971828 -215.22492059 211.21155668 -217.74755859 199.60742188 C-218.01439453 198.4240625 -218.01439453 198.4240625 -218.28662109 197.21679688 C-226.9876166 157.71703952 -215.98629239 111.22318184 -195.74755859 76.60742188 C-193.29703924 73.05100214 -190.63413777 69.81594466 -187.74755859 66.60742188 C-186.64734375 65.34671875 -186.64734375 65.34671875 -185.52490234 64.06054688 C-183.30020633 61.54202308 -181.03673347 59.06737001 -178.74755859 56.60742188 C-178.13525391 55.94097656 -177.52294922 55.27453125 -176.89208984 54.58789062 C-146.64934256 22.92650701 -104.19150499 5.77675642 -61.74755859 -1.39257812 C-60.20237549 -1.66642334 -60.20237549 -1.66642334 -58.62597656 -1.94580078 C-38.9491224 -5.25028818 -19.48939918 -3.69495991 0 0 Z M-154.74755859 38.60742188 C-155.64603516 39.29578125 -156.54451172 39.98414063 -157.47021484 40.69335938 C-163.47673955 45.39088874 -169.17771607 50.40212004 -174.74755859 55.60742188 C-175.64603516 56.44015625 -176.54451172 57.27289063 -177.47021484 58.13085938 C-197.97623641 77.80048906 -207.48235393 103.41137651 -213.74755859 130.60742188 C-214.02470703 131.75210938 -214.30185547 132.89679688 -214.58740234 134.07617188 C-223.55642104 171.55863806 -218.2478303 218.37199438 -198.24755859 252.16992188 C-197.43950573 253.33372128 -196.60701661 254.48105143 -195.74755859 255.60742188 C-195.33248047 256.17203125 -194.91740234 256.73664063 -194.48974609 257.31835938 C-174.86764251 282.09827304 -138.51229757 296.74656276 -108.74755859 303.60742188 C-107.81685547 303.82285645 -106.88615234 304.03829102 -105.92724609 304.26025391 C-62.23517233 314.15650861 -13.61753898 316.5856203 30.25244141 306.60742188 C32.22215541 306.18167769 34.19187314 305.75595016 36.16177368 305.33106995 C50.00186375 302.32725842 63.78777481 299.01953618 77.25244141 294.60742188 C78.0160498 294.36056641 78.7796582 294.11371094 79.56640625 293.859375 C114.84503115 282.34614334 156.7701384 262.04124622 176.25244141 228.60742188 C190.60805136 200.17001468 193.87369511 158.06435512 185.25244141 127.60742188 C184.92501953 126.33382812 184.59759766 125.06023437 184.26025391 123.74804688 C179.76088161 107.65540143 172.20248064 91.07720287 162.25244141 77.60742188 C161.59115234 76.70378906 160.92986328 75.80015625 160.24853516 74.86914062 C146.20586873 56.70662215 124.43527191 44.03001845 104.25244141 33.60742188 C103.35605957 33.14094238 102.45967773 32.67446289 101.53613281 32.19384766 C86.2283605 24.31078807 70.83664694 18.22294913 54.25244141 13.60742188 C53.58188721 13.41850372 52.91133301 13.22958557 52.22045898 13.03494263 C40.34053921 9.70866448 28.40812967 7.121067 16.27148438 4.92211914 C13.48877685 4.41744365 10.70844895 3.90096553 7.92822266 3.3828125 C-48.51494709 -7.05241658 -108.48661502 2.63337213 -154.74755859 38.60742188 Z " fill="#242424" transform="translate(237.74755859375,33.392578125)"/>
<path d="M0 0 C15.86369164 6.89725724 31.21095996 17.381338 44 29 C45.30130859 30.17949219 45.30130859 30.17949219 46.62890625 31.3828125 C52.57306887 37.03463925 56.90776102 42.9205202 61 50 C61.63550781 51.03640625 62.27101563 52.0728125 62.92578125 53.140625 C68.62637226 62.66005853 73.03736463 72.64295815 77 83 C77.26087402 83.67595215 77.52174805 84.3519043 77.79052734 85.04833984 C82.35815935 97.72566761 83.5493432 110.35538337 83.4375 123.6875 C83.43512329 124.43957733 83.43274658 125.19165466 83.43029785 125.96652222 C83.35720227 140.89393663 81.73107544 155.31266988 79 170 C78.83983398 170.91136719 78.67966797 171.82273438 78.51464844 172.76171875 C73.52429919 200.77548394 53.37533702 218.74198178 30.99511719 234.6171875 C15.43195913 245.40398721 -1.80590308 253.40228485 -19.625 259.6875 C-20.615 260.0388501 -21.605 260.3902002 -22.625 260.75219727 C-23.54539062 261.06471436 -24.46578125 261.37723145 -25.4140625 261.69921875 C-26.2282666 261.97596436 -27.0424707 262.25270996 -27.88134766 262.5378418 C-30 263 -30 263 -33 262 C-27.59108811 259.51100109 -22.14450101 257.26093078 -16.55493164 255.2109375 C-6.31918261 251.45308766 3.41114623 247.18199651 13 242 C13.60924316 241.67531738 14.21848633 241.35063477 14.84619141 241.01611328 C38.28926658 228.44682104 64.14975386 208.99142919 73 183 C81.36770859 155.10763804 84.98610453 122.21309535 77 94 C76.50886719 92.08960938 76.50886719 92.08960938 76.0078125 90.140625 C71.50527937 74.03667439 63.93687863 57.49061427 54 44 C53.36191406 43.10796875 52.72382813 42.2159375 52.06640625 41.296875 C39.53290942 24.83084981 19.82086449 13.82850588 2.2109375 3.5234375 C1.48132813 3.02070312 0.75171875 2.51796875 0 2 C0 1.34 0 0.68 0 0 Z " fill="#1A1A1A" transform="translate(345,67)"/>
<path d="M0 0 C6.5125789 0.54705663 12.27540539 1.81387561 18.5 3.75 C65.81469663 17.72895814 120.75265761 20.99819044 169 10 C170.33776132 9.70683465 171.67582678 9.41505439 173.01416016 9.12451172 C190.10889369 5.40378667 190.10889369 5.40378667 206.90307617 0.53759766 C209 0 209 0 213 0 C213 0.66 213 1.32 213 2 C200.89843249 6.05863382 188.67175458 9.0945082 176.1875 11.6875 C175.16816376 11.90347336 175.16816376 11.90347336 174.12823486 12.12380981 C153.27324852 16.51679416 132.74714389 18.53493767 111.4375 18.375 C110.35181732 18.37101196 109.26613464 18.36702393 108.14755249 18.36291504 C90.60083335 18.28762311 73.38335877 17.53987325 56 15 C54.97567871 14.85546387 53.95135742 14.71092773 52.89599609 14.56201172 C34.92018197 11.9552733 16.86804224 7.86020857 0 1 C0 0.67 0 0.34 0 0 Z " fill="#272727" transform="translate(99,329)"/>
<path d="M0 0 C1.35569092 0.20326904 1.35569092 0.20326904 2.73876953 0.41064453 C11.26720943 1.76856814 19.69866862 3.56158638 28.125 5.4375 C29.3944043 5.717146 30.66380859 5.99679199 31.97167969 6.28491211 C40.96415702 8.34437807 49.54603194 11.04140276 58.25 14.0625 C59.84429988 14.57785369 61.43923196 15.09126143 63.03515625 15.6015625 C68.03562698 17.27033649 72.85278467 19.34375349 77.6875 21.4375 C78.56470703 21.81132813 79.44191406 22.18515625 80.34570312 22.5703125 C86.42738889 25.18763342 92.35870145 28.04201167 98.25 31.0625 C97.92 32.0525 97.59 33.0425 97.25 34.0625 C96.56301025 33.71058594 95.87602051 33.35867187 95.16821289 32.99609375 C78.88566198 24.72593445 62.86972876 18.06856668 45.25 13.0625 C43.76650693 12.61467072 42.28339603 12.16557223 40.80078125 11.71484375 C23.67421582 6.70291207 5.79901721 4.16413048 -11.75 1.0625 C-7.66638732 -1.65990845 -4.61575753 -0.71673254 0 0 Z " fill="#2C2C2C" transform="translate(246.75,34.9375)"/>
<path d="M0 0 C0.66 0 1.32 0 2 0 C2.27880005 0.83809204 2.27880005 0.83809204 2.56323242 1.69311523 C3.42886241 4.27773432 4.30809163 6.85753798 5.1875 9.4375 C5.47947266 10.31599609 5.77144531 11.19449219 6.07226562 12.09960938 C15.38869289 39.24747806 40.36691226 52.64525549 64.6953125 64.88232422 C67.75604275 66.3666487 70.85479396 67.70516653 74 69 C74 69.33 74 69.66 74 70 C67.75163287 69.52129445 63.03908784 67.40833843 57.5 64.5625 C56.62359863 64.11729004 55.74719727 63.67208008 54.84423828 63.21337891 C32.95629438 51.86865302 11.26492127 36.84843999 3.1875 12.6875 C2.87619141 11.79482422 2.56488281 10.90214844 2.24414062 9.98242188 C0 3.42755838 0 3.42755838 0 0 Z " fill="#1A1A1A" transform="translate(28,259)"/>
<path d="M0 0 C-1.38649166 4.15947499 -4.18648567 4.91566198 -7.875 6.8125 C-23.16781564 15.06584852 -36.60901824 25.88746727 -49 38 C-49.7940625 38.7321875 -50.588125 39.464375 -51.40625 40.21875 C-58.28064145 46.70585179 -63.57594693 54.30494154 -69 62 C-69.66 61.67 -70.32 61.34 -71 61 C-60.7276323 42.4247787 -23.45023267 0 0 0 Z " fill="#1C1C1C" transform="translate(111,53)"/>
<path d="M0 0 C0.33 0 0.66 0 1 0 C1.66 6.27 2.32 12.54 3 19 C4.98 18.67 6.96 18.34 9 18 C9 18.33 9 18.66 9 19 C10.79158489 19.02696365 12.58328473 19.04637917 14.375 19.0625 C15.87160156 19.07990234 15.87160156 19.07990234 17.3984375 19.09765625 C19.98432453 19.18006602 19.98432453 19.18006602 22 18 C24.01927511 18.60578253 26.02253397 19.26919734 28 20 C25.08235 21.9451 23.37462715 22.45276317 20 23 C20 22.67 20 22.34 20 22 C18.20841511 21.97303635 16.41671527 21.95362083 14.625 21.9375 C13.12839844 21.92009766 13.12839844 21.92009766 11.6015625 21.90234375 C9.01567547 21.81993398 9.01567547 21.81993398 7 23 C4.375 22.0625 4.375 22.0625 2 21 C1.98541748 21.66717041 1.97083496 22.33434082 1.95581055 23.02172852 C1.59201666 38.06582682 0.46581284 52.73697972 -1.66992188 67.62841797 C-2.73699281 75.2952279 -3.32302425 82.3558599 -2 90 C-5.00888213 86.99111787 -5.14425192 84.00163638 -5.15234375 79.8671875 C-5.09405157 74.86633195 -4.38581918 70.0495975 -3.5625 65.125 C-1.8238807 54.52690914 -0.88176544 44.03996721 -0.68359375 33.30078125 C-0.66281265 32.3397197 -0.64203156 31.37865814 -0.62062073 30.38847351 C-0.55601347 27.36321114 -0.49666006 24.33787328 -0.4375 21.3125 C-0.39422997 19.2428312 -0.35061321 17.17316962 -0.30664062 15.10351562 C-0.20042531 10.06908483 -0.09891681 5.03457927 0 0 Z " fill="#A2A2A2" transform="translate(101,182)"/>
<path d="M0 0 C0.33 0 0.66 0 1 0 C1.02187378 1.1152002 1.02187378 1.1152002 1.04418945 2.25292969 C1.53889765 24.94307933 3.62171835 45.28241506 10.49682617 66.93554688 C11 69 11 69 11 73 C10.34 73 9.68 73 9 73 C4.99808766 60.48582331 2.22116678 47.94464656 0 35 C-0.17869629 34.03747314 -0.35739258 33.07494629 -0.54150391 32.08325195 C-0.99478052 29.0350995 -1.12930577 26.16534551 -1.1328125 23.0859375 C-1.13474609 21.45011719 -1.13474609 21.45011719 -1.13671875 19.78125 C-1.13285156 18.6571875 -1.12898438 17.533125 -1.125 16.375 C-1.12886719 15.24320313 -1.13273437 14.11140625 -1.13671875 12.9453125 C-1.13542969 11.85734375 -1.13414063 10.769375 -1.1328125 9.6484375 C-1.13168457 8.66020996 -1.13055664 7.67198242 -1.12939453 6.65380859 C-1.01347858 4.27643796 -0.67833736 2.27212701 0 0 Z " fill="#1C1C1C" transform="translate(18,186)"/>
<path d="M0 0 C1.32 0.33 2.64 0.66 4 1 C3.01 1 2.02 1 1 1 C1.185625 2.093125 1.37125 3.18625 1.5625 4.3125 C2.24688222 9.60695693 1.63030726 14.72481308 1 20 C1.66 20.33 2.32 20.66 3 21 C2.34 23.31 1.68 25.62 1 28 C9.91 28 18.82 28 28 28 C28 28.33 28 28.66 28 29 C-10.115 29.495 -10.115 29.495 -49 30 C-49 29.67 -49 29.34 -49 29 C-38.96055605 27.84644765 -28.90446767 27.67426454 -18.8125 27.4375 C-17.08006986 27.39420951 -15.34764786 27.35059226 -13.61523438 27.30664062 C-9.41024049 27.20066129 -5.20516143 27.09909867 -1 27 C-1.495 23.535 -1.495 23.535 -2 20 C-1.67 20 -1.34 20 -1 20 C-0.97294271 18.22925083 -0.95357805 16.45838289 -0.9375 14.6875 C-0.92589844 13.70136719 -0.91429687 12.71523437 -0.90234375 11.69921875 C-0.87670138 8.90036151 -0.87670138 8.90036151 -2 6 C-1.0625 2.8125 -1.0625 2.8125 0 0 Z " fill="#9B9B9B" transform="translate(259,237)"/>
<path d="M0 0 C2.625 0.25 2.625 0.25 4.4375 1.25 C6.34636107 4.46492391 6.24708318 7.6730217 5.625 11.25 C3.60997111 15.00212276 2.17033858 16.88644095 -1.375 19.25 C-4.33576291 18.89111965 -5.22158021 18.40341979 -7.375 16.25 C-7.875 13.9375 -7.875 13.9375 -7.375 11.25 C-4.625 8.375 -4.625 8.375 -1.375 6.25 C1 6.4375 1 6.4375 2.625 7.25 C2.295 5.6 1.965 3.95 1.625 2.25 C0.635 2.25 -0.355 2.25 -1.375 2.25 C-1.705 3.24 -2.035 4.23 -2.375 5.25 C-3.035 5.25 -3.695 5.25 -4.375 5.25 C-3.26717391 0.34391304 -3.26717391 0.34391304 0 0 Z " fill="#EEEEEE" transform="translate(385.375,66.75)"/>
<path d="M0 0 C0.66 0 1.32 0 2 0 C23.76106997 37.32380238 23.76106997 37.32380238 22.6875 49.5625 C22.460625 50.366875 22.23375 51.17125 22 52 C20.06362714 48.53174106 19.12188891 45.00529777 18.0625 41.1875 C15.86808348 33.75630742 12.78710726 26.85284069 9.4375 19.875 C8.96642822 18.89168701 8.49535645 17.90837402 8.01000977 16.89526367 C6.08039602 12.94886607 4.18117943 9.11244309 1.66015625 5.5078125 C0 3 0 3 0 0 Z " fill="#1A1A1A" transform="translate(402,113)"/>
<path d="M0 0 C0 0.66 0 1.32 0 2 C-31.26640166 11.65394065 -31.26640166 11.65394065 -39 10 C-35.64126386 8.1219584 -32.31982144 7.21860964 -28.58984375 6.30859375 C-27.35298828 6.00373047 -26.11613281 5.69886719 -24.84179688 5.38476562 C-23.54041832 5.06878901 -22.23898542 4.75303615 -20.9375 4.4375 C-18.38365399 3.81305756 -15.83049109 3.18589286 -13.27734375 2.55859375 C-12.14546631 2.28329834 -11.01358887 2.00800293 -9.84741211 1.72436523 C-3.06909336 0 -3.06909336 0 0 0 Z " fill="#2D2D2D" transform="translate(312,329)"/>
<path d="M0 0 C0.28875 0.598125 0.5775 1.19625 0.875 1.8125 C2.04742026 4.19327792 2.04742026 4.19327792 4 7 C4.4516129 13.32258065 4.4516129 13.32258065 2 17 C-0.5625 17.25 -0.5625 17.25 -3 17 C-4 16 -4 16 -4.3125 13.25 C-3.93206749 9.29350193 -2.458592 8.01375794 0 5 C-0.21717352 2.79199472 -0.21717352 2.79199472 -1 1 C-0.67 0.67 -0.34 0.34 0 0 Z " fill="#8E8E8E" transform="translate(270,243)"/>
<path d="M0 0 C0.28875 0.598125 0.5775 1.19625 0.875 1.8125 C2.04742026 4.19327792 2.04742026 4.19327792 4 7 C4.4516129 13.32258065 4.4516129 13.32258065 2 17 C-0.5625 17.25 -0.5625 17.25 -3 17 C-4 16 -4 16 -4.3125 13.25 C-3.93206749 9.29350193 -2.458592 8.01375794 0 5 C-0.21717352 2.79199472 -0.21717352 2.79199472 -1 1 C-0.67 0.67 -0.34 0.34 0 0 Z " fill="#8E8E8E" transform="translate(117,181)"/>
<path d="M0 0 C6.83832681 0.56348369 13.00420241 1.95718856 19.5625 3.9375 C21.35510144 4.46868904 23.14806555 4.99865589 24.94140625 5.52734375 C25.79105957 5.7785498 26.64071289 6.02975586 27.51611328 6.28857422 C30.99063436 7.28373388 34.48701026 8.15147156 38 9 C37.34 9.66 36.68 10.32 36 11 C24.09417446 10.60545997 11.03110373 5.24654162 0 1 C0 0.67 0 0.34 0 0 Z " fill="#333333" transform="translate(99,329)"/>
<path d="M0 0 C6.29279768 0.50376535 11.25581334 2.64854339 16.9375 5.3125 C17.79279297 5.70373047 18.64808594 6.09496094 19.52929688 6.49804688 C24.7403579 8.89489646 29.88301599 11.40889686 35 14 C34.67 14.99 34.34 15.98 34 17 C33.21874756 16.62190186 32.43749512 16.24380371 31.63256836 15.85424805 C28.70526875 14.43845689 25.77729666 13.02406841 22.84887695 11.6105957 C21.58689121 11.00112219 20.32516697 10.39110688 19.0637207 9.78051758 C17.23979798 8.89778806 15.41491157 8.01707787 13.58984375 7.13671875 C12.49534912 6.60780029 11.40085449 6.07888184 10.27319336 5.53393555 C6.87714887 3.94242757 3.45474013 2.45875303 0 1 C0 0.67 0 0.34 0 0 Z " fill="#2C2C2C" transform="translate(310,52)"/>
<path d="M0 0 C-2.14898669 2.14898669 -3.34905761 2.61156414 -6.18359375 3.55078125 C-7.02422363 3.83493896 -7.86485352 4.11909668 -8.73095703 4.41186523 C-9.62411621 4.70907471 -10.51727539 5.00628418 -11.4375 5.3125 C-18.18818994 7.60547111 -24.69590085 10.01013433 -31.1015625 13.15234375 C-33 14 -33 14 -35 14 C-35.33 14.99 -35.66 15.98 -36 17 C-36 15.35 -36 13.7 -36 12 C-7.46594548 -0.32111593 -7.46594548 -0.32111593 0 0 Z " fill="#1D1D1D" transform="translate(147,40)"/>
<path d="M0 0 C0 0.33 0 0.66 0 1 C-1.26972656 1.25394531 -2.53945312 1.50789063 -3.84765625 1.76953125 C-4.67410645 1.93501465 -5.50055664 2.10049805 -6.35205078 2.27099609 C-8.16653019 2.63349973 -9.98131253 2.99449019 -11.79638672 3.35400391 C-16.07173042 4.20272425 -20.34120437 5.06460971 -24.59765625 6.00390625 C-25.2827124 6.15174561 -25.96776855 6.29958496 -26.67358398 6.4519043 C-28.52623626 6.85358657 -30.37648047 7.26632861 -32.2265625 7.6796875 C-33.59941406 7.83824219 -33.59941406 7.83824219 -35 8 C-35.66 7.34 -36.32 6.68 -37 6 C-32.95916652 5.01737335 -28.9171942 4.03951265 -24.875 3.0625 C-23.73289063 2.78470703 -22.59078125 2.50691406 -21.4140625 2.22070312 C-20.30546875 1.95322266 -19.196875 1.68574219 -18.0546875 1.41015625 C-16.53077393 1.04096069 -16.53077393 1.04096069 -14.97607422 0.66430664 C-9.58750817 -0.53850617 -5.45267232 -1.16842978 0 0 Z " fill="#242424" transform="translate(182,33)"/>
<path d="M0 0 C4.29 0 8.58 0 13 0 C12.67 0.99 12.34 1.98 12 3 C9.69 2.34 7.38 1.68 5 1 C5 5.95 5 10.9 5 16 C5.99 16.33 6.98 16.66 8 17 C5.36 17 2.72 17 0 17 C0.66 16.67 1.32 16.34 2 16 C2 11.05 2 6.1 2 1 C1.34 0.67 0.68 0.34 0 0 Z " fill="#373737" transform="translate(187,130)"/>
<path d="M0 0 C0.66 0.66 1.32 1.32 2 2 C1.54128965 8.40738269 0.16676256 14.70165828 -1.0625 21 C-1.24876953 21.96550781 -1.43503906 22.93101562 -1.62695312 23.92578125 C-2.08231343 26.28431409 -2.54004287 28.64236011 -3 31 C-5.97971097 26.53043354 -4.86978206 23.16395084 -4 18 C-2.78570985 11.97347402 -1.40176455 5.98520865 0 0 Z " fill="#2C2C2C" transform="translate(23,158)"/>
<path d="M0 0 C0.33 0 0.66 0 1 0 C1.25523438 1.27230469 1.25523438 1.27230469 1.515625 2.5703125 C3.09256907 10.20339283 4.95315258 17.58447699 7.23046875 25.0390625 C8 28 8 28 8 32 C7.34 32 6.68 32 6 32 C-1.94096672 6.14639461 -1.94096672 6.14639461 0 0 Z " fill="#282828" transform="translate(21,227)"/>
<path d="M0 0 C2.625 0.25 2.625 0.25 4.4375 1.25 C6.34636107 4.46492391 6.24708318 7.6730217 5.625 11.25 C3.60997111 15.00212276 2.17033858 16.88644095 -1.375 19.25 C-3.5625 18.875 -3.5625 18.875 -5.375 18.25 C-5.375 17.92 -5.375 17.59 -5.375 17.25 C-4.42625 17.04375 -3.4775 16.8375 -2.5 16.625 C0.83956308 15.55257146 0.83956308 15.55257146 2 12.5 C2.61165713 9.31938294 2.77878444 6.47947324 2.625 3.25 C1.305 2.92 -0.015 2.59 -1.375 2.25 C-1.705 3.24 -2.035 4.23 -2.375 5.25 C-3.035 5.25 -3.695 5.25 -4.375 5.25 C-3.26717391 0.34391304 -3.26717391 0.34391304 0 0 Z " fill="#474747" transform="translate(385.375,66.75)"/>
<path d="M0 0 C1.32 0.33 2.64 0.66 4 1 C3.01 1 2.02 1 1 1 C1.185625 2.093125 1.37125 3.18625 1.5625 4.3125 C2.24688222 9.60695693 1.63030726 14.72481308 1 20 C1.66 20.33 2.32 20.66 3 21 C2.34 23.31 1.68 25.62 1 28 C-1.5654594 25.4345406 -1.54046087 23.52313332 -2 20 C-1.67 20 -1.34 20 -1 20 C-0.97294271 18.22925083 -0.95357805 16.45838289 -0.9375 14.6875 C-0.92009766 13.20830078 -0.92009766 13.20830078 -0.90234375 11.69921875 C-0.87670138 8.90036151 -0.87670138 8.90036151 -2 6 C-1.0625 2.8125 -1.0625 2.8125 0 0 Z " fill="#7E7E7E" transform="translate(259,237)"/>
<path d="M0 0 C1.83128771 0.09608608 3.66619959 0.12982579 5.5 0.125 C6.4796875 0.12757813 7.459375 0.13015625 8.46875 0.1328125 C10.99431054 0.16940053 10.99431054 0.16940053 13 -1 C15.01927511 -0.39421747 17.02253397 0.26919734 19 1 C16.08235 2.9451 14.37462715 3.45276317 11 4 C11 3.67 11 3.34 11 3 C9.20841511 2.97303635 7.41671527 2.95362083 5.625 2.9375 C4.12839844 2.92009766 4.12839844 2.92009766 2.6015625 2.90234375 C0.01567547 2.81993398 0.01567547 2.81993398 -2 4 C-4.01927511 3.39421747 -6.02253397 2.73080266 -8 2 C-5.44123378 -0.55876622 -3.37797483 -1.68898741 0 0 Z " fill="#7F7F7F" transform="translate(110,201)"/>
<path d="M0 0 C4.73501279 1.43881604 7.68060553 4.22903433 11.0625 7.6875 C11.57876953 8.19216797 12.09503906 8.69683594 12.62695312 9.21679688 C16.21551452 12.83278677 18.63396747 16.48921856 21 21 C20.34 21.33 19.68 21.66 19 22 C18.07380859 20.7315625 18.07380859 20.7315625 17.12890625 19.4375 C12.41433074 13.08771416 7.76300733 7.45188839 1.6171875 2.390625 C1.08351563 1.93171875 0.54984375 1.4728125 0 1 C0 0.67 0 0.34 0 0 Z " fill="#151515" transform="translate(382,92)"/>
<path d="M0 0 C0.66 0 1.32 0 2 0 C3.14619813 3.27070561 4.29189558 6.54158639 5.4375 9.8125 C5.76298828 10.74126953 6.08847656 11.67003906 6.42382812 12.62695312 C6.73642578 13.51962891 7.04902344 14.41230469 7.37109375 15.33203125 C7.65911865 16.15421143 7.94714355 16.9763916 8.24389648 17.82348633 C8.84182499 19.54467864 9.42380372 21.27141117 10 23 C9.34 23.66 8.68 24.32 8 25 C6.8452141 21.96165799 5.70280979 18.91880147 4.5625 15.875 C4.23701172 15.0190625 3.91152344 14.163125 3.57617188 13.28125 C1.92672186 8.86004378 0.54932623 4.71956339 0 0 Z " fill="#202020" transform="translate(28,259)"/>
<path d="M0 0 C4.34957591 7.54038449 -0.05441584 18.0830632 -2 26 C-4.3873176 22.4190236 -4.0859026 21.75142264 -3.3203125 17.67578125 C-3.13339844 16.64775391 -2.94648438 15.61972656 -2.75390625 14.56054688 C-2.54636719 13.48869141 -2.33882813 12.41683594 -2.125 11.3125 C-1.92519531 10.22904297 -1.72539062 9.14558594 -1.51953125 8.02929688 C-1.02391879 5.35062956 -0.51701226 2.67460504 0 0 Z " fill="#303030" transform="translate(422,229)"/>
<path d="M0 0 C0.66 0 1.32 0 2 0 C3.70400669 2.92821855 5.38524739 5.868888 7.0625 8.8125 C7.54783203 9.64587891 8.03316406 10.47925781 8.53320312 11.33789062 C8.98759766 12.14033203 9.44199219 12.94277344 9.91015625 13.76953125 C10.33433838 14.50792236 10.75852051 15.24631348 11.19555664 16.00708008 C12 18 12 18 11 21 C8.23904059 17.5248492 6.01772146 13.77769577 3.8125 9.9375 C3.44447266 9.31294922 3.07644531 8.68839844 2.69726562 8.04492188 C0 3.3559833 0 3.3559833 0 0 Z " fill="#222222" transform="translate(402,113)"/>
<path d="M0 0 C3.875 1.875 3.875 1.875 5 3 C4.61577388 7.07279689 4.12055529 10.46574118 2 14 C2.99 14 3.98 14 5 14 C5 14.99 5 15.98 5 17 C3.35 17 1.7 17 0 17 C0.2475 15.515 0.2475 15.515 0.5 14 C1.59654818 6.82160816 1.59654818 6.82160816 0 0 Z " fill="#2D2D2D" transform="translate(403,68)"/>
<path d="M0 0 C0.66 0.33 1.32 0.66 2 1 C1.67 1.33 1.34 1.66 1 2 C0.82234583 7.15197086 1.15365512 11.92193071 2 17 C0.35 17 -1.3 17 -3 17 C-2.505 15.515 -2.505 15.515 -2 14 C-1.34 14 -0.68 14 0 14 C-0.495 13.113125 -0.99 12.22625 -1.5 11.3125 C-2.95899023 8.09056323 -3.55950762 6.450297 -3 3 C-1.5 1.1875 -1.5 1.1875 0 0 Z " fill="#2E2E2E" transform="translate(396,68)"/>
<path d="M0 0 C3.875 1.875 3.875 1.875 5 3 C4.61577388 7.07279689 4.12055529 10.46574118 2 14 C2.99 14 3.98 14 5 14 C5 14.99 5 15.98 5 17 C3.35 17 1.7 17 0 17 C0.2475 15.515 0.2475 15.515 0.5 14 C1.59654818 6.82160816 1.59654818 6.82160816 0 0 Z " fill="#2D2D2D" transform="translate(216,6)"/>
<path d="M0 0 C0.66 0.33 1.32 0.66 2 1 C1.67 1.33 1.34 1.66 1 2 C0.82234583 7.15197086 1.15365512 11.92193071 2 17 C0.35 17 -1.3 17 -3 17 C-2.505 15.515 -2.505 15.515 -2 14 C-1.34 14 -0.68 14 0 14 C-0.495 13.113125 -0.99 12.22625 -1.5 11.3125 C-2.95899023 8.09056323 -3.55950762 6.450297 -3 3 C-1.5 1.1875 -1.5 1.1875 0 0 Z " fill="#2E2E2E" transform="translate(209,6)"/>
<path d="M0 0 C0.66 0.33 1.32 0.66 2 1 C1.34 1.66 0.68 2.32 0 3 C-0.37926898 7.26677606 0.31934532 10.11348605 2 14 C2 14.99 2 15.98 2 17 C0.35 17 -1.3 17 -3 17 C-3.33 15.68 -3.66 14.36 -4 13 C-3.67 13.66 -3.34 14.32 -3 15 C-2.01 15 -1.02 15 0 15 C-0.495 14.13375 -0.99 13.2675 -1.5 12.375 C-3.07381214 8.8339227 -3.50885714 6.81642852 -3 3 C-1.5 1.125 -1.5 1.125 0 0 Z " fill="#171717" transform="translate(142,237)"/>
<path d="M0 0 C6.9064141 3.34961084 13.57269512 6.79753142 20 11 C19.34 11.66 18.68 12.32 18 13 C14.99288171 11.22007744 11.99563094 9.42417774 9 7.625 C8.14148438 7.11710937 7.28296875 6.60921875 6.3984375 6.0859375 C5.58632813 5.59609375 4.77421875 5.10625 3.9375 4.6015625 C3.18339844 4.15119629 2.42929687 3.70083008 1.65234375 3.23681641 C1.10707031 2.82866699 0.56179688 2.42051758 0 2 C0 1.34 0 0.68 0 0 Z " fill="#191919" transform="translate(345,67)"/>
<path d="M0 0 C1.9375 0.375 1.9375 0.375 4 1 C5.16343227 3.32686453 5.19895988 4.84721413 5.25 7.4375 C5.27578125 8.21996094 5.3015625 9.00242188 5.328125 9.80859375 C4.92823089 12.47931509 4.05300878 13.31977439 2 15 C2.99 15 3.98 15 5 15 C5 15.66 5 16.32 5 17 C3.35 17 1.7 17 0 17 C0.144375 16.360625 0.28875 15.72125 0.4375 15.0625 C0.90803978 12.5006723 1.33396992 9.95492788 1.6875 7.375 C1.79449219 6.61960938 1.90148437 5.86421875 2.01171875 5.0859375 C2.1894721 2.68835632 2.1894721 2.68835632 0 0 Z " fill="#2D2D2D" transform="translate(148,237)"/>
<path d="M0 0 C0 0.66 0 1.32 0 2 C-2.24805002 2.67321284 -4.49852224 3.33834123 -6.75 4 C-8.00296875 4.37125 -9.2559375 4.7425 -10.546875 5.125 C-14 6 -14 6 -18 6 C-18 5.34 -18 4.68 -18 4 C-15.75194998 3.32678716 -13.50147776 2.66165877 -11.25 2 C-9.99703125 1.62875 -8.7440625 1.2575 -7.453125 0.875 C-4 0 -4 0 0 0 Z " fill="#2D2D2D" transform="translate(312,329)"/>
<path d="M0 0 C1.9375 0.375 1.9375 0.375 4 1 C5.41564834 3.83129669 5.24224495 5.85081562 5 9 C3.5 12.375 3.5 12.375 2 15 C2.99 15 3.98 15 5 15 C5 15.66 5 16.32 5 17 C3.35 17 1.7 17 0 17 C0.875 11.25 0.875 11.25 2 9 C2.25860135 4.94857881 2.30441554 3.45662331 0 0 Z " fill="#2D2D2D" transform="translate(215,204)"/>
<path d="M0 0 C0.66 0.33 1.32 0.66 2 1 C1.34 1.66 0.68 2.32 0 3 C-0.37926898 7.26677606 0.31934532 10.11348605 2 14 C2 14.99 2 15.98 2 17 C0.35 17 -1.3 17 -3 17 C-3 16.34 -3 15.68 -3 15 C-2.01 15 -1.02 15 0 15 C-0.495 14.13375 -0.99 13.2675 -1.5 12.375 C-3.07381214 8.8339227 -3.50885714 6.81642852 -3 3 C-1.5 1.125 -1.5 1.125 0 0 Z " fill="#2E2E2E" transform="translate(209,204)"/>
<path d="M0 0 C0.66 0.33 1.32 0.66 2 1 C0.2519799 2.6063702 -1.49831644 4.21013297 -3.25 5.8125 C-3.74113281 6.26431641 -4.23226563 6.71613281 -4.73828125 7.18164062 C-12.20363823 14 -12.20363823 14 -15 14 C-13.7622343 10.2867029 -12.25608211 9.37219818 -9.1875 7 C-8.31480469 6.319375 -7.44210937 5.63875 -6.54296875 4.9375 C-4.36939364 3.28144278 -2.19032984 1.63381247 0 0 Z " fill="#171717" transform="translate(394,284)"/>
<path d="M0 0 C6.9113364 0.47122748 12.72204161 3.20636006 19 6 C19 6.66 19 7.32 19 8 C14.87457432 7.3098442 11.1548707 6.05112152 7.25 4.5625 C6.10015625 4.13066406 4.9503125 3.69882812 3.765625 3.25390625 C1 2 1 2 0 0 Z " fill="#1E1E1E" transform="translate(310,52)"/>
<path d="M0 0 C6.30367803 0.58367389 11.98660063 2.04071619 18 4 C16.453125 5.1484375 16.453125 5.1484375 14 6 C11.43134571 5.33168497 9.19008007 4.60698344 6.75 3.625 C6.1003125 3.3775 5.450625 3.13 4.78125 2.875 C3.18222963 2.26360986 1.59035444 1.63359041 0 1 C0 0.67 0 0.34 0 0 Z " fill="#282828" transform="translate(294,47)"/>
<path d="M0 0 C-3.15023914 1.76174511 -6.08447018 2.58197551 -9.625 3.25 C-11.06746094 3.53617188 -11.06746094 3.53617188 -12.5390625 3.828125 C-13.75722656 3.91320313 -13.75722656 3.91320313 -15 4 C-15.66 3.34 -16.32 2.68 -17 2 C-5.47835991 -1.62870159 -5.47835991 -1.62870159 0 0 Z " fill="#2B2B2B" transform="translate(162,37)"/>
<path d="M0 0 C0.66 0 1.32 0 2 0 C0.52041491 3.9115468 -1.53957471 5.2274524 -5.125 7.25 C-6.49011719 8.03117187 -6.49011719 8.03117187 -7.8828125 8.828125 C-8.58148438 9.21484375 -9.28015625 9.6015625 -10 10 C-10.66 9.34 -11.32 8.68 -12 8 C-11.21753906 7.50628906 -10.43507813 7.01257813 -9.62890625 6.50390625 C-8.61699219 5.86324219 -7.60507812 5.22257812 -6.5625 4.5625 C-5.55316406 3.92441406 -4.54382813 3.28632813 -3.50390625 2.62890625 C-1.15446165 1.22350458 -1.15446165 1.22350458 0 0 Z " fill="#232323" transform="translate(377,297)"/>
<path d="M0 0 C0.33 1.32 0.66 2.64 1 4 C5.29 3.34 9.58 2.68 14 2 C8.59731796 6.05201153 3.51350015 6.49189002 -3.125 5.5625 C-3.74375 5.376875 -4.3625 5.19125 -5 5 C-5 4.67 -5 4.34 -5 4 C-3.35 4 -1.7 4 0 4 C0 2.68 0 1.36 0 0 Z " fill="#9D9D9D" transform="translate(120,282)"/>
<path d="M0 0 C-1.40844718 3.21524305 -3.10344786 5.32183868 -5.625 7.75 C-6.57246094 8.67039062 -6.57246094 8.67039062 -7.5390625 9.609375 C-8.02117187 10.06828125 -8.50328125 10.5271875 -9 11 C-9.66 10.34 -10.32 9.68 -11 9 C-9.54782324 7.49403892 -8.08807139 5.99537896 -6.625 4.5 C-5.40683594 3.24703125 -5.40683594 3.24703125 -4.1640625 1.96875 C-2 0 -2 0 0 0 Z " fill="#242424" transform="translate(406,274)"/>
<path d="M0 0 C0.68620031 1.32338632 1.34786461 2.65949948 2 4 C2.391875 4.78375 2.78375 5.5675 3.1875 6.375 C4.18282829 9.59067601 3.75410503 11.75734838 3 15 C0.85181036 11.3173892 -0.40314548 7.21258191 -1 3 C-0.67 2.01 -0.34 1.02 0 0 Z " fill="#424242" transform="translate(421,150)"/>
<path d="M0 0 C1.07894531 0.30164062 2.15789062 0.60328125 3.26953125 0.9140625 C4.35621094 1.21054687 5.44289063 1.50703125 6.5625 1.8125 C7.39394531 2.05226562 8.22539062 2.29203125 9.08203125 2.5390625 C6.4977238 4.24962791 5.39881586 4.59127002 2.28515625 4.078125 C1.310625 3.77648438 0.33609375 3.47484375 -0.66796875 3.1640625 C-1.6528125 2.86757813 -2.63765625 2.57109375 -3.65234375 2.265625 C-4.4 2.02585938 -5.14765625 1.78609375 -5.91796875 1.5390625 C-2.91796875 -0.4609375 -2.91796875 -0.4609375 0 0 Z " fill="#393939" transform="translate(286.91796875,43.4609375)"/>
<path d="M0 0 C0.33 0 0.66 0 1 0 C0.40546697 9.59453303 0.40546697 9.59453303 -3 13 C-2.88490339 11.58249437 -2.75746342 10.16598831 -2.625 8.75 C-2.55539063 7.96109375 -2.48578125 7.1721875 -2.4140625 6.359375 C-1.98492887 3.914123 -1.21399362 2.15163097 0 0 Z " fill="#272727" transform="translate(27,147)"/>
<path d="M0 0 C5.21979128 -0.1799928 9.07262981 0.02905192 14 2 C14 2.33 14 2.66 14 3 C8.78020872 3.1799928 4.92737019 2.97094808 0 1 C0 0.67 0 0.34 0 0 Z " fill="#272727" transform="translate(270,41)"/>
<path d="M0 0 C-1.3809002 3.33717549 -2.8201238 5.22301036 -6 7 C-8.1328125 6.57421875 -8.1328125 6.57421875 -10 6 C-8.71283353 4.99421411 -7.42011342 3.99553202 -6.125 3 C-5.40570313 2.443125 -4.68640625 1.88625 -3.9453125 1.3125 C-2 0 -2 0 0 0 Z " fill="#212121" transform="translate(88,67)"/>
<path d="M0 0 C4.24822374 0.47202486 6.19989709 2.96655518 9 6 C4.9666466 6 3.16482462 4.39120082 0 2 C0 1.34 0 0.68 0 0 Z " fill="#262626" transform="translate(374,86)"/>
<path d="M0 0 C-3.48152976 2.32101984 -5.86169011 2.69903201 -10 3 C-10.66 2.34 -11.32 1.68 -12 1 C-8.0186217 -0.3271261 -4.14954773 -0.06915913 0 0 Z " fill="#222222" transform="translate(276,339)"/>
<path d="M0 0 C1.34173403 0.92543709 2.67320159 1.86577405 4 2.8125 C5.11375 3.59560547 5.11375 3.59560547 6.25 4.39453125 C6.8275 4.92433594 7.405 5.45414062 8 6 C8 6.99 8 7.98 8 9 C6.84775972 8.07038578 5.70340824 7.1309875 4.5625 6.1875 C3.60537109 5.40439453 3.60537109 5.40439453 2.62890625 4.60546875 C1 3 1 3 0 0 Z " fill="#131313" transform="translate(44,292)"/>
<path d="M0 0 C0.66 0.66 1.32 1.32 2 2 C1.96712417 4.72869407 1.43602229 7.2966618 1 10 C0.34 10 -0.32 10 -1 10 C-0.67 6.7 -0.34 3.4 0 0 Z " fill="#393939" transform="translate(23,158)"/>
<path d="M0 0 C0.66 0.33 1.32 0.66 2 1 C1.2884375 1.8353125 1.2884375 1.8353125 0.5625 2.6875 C-1.12395996 5.18346074 -1.58953107 7.0446237 -2 10 C-2.66 9.67 -3.32 9.34 -4 9 C-4.25 6.75 -4.25 6.75 -4 4 C-2 1.6875 -2 1.6875 0 0 Z " fill="#2E2E2E" transform="translate(382,74)"/>
<path d="M0 0 C2 3 2 3 2 6 C0.35 6 -1.3 6 -3 6 C-3.33 4.68 -3.66 3.36 -4 2 C-3.67 2.66 -3.34 3.32 -3 4 C-2.01 4 -1.02 4 0 4 C-0.33 3.01 -0.66 2.02 -1 1 C-0.67 0.67 -0.34 0.34 0 0 Z " fill="#4E4E4E" transform="translate(142,248)"/>
<path d="M0 0 C-3.35327639 2.23551759 -3.90743657 2.17283528 -7.6875 1.625 C-8.49574219 1.51414063 -9.30398437 1.40328125 -10.13671875 1.2890625 C-10.75160156 1.19367187 -11.36648437 1.09828125 -12 1 C-7.61991557 -1.58464442 -4.88874887 -0.81479148 0 0 Z " fill="#3D3D3D" transform="translate(264,38)"/>
<path d="M0 0 C-2.75924185 1.80411967 -3.88972103 2.0127245 -7.25 1.625 C-8.1575 1.41875 -9.065 1.2125 -10 1 C-6.42181037 -1.33958553 -4.07775191 -0.9267618 0 0 Z " fill="#454545" transform="translate(296,335)"/>
<path d="M0 0 C0.99 0.495 0.99 0.495 2 1 C2.40729228 3.32156597 2.74438677 5.6568787 3 8 C2.34 8 1.68 8 1 8 C-0.35439668 5.29120665 -0.06501451 2.99066732 0 0 Z " fill="#2E2E2E" transform="translate(26,251)"/>
<path d="M0 0 C4.455 1.98 4.455 1.98 9 4 C8.01 4.66 7.02 5.32 6 6 C3.96166576 4.7260411 1.96147874 3.38938077 0 2 C0 1.34 0 0.68 0 0 Z " fill="#202020" transform="translate(345,67)"/>
<path d="M0 0 C-0.33 0.99 -0.66 1.98 -1 3 C-2.33333333 3.33333333 -3.66666667 3.66666667 -5 4 C-5.33 4.99 -5.66 5.98 -6 7 C-6 5.35 -6 3.7 -6 2 C-2.25 0 -2.25 0 0 0 Z " fill="#333333" transform="translate(117,50)"/>
<path d="M0 0 C-2.75924185 1.80411967 -3.88972103 2.0127245 -7.25 1.625 C-8.1575 1.41875 -9.065 1.2125 -10 1 C-6.42181037 -1.33958553 -4.07775191 -0.9267618 0 0 Z " fill="#454545" transform="translate(162,37)"/>
</svg>
