<?xml version="1.0" encoding="UTF-8" standalone="no"?>
<!DOCTYPE svg PUBLIC "-//W3C//DTD SVG 1.1//EN" "http://www.w3.org/Graphics/SVG/1.1/DTD/svg11.dtd">
<svg width="100%" height="100%" viewBox="0 0 372 369" version="1.1" xmlns="http://www.w3.org/2000/svg" xmlns:xlink="http://www.w3.org/1999/xlink" xml:space="preserve" xmlns:serif="http://www.serif.com/" style="fill-rule:evenodd;clip-rule:evenodd;">
    <g id="Artboard1" transform="matrix(1,0,0,1,-27.02,-27.02)">
        <rect x="27.02" y="27.02" width="371.998" height="368.159" style="fill:none;"/>
        <g id="figure_1" transform="matrix(1,0,0,1,0.02,0.02)">
            <g id="axes_1" transform="matrix(1,0,0,1,9.194035,0.470644)">
                <g id="patch_2">
                </g>
                <g id="PolyCollection_1" transform="matrix(1,0,0,1,-20.096535,0.389356)">
                    <path d="M268.345,195.143L242.386,157.15L226.903,215.14L268.345,195.143Z" style="fill:rgb(184,201,246);fill-rule:nonzero;stroke:black;stroke-width:0.35px;stroke-dasharray:0.709,0.709,0.709,0.709,0.709,0;"/>
                    <path d="M98.052,215.14L55.102,215.14L92.684,252.721L98.052,215.14Z" style="fill:none;fill-rule:nonzero;stroke:black;stroke-width:0.35px;"/>
                    <path d="M141.002,215.14L122.32,173.371L98.052,215.14L141.002,215.14Z" style="fill:none;fill-rule:nonzero;stroke:black;stroke-width:0.35px;"/>
                    <path d="M141.002,215.14L183.952,170.866L122.32,173.371L141.002,215.14Z" style="fill:rgb(109,149,255);fill-rule:nonzero;stroke:black;stroke-width:0.35px;"/>
                    <path d="M291.327,120.994L250.939,117.526L242.386,157.15L291.327,120.994Z" style="fill:rgb(184,201,246);fill-rule:nonzero;stroke:black;stroke-width:0.35px;stroke-dasharray:0.709,0.709,0.709,0.709,0.709,0;"/>
                    <path d="M250.939,117.526L226.903,43.34L212.322,105.201L250.939,117.526Z" style="fill:rgb(109,149,255);fill-rule:nonzero;stroke:black;stroke-width:0.35px;"/>
                    <path d="M183.952,361.539L145.045,330.296L141.002,386.94L183.952,361.539Z" style="fill:none;fill-rule:nonzero;stroke:black;stroke-width:0.35px;"/>
                    <path d="M55.102,215.14L76.578,172.19L55.102,129.24L55.102,215.14Z" style="fill:none;fill-rule:nonzero;stroke:black;stroke-width:0.35px;"/>
                    <path d="M183.952,170.866L141.002,215.14L183.952,213.836L183.952,170.866Z" style="fill:rgb(109,149,255);fill-rule:nonzero;stroke:black;stroke-width:0.35px;"/>
                    <path d="M55.102,301.04L92.684,252.721L55.102,258.09L55.102,301.04Z" style="fill:none;fill-rule:nonzero;stroke:black;stroke-width:0.35px;"/>
                    <path d="M212.322,105.201L151.775,138.635L183.952,170.866L212.322,105.201Z" style="fill:rgb(109,149,255);fill-rule:nonzero;stroke:black;stroke-width:0.35px;"/>
                    <path d="M160.727,290.625L141.002,215.14L119.528,279.565L160.727,290.625Z" style="fill:none;fill-rule:nonzero;stroke:black;stroke-width:0.35px;"/>
                    <path d="M92.684,252.721L55.102,215.14L55.102,258.09L92.684,252.721Z" style="fill:none;fill-rule:nonzero;stroke:black;stroke-width:0.35px;"/>
                    <path d="M332.83,321.068L350.02,259.264L309.413,248.807L332.83,321.068Z" style="fill:rgb(109,149,255);fill-rule:nonzero;stroke:black;stroke-width:0.35px;"/>
                    <path d="M160.727,290.625L183.952,213.836L141.002,215.14L160.727,290.625Z" style="fill:rgb(109,149,255);fill-rule:nonzero;stroke:black;stroke-width:0.35px;"/>
                    <path d="M226.903,215.14L183.952,170.866L183.952,213.836L226.903,215.14Z" style="fill:rgb(184,201,246);fill-rule:nonzero;stroke:black;stroke-width:0.35px;stroke-dasharray:0.709,0.709,0.709,0.709,0.709,0;"/>
                    <path d="M202.926,296.871L231.638,260.911L183.952,213.836L202.926,296.871Z" style="fill:rgb(109,149,255);fill-rule:nonzero;stroke:black;stroke-width:0.35px;"/>
                    <path d="M145.045,330.296L93.042,307.483L98.052,365.465L145.045,330.296Z" style="fill:none;fill-rule:nonzero;stroke:black;stroke-width:0.35px;"/>
                    <path d="M55.102,86.29L106.106,130.582L98.052,64.815L55.102,86.29Z" style="fill:none;fill-rule:nonzero;stroke:black;stroke-width:0.35px;"/>
                    <path d="M151.775,138.635L212.322,105.201L141.7,94.22L151.775,138.635Z" style="fill:rgb(109,149,255);fill-rule:nonzero;stroke:black;stroke-width:0.35px;"/>
                    <path d="M122.32,173.371L183.952,170.866L151.775,138.635L122.32,173.371Z" style="fill:rgb(109,149,255);fill-rule:nonzero;stroke:black;stroke-width:0.35px;"/>
                    <path d="M55.102,215.14L98.052,215.14L76.578,172.19L55.102,215.14Z" style="fill:none;fill-rule:nonzero;stroke:black;stroke-width:0.35px;"/>
                    <path d="M106.106,130.582L151.775,138.635L141.7,94.22L106.106,130.582Z" style="fill:none;fill-rule:nonzero;stroke:black;stroke-width:0.35px;"/>
                    <path d="M55.102,129.24L76.578,172.19L106.106,130.582L55.102,129.24Z" style="fill:none;fill-rule:nonzero;stroke:black;stroke-width:0.35px;"/>
                    <path d="M122.32,173.371L106.106,130.582L76.578,172.19L122.32,173.371Z" style="fill:none;fill-rule:nonzero;stroke:black;stroke-width:0.35px;"/>
                    <path d="M55.102,43.34L55.102,86.29L98.052,64.815L55.102,43.34Z" style="fill:none;fill-rule:nonzero;stroke:black;stroke-width:0.35px;"/>
                    <path d="M98.052,215.14L122.32,173.371L76.578,172.19L98.052,215.14Z" style="fill:none;fill-rule:nonzero;stroke:black;stroke-width:0.35px;"/>
                    <path d="M92.684,252.721L141.002,215.14L98.052,215.14L92.684,252.721Z" style="fill:none;fill-rule:nonzero;stroke:black;stroke-width:0.35px;"/>
                    <path d="M98.052,365.465L93.042,307.483L55.102,343.99L98.052,365.465Z" style="fill:none;fill-rule:nonzero;stroke:black;stroke-width:0.35px;"/>
                    <path d="M55.102,43.34L98.052,64.815L141.002,43.34L55.102,43.34Z" style="fill:none;fill-rule:nonzero;stroke:black;stroke-width:0.35px;"/>
                    <path d="M268.345,195.143L275.793,273.865L309.413,248.807L268.345,195.143Z" style="fill:rgb(184,201,246);fill-rule:nonzero;stroke:black;stroke-width:0.35px;stroke-dasharray:0.709,0.709,0.709,0.709,0.709,0;"/>
                    <path d="M183.952,65.865L141.7,94.22L212.322,105.201L183.952,65.865Z" style="fill:rgb(109,149,255);fill-rule:nonzero;stroke:black;stroke-width:0.35px;"/>
                    <path d="M92.684,252.721L55.102,301.04L93.042,307.483L92.684,252.721Z" style="fill:none;fill-rule:nonzero;stroke:black;stroke-width:0.35px;"/>
                    <path d="M141.7,94.22L98.052,64.815L106.106,130.582L141.7,94.22Z" style="fill:none;fill-rule:nonzero;stroke:black;stroke-width:0.35px;"/>
                    <path d="M141.002,215.14L92.684,252.721L119.528,279.565L141.002,215.14Z" style="fill:none;fill-rule:nonzero;stroke:black;stroke-width:0.35px;"/>
                    <path d="M183.952,361.539L214.112,335.27L145.045,330.296L183.952,361.539Z" style="fill:none;fill-rule:nonzero;stroke:black;stroke-width:0.35px;"/>
                    <path d="M119.528,279.565L93.042,307.483L145.045,330.296L119.528,279.565Z" style="fill:none;fill-rule:nonzero;stroke:black;stroke-width:0.35px;"/>
                    <path d="M355.273,216.142L374.132,172.19L312.803,207.013L355.273,216.142Z" style="fill:rgb(109,149,255);fill-rule:nonzero;stroke:black;stroke-width:0.35px;"/>
                    <path d="M323.043,87.969L269.853,43.34L291.327,120.994L323.043,87.969Z" style="fill:rgb(109,149,255);fill-rule:nonzero;stroke:black;stroke-width:0.35px;"/>
                    <path d="M307.718,349.413L269.853,348.89L312.803,386.94L307.718,349.413Z" style="fill:none;fill-rule:nonzero;stroke:black;stroke-width:0.35px;"/>
                    <path d="M368.801,86.29L323.043,87.969L344.44,132.608L368.801,86.29Z" style="fill:none;fill-rule:nonzero;stroke:black;stroke-width:0.35px;"/>
                    <path d="M183.952,65.865L212.322,105.201L226.903,43.34L183.952,65.865Z" style="fill:rgb(109,149,255);fill-rule:nonzero;stroke:black;stroke-width:0.35px;"/>
                    <path d="M242.386,157.15L183.952,170.866L226.903,215.14L242.386,157.15Z" style="fill:rgb(184,201,246);fill-rule:nonzero;stroke:black;stroke-width:0.35px;stroke-dasharray:0.709,0.709,0.709,0.709,0.709,0;"/>
                    <path d="M212.322,105.201L183.952,170.866L242.386,157.15L212.322,105.201Z" style="fill:rgb(184,201,246);fill-rule:nonzero;stroke:black;stroke-width:0.35px;stroke-dasharray:0.709,0.709,0.709,0.709,0.709,0;"/>
                    <path d="M268.345,195.143L231.638,260.911L275.793,273.865L268.345,195.143Z" style="fill:rgb(184,201,246);fill-rule:nonzero;stroke:black;stroke-width:0.35px;stroke-dasharray:0.709,0.709,0.709,0.709,0.709,0;"/>
                    <path d="M398.702,215.14L398.702,129.24L374.132,172.19L398.702,215.14Z" style="fill:none;fill-rule:nonzero;stroke:black;stroke-width:0.35px;"/>
                    <path d="M226.903,43.34L141.002,43.34L183.952,65.865L226.903,43.34Z" style="fill:none;fill-rule:nonzero;stroke:black;stroke-width:0.35px;"/>
                    <path d="M92.684,252.721L93.042,307.483L119.528,279.565L92.684,252.721Z" style="fill:none;fill-rule:nonzero;stroke:black;stroke-width:0.35px;"/>
                    <path d="M55.102,343.99L93.042,307.483L55.102,301.04L55.102,343.99Z" style="fill:none;fill-rule:nonzero;stroke:black;stroke-width:0.35px;"/>
                    <path d="M202.926,296.871L160.727,290.625L145.045,330.296L202.926,296.871Z" style="fill:none;fill-rule:nonzero;stroke:black;stroke-width:0.35px;"/>
                    <path d="M55.102,386.94L98.052,365.465L55.102,343.99L55.102,386.94Z" style="fill:none;fill-rule:nonzero;stroke:black;stroke-width:0.35px;"/>
                    <path d="M141.002,386.94L145.045,330.296L98.052,365.465L141.002,386.94Z" style="fill:none;fill-rule:nonzero;stroke:black;stroke-width:0.35px;"/>
                    <path d="M55.102,386.94L141.002,386.94L98.052,365.465L55.102,386.94Z" style="fill:none;fill-rule:nonzero;stroke:black;stroke-width:0.35px;"/>
                    <path d="M141.002,386.94L226.903,386.94L183.952,361.539L141.002,386.94Z" style="fill:none;fill-rule:nonzero;stroke:black;stroke-width:0.35px;"/>
                    <path d="M355.752,364.018L398.702,343.99L332.83,321.068L355.752,364.018Z" style="fill:none;fill-rule:nonzero;stroke:black;stroke-width:0.35px;"/>
                    <path d="M183.952,213.836L160.727,290.625L202.926,296.871L183.952,213.836Z" style="fill:rgb(109,149,255);fill-rule:nonzero;stroke:black;stroke-width:0.35px;"/>
                    <path d="M119.528,279.565L145.045,330.296L160.727,290.625L119.528,279.565Z" style="fill:none;fill-rule:nonzero;stroke:black;stroke-width:0.35px;"/>
                    <path d="M268.345,195.143L300.359,164.43L242.386,157.15L268.345,195.143Z" style="fill:rgb(184,201,246);fill-rule:nonzero;stroke:black;stroke-width:0.35px;stroke-dasharray:0.709,0.709,0.709,0.709,0.709,0;"/>
                    <path d="M226.903,43.34L250.939,117.526L269.853,43.34L226.903,43.34Z" style="fill:rgb(109,149,255);fill-rule:nonzero;stroke:black;stroke-width:0.35px;"/>
                    <path d="M141.7,94.22L183.952,65.865L141.002,43.34L141.7,94.22Z" style="fill:none;fill-rule:nonzero;stroke:black;stroke-width:0.35px;"/>
                    <path d="M98.052,64.815L141.7,94.22L141.002,43.34L98.052,64.815Z" style="fill:none;fill-rule:nonzero;stroke:black;stroke-width:0.35px;"/>
                    <path d="M122.32,173.371L151.775,138.635L106.106,130.582L122.32,173.371Z" style="fill:none;fill-rule:nonzero;stroke:black;stroke-width:0.35px;"/>
                    <path d="M269.853,43.34L250.939,117.526L291.327,120.994L269.853,43.34Z" style="fill:rgb(109,149,255);fill-rule:nonzero;stroke:black;stroke-width:0.35px;"/>
                    <path d="M212.322,105.201L242.386,157.15L250.939,117.526L212.322,105.201Z" style="fill:rgb(184,201,246);fill-rule:nonzero;stroke:black;stroke-width:0.35px;stroke-dasharray:0.709,0.709,0.709,0.709,0.709,0;"/>
                    <path d="M268.345,195.143L226.903,215.14L231.638,260.911L268.345,195.143Z" style="fill:rgb(184,201,246);fill-rule:nonzero;stroke:black;stroke-width:0.35px;stroke-dasharray:0.709,0.709,0.709,0.709,0.709,0;"/>
                    <path d="M300.359,164.43L268.345,195.143L312.803,207.013L300.359,164.43Z" style="fill:rgb(184,201,246);fill-rule:nonzero;stroke:black;stroke-width:0.35px;stroke-dasharray:0.709,0.709,0.709,0.709,0.709,0;"/>
                    <path d="M374.132,172.19L300.359,164.43L312.803,207.013L374.132,172.19Z" style="fill:rgb(109,149,255);fill-rule:nonzero;stroke:black;stroke-width:0.35px;"/>
                    <path d="M242.386,157.15L300.359,164.43L291.327,120.994L242.386,157.15Z" style="fill:rgb(184,201,246);fill-rule:nonzero;stroke:black;stroke-width:0.35px;stroke-dasharray:0.709,0.709,0.709,0.709,0.709,0;"/>
                    <path d="M398.702,129.24L368.801,86.29L344.44,132.608L398.702,129.24Z" style="fill:none;fill-rule:nonzero;stroke:black;stroke-width:0.35px;"/>
                    <path d="M344.44,132.608L291.327,120.994L300.359,164.43L344.44,132.608Z" style="fill:rgb(109,149,255);fill-rule:nonzero;stroke:black;stroke-width:0.35px;"/>
                    <path d="M398.702,129.24L398.702,43.34L368.801,86.29L398.702,129.24Z" style="fill:none;fill-rule:nonzero;stroke:black;stroke-width:0.35px;"/>
                    <path d="M398.702,129.24L344.44,132.608L374.132,172.19L398.702,129.24Z" style="fill:none;fill-rule:nonzero;stroke:black;stroke-width:0.35px;"/>
                    <path d="M374.132,172.19L344.44,132.608L300.359,164.43L374.132,172.19Z" style="fill:rgb(109,149,255);fill-rule:nonzero;stroke:black;stroke-width:0.35px;"/>
                    <path d="M312.803,43.34L323.043,87.969L355.752,43.34L312.803,43.34Z" style="fill:none;fill-rule:nonzero;stroke:black;stroke-width:0.35px;"/>
                    <path d="M368.801,86.29L355.752,43.34L323.043,87.969L368.801,86.29Z" style="fill:none;fill-rule:nonzero;stroke:black;stroke-width:0.35px;"/>
                    <path d="M269.853,43.34L323.043,87.969L312.803,43.34L269.853,43.34Z" style="fill:none;fill-rule:nonzero;stroke:black;stroke-width:0.35px;"/>
                    <path d="M368.801,86.29L398.702,43.34L355.752,43.34L368.801,86.29Z" style="fill:none;fill-rule:nonzero;stroke:black;stroke-width:0.35px;"/>
                    <path d="M344.44,132.608L323.043,87.969L291.327,120.994L344.44,132.608Z" style="fill:rgb(109,149,255);fill-rule:nonzero;stroke:black;stroke-width:0.35px;"/>
                    <path d="M312.803,386.94L269.853,348.89L226.903,386.94L312.803,386.94Z" style="fill:none;fill-rule:nonzero;stroke:black;stroke-width:0.35px;"/>
                    <path d="M249.927,309.564L231.638,260.911L202.926,296.871L249.927,309.564Z" style="fill:rgb(109,149,255);fill-rule:nonzero;stroke:black;stroke-width:0.35px;"/>
                    <path d="M183.952,213.836L231.638,260.911L226.903,215.14L183.952,213.836Z" style="fill:rgb(184,201,246);fill-rule:nonzero;stroke:black;stroke-width:0.35px;stroke-dasharray:0.709,0.709,0.709,0.709,0.709,0;"/>
                    <path d="M214.112,335.27L249.927,309.564L202.926,296.871L214.112,335.27Z" style="fill:none;fill-rule:nonzero;stroke:black;stroke-width:0.35px;"/>
                    <path d="M307.718,349.413L332.83,321.068L275.793,273.865L307.718,349.413Z" style="fill:rgb(109,149,255);fill-rule:nonzero;stroke:black;stroke-width:0.35px;"/>
                    <path d="M226.903,386.94L269.853,348.89L214.112,335.27L226.903,386.94Z" style="fill:none;fill-rule:nonzero;stroke:black;stroke-width:0.35px;"/>
                    <path d="M145.045,330.296L214.112,335.27L202.926,296.871L145.045,330.296Z" style="fill:none;fill-rule:nonzero;stroke:black;stroke-width:0.35px;"/>
                    <path d="M226.903,386.94L214.112,335.27L183.952,361.539L226.903,386.94Z" style="fill:none;fill-rule:nonzero;stroke:black;stroke-width:0.35px;"/>
                    <path d="M355.752,364.018L332.83,321.068L307.718,349.413L355.752,364.018Z" style="fill:none;fill-rule:nonzero;stroke:black;stroke-width:0.35px;"/>
                    <path d="M249.927,309.564L275.793,273.865L231.638,260.911L249.927,309.564Z" style="fill:rgb(109,149,255);fill-rule:nonzero;stroke:black;stroke-width:0.35px;"/>
                    <path d="M214.112,335.27L269.853,348.89L249.927,309.564L214.112,335.27Z" style="fill:none;fill-rule:nonzero;stroke:black;stroke-width:0.35px;"/>
                    <path d="M249.927,309.564L269.853,348.89L307.718,349.413L249.927,309.564Z" style="fill:none;fill-rule:nonzero;stroke:black;stroke-width:0.35px;"/>
                    <path d="M350.02,259.264L398.702,258.09L355.273,216.142L350.02,259.264Z" style="fill:none;fill-rule:nonzero;stroke:black;stroke-width:0.35px;"/>
                    <path d="M350.02,259.264L332.83,321.068L361.077,295.632L350.02,259.264Z" style="fill:none;fill-rule:nonzero;stroke:black;stroke-width:0.35px;"/>
                    <path d="M307.718,349.413L275.793,273.865L249.927,309.564L307.718,349.413Z" style="fill:rgb(109,149,255);fill-rule:nonzero;stroke:black;stroke-width:0.35px;"/>
                    <path d="M355.752,364.018L307.718,349.413L312.803,386.94L355.752,364.018Z" style="fill:none;fill-rule:nonzero;stroke:black;stroke-width:0.35px;"/>
                    <path d="M312.803,386.94L398.702,386.94L355.752,364.018L312.803,386.94Z" style="fill:none;fill-rule:nonzero;stroke:black;stroke-width:0.35px;"/>
                    <path d="M398.702,343.99L398.702,301.04L361.077,295.632L398.702,343.99Z" style="fill:none;fill-rule:nonzero;stroke:black;stroke-width:0.35px;"/>
                    <path d="M355.273,216.142L398.702,258.09L398.702,215.14L355.273,216.142Z" style="fill:none;fill-rule:nonzero;stroke:black;stroke-width:0.35px;"/>
                    <path d="M355.752,364.018L398.702,386.94L398.702,343.99L355.752,364.018Z" style="fill:none;fill-rule:nonzero;stroke:black;stroke-width:0.35px;"/>
                    <path d="M350.02,259.264L355.273,216.142L309.413,248.807L350.02,259.264Z" style="fill:rgb(109,149,255);fill-rule:nonzero;stroke:black;stroke-width:0.35px;"/>
                    <path d="M398.702,343.99L361.077,295.632L332.83,321.068L398.702,343.99Z" style="fill:none;fill-rule:nonzero;stroke:black;stroke-width:0.35px;"/>
                    <path d="M398.702,258.09L361.077,295.632L398.702,301.04L398.702,258.09Z" style="fill:none;fill-rule:nonzero;stroke:black;stroke-width:0.35px;"/>
                    <path d="M374.132,172.19L355.273,216.142L398.702,215.14L374.132,172.19Z" style="fill:none;fill-rule:nonzero;stroke:black;stroke-width:0.35px;"/>
                    <path d="M361.077,295.632L398.702,258.09L350.02,259.264L361.077,295.632Z" style="fill:none;fill-rule:nonzero;stroke:black;stroke-width:0.35px;"/>
                    <path d="M309.413,248.807L355.273,216.142L312.803,207.013L309.413,248.807Z" style="fill:rgb(109,149,255);fill-rule:nonzero;stroke:black;stroke-width:0.35px;"/>
                    <path d="M268.345,195.143L309.413,248.807L312.803,207.013L268.345,195.143Z" style="fill:rgb(184,201,246);fill-rule:nonzero;stroke:black;stroke-width:0.35px;stroke-dasharray:0.709,0.709,0.709,0.709,0.709,0;"/>
                    <path d="M332.83,321.068L309.413,248.807L275.793,273.865L332.83,321.068Z" style="fill:rgb(109,149,255);fill-rule:nonzero;stroke:black;stroke-width:0.35px;"/>
                    <path d="M55.102,129.24L106.106,130.582L55.102,86.29L55.102,129.24Z" style="fill:none;fill-rule:nonzero;stroke:black;stroke-width:0.35px;"/>
                    <g transform="matrix(0.149137,0,0,0.149137,249.053643,187.809193)">
                        <g transform="matrix(1,0,0,1,-51.5,-65.5)">
                            <g transform="matrix(1,0,0,1,58.875,41.25)">
                                <path d="M0,0C4.521,3.499 7.338,8.388 9.125,13.75C10.561,26.582 4.143,35.698 -2.535,46.016C-4.551,49.158 -6.275,52.373 -7.875,55.75L4.125,55.75C4.785,52.78 5.445,49.81 6.125,46.75L10.125,46.75C10.008,48.105 9.881,49.459 9.75,50.812C9.646,51.944 9.646,51.944 9.539,53.098C9.028,56.375 8.036,59.561 7.125,62.75L-11.875,62.75C-12.853,57.858 -12.508,55.056 -11.25,50.438C-11.07,49.74 -10.891,49.042 -10.706,48.323C-9.756,44.714 -8.704,41.166 -7.492,37.637C-4.103,27.758 -1.021,17.212 -5.562,7.125C-8.485,2.309 -12.458,-0.702 -17.875,-2.25C-23.838,-2.925 -27.987,-1.53 -32.875,1.75C-37.402,6.396 -39.171,11.058 -39.312,17.5C-39.197,25.345 -36.948,32.218 -34.555,39.607C-33.47,43.027 -32.504,46.476 -31.562,49.938C-31.073,51.691 -31.073,51.691 -30.574,53.48C-29.875,56.75 -29.875,56.75 -29.875,62.75L-49.875,62.75C-52.875,50.125 -52.875,50.125 -52.875,46.75L-48.875,46.75C-47.885,49.39 -46.895,52.03 -45.875,54.75C-42.245,55.08 -38.615,55.41 -34.875,55.75C-40.08,45.546 -40.08,45.546 -46.188,35.875C-50.724,29.286 -52.633,22.713 -51.875,14.75C-50.475,7.736 -46.432,3.086 -40.875,-1.25C-27.704,-8.742 -12.793,-8.134 0,0Z" style="fill:rgb(49,49,49);fill-rule:nonzero;"/>
                            </g>
                            <g transform="matrix(1,0,0,1,89,88)">
                                <path d="M0,0C1.875,1.188 1.875,1.188 3,3C3.491,8.102 2.075,11.97 0.062,16.562C-1.698,20.66 -3.327,24.559 -4,29C-0.501,27.603 0.709,26.287 2.25,22.875C2.753,21.788 2.753,21.788 3.266,20.68C3.508,20.125 3.75,19.571 4,19C4.99,19.33 5.98,19.66 7,20C6.547,24.867 5.355,27.442 2,31C-1.092,32.546 -3.594,32.294 -7,32C-9.5,30.438 -9.5,30.438 -11,28C-11.128,21.995 -8.417,16.659 -6.156,11.184C-5.037,8.101 -4.429,5.244 -4,2C-7.394,5.126 -9.606,7.565 -11,12C-12.32,11.67 -13.64,11.34 -15,11C-13.746,6.505 -12.214,3.409 -9,0C-5.45,-1.183 -3.6,-0.9 0,0Z" style="fill:rgb(59,59,59);fill-rule:nonzero;"/>
                            </g>
                            <g transform="matrix(1,0,0,1,39.5625,12.5625)">
                                <path d="M0,0C4.57,2.729 7.134,3.195 12.438,2.438C14.586,1.558 16.568,0.569 18.578,-0.59C20.517,-1.604 22.303,-2.114 24.438,-2.562L24.438,0.438C22.828,1.973 22.828,1.973 20.688,3.5C19.991,4.007 19.295,4.513 18.578,5.035C12.901,8.754 8.193,9.371 1.438,8.438C-1.066,7.353 -3.267,6.067 -5.582,4.629C-9.074,2.528 -11.818,2.034 -15.789,2.953C-19.995,4.241 -23.07,5.751 -26.562,8.438C-27.552,8.107 -28.543,7.777 -29.562,7.438C-26.102,2.391 -21.427,-1.302 -15.574,-3.211C-9.815,-4.217 -4.934,-3.014 0,0Z" style="fill:rgb(48,48,48);fill-rule:nonzero;"/>
                            </g>
                            <g transform="matrix(1,0,0,1,65,88)">
                                <path d="M0,0L4,0C3.883,1.355 3.756,2.709 3.625,4.062C3.555,4.817 3.486,5.571 3.414,6.348C2.903,9.625 1.911,12.811 1,16L-18,16C-17.67,12.7 -17.34,9.4 -17,6L-14,6L-14,9L-2,9C-1.34,6.03 -0.68,3.06 0,0Z" style="fill:rgb(21,21,21);fill-rule:nonzero;"/>
                            </g>
                            <g transform="matrix(1,0,0,1,6,88)">
                                <path d="M0,0L4,0C5.316,3.62 6,6.096 6,10L19,10C19.33,9.01 19.66,8.02 20,7L21,7C21.33,9.97 21.66,12.94 22,16L3,16C0,3.375 0,3.375 0,0Z" style="fill:rgb(3,3,3);fill-rule:nonzero;"/>
                            </g>
                            <g transform="matrix(1,0,0,1,93,107)">
                                <path d="M0,0C0.99,0.33 1.98,0.66 3,1C2.547,5.867 1.355,8.442 -2,12C-4.957,13.478 -7.742,13.06 -11,13C-9.412,11.253 -8.22,10.094 -6.031,9.156C-3.518,7.726 -2.928,6.483 -1.75,3.875C-1.415,3.151 -1.08,2.426 -0.734,1.68C-0.492,1.125 -0.25,0.571 0,0Z" style="fill:rgb(99,99,99);fill-rule:nonzero;"/>
                            </g>
                            <g transform="matrix(1,0,0,1,93.25,71.875)">
                                <path d="M0,0C0.866,0.557 0.866,0.557 1.75,1.125C1.42,2.775 1.09,4.425 0.75,6.125C-1.241,6.506 -3.243,6.838 -5.25,7.125C-6.25,6.125 -6.25,6.125 -6.312,3.562C-6.292,2.758 -6.271,1.954 -6.25,1.125C-2.804,-1.09 -2.804,-1.09 0,0Z" style="fill:rgb(71,71,71);fill-rule:nonzero;"/>
                            </g>
                            <g transform="matrix(1,0,0,1,80,88)">
                                <path d="M0,0C0.66,0.33 1.32,0.66 2,1C2,4.196 1.453,5.417 0,8.188C-0.371,8.903 -0.743,9.618 -1.125,10.355C-1.414,10.898 -1.702,11.441 -2,12C-3.32,11.67 -4.64,11.34 -6,11C-4.742,6.492 -3.096,3.509 0,0Z" style="fill:rgb(117,117,117);fill-rule:nonzero;"/>
                            </g>
                            <g transform="matrix(1,0,0,1,6,88)">
                                <path d="M0,0L4,0C4.66,2.64 5.32,5.28 6,8C5.01,7.67 4.02,7.34 3,7C3.33,9.97 3.66,12.94 4,16C1.725,12.588 1.434,10.343 0.875,6.312C0.707,5.133 0.54,3.954 0.367,2.738C0.246,1.835 0.125,0.931 0,0Z" style="fill:rgb(116,116,116);fill-rule:nonzero;"/>
                            </g>
                            <g transform="matrix(1,0,0,1,65,88)">
                                <path d="M0,0L4,0C3.52,5.569 2.701,10.671 1,16C-0.231,12.306 0.356,9.794 1,6L-1,6C-0.67,4.02 -0.34,2.04 0,0Z" style="fill:rgb(120,120,120);fill-rule:nonzero;"/>
                            </g>
                            <g transform="matrix(1,0,0,1,63.25,10.3125)">
                                <path d="M0,0C0.866,0.34 0.866,0.34 1.75,0.688C-1.875,5.562 -1.875,5.562 -5.25,6.688C-5.58,5.367 -5.91,4.048 -6.25,2.688C-2.804,-0.389 -2.804,-0.389 0,0Z" style="fill:rgb(82,82,82);fill-rule:nonzero;"/>
                            </g>
                            <g transform="matrix(1,0,0,1,18,12)">
                                <path d="M0,0C0.66,0.33 1.32,0.66 2,1C-0.106,3.949 -2.394,6.484 -5,9C-5.99,8.67 -6.98,8.34 -8,8C-5.584,4.808 -3.32,2.253 0,0Z" style="fill:rgb(67,67,67);fill-rule:nonzero;"/>
                            </g>
                            <g transform="matrix(1,0,0,1,93,107)">
                                <path d="M0,0C0.99,0.33 1.98,0.66 3,1C2.538,5.157 2.12,7.215 -1,10C-1.027,8.521 -1.046,7.042 -1.062,5.562C-1.074,4.739 -1.086,3.915 -1.098,3.066C-1,1 -1,1 0,0Z" style="fill:rgb(110,110,110);fill-rule:nonzero;"/>
                            </g>
                            <g transform="matrix(1,0,0,1,77,94)">
                                <path d="M0,0L1,0L1,6C-0.32,5.67 -1.64,5.34 -3,5C-1.125,1.125 -1.125,1.125 0,0Z" style="fill:rgb(89,89,89);fill-rule:nonzero;"/>
                            </g>
                        </g>
                    </g>
                    <g transform="matrix(0.153751,0,0,0.153751,308.591469,317.82778)">
                        <g transform="matrix(1,0,0,1,-57.5,-53)">
                            <g transform="matrix(1,0,0,1,65.875,20.25)">
                                <path d="M0,0C4.722,3.667 7.978,8.888 9.125,14.75C10.194,26.94 3.865,36.238 -2.535,46.051C-4.561,49.177 -6.281,52.378 -7.875,55.75L4.125,55.75C4.785,52.78 5.445,49.81 6.125,46.75L10.125,46.75C9.816,48.855 9.502,50.959 9.188,53.062C9.013,54.234 8.839,55.406 8.66,56.613C8.125,59.75 8.125,59.75 7.125,62.75L-11.875,62.75C-14.316,55.428 -9.972,45.895 -7.513,38.786C-4.188,29.079 -1.062,18.372 -4.789,8.273C-5.927,6.188 -5.927,6.188 -7.875,3.75L-7.875,1.75C-8.597,1.461 -9.319,1.173 -10.062,0.875C-11.813,0.175 -13.547,-0.568 -15.25,-1.375C-20.251,-3.042 -24.321,-2.739 -29.062,-0.562C-34.325,2.328 -36.968,6.117 -38.875,11.75C-40.14,21.934 -37.801,30.227 -34.555,39.669C-33.395,43.217 -32.47,46.818 -31.562,50.438C-31.306,51.426 -31.306,51.426 -31.044,52.435C-30.138,56.078 -29.875,58.923 -29.875,62.75L-49.875,62.75C-50.865,57.47 -51.855,52.19 -52.875,46.75L-48.875,46.75C-47.885,49.39 -46.895,52.03 -45.875,54.75C-42.245,55.08 -38.615,55.41 -34.875,55.75C-37.78,49.653 -40.767,43.761 -44.5,38.125C-48.943,31.288 -53.073,24.133 -51.875,15.75C-49.844,7.586 -45.854,2.403 -38.875,-2.25C-26.168,-9.076 -11.995,-7.626 0,0Z" style="fill:rgb(1,1,1);fill-rule:nonzero;"/>
                            </g>
                            <g transform="matrix(1,0,0,1,96,66)">
                                <path d="M0,0C1.938,1.062 1.938,1.062 3,3C3,9.519 0.617,14.976 -1.844,20.949C-2.869,23.655 -3.535,26.152 -4,29C0.511,26.805 2.063,24.588 4,20L7,20C6.469,24.517 4.71,27.387 2,31C-1.129,32.564 -3.556,32.356 -7,32C-9.5,29.875 -9.5,29.875 -11,27C-10.59,21.916 -8.792,17.448 -6.938,12.75C-4.847,8.009 -4.847,8.009 -4,3C-8.662,4.498 -9.866,7.885 -12,12C-12.99,11.67 -13.98,11.34 -15,11C-13.746,6.505 -12.214,3.409 -9,0C-5.45,-1.183 -3.6,-0.9 0,0Z" style="fill:rgb(2,2,2);fill-rule:nonzero;"/>
                            </g>
                            <g transform="matrix(1,0,0,1,101,50)">
                                <path d="M0,0C0.875,1.875 0.875,1.875 1,4C-0.125,5.812 -0.125,5.812 -2,7C-4.688,6.688 -4.688,6.688 -7,6L-7,1C-3.375,-1.125 -3.375,-1.125 0,0Z" style="fill:rgb(1,1,1);fill-rule:nonzero;"/>
                            </g>
                        </g>
                    </g>
                </g>
                <g id="patch_4">
                </g>
            </g>
        </g>
    </g>
</svg>
